<svg width="18" height="20" viewBox="0 0 18 20" fill="none" xmlns="http://www.w3.org/2000/svg">
<g>
<path d="M3.91719 17.5001H0.289062V5.81647H3.91719V17.5001ZM2.10117 4.22272C0.941016 4.22272 0 3.26179 0 2.10163C8.3039e-09 1.54437 0.221373 1.00993 0.615419 0.61588C1.00947 0.221834 1.54391 0.000461578 2.10117 0.000461578C2.65844 0.000461578 3.19288 0.221834 3.58692 0.61588C3.98097 1.00993 4.20234 1.54437 4.20234 2.10163C4.20234 3.26179 3.26094 4.22272 2.10117 4.22272ZM17.4961 17.5001H13.8758V11.8126C13.8758 10.4571 13.8484 8.71882 11.9895 8.71882C10.1031 8.71882 9.81406 10.1915 9.81406 11.7149V17.5001H6.18984V5.81647H9.66953V7.41022H9.72031C10.2047 6.49225 11.3879 5.52351 13.1531 5.52351C16.825 5.52351 17.5 7.94147 17.5 11.0821V17.5001H17.4961Z" fill="black"/>
</g>
</svg>
