<svg width="136" height="43" viewBox="0 0 136 43" fill="none" xmlns="http://www.w3.org/2000/svg">
<g clip-path="url(#clip0)">
<path d="M32.9538 29.4L37.9692 13.8923C38.6769 11.5231 39.8769 10.8462 41.7231 10.8462H51.0769C50.3385 11.1539 49.8461 13.0308 49.8461 13.0308L45.3231 28.6C44.8 30.5693 43.1692 31.5847 41.3231 31.5847H31.4154C32.1846 31.4616 32.9538 29.4 32.9538 29.4ZM18.0615 29.4L13.0462 13.8923C12.3385 11.5231 11.1385 10.8462 9.29232 10.8462H-0.0615234C0.676938 11.1539 1.16925 13.0308 1.16925 13.0308L5.69232 28.6C6.2154 30.5693 7.84617 31.5847 9.69232 31.5847H19.6C18.8308 31.4616 18.0615 29.4 18.0615 29.4Z" fill="#D8213B"/>
<path d="M31.0154 10.9694H20.0308V31.5848H31.0154V10.9694Z" fill="#D8213B"/>
<path d="M136.246 31.3077C134.462 31.7077 132.831 31.9231 131.292 31.9231C128.585 31.9231 126.554 31.2462 125.169 29.8923C123.815 28.5385 123.108 26.8769 123.108 24.9077C123.108 22.8462 123.846 21.1538 125.292 19.8615C126.739 18.5692 128.862 17.9231 131.662 17.9231C132.954 17.9231 134.431 18.1077 136.123 18.4769V21.0923C134.4 20.6 133.015 20.3538 131.969 20.3538C130.492 20.3538 129.415 20.8154 128.739 21.7692C128.062 22.7231 127.723 23.7385 127.723 24.8769C127.723 25.7385 127.939 26.5692 128.308 27.3077C128.708 28.0769 129.262 28.6 129.939 28.9692C130.646 29.3077 131.415 29.4923 132.308 29.4923C133.569 29.4923 134.892 29.2769 136.246 28.8154V31.3077ZM115.077 29.1538C114.554 29.3692 114.062 29.4615 113.539 29.4615C112.985 29.4615 112.492 29.3077 112.062 28.9692C111.631 28.6308 111.446 28.2308 111.446 27.7077C111.446 27.0923 111.785 26.5692 112.462 26.1692C113.139 25.7692 114.215 25.5538 115.6 25.5538H116.615V28.2615C116.092 28.6308 115.569 28.9385 115.077 29.1538ZM116.831 30.1692C117.139 30.8769 117.6 31.3385 118.185 31.5846C118.769 31.8 119.446 31.9231 120.246 31.9231C120.954 31.9231 121.785 31.8 122.677 31.5846L122.615 29.5538C122.369 29.5846 122.185 29.5846 122.031 29.5846C121.754 29.5846 121.477 29.4923 121.231 29.3385C120.954 29.1846 120.831 28.7231 120.831 28.0154V22.0769C120.831 20.9692 120.554 20.1077 120 19.5538C119.446 19 118.677 18.5692 117.754 18.2923C116.831 18.0154 115.754 17.8923 114.585 17.8923C112.646 17.8923 110.677 18.2 108.739 18.8154V21.3077C110.462 20.5077 112.123 20.1077 113.785 20.1077C114.615 20.1077 115.323 20.2615 115.846 20.5385C116.4 20.8154 116.677 21.3692 116.677 22.2V23.4H115.508C112.615 23.4 110.523 23.8308 109.262 24.7231C107.969 25.6154 107.323 26.6923 107.323 28.0154C107.323 29.0923 107.754 30.0154 108.615 30.7538C109.477 31.4923 110.615 31.8615 112.062 31.8615C112.615 31.8615 113.139 31.8 113.631 31.7077C114.123 31.5846 114.615 31.4308 115.077 31.2154C115.539 31 116.062 30.6308 116.708 30.1385H116.831V30.1692ZM95.1078 22.8154C95.6309 22.2 96.2155 21.6769 96.8309 21.3385C97.4463 20.9692 98.0616 20.7846 98.7078 20.7846C99.6924 20.7846 100.462 21.1538 100.985 21.8615C101.508 22.6 101.785 23.5846 101.785 24.8462C101.785 26.0769 101.508 27.1538 100.954 28.1077C100.4 29.0615 99.5386 29.5231 98.4001 29.5231C97.8463 29.5231 97.3232 29.4308 96.8001 29.2154C96.277 29 95.7232 28.6308 95.1078 28.0462V22.8154ZM95.1078 36.4769V30.2308C95.6924 30.7231 96.2155 31.0615 96.6463 31.2769C97.077 31.4923 97.5386 31.6462 98.0309 31.7692C98.5232 31.8615 99.0463 31.9231 99.6001 31.9231C101.754 31.9231 103.385 31.2154 104.585 29.8C105.785 28.3846 106.369 26.6308 106.369 24.5385C106.369 22.5692 105.815 20.9385 104.769 19.7385C103.692 18.5077 102.215 17.9231 100.246 17.9231C99.077 17.9231 98.0616 18.1692 97.2001 18.6308C96.3386 19.1231 95.6309 19.8308 95.077 20.7846V18.2H90.7693V36.4769H95.1078ZM88.7386 31.5538C87.7232 31.8 86.8924 31.9231 86.3078 31.9231C84.8924 31.9231 83.8155 31.7692 83.0155 31.4308C82.2463 31.0923 81.6617 30.6308 81.2617 30.0769C80.8617 29.4923 80.677 28.6615 80.677 27.5538V20.5077H78.8924V18.2308H80.677V15.9231L84.9847 15.4923V18.2H88.4309V20.4769H84.9847V27.0308C84.9847 27.9846 85.2001 28.6308 85.6001 28.9692C86.0001 29.3077 86.6155 29.4615 87.3847 29.4615C87.754 29.4615 88.1847 29.4 88.7078 29.3077V31.5538H88.7386ZM65.6001 31.1846V28.5385C67.754 29.2769 69.5694 29.6462 71.077 29.6462C71.877 29.6462 72.5232 29.4923 73.0155 29.2154C73.5078 28.9385 73.7232 28.5692 73.7232 28.1385C73.7232 27.7385 73.5693 27.4308 73.2001 27.1846C72.8309 26.9385 72.3078 26.6923 71.5386 26.4462L70.0924 25.9538C68.5847 25.4615 67.477 24.9077 66.7386 24.2923C66.0309 23.7077 65.6617 22.9077 65.6617 21.9231C65.6617 20.7538 66.2155 19.8 67.2924 19.0615C68.3694 18.2923 70.0309 17.9231 72.277 17.9231C73.5693 17.9231 75.1386 18.0769 76.954 18.3846V20.8769C75.2001 20.4154 73.7847 20.1692 72.6155 20.1692C71.7232 20.1692 71.0463 20.2923 70.5847 20.5385C70.1232 20.7846 69.9078 21.1231 69.9078 21.5231C69.9078 21.8308 70.0617 22.1385 70.3386 22.3846C70.6155 22.6308 71.1386 22.8461 71.877 23.0923L73.1386 23.4923C75.2309 24.1692 76.5847 24.7846 77.2001 25.4C77.8155 26.0154 78.154 26.7846 78.154 27.6462C78.154 28.7846 77.5693 29.7692 76.4001 30.6C75.2309 31.4615 73.5693 31.8615 71.3232 31.8615C69.477 31.9231 67.5694 31.6769 65.6001 31.1846ZM54.954 21.0615C55.4771 20.4769 56.1847 20.2 57.0155 20.2C57.7847 20.2 58.4001 20.4769 58.8924 20.9692C59.3847 21.4923 59.6309 22.3538 59.6309 23.5538H53.9694C54.0924 22.4769 54.4309 21.6154 54.954 21.0615ZM63.8771 28.6615C62.0617 29.1846 60.4617 29.4615 59.0155 29.4615C57.9078 29.4615 57.0155 29.3077 56.3386 29C55.6617 28.6923 55.1386 28.2923 54.7386 27.7692C54.3386 27.2462 54.0924 26.5385 54.0001 25.6462H63.9078C63.8771 22.6923 63.2309 20.6615 62.0309 19.5538C60.8001 18.4769 59.2001 17.9231 57.1386 17.9231C55.4771 17.9231 54.0617 18.2308 52.9232 18.8462C51.7847 19.4615 50.9232 20.2923 50.3386 21.3692C49.754 22.4462 49.4463 23.5846 49.4463 24.8154C49.4463 26.1692 49.7847 27.4308 50.4924 28.5692C51.2001 29.7077 52.1847 30.5692 53.5078 31.0923C54.8001 31.6461 56.3078 31.9231 58.0617 31.9231C59.9078 31.9231 61.8463 31.6769 63.8771 31.1538V28.6615Z" fill="#515253"/>
</g>
<defs>
<clipPath id="clip0">
<rect width="136" height="43" fill="white"/>
</clipPath>
</defs>
</svg>
