<svg width="136" height="58" viewBox="0 0 136 58" fill="none" xmlns="http://www.w3.org/2000/svg">
<g clip-path="url(#clip0)">
<path d="M32.9538 37.4L37.9692 21.8923C38.6769 19.5231 39.8769 18.8462 41.7231 18.8462H51.0769C50.3385 19.1539 49.8461 21.0308 49.8461 21.0308L45.3231 36.6C44.8 38.5693 43.1692 39.5847 41.3231 39.5847H31.4154C32.1846 39.4616 32.9538 37.4 32.9538 37.4ZM18.0615 37.4L13.0462 21.8923C12.3385 19.5231 11.1385 18.8462 9.29232 18.8462H-0.0615234C0.676938 19.1539 1.16925 21.0308 1.16925 21.0308L5.69232 36.6C6.2154 38.5693 7.84617 39.5847 9.69232 39.5847H19.6C18.8308 39.4616 18.0615 37.4 18.0615 37.4Z" fill="#464646"/>
<path d="M31.0154 18.9692H20.0308V39.5846H31.0154V18.9692Z" fill="#464646"/>
<path d="M136.246 39.3076C134.462 39.7076 132.831 39.923 131.292 39.923C128.585 39.923 126.554 39.246 125.169 37.8922C123.815 36.5383 123.108 34.8768 123.108 32.9076C123.108 30.846 123.846 29.1537 125.292 27.8614C126.738 26.5691 128.862 25.923 131.662 25.923C132.954 25.923 134.431 26.1076 136.123 26.4768V29.0922C134.4 28.5999 133.015 28.3537 131.969 28.3537C130.492 28.3537 129.415 28.8153 128.738 29.7691C128.062 30.723 127.723 31.7383 127.723 32.8768C127.723 33.7383 127.938 34.5691 128.308 35.3076C128.708 36.0768 129.262 36.5999 129.938 36.9691C130.646 37.3076 131.415 37.4922 132.308 37.4922C133.569 37.4922 134.892 37.2768 136.246 36.8153V39.3076ZM115.077 37.1537C114.554 37.3691 114.062 37.4614 113.538 37.4614C112.985 37.4614 112.492 37.3076 112.062 36.9691C111.631 36.6306 111.446 36.2306 111.446 35.7076C111.446 35.0922 111.785 34.5691 112.462 34.1691C113.138 33.7691 114.215 33.5537 115.6 33.5537H116.615V36.2614C116.092 36.6306 115.569 36.9383 115.077 37.1537ZM116.831 38.1691C117.138 38.8768 117.6 39.3383 118.185 39.5845C118.769 39.7999 119.446 39.923 120.246 39.923C120.954 39.923 121.785 39.7999 122.677 39.5845L122.615 37.5537C122.369 37.5845 122.185 37.5845 122.031 37.5845C121.754 37.5845 121.477 37.4922 121.231 37.3383C120.954 37.1845 120.831 36.7229 120.831 36.0153V30.0768C120.831 28.9691 120.554 28.1076 120 27.5537C119.446 26.9999 118.677 26.5691 117.754 26.2922C116.831 26.0153 115.754 25.8922 114.585 25.8922C112.646 25.8922 110.677 26.1999 108.738 26.8153V29.3076C110.462 28.5076 112.123 28.1076 113.785 28.1076C114.615 28.1076 115.323 28.2614 115.846 28.5383C116.4 28.8153 116.677 29.3691 116.677 30.1999V31.3999H115.508C112.615 31.3999 110.523 31.8306 109.262 32.723C107.969 33.6153 107.323 34.6922 107.323 36.0153C107.323 37.0922 107.754 38.0153 108.615 38.7537C109.477 39.4922 110.615 39.8614 112.062 39.8614C112.615 39.8614 113.138 39.7999 113.631 39.7076C114.123 39.5845 114.615 39.4306 115.077 39.2153C115.538 38.9999 116.062 38.6306 116.708 38.1383H116.831V38.1691ZM95.1077 30.8153C95.6308 30.1999 96.2154 29.6768 96.8308 29.3383C97.4462 28.9691 98.0615 28.7845 98.7077 28.7845C99.6923 28.7845 100.462 29.1537 100.985 29.8614C101.508 30.5999 101.785 31.5845 101.785 32.846C101.785 34.0768 101.508 35.1537 100.954 36.1076C100.4 37.0614 99.5385 37.523 98.4 37.523C97.8461 37.523 97.3231 37.4306 96.8 37.2153C96.2769 36.9999 95.7231 36.6306 95.1077 36.046V30.8153ZM95.1077 44.4768V38.2306C95.6923 38.723 96.2154 39.0614 96.6462 39.2768C97.0769 39.4922 97.5385 39.646 98.0308 39.7691C98.5231 39.8614 99.0462 39.923 99.6 39.923C101.754 39.923 103.385 39.2153 104.585 37.7999C105.785 36.3845 106.369 34.6306 106.369 32.5383C106.369 30.5691 105.815 28.9383 104.769 27.7383C103.692 26.5076 102.215 25.923 100.246 25.923C99.0769 25.923 98.0615 26.1691 97.2 26.6306C96.3385 27.123 95.6308 27.8306 95.0769 28.7845V26.1999H90.7692V44.4768H95.1077ZM88.7385 39.5537C87.7231 39.7999 86.8923 39.923 86.3077 39.923C84.8923 39.923 83.8154 39.7691 83.0154 39.4306C82.2462 39.0922 81.6615 38.6306 81.2615 38.0768C80.8615 37.4922 80.6769 36.6614 80.6769 35.5537V28.5076H78.8923V26.2306H80.6769V23.923L84.9846 23.4922V26.1999H88.4308V28.4768H84.9846V35.0306C84.9846 35.9845 85.2 36.6306 85.6 36.9691C86 37.3076 86.6154 37.4614 87.3846 37.4614C87.7538 37.4614 88.1846 37.3999 88.7077 37.3076V39.5537H88.7385ZM65.6 39.1845V36.5383C67.7539 37.2768 69.5692 37.646 71.0769 37.646C71.8769 37.646 72.5231 37.4922 73.0154 37.2153C73.5077 36.9383 73.7231 36.5691 73.7231 36.1383C73.7231 35.7383 73.5692 35.4306 73.2 35.1845C72.8308 34.9383 72.3077 34.6922 71.5385 34.446L70.0923 33.9537C68.5846 33.4614 67.4769 32.9076 66.7385 32.2922C66.0308 31.7076 65.6615 30.9076 65.6615 29.923C65.6615 28.7537 66.2154 27.7999 67.2923 27.0614C68.3692 26.2922 70.0308 25.923 72.2769 25.923C73.5692 25.923 75.1385 26.0768 76.9539 26.3845V28.8768C75.2 28.4153 73.7846 28.1691 72.6154 28.1691C71.7231 28.1691 71.0462 28.2922 70.5846 28.5383C70.1231 28.7845 69.9077 29.123 69.9077 29.523C69.9077 29.8307 70.0615 30.1383 70.3385 30.3845C70.6154 30.6306 71.1385 30.846 71.8769 31.0922L73.1385 31.4922C75.2308 32.1691 76.5846 32.7845 77.2 33.3999C77.8154 34.0153 78.1539 34.7845 78.1539 35.646C78.1539 36.7845 77.5692 37.7691 76.4 38.5999C75.2308 39.4614 73.5692 39.8614 71.3231 39.8614C69.4769 39.923 67.5692 39.6768 65.6 39.1845ZM54.9539 29.0614C55.4769 28.4768 56.1846 28.1999 57.0154 28.1999C57.7846 28.1999 58.4 28.4768 58.8923 28.9691C59.3846 29.4922 59.6308 30.3537 59.6308 31.5537H53.9692C54.0923 30.4768 54.4308 29.6153 54.9539 29.0614ZM63.8769 36.6614C62.0616 37.1845 60.4615 37.4614 59.0154 37.4614C57.9077 37.4614 57.0154 37.3076 56.3385 36.9999C55.6616 36.6922 55.1385 36.2922 54.7385 35.7691C54.3385 35.246 54.0923 34.5383 54 33.646H63.9077C63.8769 30.6922 63.2308 28.6614 62.0308 27.5537C60.8 26.4768 59.2 25.923 57.1385 25.923C55.4769 25.923 54.0616 26.2306 52.9231 26.846C51.7846 27.4614 50.9231 28.2922 50.3385 29.3691C49.7539 30.446 49.4462 31.5845 49.4462 32.8153C49.4462 34.1691 49.7846 35.4306 50.4923 36.5691C51.2 37.7076 52.1846 38.5691 53.5077 39.0922C54.8 39.646 56.3077 39.923 58.0616 39.923C59.9077 39.923 61.8462 39.6768 63.8769 39.1537V36.6614Z" fill="#9C9C9C"/>
</g>
<defs>
<clipPath id="clip0">
<rect width="136" height="58" fill="white"/>
</clipPath>
</defs>
</svg>
