<svg width="162" height="58" viewBox="0 0 162 58" fill="none" xmlns="http://www.w3.org/2000/svg">
<g style="mix-blend-mode:darken">
<g clip-path="url(#clip0)">
<path d="M415.484 10.75H0V230.502H415.484V10.75Z" fill="white"/>
<path d="M415.484 10.75H0V230.502H415.484V10.75Z" fill="white"/>
<path d="M415.484 10.75H0V230.502H415.484V10.75Z" fill="white"/>
<path d="M30.0252 12.86C30.2525 12.2757 30.0577 11.5778 29.7006 11.3019C28.4996 10.4093 27.4122 10.9124 26.6007 11.7888C25.6432 12.8275 24.4097 15.0997 23.8904 15.9436C19.0863 23.7015 15.4184 31.9949 15.4184 31.9949C15.4184 31.9949 14.1525 28.1322 13.9739 25.0648C13.8116 22.1759 13.6818 19.4168 13.552 18.0535C13.5195 17.5179 13.276 16.6577 12.3347 16.3494C11.6044 16.1059 10.5332 16.0248 9.78663 16.3007C9.72171 17.2258 9.68925 17.664 9.29973 18.7676C8.91022 19.855 6.42705 24.6753 6.02131 25.4219C3.86274 29.2521 1.02252 34.0237 0.860218 34.332C0.275943 35.4032 -0.519319 36.8639 0.860218 37.3833C2.23975 37.9026 3.45699 37.6267 4.04127 36.7503C4.15487 36.588 4.31717 36.2634 4.31717 36.2634C4.31717 36.2634 3.91143 35.9388 4.77161 33.9263C5.03129 33.3907 5.32342 32.774 5.66425 32.1086C5.72917 31.9949 5.79409 31.8651 5.87524 31.7353C5.97262 31.5567 6.05377 31.3944 6.10246 31.2484C7.51445 28.4568 9.41334 24.8538 11.085 21.7052C11.0688 23.5392 11.2311 25.8114 11.4745 27.4668C11.864 30.6966 12.6431 32.0436 12.9514 34.6242C12.8865 36.3608 13.0651 36.6529 14.331 37.01C15.5158 37.3346 16.2136 37.01 16.6519 35.9226C18.356 31.6054 23.2899 21.7052 27.4609 16.3169C27.8829 15.7326 29.5383 14.1259 30.0252 12.86ZM68.9769 30.518C69.8046 30.0636 70.1292 29.106 69.4638 28.3108C68.7983 27.5155 67.4999 27.5804 66.9157 27.9375C66.4288 28.2296 65.8607 28.7327 64.189 28.8301C62.6148 28.9113 61.9818 28.2296 60.9755 28.2296C59.8557 28.2296 59.4012 29.0087 58.0217 30.729C57.3238 31.6054 55.7333 33.6179 55.0192 33.6179C54.4025 33.6179 54.1752 31.8489 54.1752 29.5605C54.1752 28.5218 53.7208 27.6778 52.5198 27.759C51.5298 27.8239 51.3675 29.106 50.8481 29.7065C49.3063 31.5081 48.0566 33.2609 47.4236 33.2609C46.6446 33.2609 46.3362 31.5567 46.3362 30.2421C46.3362 30.2421 46.5797 28.1647 44.697 27.8076C43.8855 27.6453 43.0253 28.0998 43.0253 28.0998C43.1065 28.2621 43.1227 28.4244 43.1065 28.5867C42.863 29.4631 41.2401 30.6966 41.2401 30.6966C39.4872 31.9787 35.9978 34.2184 32.8655 34.397C29.1975 34.5917 28.5483 32.6604 28.4185 31.8164C31.5833 30.6479 33.6932 29.3333 35.0565 28.2783C36.5009 27.1585 37.4585 25.9088 37.3774 24.6915C37.2637 23.0523 35.7706 22.4518 34.5858 22.4518C32.0377 22.4518 27.7855 23.5554 25.7568 29.1385C25.3186 29.2846 24.2799 29.2846 23.7281 29.1385C22.9815 28.9437 22.9977 28.6354 22.9977 28.6354C22.2998 28.8139 22.0077 29.1547 21.7643 29.7552C21.3747 30.7128 21.8941 31.5405 22.6894 31.9787C23.2574 32.3033 24.1663 32.4981 25.4484 32.352C25.627 34.0399 26.763 37.1398 32.7681 36.9126C37.5397 36.7341 43.139 32.8064 43.6421 32.4981C43.8531 33.4719 44.5347 36.9937 46.5634 36.9937C48.9979 36.9937 51.5135 33.3583 51.5135 33.3583C51.5135 33.3583 52.1465 37.0262 54.5972 37.0262C56.6422 37.0262 59.2065 33.8451 59.8557 33.0823C60.3913 32.4494 61.43 31.2484 61.9818 31.2484C62.5336 31.151 63.6372 31.8813 66.7696 31.2646C66.8507 31.2159 68.2627 30.9075 68.9769 30.518ZM33.9529 25.2433C34.245 25.5355 33.6283 26.2009 33.0765 26.558C31.5671 27.5317 30.0415 28.0998 28.9541 28.5055C30.1226 26.1035 33.5309 24.6753 33.9529 25.2433ZM76.4264 22.5167C74.3327 22.679 71.7846 23.3607 70.8433 25.4706C70.0643 27.2071 70.681 29.0411 72.3202 31.1023C73.3751 32.3845 74.3327 33.4719 74.5924 33.764C73.8458 33.9263 72.1904 33.8614 70.5512 33.5692H70.5349C70.1616 33.5043 69.7884 33.4232 69.4151 33.3258C68.49 33.0337 68.2303 32.6604 68.2303 32.6604L68.1004 32.7577L68.2303 32.6604C67.5973 32.7415 67.078 33.1797 66.7047 33.6666C66.3314 34.1535 65.9581 35.0786 66.2827 35.5331C66.5586 35.9226 67.1104 36.1173 68.1491 36.166C69.7559 36.2472 74.1055 36.8152 75.7122 36.9937C76.9457 37.1398 77.7897 36.2309 78.0331 35.6467C78.3577 34.8514 78.0169 33.9912 77.6111 33.5043C75.5499 31.1185 72.661 28.5218 73.716 26.3632C74.2029 25.3732 76.5075 25.5679 77.2865 25.7951C78.9258 26.282 79.7372 25.6978 80.1105 24.5941C80.3215 23.8638 79.8995 22.257 76.4264 22.5167ZM161.568 28.0673C161.471 27.9862 161.373 27.9213 161.276 27.8726C161.26 27.8563 161.227 27.8401 161.211 27.8239C160.367 27.2883 159.442 27.5155 159.442 27.5155C159.442 27.5155 159.621 27.8239 158.76 28.538C158.712 28.5867 158.663 28.6191 158.63 28.6516C158.598 28.6678 158.582 28.6841 158.549 28.7165C155.433 31.2646 151.262 33.2771 146.913 34.1211C148.325 33.2933 151.652 30.161 149.331 28.4568C147.984 27.4668 145.598 27.905 143.342 29.0411C143.602 28.6191 144.218 27.7265 143.975 26.6391C143.731 25.5679 141.654 25.2433 140.518 25.6491C140.486 26.7689 140.307 27.3532 140.112 27.5967C135.049 32.0436 128.443 34.397 127.907 33.8614C127.469 33.4232 128.946 31.6866 129.433 31.0049C129.839 30.4207 129.855 29.7228 129.563 29.2034C129.108 28.3757 128.264 28.327 126.69 28.6678C124.515 29.0411 122.99 28.2621 121.691 26.282C121.058 25.3083 119.517 25.503 118.721 26.0386C118.916 26.6553 118.867 27.2883 118.673 27.9375C117.342 31.0212 113.333 31.0374 111.807 29.9987C111.596 29.3495 111.028 28.1647 109.876 27.9862C106.338 27.4506 105.121 29.6092 104.536 30.2746C103.271 31.7028 94.7498 35.4357 92.7536 33.8127C91.2929 32.6279 92.5263 28.2945 95.3179 23.9612C99.4727 17.4206 101.355 17.4855 102.005 18.1509C102.41 18.5566 102.816 19.4655 101.988 21.0723C101.923 21.1859 101.875 21.2995 101.81 21.3969C100.365 23.7502 99.8135 23.6366 99.8135 23.6366C99.3429 25.0486 99.9434 25.8114 100.382 26.1684C100.868 26.6391 101.55 26.4768 101.761 26.4119C102.459 26.1684 102.897 25.5517 103.303 24.935C105.315 21.8351 106.565 16.885 103.271 15.0997C100.917 13.8175 96.9571 15.5541 92.575 22.6466C88.6799 28.9437 87.5762 33.9101 90.384 36.2634C93.8085 39.1198 100.982 35.3545 103.352 34.2509C103.287 34.7216 103.465 37.1236 105.851 36.9937C108.886 36.8152 110.769 34.2022 111.58 32.8714C112.765 33.553 117.942 34.543 121.091 29.8201C121.432 30.1123 123.331 31.4756 125.846 31.4756C124.954 33.1148 123.801 35.0624 125.505 36.4095C127.891 38.2921 136.055 33.764 138.424 32.3682C137.077 34.8189 134.724 40.3695 132.354 45.3034C131.381 47.3321 130.017 50.0588 131.446 50.7729C132.565 51.3409 134.237 50.7566 134.48 49.296C134.805 47.3808 136.655 42.0737 137.97 39.1848C140.453 33.6666 142.693 30.7939 146.474 30.7939C146.247 31.2484 146.166 31.6054 144.916 32.8551C143.553 34.2184 142.027 34.1373 142.092 35.6142C142.141 36.4744 143.034 36.7341 143.277 36.799C145.241 37.3346 150.694 35.7116 152.869 34.9163C155.352 34.0074 158.744 32.352 161.26 30.7452C162.428 29.9824 162.542 28.8788 161.568 28.0673ZM106.338 34.0724C105.884 34.0724 105.689 33.5368 106.224 32.9363C107.912 31.7353 108.561 31.3782 108.659 31.3295C109.746 31.3133 107.669 34.0724 106.338 34.0724Z" fill="#100F0D"/>
</g>
</g>
<defs>
<clipPath id="clip0">
<rect width="162" height="58" fill="white"/>
</clipPath>
</defs>
</svg>
