<svg width="221" height="58" viewBox="0 0 221 58" fill="none" xmlns="http://www.w3.org/2000/svg">
<path d="M14.0948 23.2959H12V20.8082H14.0948V18.1897C14.0948 15.833 14.7495 14 18.0227 14C18.6773 14 19.4629 14.1309 20.1175 14.2619V16.6186C19.4629 16.6186 18.9392 16.6186 18.4155 16.6186C17.368 16.4876 17.1062 17.0113 17.1062 17.9278V20.8082H19.7247V23.1649H17.1062V38.4835H14.0948V23.2959Z" fill="black"/>
<path d="M22.3433 38.6143H25.3546V14.2617H22.3433V38.6143Z" fill="black"/>
<path d="M28.366 35.0794V20.5464H31.3773V33.7701C31.3773 34.4247 31.3773 36.3887 33.6031 36.3887C35.1742 36.3887 35.9598 34.6866 35.9598 33.1155V20.5464H38.9711V38.4835H36.0907V36.3887C35.1742 37.9598 33.9959 38.8763 32.1629 38.8763C29.2825 39.0072 28.366 36.7814 28.366 35.0794Z" fill="black"/>
<path d="M49.5763 27.8785V25.26C49.5763 23.6889 48.7907 22.6414 47.2196 22.6414C45.6485 22.6414 44.732 23.6889 44.732 25.26V27.7476L49.5763 27.8785ZM41.7206 33.7703V25.6528C41.7206 22.2487 43.8155 20.1538 47.3505 20.1538C50.8856 20.1538 52.4567 22.5105 52.4567 25.6528V29.9734H44.732V33.5084C44.732 35.2105 45.3866 36.3889 47.2196 36.3889C48.7907 36.3889 49.5763 35.4724 49.5763 33.9012V32.5919H52.3258V33.5084C52.3258 36.6507 50.6237 38.8765 47.0887 38.8765C43.5536 38.8765 41.7206 37.3054 41.7206 33.7703Z" fill="black"/>
<path d="M55.2062 20.5466H58.0866V22.6414C58.8722 21.0703 60.1815 20.1538 62.0145 20.1538C64.8949 20.1538 65.8114 22.3796 65.8114 24.0816V38.6146H62.8V25.3909C62.8 24.7363 62.8 22.7724 60.5743 22.7724C59.0031 22.7724 58.2175 24.6054 58.2175 25.9146V38.4837H55.2062V20.5466Z" fill="black"/>
<path d="M69.8701 34.9483V23.2957H67.7753V20.939L69.8701 20.8081V16.6184L72.8815 15.1782V20.6772H76.1547V23.1648H73.0124V34.0318C73.0124 34.8174 73.1433 35.8648 74.5835 35.8648C75.1072 35.8648 75.6309 35.8648 76.1547 35.7339V38.2215C75.3691 38.4834 74.4526 38.6143 73.5361 38.6143C70.6557 38.8762 70.001 37.305 69.8701 34.9483Z" fill="black"/>
<path d="M79.0351 33.9012V25.6527C79.0351 21.9867 81.3918 20.2847 84.2722 20.2847C87.1526 20.2847 89.1165 21.5939 89.1165 24.9981V26.4383H87.1526V25.3909C87.1526 23.6888 86.367 22.1177 84.2722 22.1177C82.1773 22.1177 81.2608 23.9506 81.2608 25.2599V33.9012C81.2608 35.2104 81.6536 37.0434 84.4031 37.0434C85.9742 37.0434 87.1526 35.8651 87.2835 34.4249V32.8537H89.2474V34.2939C89.2474 37.4362 87.2835 39.1383 84.534 39.1383C80.7371 39.0073 79.0351 37.5671 79.0351 33.9012Z" fill="black"/>
<path d="M99.3289 33.9012V25.3909C99.3289 23.4269 98.2815 22.2486 96.3175 22.2486C94.2227 22.2486 93.4371 23.6888 93.4371 25.5218V34.0321C93.4371 35.8651 94.3536 37.1744 96.3175 37.1744C98.2815 37.1744 99.3289 35.8651 99.3289 33.9012ZM91.3423 34.0321V25.5218C91.3423 22.5104 93.0443 20.2847 96.5794 20.2847C100.114 20.2847 101.555 22.5104 101.555 25.129V33.5084C101.555 36.7816 99.8526 39.0073 96.4485 39.0073C92.9134 39.0073 91.3423 37.4362 91.3423 34.0321Z" fill="black"/>
<path d="M103.78 20.6775H105.875V22.7723C106.792 21.2012 108.101 20.2847 109.803 20.2847C112.16 20.2847 113.076 21.7249 113.338 23.0342C114.517 21.2012 115.695 20.2847 117.528 20.2847C120.539 20.2847 121.194 22.6414 121.194 24.2125V38.7455H118.968V25.2599C118.968 24.4744 119.099 22.1177 116.35 22.1177C114.517 22.1177 113.338 24.3434 113.338 26.0455V38.6146H111.505V24.8671C111.505 23.9506 111.243 22.1177 108.887 22.1177C107.054 22.1177 105.875 24.3434 105.875 26.0455V38.6146H103.65L103.78 20.6775Z" fill="black"/>
<path d="M123.551 20.6775H125.645V22.7723C126.562 21.2012 127.871 20.2847 129.573 20.2847C131.93 20.2847 132.846 21.7249 133.108 23.0342C134.287 21.2012 135.465 20.2847 137.167 20.2847C140.178 20.2847 140.964 22.6414 140.964 24.2125V38.7455H139V25.2599C139 24.4744 139.131 22.1177 136.381 22.1177C134.548 22.1177 133.37 24.3434 133.37 26.0455V38.6146H131.144V24.8671C131.144 23.9506 130.882 22.1177 128.526 22.1177C126.693 22.1177 125.514 24.3434 125.514 26.0455V38.6146H123.289L123.551 20.6775Z" fill="black"/>
<path d="M151.438 28.1403V25.2599C151.438 23.4269 150.522 22.1177 148.558 22.1177C146.594 22.1177 145.546 23.5579 145.546 25.3909V28.1403H151.438ZM143.321 34.0321V25.7836C143.321 22.2486 145.285 20.2847 148.82 20.2847C152.224 20.2847 153.533 22.6414 153.533 25.7836V29.9733H145.546V33.6393C145.546 35.7341 146.332 37.1744 148.558 37.1744C150.391 37.1744 151.438 35.996 151.438 34.0321V32.7228H153.402V33.6393C153.402 36.7816 151.962 39.1383 148.558 39.1383C145.154 39.1383 143.321 37.4362 143.321 34.0321Z" fill="black"/>
<path d="M156.021 20.6774H158.115V23.8196H158.246C159.294 21.4629 160.603 20.4155 162.174 20.4155C162.567 20.4155 162.829 20.4155 163.222 20.4155V22.7722C162.829 22.6413 162.436 22.6413 161.912 22.6413C159.425 22.6413 158.246 26.7001 158.246 28.9258V38.4836H156.021V20.6774Z" fill="black"/>
<path d="M164.793 33.9012V25.6527C164.793 21.9867 167.15 20.2847 170.03 20.2847C172.91 20.2847 174.874 21.5939 174.874 24.9981V26.4383H172.91V25.3909C172.91 23.6888 172.256 22.1177 170.03 22.1177C167.804 22.1177 167.019 23.9506 167.019 25.2599V33.9012C167.019 35.2104 167.411 37.0434 170.161 37.0434C171.732 37.0434 172.91 35.8651 173.041 34.4249V32.8537H175.005V34.2939C175.005 37.4362 173.041 39.1383 170.292 39.1383C166.626 39.0073 164.793 37.5671 164.793 33.9012Z" fill="black"/>
<path d="M185.087 28.1403V25.2599C185.087 23.4269 184.17 22.1177 182.206 22.1177C180.242 22.1177 179.195 23.5579 179.195 25.3909V28.1403H185.087ZM177.1 34.0321V25.7836C177.1 22.2486 179.064 20.2847 182.599 20.2847C186.003 20.2847 187.312 22.6414 187.312 25.7836V29.9733H179.326V33.6393C179.326 35.7341 179.98 37.1744 182.337 37.1744C184.17 37.1744 185.218 35.996 185.218 34.0321V32.7228H187.181V33.6393C187.181 36.7816 185.741 39.1383 182.337 39.1383C178.933 39.1383 177.1 37.4362 177.1 34.0321Z" fill="black"/>
<path d="M191.371 37.3051C190.978 36.2577 191.371 35.0794 192.419 34.6866C192.68 34.5557 192.942 34.5557 193.204 34.5557C194.252 34.5557 195.168 35.4722 195.168 36.5196C195.168 37.567 194.252 38.4835 193.204 38.4835C192.68 38.4835 192.157 38.3526 191.764 37.9598C191.633 37.8289 191.502 37.567 191.371 37.3051Z" fill="black"/>
<path d="M209.177 24.6051H193.204C192.157 24.6051 191.24 23.6886 191.24 22.6412C191.24 21.5937 192.157 20.6772 193.204 20.6772H209.177C210.225 20.6772 211.141 21.5937 211.141 22.6412C211.141 23.6886 210.225 24.6051 209.177 24.6051Z" fill="black"/>
<path d="M193.204 27.6167H201.191C202.238 27.6167 203.155 28.5332 203.155 29.5806C203.155 30.628 202.238 31.5445 201.191 31.5445H193.204C192.157 31.5445 191.24 30.628 191.24 29.5806C191.24 28.5332 192.026 27.6167 193.204 27.6167Z" fill="black"/>
</svg>
