<svg width="58" height="58" viewBox="0 0 58 58" fill="none" xmlns="http://www.w3.org/2000/svg">
<g clip-path="url(#clip0)">
<path d="M16.5686 44.4917L7.87427 34.4526H4.1885V50.1648H7.77777V40.1489L16.4485 50.1648H20.1555V34.4526H16.5686V44.4917ZM51.0185 34.4549L48.639 44.5125L46.1395 34.4549H42.7008L40.1613 44.3991L37.8524 34.4549H34.096L38.2525 50.1625H41.95L44.3884 40.2253L46.8691 50.1625H50.5007L50.5384 50.0283L54.7231 34.4549H51.0185Z" fill="black"/>
<path d="M3.80715 54.9821V54.9683C3.80715 53.6054 4.86627 52.4531 6.35845 52.4531C7.22223 52.4531 7.75179 52.6891 8.26016 53.1126L7.70942 53.7581C7.32814 53.4388 6.95156 53.2375 6.32315 53.2375C5.41231 53.2375 4.71799 54.0219 4.71799 54.9521V54.966C4.71799 55.9655 5.38877 56.7036 6.39847 56.7036C6.86448 56.7036 7.29048 56.5579 7.59409 56.3334V55.4241H6.32786V54.679H8.43433V56.7222C7.94713 57.1317 7.24576 57.4811 6.37022 57.4811C4.82391 57.4857 3.80715 56.4005 3.80715 54.9821Z" fill="black"/>
<path d="M8.95901 54.9821V54.9682C8.95901 53.5985 10.0346 52.4531 11.5527 52.4531C13.0731 52.4531 14.1323 53.5846 14.1323 54.952V54.9659C14.1323 56.3334 13.059 57.481 11.5386 57.481C10.0205 57.4857 8.95901 56.3519 8.95901 54.9821ZM13.2214 54.9821V54.9682C13.2214 54.0219 12.52 53.2375 11.5386 53.2375C10.5571 53.2375 9.87221 54.008 9.87221 54.952V54.9659C9.87221 55.91 10.5712 56.6943 11.5527 56.6943C12.5365 56.699 13.2214 55.9285 13.2214 54.9821Z" fill="black"/>
<path d="M14.0712 52.5366H15.0314L16.5212 56.2756L18.0063 52.5366H18.9454L16.8907 57.4371H16.1258L14.0712 52.5366Z" fill="black"/>
<path d="M19.5315 52.5366H23.2008V53.3025H20.4023V54.5681H22.883V55.3316H20.4023V56.6366H23.2361V57.4001H19.5315V52.5366Z" fill="black"/>
<path d="M24.0789 52.5366H26.2819C26.9056 52.5366 27.3928 52.7194 27.7105 53.0225C27.9718 53.2863 28.12 53.6472 28.12 54.0706V54.0845C28.12 54.8828 27.6328 55.3617 26.9409 55.5584L28.2777 57.3978H27.2539L26.0371 55.7041H24.9497V57.3978H24.0812V52.5366H24.0789ZM26.2207 54.9499C26.842 54.9499 27.2398 54.6306 27.2398 54.1354V54.1215C27.2398 53.6009 26.8585 53.3164 26.2136 53.3164H24.9497V54.9499H26.2207Z" fill="black"/>
<path d="M28.8896 52.5366H29.6922L32.3423 55.8985V52.5366H33.1991V57.4001H32.4694L29.7416 53.9411V57.4001H28.8896V52.5366Z" fill="black"/>
<path d="M34.0817 52.5366H35.0066L36.5129 54.8388L38.0168 52.5366H38.9441V57.4001H38.0733V53.9133L36.5129 56.2062H36.4846L34.936 53.9272V57.4001H34.0817V52.5366Z" fill="black"/>
<path d="M39.7725 52.5366H43.4397V53.3025H40.6411V54.5681H43.1219V55.3316H40.6411V56.6366H43.475V57.4001H39.7725V52.5366Z" fill="black"/>
<path d="M44.3317 52.5366H45.1366L47.7868 55.8985V52.5366H48.6412V57.4001H47.9139L45.1861 53.9411V57.4001H44.3317V52.5366Z" fill="black"/>
<path d="M50.8983 53.3302H49.3308V52.5366H53.3437V53.3302H51.7762V57.4001H50.8983V53.3302Z" fill="black"/>
<path d="M21.1437 47.9763L23.2549 45.4914C24.7165 46.676 26.2464 47.4303 28.1034 47.4303C29.565 47.4303 30.4476 46.8588 30.4476 45.9263V45.8801C30.4476 44.9916 29.8898 44.5358 27.1761 43.8509C23.9045 43.0319 21.7957 42.1411 21.7957 38.9713V38.925C21.7957 36.0282 24.1611 34.1147 27.4797 34.1147C29.8451 34.1147 31.8645 34.8459 33.5097 36.1439L31.655 38.7885C30.2146 37.8075 28.8001 37.2151 27.4326 37.2151C26.0652 37.2151 25.3449 37.8306 25.3449 38.6057V38.652C25.3449 39.7001 26.0393 40.0425 28.8471 40.7482C32.1422 41.5904 33.9969 42.7542 33.9969 45.5353V45.5816C33.9969 48.7514 31.5397 50.5307 28.0351 50.5307C25.5732 50.5307 23.0902 49.6862 21.1437 47.9763Z" fill="black"/>
<path d="M29.0145 30.7944C28.9462 30.8037 30.0359 31.042 30.0359 31.2687C35.7082 30.7713 37.7841 32.3701 42.0018 32.3701C44.6919 32.3701 45.9606 31.7754 46.1724 30.5561C46.5089 27.9185 42.3501 30.644 34.1971 29.737C34.0442 29.2974 34.7244 29.353 35.7764 29.3368C45.5651 29.1771 48.1447 28.5894 52.3506 26.8102C53.7863 26.1716 54.3677 25.6441 54.9302 25.179C55.2079 24.9523 55.4009 24.7579 55.5116 24.6283C55.568 24.5612 55.6128 24.5196 55.6339 24.4872C55.6457 24.4779 55.6551 24.4664 55.6551 24.4548H55.6692C55.8034 24.2489 55.8693 24.0106 55.8693 23.7746C55.8693 23.3951 55.8693 23.018 55.5539 22.7912C55.5539 22.7912 55.4198 22.694 55.1632 22.5205C54.4124 22.0022 52.7625 20.813 50.3642 19.626C50.3524 19.6145 50.3406 19.6052 50.5642 19.2582C53.5698 15.4983 53.8499 13.3049 53.8852 12.9602V12.9139C53.8852 12.6756 53.8193 12.4373 53.6828 12.2429C53.471 11.9213 53.1109 11.7038 52.7178 11.683C52.7178 11.683 52.047 11.6506 50.9126 11.6622C49.9688 11.6737 48.7025 11.727 46.829 11.8774C46.4124 11.5534 46.4266 11.2179 46.4266 10.9056C46.4266 9.27441 46.3371 7.86997 46.2336 6.87507C46.1441 5.88017 46.0547 5.30867 46.0547 5.30867C45.9653 4.82279 45.6734 4.59605 45.2921 4.58448C45.1697 4.58448 45.045 4.6053 44.9108 4.66083C44.9108 4.66083 44.7437 4.72561 44.4401 4.85518C43.5881 5.22307 41.8958 6.09766 39.5611 7.00695C38.9209 3.80938 38.0594 1.96071 38.0594 1.94914C37.89 1.48639 37.5652 1.31055 37.1721 1.37533C37.0615 1.3869 36.9485 1.42855 36.8238 1.5049C36.8238 1.51415 36.1977 1.88204 35.2092 2.58541C34.5031 3.08286 33.6276 3.74228 32.6532 4.54052L32.2036 4.83205C31.4411 3.86028 30.9797 2.9371 30.5161 2.19902C30.1772 1.65992 29.9065 1.23651 29.7253 0.942664C29.5464 0.662702 29.457 0.509996 29.457 0.509996C29.264 0.22772 29.0851 0.151367 29.0074 0.151367L28.9815 0.153681C28.9038 0.153681 28.725 0.230034 28.5343 0.509996C28.5343 0.509996 28.4425 0.662702 28.2637 0.942664C28.0848 1.23419 27.7859 1.66455 27.4564 2.20133C27.0092 2.94867 26.5479 3.86028 25.7829 4.83205L25.3358 4.54052C24.359 3.74228 23.4835 3.08286 22.7797 2.58541C21.7936 1.88204 21.1651 1.51415 21.1651 1.5049C21.0427 1.42855 20.9298 1.38459 20.8168 1.37533C20.4237 1.31055 20.0989 1.48408 19.9318 1.94914C19.9318 1.96071 19.0681 3.80706 18.4279 7.00695C16.0978 6.09766 14.4008 5.22307 13.5512 4.85518C13.2499 4.72561 13.0804 4.66083 13.0804 4.66083C12.9439 4.60761 12.8215 4.58448 12.6992 4.58448C12.3179 4.59605 12.026 4.82279 11.9366 5.30867C11.9366 5.30867 11.8471 5.88248 11.7577 6.87507C11.6565 7.86997 11.5671 9.27441 11.5671 10.9056C11.5671 11.2203 11.5788 11.5534 11.1622 11.8774C9.29111 11.727 8.02251 11.6714 7.08106 11.6622C5.94897 11.6506 5.27583 11.683 5.27583 11.683C4.88277 11.7038 4.52502 11.919 4.31084 12.2452C4.17669 12.4396 4.10843 12.6779 4.10843 12.9139V12.9579C4.14138 13.3049 4.42146 15.496 7.42704 19.2558C7.65064 19.6029 7.63887 19.6122 7.62945 19.6237C5.22876 20.8107 3.58122 21.9999 2.83042 22.5182C2.57152 22.6917 2.43736 22.7866 2.43736 22.7866C2.12433 23.0133 2.12433 23.3928 2.12433 23.7699C2.12433 24.0082 2.19258 24.2442 2.32674 24.4502H2.33851C2.33851 24.4617 2.35028 24.471 2.36204 24.4826C2.38323 24.515 2.42795 24.5566 2.48443 24.6237C2.59505 24.7533 2.78805 24.9476 3.06813 25.1744C3.62829 25.6371 4.21199 26.1693 5.64535 26.8056C9.85127 28.5871 12.4308 29.1748 22.2196 29.3345C23.274 29.3507 23.9518 29.2951 23.8012 29.7347C15.6482 30.644 11.487 27.9185 11.826 30.5538C12.0378 31.7754 13.304 32.3678 15.9966 32.3678C20.2143 32.3678 22.2878 30.769 27.9624 31.2641C27.9624 31.0397 29.0498 30.8014 28.9815 30.7898L29.0145 30.7944Z" fill="white"/>
<path d="M16.0011 32.9945C14.1182 32.9945 11.5716 32.7538 11.2092 30.6646L11.2045 30.6368C11.1291 30.0445 11.2351 29.5979 11.5269 29.2717C11.5316 29.2671 11.534 29.2624 11.5387 29.2601C9.23683 28.8668 7.50927 28.2722 5.40278 27.3791C3.97883 26.7474 3.31747 26.1968 2.78555 25.7525L2.66787 25.653C2.38072 25.4217 2.17596 25.2157 2.04886 25.0746H2.00179L1.80409 24.79C1.60638 24.4892 1.50282 24.1375 1.50282 23.772C1.50282 23.3463 1.50282 22.703 2.0724 22.2889C2.0724 22.2889 2.21362 22.1871 2.48664 22.0043L2.66316 21.8817C3.43515 21.3449 4.80731 20.3893 6.73963 19.3805C3.95059 15.8197 3.54577 13.6171 3.48693 13.0155L3.48457 12.9137C3.48457 12.5412 3.59284 12.1895 3.79525 11.8956C4.11299 11.4121 4.65903 11.0951 5.24508 11.0627C5.27568 11.0604 5.95117 11.0303 7.09268 11.0396C8.14239 11.0511 9.39452 11.1159 10.9126 11.2339C10.9409 11.1645 10.9409 11.0789 10.9409 10.9285V10.9031C10.9409 8.99887 11.0632 7.52272 11.1362 6.81009C11.2233 5.81519 11.3151 5.23676 11.3174 5.21131C11.4563 4.45472 11.9788 3.98272 12.6825 3.95958H12.7037C12.9132 3.95958 13.1156 3.99892 13.3227 4.08221C13.3227 4.08221 13.4969 4.14931 13.8076 4.28119C14.0665 4.39456 14.3983 4.54958 14.7843 4.73005C15.594 5.11182 16.6625 5.6139 17.9711 6.14605C18.4889 3.8277 19.0938 2.3099 19.3456 1.73147L19.3503 1.7199C19.6116 1.01422 20.2 0.646336 20.9084 0.755081C21.1085 0.778218 21.3039 0.849943 21.5063 0.97257L21.8028 1.16461C22.0829 1.34277 22.556 1.65049 23.1585 2.07853C23.9281 2.61994 24.7872 3.27472 25.6463 3.97578C26.0276 3.43437 26.3265 2.91147 26.5995 2.43947C26.7101 2.24743 26.8184 2.06002 26.9243 1.88418C27.122 1.56026 27.3103 1.27335 27.4609 1.0443C27.5668 0.880022 27.661 0.738885 27.7339 0.620885C27.9105 0.345552 27.9976 0.199787 27.9999 0.19516L28.0187 0.165082C28.28 -0.218996 28.6166 -0.448054 28.9461 -0.466564L29.0167 -0.471191C29.3627 -0.471191 29.7157 -0.23982 29.9911 0.160454L30.0123 0.19516C30.0146 0.202101 30.0993 0.345552 30.2664 0.607003C30.3629 0.764336 30.4783 0.94712 30.6171 1.1623C30.7466 1.36822 30.8972 1.60422 31.062 1.86798C31.2008 2.08778 31.335 2.31916 31.4786 2.56441C31.7328 2.99939 32.0152 3.48064 32.3612 3.97347C33.2085 3.28166 34.0652 2.62688 34.8513 2.0739C35.4515 1.64586 35.9222 1.34045 36.2023 1.1623V1.15998L36.4988 0.977198C36.6989 0.854571 36.8919 0.782846 37.0943 0.757395C37.1767 0.745826 37.2567 0.738884 37.3367 0.738884C37.944 0.738884 38.4265 1.09751 38.6595 1.72222L38.6642 1.73378C38.916 2.31221 39.5185 3.83002 40.0363 6.14836C41.3332 5.62084 42.3923 5.12107 43.1996 4.74162C43.6115 4.54958 43.9363 4.39688 44.1999 4.28119C44.5176 4.14468 44.6894 4.07758 44.6894 4.07758C44.8919 3.9966 45.0919 3.95727 45.3037 3.95727C46.0287 3.97809 46.5512 4.45009 46.6877 5.19048C46.6947 5.22982 46.7842 5.81056 46.8736 6.8124C46.9466 7.51346 47.0666 8.98961 47.0666 10.8961V10.9239C47.0666 11.072 47.0666 11.1576 47.0949 11.227C48.6129 11.109 49.8651 11.0465 50.9148 11.0326C52.0634 11.0234 52.7341 11.0535 52.7577 11.0558C53.3461 11.0882 53.8921 11.4028 54.2193 11.898C54.4146 12.1825 54.5229 12.5365 54.5229 12.9067L54.5205 13.0085C54.4617 13.6101 54.0522 15.8174 51.2725 19.3736C53.1978 20.3777 54.57 21.331 55.3419 21.8678L55.5349 22.002C55.7985 22.1801 55.9421 22.2843 55.9421 22.2843C56.5093 22.6938 56.5093 23.337 56.5093 23.765C56.5093 24.1283 56.4058 24.48 56.2081 24.7808L56.0221 25.0653H55.9609C55.8386 25.2019 55.6385 25.4032 55.3396 25.6461L55.2266 25.7386C54.6947 26.1829 54.0333 26.7359 52.6164 27.3652C50.5029 28.2583 48.773 28.8529 46.4688 29.2486C46.4735 29.2532 46.4758 29.2555 46.4806 29.2601C46.7724 29.5864 46.8783 30.0329 46.803 30.6252L46.7983 30.653C46.4335 32.7423 43.8892 32.9829 42.0063 32.9829C40.1776 32.9829 38.7089 32.6867 37.2897 32.4022C35.788 32.0991 34.2347 31.7867 32.1493 31.7867C31.495 31.7867 30.8054 31.8191 30.097 31.8793L29.4097 31.9394V31.5692C29.3109 31.5322 29.1791 31.4906 29.0096 31.4396C28.8402 31.4906 28.7036 31.5345 28.6048 31.5715V31.9417L27.9175 31.8816C27.202 31.8191 26.5312 31.789 25.8675 31.789C23.7799 31.789 22.2265 32.1014 20.7249 32.4045C19.2986 32.6983 17.8299 32.9945 16.0011 32.9945ZM12.4542 30.4679C12.5178 30.8335 12.7225 31.7543 16.0011 31.7543C17.7028 31.7543 19.0444 31.4836 20.4636 31.1967C22.0288 30.882 23.6457 30.5558 25.8605 30.5558C26.4583 30.5558 27.082 30.5813 27.7198 30.6298C27.9175 30.498 28.167 30.4077 28.4118 30.3291L28.4189 30.2527L28.9249 30.181L28.9484 30.3545L28.9578 30.1764H28.9837L29.0214 30.5789L29.0849 30.1833L29.5815 30.262L29.5862 30.3267C29.8334 30.4031 30.0829 30.4957 30.2806 30.6275C30.9184 30.5789 31.5421 30.5535 32.1399 30.5535C34.3547 30.5535 35.9716 30.8797 37.5344 31.1944C38.9537 31.4813 40.2976 31.752 41.9969 31.752C45.2755 31.752 45.4803 30.8311 45.5438 30.4656C45.5815 30.1648 45.525 30.0884 45.525 30.0884C45.525 30.0861 45.4332 29.9936 44.9178 29.9936C44.4329 29.9936 43.7786 30.0722 42.9501 30.174C41.6392 30.3337 39.841 30.5512 37.6851 30.5512C36.4988 30.5512 35.2985 30.4841 34.1193 30.3522L33.7239 30.3082L33.5945 29.938C33.4627 29.5586 33.5968 29.2879 33.6886 29.1583C33.9969 28.7326 34.5524 28.7257 35.395 28.721C35.5103 28.7187 35.6327 28.7187 35.7598 28.7164C45.725 28.5521 48.154 27.9066 52.0963 26.2384C53.339 25.6854 53.878 25.2366 54.3981 24.8016L54.5182 24.7021C54.7983 24.473 54.9607 24.2995 55.0219 24.2301V23.8321H55.2337C55.236 23.8113 55.236 23.7928 55.236 23.772C55.236 23.5961 55.236 23.3301 55.1795 23.2884C55.1701 23.2815 55.043 23.1889 54.8053 23.0293L54.6006 22.8881C53.7768 22.3166 52.2446 21.25 50.0769 20.1765L49.9875 20.1325L49.9168 20.0631C49.5332 19.6883 49.7968 19.281 50.0298 18.9224L50.0651 18.8715C52.8259 15.4171 53.2001 13.3672 53.2496 12.9253V12.9137C53.2496 12.7934 53.2166 12.6777 53.1578 12.5898C53.0425 12.4185 52.8636 12.3098 52.68 12.3005C52.68 12.3005 52.0139 12.2682 50.9171 12.2797C49.8298 12.2913 48.507 12.363 46.8807 12.4949L46.6335 12.5157L46.4382 12.363C45.7956 11.8609 45.7957 11.2779 45.7957 10.9308V10.9054C45.7957 9.05208 45.678 7.62452 45.6074 6.93966C45.5203 5.97252 45.4332 5.41029 45.4332 5.40335C45.3955 5.20899 45.3367 5.20668 45.2755 5.20437C45.259 5.20437 45.2143 5.20899 45.1484 5.23445C45.139 5.23907 44.9813 5.29923 44.6942 5.42186C44.4517 5.52597 44.1199 5.68099 43.7362 5.86146C42.7736 6.31495 41.4579 6.93272 39.7986 7.58056L39.0949 7.85358L38.949 7.12244C38.4123 4.43158 37.7039 2.69167 37.4991 2.22198C37.4921 2.20347 37.4827 2.18033 37.4709 2.15488C37.4073 1.97904 37.3556 1.97904 37.332 1.97904C37.3179 1.97904 37.3014 1.98135 37.2826 1.98367L37.2473 1.98829C37.2473 1.98829 37.2238 1.99292 37.1649 2.02763C37.1249 2.05539 37.0872 2.08084 37.0496 2.10167C36.826 2.2428 36.3035 2.57135 35.5833 3.085C35.0302 3.47602 34.1429 4.12617 33.0625 5.01464L33.0061 5.05629L32.067 5.6648L31.7092 5.20899C31.1396 4.48249 30.7372 3.79531 30.3818 3.1868C30.2453 2.95312 30.1158 2.731 29.984 2.52276C29.8193 2.26131 29.6733 2.02763 29.5415 1.82402C29.4027 1.6019 29.2826 1.41449 29.1885 1.2641C29.1085 1.13684 29.0449 1.03504 28.9978 0.961002C28.9508 1.03504 28.8849 1.14147 28.8001 1.27335C28.7272 1.39135 28.6283 1.54406 28.513 1.71759C28.36 1.95359 28.1858 2.21967 27.9999 2.52276C27.9011 2.68704 27.7975 2.86751 27.6892 3.05492C27.3174 3.70045 26.8984 4.43158 26.2841 5.21131L25.9264 5.66711L24.9331 5.01696C23.834 4.11692 22.9561 3.47139 22.4124 3.08963C21.7016 2.58523 21.1768 2.25206 20.9532 2.11092C20.9131 2.08547 20.8708 2.05771 20.8308 2.02994C20.7766 1.99524 20.7531 1.99061 20.7531 1.99061L20.7131 1.98598C20.6943 1.98367 20.6778 1.98135 20.6637 1.98135C20.6401 1.98135 20.5907 1.98135 20.5272 2.15488C20.5177 2.18033 20.5083 2.20347 20.4989 2.22429C20.2941 2.69398 19.5857 4.4339 19.0491 7.12475L18.9032 7.85589L18.1994 7.58056C16.5283 6.92809 15.2033 6.30801 14.2383 5.85221C13.864 5.67637 13.5393 5.52366 13.2992 5.41954C13.0191 5.29923 12.8591 5.23907 12.8543 5.23676C12.7837 5.20899 12.7437 5.20437 12.7108 5.20205C12.6519 5.20437 12.5954 5.21825 12.5601 5.41723C12.5601 5.41723 12.4731 5.97946 12.3907 6.92809C12.3201 7.62452 12.2 9.0544 12.2 10.9031V10.9262C12.2 11.2756 12.2024 11.8586 11.5575 12.3607L11.3621 12.5134L11.115 12.4926C9.48631 12.3607 8.16593 12.2913 7.07855 12.2774C5.99118 12.2658 5.31569 12.2982 5.31098 12.2982C5.13211 12.3075 4.95323 12.4139 4.84732 12.5782C4.77907 12.6777 4.74611 12.7911 4.74611 12.9114V12.9229C4.79554 13.3625 5.16506 15.4102 7.93057 18.8692L7.96823 18.9201C8.20123 19.2787 8.46248 19.6859 8.08355 20.0585L8.01059 20.1279L7.9188 20.1741C5.74405 21.25 4.21184 22.319 3.38807 22.8928L3.19978 23.0246C2.9503 23.1912 2.8232 23.2838 2.81614 23.2861C2.75966 23.3277 2.75966 23.5938 2.75966 23.7697C2.75966 23.7905 2.75966 23.8113 2.76201 23.8298H2.96207L2.96913 24.2232C2.97148 24.2255 2.97148 24.2255 2.97148 24.2278C3.03974 24.3064 3.20449 24.4823 3.47045 24.6952L3.5999 24.8016C4.12005 25.2366 4.65668 25.6831 5.9088 26.2384C9.83936 27.902 12.2683 28.5498 22.2335 28.7118C22.3606 28.7141 22.483 28.7141 22.6007 28.7164C23.4433 28.7233 23.9987 28.728 24.3071 29.1537C24.3989 29.281 24.533 29.5517 24.4036 29.9334L24.2741 30.3059L23.8764 30.3499C22.6972 30.4818 21.4992 30.5489 20.313 30.5489C18.1571 30.5489 16.3589 30.3291 15.0479 30.1717C14.2194 30.0722 13.5651 29.9913 13.0803 29.9913C12.5648 29.9913 12.4731 30.0861 12.4731 30.0861C12.4731 30.0907 12.4189 30.1671 12.4542 30.4679ZM29.6216 30.8543L29.638 30.8566C29.6474 30.7664 29.6357 30.6784 29.6098 30.6021L29.6216 30.7571C29.6239 30.7895 29.6239 30.8219 29.6216 30.8543ZM28.393 30.6021C28.3671 30.6784 28.3553 30.764 28.3624 30.852L28.3812 30.8497C28.3788 30.8173 28.3788 30.7849 28.3812 30.7479L28.393 30.6021Z" fill="white"/>
<path d="M12.7344 4.63525C12.3978 4.64682 12.1978 4.83886 12.1248 5.22294C12.1248 5.22294 12.0448 5.79444 11.953 6.76852C11.8683 7.65931 11.7694 9.07068 11.7694 10.7505C11.7694 14.5334 12.2708 19.9059 14.6667 24.0244C16.5049 27.1664 19.101 28.9364 21.9959 29.029C20.8685 28.1798 19.5223 26.7731 18.8091 24.5843C18.136 22.5065 17.7947 20.0517 17.7947 17.2844C17.7947 13.4645 18.4443 10.1905 18.6444 9.27892C18.6491 9.25578 18.6538 9.23959 18.6538 9.23265C18.7715 8.70049 19.0845 8.27707 19.5011 8.0619C16.5449 6.19702 14.0054 5.10031 13.5135 4.89439C13.2193 4.7602 13.0592 4.70467 13.0592 4.70467H13.0545L13.0498 4.70235C12.9439 4.65839 12.8356 4.63525 12.7344 4.63525Z" fill="#9C9C9C"/>
<path d="M37.8946 9.05176C37.8193 9.05176 37.7369 9.08646 37.6451 9.15587C37.6427 9.15819 37.5533 9.22529 37.3862 9.36642C37.2191 9.49831 36.979 9.70191 36.6472 9.99113C36.2047 10.3798 35.3009 11.1989 34.2512 12.3372C32.5848 14.1604 30.3794 17.0318 29.3297 20.3589C28.7248 22.3001 28.4236 23.9798 28.433 25.3542C28.4212 26.3815 28.5883 27.2514 28.9272 27.9386C29.2473 28.6119 29.7369 29.0885 30.4241 29.4009C30.7136 29.5281 31.0808 29.5906 31.5139 29.5906H31.5351C33.5545 29.5906 36.9249 27.934 38.0876 24.2482C38.7113 22.2631 39.029 19.9193 39.029 17.2839C39.029 14.01 38.5442 11.1596 38.3371 10.0837C38.257 9.68803 38.21 9.47285 38.21 9.47285C38.1605 9.28313 38.0664 9.05176 37.8946 9.05176Z" fill="#9C9C9C"/>
<path d="M20.1201 9.05176C19.9435 9.05176 19.8353 9.28313 19.7788 9.47979C19.7717 9.51681 19.727 9.72736 19.654 10.086C19.5976 10.3613 19.4869 10.9444 19.3669 11.7727C19.1763 13.066 18.9527 15.072 18.9527 17.2839C18.9527 19.9609 19.2728 22.3001 19.9059 24.2367C21.0921 27.9293 24.5472 29.5906 26.6231 29.5906H26.6443C27.0821 29.5906 27.4657 29.5212 27.7858 29.387C27.9553 29.3176 28.1177 29.232 28.3013 29.1116C28.1483 28.908 28.0118 28.6836 27.8894 28.4291C27.4869 27.6031 27.2845 26.599 27.2704 25.3565C27.2821 23.8225 27.6069 22.0317 28.2401 20.0257C28.2942 19.8429 28.3601 19.6555 28.4236 19.475C28.4495 19.4033 28.4731 19.3316 28.499 19.2599C26.296 13.8758 21.2333 9.81991 20.6614 9.37336C20.4802 9.22991 20.3884 9.1605 20.386 9.1605C20.2801 9.08646 20.1907 9.05176 20.1201 9.05176Z" fill="#9C9C9C"/>
<path d="M28.9885 0.239258C28.8661 0.239258 28.7414 0.334121 28.6119 0.521534C28.6096 0.526162 28.5084 0.671927 28.3389 0.947263C28.0847 1.36142 27.8447 1.76633 27.5999 2.18512C27.0538 3.13606 26.2254 4.6747 25.3734 6.58586C24.7897 7.89081 24.2554 9.24897 23.7894 10.6233C25.4298 12.2337 27.6281 14.7487 29.0921 17.8006C30.2218 15.4105 31.94 13.0296 34.2018 10.7159C32.6602 6.10922 30.4901 2.35402 29.6263 0.947263C29.4428 0.664986 29.3486 0.516907 29.3486 0.516907C29.1745 0.260081 29.0285 0.239258 28.9885 0.239258Z" fill="#9C9C9C"/>
<path d="M45.2214 4.63525C45.1555 4.63525 45.0496 4.64682 44.9154 4.70235L44.9107 4.70467H44.9083C44.906 4.70467 44.7483 4.76251 44.4588 4.89439C44.1764 5.00776 43.8021 5.17898 43.3291 5.39879L43.1643 5.47514C41.7051 6.16926 40.2858 6.94436 38.9443 7.77731C38.7913 7.86291 38.6383 7.95778 38.4877 8.05495C38.9019 8.26088 39.222 8.69123 39.3397 9.2257C39.342 9.23959 39.3467 9.25347 39.3514 9.27892C39.5468 10.1905 40.1893 13.4645 40.1893 17.2844C40.1893 20.0355 39.8551 22.4903 39.1985 24.582C38.4924 26.7823 37.1814 28.1844 36.0799 29.0266C38.9325 28.8948 41.4909 27.1294 43.3055 24.0267C45.6992 19.9082 46.2028 14.5357 46.2028 10.7528C46.2028 9.41312 46.1416 8.07115 46.0193 6.76158C45.9275 5.79906 45.8474 5.22526 45.8474 5.22063C45.7698 4.83886 45.565 4.64451 45.2214 4.63525Z" fill="#9C9C9C"/>
<path d="M37.3015 1.43555C37.2638 1.43555 37.2262 1.43786 37.1885 1.4448H37.1838H37.1791C37.092 1.45406 37.0002 1.49108 36.9084 1.55355L36.9037 1.55586L36.899 1.55817C36.892 1.5628 36.2659 1.93994 35.2986 2.62248C34.762 2.99962 33.91 3.62432 32.8674 4.47114C33.6229 6.01671 34.303 7.59466 34.8844 9.16568C36.1294 8.20317 37.4921 7.28463 39.0408 6.36608C38.6006 4.18424 38.0993 2.5577 37.9016 1.95382C37.8946 1.933 37.8899 1.9168 37.8852 1.90755C37.7722 1.59519 37.5721 1.43555 37.3015 1.43555Z" fill="#9C9C9C"/>
<path d="M20.6636 1.43555C20.3929 1.43555 20.1952 1.59519 20.0752 1.90755C20.0705 1.91911 20.0657 1.933 20.061 1.95382C19.8633 2.5577 19.3597 4.18193 18.9219 6.36608C20.4706 7.28463 21.8357 8.20317 23.0784 9.16568C23.6315 7.64094 24.3117 6.0653 25.0978 4.47114C24.274 3.80017 23.4573 3.17778 22.6665 2.62248C21.6992 1.93994 21.0731 1.5628 21.066 1.55817L21.0613 1.55586L21.0566 1.55355C20.9648 1.49108 20.873 1.45406 20.786 1.4448H20.7812H20.7765C20.7389 1.44017 20.7012 1.43555 20.6636 1.43555Z" fill="#9C9C9C"/>
<path d="M6.69262 11.6548C5.85474 11.6548 5.36755 11.6802 5.36284 11.6802C5.03334 11.6987 4.72737 11.8769 4.52732 12.1684C4.40964 12.342 4.34844 12.5571 4.35786 12.7746C4.4167 13.3438 4.80269 15.3984 7.29985 18.4965C8.5802 17.8718 9.85114 17.3234 11.0821 16.863C10.8255 15.3197 10.6749 13.633 10.6302 11.8491C9.1027 11.708 7.89766 11.6664 7.14922 11.6594C6.98682 11.6571 6.83619 11.6548 6.69262 11.6548Z" fill="#9C9C9C"/>
<path d="M51.2701 11.6548C51.1289 11.6548 50.9783 11.6548 50.8206 11.6571C50.0698 11.6664 48.8671 11.7057 47.3396 11.8468C47.2972 13.5659 47.1443 15.2503 46.8877 16.8607C48.1187 17.3211 49.3896 17.8695 50.67 18.4942C53.1742 15.3891 53.5555 13.3299 53.612 12.77C53.6308 12.578 53.5249 12.2864 53.4425 12.1707C53.2401 11.8769 52.9365 11.7011 52.6046 11.6802C52.5976 11.6802 52.1033 11.6548 51.2701 11.6548Z" fill="#9C9C9C"/>
<path d="M46.676 18.0088C46.1629 20.5423 45.365 22.7542 44.2964 24.5889C43.1832 26.5093 41.7922 27.9669 40.154 28.9294C52.0399 28.2955 55.3939 24.5357 55.7446 24.1007L55.7469 24.0984C55.8646 23.9226 55.9235 23.7282 55.9235 23.52C55.9235 23.1845 55.7634 22.8583 55.5022 22.6686C55.5022 22.6686 55.3609 22.5783 55.1115 22.4117L55.1091 22.4094L55.1068 22.4071C54.9185 22.2683 54.6454 22.0925 54.3018 21.8703C54.21 21.8125 54.1159 21.75 54.0147 21.6852C53.165 21.1485 51.7952 20.3341 50.117 19.5081C48.9614 18.932 47.8034 18.4276 46.676 18.0088Z" fill="#9C9C9C"/>
<path d="M11.2891 18.0088C7.28094 19.5011 4.05414 21.5789 2.84203 22.4095C2.59961 22.5784 2.4631 22.6687 2.45839 22.6733C2.2042 22.8584 2.04416 23.1846 2.04416 23.5201C2.04416 23.7283 2.103 23.9204 2.22068 24.0962C2.23009 24.1078 2.23715 24.1194 2.24186 24.1263C2.26539 24.1518 2.29128 24.1818 2.31953 24.2165C2.33365 24.2327 2.35012 24.2536 2.3666 24.2721C2.44898 24.36 2.63726 24.5543 2.93617 24.7996C3.43749 25.2207 4.33657 25.8547 5.78404 26.4956C8.77548 27.8283 12.9249 28.6705 17.8157 28.9412C16.1964 27.981 14.7725 26.4909 13.6733 24.589C12.6024 22.7543 11.8022 20.54 11.2891 18.0088Z" fill="#9C9C9C"/>
<path d="M45.1861 29.7852C44.5765 29.7852 43.6774 29.9078 42.3146 30.0929C42.1122 30.1206 41.9028 30.1484 41.6792 30.1785C41.0813 30.2618 40.3564 30.2988 39.3914 30.2988C38.8007 30.2988 38.1887 30.2849 37.5391 30.271L37.4826 30.2687C36.866 30.2548 36.167 30.2386 35.4679 30.2386C34.011 30.2386 32.1281 30.2965 30.4688 30.7523C30.3865 30.7754 30.3253 30.8657 30.3347 30.9212C30.3417 30.9744 30.4453 30.9929 30.5324 30.9929C30.5559 30.9929 30.5818 30.9906 30.6101 30.9906C31.2691 30.9328 31.9046 30.905 32.5047 30.905C34.6701 30.905 36.1481 31.2729 37.5791 31.6269C38.9254 31.9601 40.194 32.277 41.9616 32.277C43.8445 32.277 45.3343 31.8837 45.9486 31.222C46.1534 30.9999 46.2475 30.7592 46.224 30.5024C46.1722 30.0073 46.0122 29.7852 45.1861 29.7852Z" fill="#9C9C9C"/>
<path d="M12.7743 29.7852C11.9552 29.7852 11.7951 30.0073 11.7457 30.5024C11.7198 30.7569 11.8093 30.9976 12.0117 31.2174C12.6142 31.8698 14.1441 32.277 16.0082 32.277C17.7734 32.277 19.0443 31.9624 20.3906 31.6269C21.8216 31.2729 23.2997 30.905 25.4651 30.905C26.0652 30.905 26.7031 30.9328 27.3597 30.9906C27.388 30.9929 27.4139 30.9929 27.4374 30.9929C27.5245 30.9929 27.6257 30.9744 27.6351 30.9212C27.6422 30.8634 27.5833 30.7754 27.4963 30.7523C25.8393 30.2988 23.9564 30.2386 22.4995 30.2386C21.8005 30.2386 21.1014 30.2548 20.4848 30.2687L20.4259 30.271C19.7787 30.2849 19.1667 30.2988 18.576 30.2988C17.611 30.2988 16.8837 30.2595 16.2882 30.1785C16.0623 30.1484 15.8434 30.1183 15.6386 30.0906C14.2782 29.9055 13.3815 29.7852 12.7743 29.7852Z" fill="#9C9C9C"/>
</g>
<defs>
<clipPath id="clip0">
<rect width="58" height="58" fill="white"/>
</clipPath>
</defs>
</svg>
