<svg width="236" height="58" viewBox="0 0 236 58" fill="none" xmlns="http://www.w3.org/2000/svg">
<g clip-path="url(#clip0)">
<path fill-rule="evenodd" clip-rule="evenodd" d="M9.06841 15.9025H13.7998C13.7998 13.011 11.697 10.1196 6.96554 10.1196C2.23411 10.1196 -0.131592 13.5367 -0.131592 17.611C-0.131592 21.9482 2.62842 24.971 7.22842 24.971C11.697 24.971 13.7998 22.211 13.7998 19.1882H9.06841C8.93698 20.1082 8.41127 21.1596 7.09698 21.1596C5.78269 21.1596 4.73128 20.1082 4.73128 17.4796C4.73128 14.851 5.91412 14.0625 7.09698 14.0625C8.41127 13.9311 8.93698 14.9825 9.06841 15.9025Z" fill="black"/>
<path fill-rule="evenodd" clip-rule="evenodd" d="M26.2856 24.5768V14.5882H30.3599V15.3768C31.017 14.5882 32.0684 14.0625 33.5141 14.0625C34.8284 14.0625 36.2741 14.7196 36.7999 15.6396C37.3256 14.851 38.6399 14.1939 40.0856 14.1939C41.7941 14.1939 42.8456 14.9825 43.3713 15.7711C43.897 14.9825 45.2113 14.1939 46.5256 14.1939C48.2341 14.1939 49.1541 14.8511 49.9427 15.7711C50.8627 14.4568 52.3084 14.1939 53.097 14.1939C56.1198 14.1939 56.9084 16.1653 56.9084 18.3996C56.9084 20.6339 56.9084 24.7082 56.9084 24.7082H52.5713V19.1882C52.5713 18.2682 52.3084 17.8739 51.5199 17.8739C50.8627 17.8739 50.337 18.5311 50.337 19.3196C50.337 20.1082 50.337 24.8396 50.337 24.8396H45.8684V19.3196C45.8684 18.3996 45.6056 18.0054 44.9484 18.0054C44.2913 18.0054 43.7656 18.6625 43.7656 19.451C43.7656 20.2396 43.7656 24.9711 43.7656 24.9711H39.4284V19.451C39.4284 18.531 39.1656 18.1368 38.377 18.1368C37.7199 18.1368 37.3256 18.7939 37.3256 19.5825C37.3256 20.371 37.3256 25.1025 37.3256 25.1025H32.857V19.5825C32.857 18.6625 32.5942 18.2682 31.8056 18.2682C31.1484 18.2682 30.6227 18.9253 30.6227 19.7139C30.6227 20.5025 30.6227 25.2339 30.6227 25.2339H26.2856V24.5768Z" fill="black"/>
<path fill-rule="evenodd" clip-rule="evenodd" d="M80.4342 17.4797C80.4342 18.2682 80.4342 24.5768 80.4342 24.5768H76.097V19.0568C76.097 18.1368 75.7027 17.7425 75.0456 17.7425C74.3884 17.7425 73.8627 18.3997 73.8627 19.1882C73.8627 19.9768 73.8627 24.7082 73.8627 24.7082H69.5256V14.7197H73.5999V15.5082C74.257 14.7197 75.7027 14.1939 76.7541 14.1939C78.0684 14.0625 80.4342 14.8511 80.4342 17.4797Z" fill="black"/>
<path fill-rule="evenodd" clip-rule="evenodd" d="M90.4227 24.7084C90.2913 24.0512 89.897 23.1312 89.6342 21.9484C89.3713 21.1598 89.2398 20.3712 89.2398 19.977C89.2398 20.3712 89.1084 21.0284 88.8456 21.9484C88.5827 22.8684 88.3198 23.9198 88.057 24.577H83.457L80.4341 14.5884H85.1655C85.297 15.2455 85.5598 16.1655 85.8227 17.0855C85.9541 17.8741 86.0856 18.5312 86.0856 18.9255C86.0856 18.5312 86.217 17.8741 86.4798 17.0855C86.7427 16.1655 87.0056 15.2455 87.2684 14.5884H91.2113C91.3427 15.2455 91.6056 16.0341 91.8684 17.0855C91.9998 17.8741 92.2627 18.5312 92.2627 18.9255C92.2627 18.5312 92.3941 17.8741 92.657 17.0855C92.9199 16.1655 93.1827 15.2455 93.3141 14.5884H97.9141L94.8913 24.577L90.4227 24.7084Z" fill="black"/>
<path fill-rule="evenodd" clip-rule="evenodd" d="M121.571 10.3828H125.908V24.5771H121.571V10.3828Z" fill="black"/>
<path fill-rule="evenodd" clip-rule="evenodd" d="M133.926 21.4227V24.3142C133.794 24.4456 132.874 24.8399 131.428 24.8399C128.537 24.8399 127.748 23.3941 127.748 20.7656V17.217H126.434V14.457H127.748V10.5142H132.086V14.457H133.794V17.217H132.086V19.977C132.086 20.7656 132.348 21.0284 132.611 21.4227C133.006 21.6856 133.663 21.5541 133.926 21.4227Z" fill="black"/>
<path fill-rule="evenodd" clip-rule="evenodd" d="M145.886 17.0855C145.886 17.8741 145.886 24.5769 145.886 24.5769H141.548V19.0569C141.548 18.1369 141.154 17.7426 140.497 17.7426C139.84 17.7426 139.314 18.3998 139.314 19.1884C139.314 19.9769 139.314 24.7083 139.314 24.7083H134.846V10.6455H139.051V15.6398C139.577 14.8512 141.154 14.1941 142.206 14.1941C144.308 13.9312 145.886 15.3769 145.886 17.0855Z" fill="black"/>
<path fill-rule="evenodd" clip-rule="evenodd" d="M182.423 18.6624L180.451 20.371V24.5767H179.663V10.251H180.451V19.451L185.971 14.1938H187.023L183.08 18.0053L187.417 24.5767H186.497L182.423 18.6624Z" fill="black"/>
<path fill-rule="evenodd" clip-rule="evenodd" d="M175.063 14.9825C173.354 14.9825 171.908 16.2968 171.908 18.0054V24.5768H170.988V14.3253H171.908V16.0339C172.303 15.3768 173.354 14.0625 175.194 14.0625C177.954 14.0625 178.743 16.0339 178.743 17.7425V24.5768H177.823V18.1368C177.823 15.5082 176.508 14.9825 175.063 14.9825Z" fill="black"/>
<path fill-rule="evenodd" clip-rule="evenodd" d="M156.268 10.5142C158.766 10.5142 160.474 11.9599 160.343 13.9313C160.343 15.6399 159.291 16.6913 158.371 17.0856C159.16 17.3484 161.131 18.137 161.131 20.6342C161.131 23.5256 158.897 24.577 156.794 24.577H150.748V10.5142H156.268ZM156.006 16.8227C157.32 16.8227 159.423 16.4285 159.291 14.0627C159.291 11.8285 157.583 11.3027 156.268 11.4342H151.537V16.8227H156.006ZM151.537 23.657H156.531C158.897 23.657 159.948 22.4742 159.948 20.6342C159.948 18.9256 158.503 17.6113 156.794 17.6113H151.537V23.657Z" fill="black"/>
<path fill-rule="evenodd" clip-rule="evenodd" d="M170.594 23.9197V24.4454C170.331 24.5769 169.937 24.5769 169.674 24.5769C169.411 24.5769 168.491 24.4454 168.491 22.7368C167.571 24.0511 166.257 24.7083 164.68 24.7083C163.103 24.7083 161.526 23.9197 161.526 21.6854C161.526 19.5826 163.234 19.0569 164.023 18.9254C164.68 18.794 166.52 18.5312 166.914 18.5312C167.308 18.3997 168.491 18.3997 168.491 17.3483C168.491 17.0854 168.491 16.8226 168.491 16.4283C168.491 15.6397 167.966 14.5883 165.6 14.5883C163.103 14.5883 162.577 16.6911 162.577 16.954H161.92C161.92 15.7711 162.84 13.9312 165.468 13.9312C169.28 13.9312 169.411 15.9026 169.411 17.2169V23.1312C169.411 23.7883 169.806 24.1826 170.594 23.9197ZM168.491 20.7654V19.0569L164.943 19.5826C164.023 19.714 162.446 20.1083 162.446 21.9483C162.446 23.7883 163.76 24.0511 164.943 24.0511C166.783 24.0511 168.491 22.8683 168.491 20.7654Z" fill="black"/>
<path fill-rule="evenodd" clip-rule="evenodd" d="M19.8456 13.9312C24.0513 13.9312 25.8913 16.5597 25.8913 19.4511C25.8913 23.2626 22.8684 24.9711 19.977 24.9711C16.297 24.9711 14.1941 22.6054 14.1941 19.714C14.1941 16.8226 15.7713 13.9312 19.8456 13.9312ZM19.977 22.0797C21.1599 22.0797 21.2913 20.5026 21.2913 19.4511C21.2913 18.5311 21.1599 16.954 19.977 16.954C18.7941 16.954 18.6627 18.5311 18.6627 19.4511C18.6627 20.5026 18.7941 22.0797 19.977 22.0797Z" fill="black"/>
<path fill-rule="evenodd" clip-rule="evenodd" d="M62.9541 13.9312C67.1598 13.9312 68.9999 16.5597 68.9999 19.4511C68.9999 23.2626 65.977 24.9711 63.0856 24.9711C59.4056 24.9711 57.3027 22.6054 57.3027 19.714C57.3027 16.8226 58.8798 13.9312 62.9541 13.9312ZM63.0856 22.0797C64.2684 22.0797 64.3998 20.5026 64.3998 19.4511C64.3998 18.5311 64.2684 16.954 63.0856 16.954C61.9027 16.954 61.7713 18.5311 61.7713 19.4511C61.7713 20.5026 61.9027 22.0797 63.0856 22.0797Z" fill="black"/>
<path fill-rule="evenodd" clip-rule="evenodd" d="M101.988 20.5027C101.988 21.2912 102.514 21.9484 103.303 21.9484C103.828 21.9484 104.354 21.8169 104.617 21.4226H108.823C107.903 23.7884 105.537 24.8398 103.171 24.8398C99.4913 24.8398 97.3884 22.4741 97.3884 19.5827C97.3884 16.8227 98.9656 13.7998 103.04 13.7998C107.246 13.7998 109.086 16.4284 109.086 19.3198C109.086 19.7141 109.086 19.9769 109.086 20.3712H101.988V20.5027ZM104.486 18.0055C104.354 17.3484 103.96 16.8226 103.303 16.8226C102.514 16.8226 102.12 17.3484 102.12 18.0055H104.486Z" fill="black"/>
<path fill-rule="evenodd" clip-rule="evenodd" d="M116.708 24.577L116.446 23.9198C115.788 24.577 114.08 25.1027 113.291 25.1027C112.634 25.1027 109.348 24.8398 109.348 21.817C109.348 18.3998 113.817 18.2684 114.737 18.1369C115.526 18.0055 116.183 17.7427 116.183 17.217C116.183 16.8227 115.92 16.4284 115.263 16.4284C114.474 16.4284 114.08 17.0855 114.08 17.7427H110.006C110.006 15.2455 112.108 13.7998 115.131 13.7998C120.126 13.7998 120.651 15.5084 120.651 18.2684C120.651 18.2684 120.651 20.7655 120.651 21.5541C120.651 22.3427 120.651 23.2627 120.783 23.9198L121.046 24.7084H116.708V24.577ZM114.343 20.8969C113.817 21.1598 113.817 21.4227 114.08 21.817C114.343 22.2112 115 22.2112 115.657 21.817C116.183 21.4227 116.051 20.6341 116.051 20.2398C115.394 20.5027 114.868 20.6341 114.343 20.8969Z" fill="black"/>
<path fill-rule="evenodd" clip-rule="evenodd" d="M216.451 47.2455L197.131 28.0569L216.451 8.60547L230.909 23.0626L224.863 29.1083L216.451 47.2455Z" fill="#9C9C9C" stroke="#9C9C9C" stroke-width="0.089986" stroke-miterlimit="2.6131"/>
<path fill-rule="evenodd" clip-rule="evenodd" d="M216.451 47.2454L224.863 29.1082L230.908 23.0625L235.64 28.0568L216.451 47.2454Z" fill="black"/>
<path fill-rule="evenodd" clip-rule="evenodd" d="M10.5141 40.6112C10.5141 36.7998 8.54269 35.2227 5.78269 35.2227C3.15412 35.2227 1.05125 36.7998 1.05125 40.6112C1.05125 44.0284 2.62841 45.9998 5.78269 45.9998C9.06841 45.9998 10.5141 44.0284 10.5141 40.6112ZM5.91413 45.2112C3.81127 45.2112 2.49698 43.7655 2.49698 40.6112C2.49698 37.3255 4.07413 36.1427 5.91413 36.1427C7.75413 36.1427 9.33128 37.3255 9.33128 40.6112C9.33128 43.5027 8.01699 45.2112 5.91413 45.2112Z" fill="black"/>
<path fill-rule="evenodd" clip-rule="evenodd" d="M16.0342 31.9367C15.7713 31.8053 15.6399 31.8053 15.377 31.6739C15.1142 31.6739 14.7198 31.5425 14.3256 31.5425C13.537 31.5425 13.0113 31.8053 12.617 32.0682C12.0913 32.5939 11.8284 33.5139 11.8284 34.6968V35.3539H10.777V36.1425H11.8284V45.6053H13.0113V36.1425H15.1141V35.4853H13.0113V34.8282C13.0113 33.7768 13.1427 33.1196 13.537 32.7253C13.7998 32.5939 14.0627 32.4625 14.457 32.4625C14.7199 32.4625 15.1141 32.4625 15.2456 32.5939C15.377 32.5939 15.6399 32.7253 15.7713 32.8568L16.0342 31.9367Z" fill="black"/>
<path fill-rule="evenodd" clip-rule="evenodd" d="M28.7827 41.2681L30.2284 45.7367H31.6741L26.5484 31.6738H24.9713L19.8456 45.7367H21.2913L22.8684 41.2681H28.7827ZM28.5199 40.3481H23.3941L24.7084 36.4053C25.1027 35.2224 25.497 33.9081 25.8913 32.5938C26.2856 34.0395 26.6799 35.2224 27.0741 36.5367L28.5199 40.3481Z" fill="black"/>
<path fill-rule="evenodd" clip-rule="evenodd" d="M32.857 35.4854V42.7139C32.857 43.8968 32.9884 44.6853 33.5141 45.2111C33.9084 45.7368 34.8284 45.9996 35.7484 45.9996C36.4056 45.9996 37.1941 45.8682 37.8513 45.4739C38.377 45.2111 38.9027 44.8168 39.5599 44.2911V45.7368H40.8741V35.4854H39.5599V43.2396C39.0341 43.7653 38.377 44.2911 37.8513 44.5539C37.3256 44.8168 36.6684 44.9482 36.1427 44.9482C35.3541 44.9482 34.8284 44.6853 34.5656 44.4225C34.1713 44.0282 34.1713 43.2396 34.1713 42.451V35.4854H32.857Z" fill="black"/>
<path fill-rule="evenodd" clip-rule="evenodd" d="M49.8113 37.0626C49.5484 36.5369 49.1541 36.1426 48.6284 35.8797C47.9713 35.6169 47.1827 35.354 46.2627 35.354C45.0799 35.354 44.1598 35.4854 43.5027 36.0111C42.8456 36.4054 42.4512 37.0626 42.4512 37.8511C42.4512 38.5083 42.5827 39.034 43.1084 39.4283C43.6341 39.954 44.2913 40.2169 45.8684 40.6111C47.3141 40.874 47.9713 41.1369 48.497 41.6626C48.7598 42.0569 49.0227 42.4512 49.0227 42.9769C49.0227 43.634 48.7598 44.1597 48.3655 44.554C47.8398 44.9483 47.0513 45.2111 46.2627 45.2111C44.9484 45.2111 43.897 44.6854 43.3713 43.8969L42.1884 44.0283C42.5827 44.554 43.1084 45.0797 43.7655 45.3426C44.4227 45.6054 45.3427 45.7369 46.2627 45.7369C47.577 45.7369 48.497 45.474 49.1541 44.8169C49.8113 44.2912 50.2056 43.634 50.2056 42.714C50.2056 41.9254 49.9427 41.3997 49.5484 41.0055C49.0227 40.4797 48.3656 40.0855 46.657 39.6912C45.0798 39.2969 44.5541 39.034 44.1598 38.6397C43.897 38.3769 43.6341 37.9826 43.6341 37.5883C43.6341 37.0626 43.897 36.6683 44.2913 36.4055C44.6856 36.1426 45.4741 36.0111 46.2627 36.0111C47.577 36.0111 48.3656 36.5369 48.7599 37.194L49.8113 37.0626Z" fill="black"/>
<path fill-rule="evenodd" clip-rule="evenodd" d="M51.7827 35.4853H50.5999V36.2739H51.7827V42.7138C51.7827 45.0796 52.8341 45.8681 54.2798 45.8681C54.937 45.8681 55.5941 45.6053 55.9884 45.4739L55.7256 44.6853C55.4627 44.8167 55.0684 45.0795 54.5427 45.0795C53.7541 45.0795 53.097 44.291 53.097 42.3196V36.2739H55.4627V35.4853H53.097V33.251H51.9141L51.7827 35.4853Z" fill="black"/>
<path fill-rule="evenodd" clip-rule="evenodd" d="M57.8284 36.6684V35.4855H56.6456V45.737H57.8284V37.8512C58.2227 37.4569 58.617 36.9312 59.0113 36.6684C59.4055 36.4055 59.7999 36.2741 60.0627 36.2741C60.3256 36.2741 60.457 36.2741 60.7199 36.4055C60.8513 36.4055 60.9827 36.537 61.1141 36.6684L61.2456 35.617C61.1141 35.4855 60.9827 35.4855 60.7199 35.3541C60.5884 35.2227 60.3256 35.2227 60.0627 35.2227C59.537 35.2227 59.1427 35.3541 58.7484 35.4855C58.4856 35.8798 58.2227 36.1427 57.8284 36.6684Z" fill="black"/>
<path fill-rule="evenodd" clip-rule="evenodd" d="M70.3141 45.7368C70.0513 45.3426 69.9199 45.0797 69.9199 44.1597V39.034C69.9199 36.274 68.737 35.354 66.2398 35.354C63.7427 35.354 62.6913 36.6683 62.4284 38.114L63.7427 38.2454C63.8741 37.194 64.6627 36.1426 66.2398 36.1426C68.0798 36.1426 68.6056 37.0626 68.6056 38.9026V39.2969C63.7427 39.8226 62.0341 41.1369 62.0341 43.3712C62.0341 45.0797 62.9541 46.2626 65.5827 46.2626C66.6341 46.2626 67.9484 45.8683 68.737 45.0797C68.737 45.474 68.737 45.7369 68.9999 45.9997H70.3141V45.7368ZM68.6056 43.8969C67.6856 44.9483 66.3713 45.2111 65.7141 45.2111C63.8741 45.2111 63.3484 44.2911 63.3484 43.1083C63.3484 41.2683 64.9255 40.3483 68.737 39.8226V43.8969H68.6056Z" fill="black"/>
<path fill-rule="evenodd" clip-rule="evenodd" d="M73.2056 45.7371V31.8057H72.0227V45.7371H73.2056Z" fill="black"/>
<path fill-rule="evenodd" clip-rule="evenodd" d="M76.2284 33.3824V31.6738H74.9142V33.3824H76.2284ZM76.2284 35.4852H74.9142V45.7367H76.2284V35.4852Z" fill="black"/>
<path fill-rule="evenodd" clip-rule="evenodd" d="M85.9541 45.7368C85.5598 45.3426 85.5599 45.0797 85.5599 44.1597V39.034C85.5599 36.274 84.5084 35.354 82.0113 35.354C79.5141 35.354 78.4627 36.6683 78.1998 38.114L79.3827 38.2454C79.5141 37.194 80.3027 36.1426 81.8798 36.1426C83.5884 36.1426 84.2456 37.0626 84.2456 38.9026V39.2969C79.5141 39.8226 77.6741 41.1369 77.6741 43.3712C77.6741 45.0797 78.5941 46.2626 81.2227 46.2626C82.2741 46.2626 83.5884 45.8683 84.377 45.0797C84.377 45.474 84.377 45.7369 84.6398 45.9997H85.9541V45.7368ZM84.2456 43.8969C83.457 44.9483 82.1427 45.2111 81.3541 45.2111C79.5141 45.2111 78.857 44.2911 78.857 43.1083C78.857 41.2683 80.5656 40.3483 84.2456 39.8226V43.8969Z" fill="black"/>
</g>
<defs>
<clipPath id="clip0">
<rect width="236" height="58" fill="white"/>
</clipPath>
</defs>
</svg>
