<svg width="58" height="58" viewBox="0 0 58 58" fill="none" xmlns="http://www.w3.org/2000/svg">
<path d="M39.7 45.9142C38.4285 45.9142 37.2285 45.7571 36.1 45.4714C34.2285 48.0428 31.8285 50.2571 29.0428 51.7714C31.5 53.1142 34.2714 53.9142 37.2143 53.9142C48.5143 53.9142 56.2 42.1571 57.1143 32.1714C56.7714 33.4857 54.4428 45.9142 39.7 45.9142Z" fill="black"/>
<path d="M34.4571 17.8428C40.0714 18.4142 46.9571 22.3714 46.9571 30.5714C46.9571 38.5285 41.7428 42.1571 37.4714 43.3571C37.0571 44.0857 36.5857 44.7857 36.1 45.4714C37.2286 45.7571 38.4286 45.9142 39.7 45.9142C54.4286 45.9142 56.7571 33.4857 57.1143 32.1571C57.1714 31.4857 57.2 30.8285 57.2 30.1714C57.2 18.9714 48.6428 14.6714 42.5 14.6714C37.0857 14.6857 34.4571 17.8428 34.4571 17.8428Z" fill="black"/>
<path d="M0.885712 30.186C0.885712 30.8431 0.914284 31.5002 0.971427 32.1717C1.32857 33.5002 3.61428 45.9288 18.3857 45.9288C21.5143 45.9288 24.2429 44.9717 26.4286 43.4431C25.6714 43.6717 24.7571 43.8574 23.8286 43.8574C19.6714 43.8574 11.1143 40.786 11.1143 30.586C11.1143 22.3859 18 18.4288 23.6143 17.8574C23.6143 17.8574 21 14.7002 15.5571 14.7002C9.44285 14.6859 0.885712 18.9717 0.885712 30.186Z" fill="black"/>
<path d="M18.1857 30.814C18.1857 30.814 18.1857 30.8283 18.1857 30.814C18.1428 31.014 18.1143 31.214 18.0857 31.3998C17.9857 32.1998 17.9286 33.0712 17.9286 34.0426C17.9286 37.8712 19.5571 41.314 20.8428 43.414C21.9571 43.6997 22.9857 43.8283 23.8286 43.8283C24.7571 43.8283 25.6714 43.6426 26.4286 43.414C27.4286 42.714 28.3286 41.8855 29.0857 40.9712C28.5714 40.314 26.1571 37.0569 26.1571 32.6998C26.1571 28.614 28.3428 26.8712 29.0714 26.414C27.5714 25.2998 25.8714 24.9712 24.9143 24.9712C23.3714 24.9712 19.1857 26.0426 18.1857 30.814Z" fill="black"/>
<path d="M18.1857 30.8141C19.1714 26.0284 23.3572 24.9713 24.9143 24.9713C25.8714 24.9713 27.5714 25.2998 29.0714 26.4141C30.7 27.6284 32.1143 29.6855 32.1143 32.9855C32.1143 35.7855 31.0286 38.657 29.0857 40.9855C26.6714 43.8855 22.9429 45.9141 18.3857 45.9141C3.6143 45.9141 1.32859 33.4855 0.971443 32.157C1.88573 42.1427 9.57144 53.8998 20.8714 53.8998C31.9 53.8998 40.3429 42.757 40.3429 33.4284C40.3429 26.957 36.6714 21.1855 29.1286 21.1855C22.3 21.1855 19.0572 26.1998 18.1857 30.8141Z" fill="black"/>
<path d="M31.1571 4.45703C27.6 6.35703 26.7 9.79989 26.8143 12.0427C26.9857 15.1285 29.3285 17.3856 29.3285 17.3856C29.3285 17.3856 29.7714 13.6999 33.9571 11.2285C39.6571 7.85703 45.8571 10.6713 45.8571 10.6713C46.5 7.47132 42.4428 2.95703 36.8 2.95703C35.0571 2.95703 33.1285 3.39989 31.1571 4.45703Z" fill="black"/>
</svg>
