<svg width="93" height="58" viewBox="0 0 93 58" fill="none" xmlns="http://www.w3.org/2000/svg">
<g clip-path="url(#clip0)">
<path d="M92.4383 40.0126H87.6228L88.409 36.835H78.7452L77.959 40.0126H73.2745V39.3574C73.3401 38.997 73.4056 38.6367 73.5038 38.2108C74.3556 34.7712 76.6159 31.3643 80.5142 31.3643C82.0539 31.3643 83.5935 31.9539 83.397 34.0832H89.1625C89.3918 33.1005 89.7849 31.397 88.6711 29.8246C87.459 28.1212 84.9694 27.4332 81.759 27.4332C79.4659 27.4332 76.1573 27.7936 73.2745 29.6608V12.2987H92.4383V40.0126ZM81.1366 44.697C80.0556 44.8936 78.9418 45.0246 77.9263 45.0246C75.1745 45.0246 73.2418 43.747 73.209 40.7332H82.1194L81.1366 44.697ZM70.097 28.9074V32.8712C68.7538 34.7056 67.9349 36.7367 67.5418 38.3419C67.4107 38.8988 67.2797 39.4557 67.2469 40.0126H64.4297L66.8211 28.5798H58.7297L51.49 40.0126H50.9659V12.3642H70.1297V28.9074H70.097ZM59.4176 40.0126H56.5349L60.8918 33.166L59.4176 40.0126ZM47.7883 28.5798H43.0056L39.7297 40.0126H34.6521C37.24 39.0625 38.8124 37.2281 39.3038 34.5091C39.6969 32.4125 39.5004 31.0039 38.6487 29.9884C37.3711 28.4487 34.7831 28.5798 32.49 28.5798C32.0969 28.5798 28.69 28.5798 28.69 28.5798V12.3642H47.8211V28.5798H47.7883ZM44.709 40.0126L46.74 32.8384L46.8056 40.0126H44.709ZM30.7866 37.2936C30.59 37.2936 30.3935 37.3263 30.1969 37.3263C29.9021 37.3263 29.7055 37.3263 29.509 37.3263H28.2969L28.8538 35.2298L29.1159 34.1815L29.7711 31.7574C30.0659 31.7574 30.328 31.7574 30.59 31.7574C30.9176 31.7574 31.2452 31.7574 31.54 31.7574C33.1452 31.7574 34.1935 31.8556 34.5538 32.3798C34.8487 32.7729 34.8159 33.4608 34.4556 34.4763C33.8659 36.2125 33.1452 37.1298 30.7866 37.2936ZM25.4469 29.5953L25.1521 30.5781L22.4004 39.685L22.3021 40.0126H13.2935L12.6055 38.5384L22.3349 28.6125H16.078L8.47795 36.8022L10.9348 28.6125H6.31587V12.3642H25.4469V29.5953ZM72.5538 11.6436V30.2505C71.8987 30.7746 71.3418 31.2987 70.8504 31.9212V11.6436H50.2452V28.5798H48.5418V11.6436H27.9366V28.6125H26.2331V11.6436H5.59519V30.9712L0.321045 48.497H4.94001L7.26588 40.7332H7.92105L11.7538 48.497H17.3883L13.6538 40.7332H22.1055L19.7469 48.497H24.7917L27.1176 40.766H28.2314V40.7332H29.8366H29.9676H39.5004L37.2728 48.4643H42.3831L44.5452 40.7332H46.8383L46.9038 48.4643H51.1952L56.109 40.7332H59.3194L57.6487 48.4643H62.6607L64.2987 40.7332H67.2142C67.0832 43.1246 67.7056 45.3195 69.3107 46.7936C71.2435 48.5953 74.2573 48.9229 76.4521 48.9229C79.4659 48.9229 82.6107 48.497 85.7883 47.7764L87.5246 40.7332H93.2573V11.6436H72.5538Z" fill="black"/>
</g>
<defs>
<clipPath id="clip0">
<rect width="93" height="58" fill="white"/>
</clipPath>
</defs>
</svg>
