<svg width="58" height="58" viewBox="0 0 58 58" fill="none" xmlns="http://www.w3.org/2000/svg">
<g clip-path="url(#clip0)">
<path d="M29 58C45.0158 58 57.9995 45.0163 57.9995 29C57.9995 12.9837 45.0163 0 29 0C12.9837 0 0 12.9837 0 29C0 45.0163 12.9837 58 29 58Z" fill="#464646"/>
<path d="M46.4609 21.6235C44.6332 17.2863 41.2593 13.7828 36.994 11.7931C32.7287 9.80346 27.8763 9.46946 23.3786 10.856C18.8809 12.2425 15.0587 15.2506 12.6541 19.2965C10.2494 23.3424 9.43363 28.1374 10.3652 32.7509C11.2968 37.3643 13.9092 41.4671 17.6954 44.2629C21.4816 47.0586 26.1715 48.348 30.8548 47.8806C35.5381 47.4133 39.8807 45.2226 43.0397 41.7337C46.1988 38.2448 47.9489 33.7067 47.9504 29.0002C47.9503 26.4666 47.4439 23.9586 46.4609 21.6235ZM45.7911 36.0932C44.0337 40.2645 40.7892 43.6341 36.6872 45.5478C32.5853 47.4616 27.9187 47.7831 23.5931 46.4499C19.2675 45.1166 15.5915 42.2238 13.2787 38.3329C10.9659 34.442 10.1812 29.8306 11.077 25.3937C11.9727 20.9568 14.485 17.011 18.1262 14.3222C21.7674 11.6333 26.2778 10.3932 30.7818 10.8426C35.2858 11.292 39.4623 13.3988 42.5004 16.7541C45.5386 20.1094 47.2217 24.4738 47.2232 29.0002C47.2229 31.4363 46.736 33.8478 45.7911 36.0932Z" fill="white"/>
<path d="M51.4187 22.9253C52.3482 26.3675 52.4726 29.9775 51.7822 33.4755C51.0917 36.9735 49.605 40.2655 47.4373 43.0963C45.2695 45.9272 42.4789 48.2207 39.2819 49.7993C36.0849 51.3778 32.5673 52.1989 29.0018 52.1989C25.4363 52.1989 21.9187 51.3778 18.7217 49.7993C15.5247 48.2207 12.7341 45.9272 10.5663 43.0963C8.39858 40.2655 6.91185 36.9735 6.22141 33.4755C5.53096 29.9775 5.65535 26.3675 6.58493 22.9253C6.60121 22.8782 6.60764 22.8283 6.60382 22.7786C6.6 22.7289 6.58601 22.6806 6.56271 22.6365C6.53942 22.5925 6.50732 22.5537 6.46841 22.5225C6.4295 22.4914 6.3846 22.4686 6.33651 22.4556C6.28842 22.4425 6.23816 22.4395 6.18886 22.4467C6.13955 22.4538 6.09224 22.4711 6.04987 22.4973C6.0075 22.5235 5.97097 22.5582 5.94256 22.5991C5.91414 22.6401 5.89444 22.6864 5.88468 22.7353C4.92608 26.2852 4.79787 30.0083 5.50999 33.6158C6.22211 37.2233 7.75543 40.6183 9.9911 43.5377C12.2268 46.4572 15.1047 48.8225 18.4018 50.4505C21.6989 52.0784 25.3267 52.9252 29.0038 52.9252C32.6809 52.9252 36.3087 52.0784 39.6058 50.4505C42.9029 48.8225 45.7808 46.4572 48.0165 43.5377C50.2522 40.6183 51.7855 37.2233 52.4976 33.6158C53.2097 30.0083 53.0815 26.2852 52.1229 22.7353C52.0928 22.6481 52.0307 22.5757 51.9492 22.5326C51.8678 22.4895 51.773 22.479 51.684 22.5031C51.595 22.5273 51.5186 22.5843 51.4701 22.6627C51.4216 22.7411 51.4046 22.8349 51.4227 22.9253H51.4187Z" fill="white"/>
<path d="M8.60664 17.4429L8.73818 17.2183C8.80021 17.1122 8.87923 16.9767 8.85973 16.8061C8.84788 16.7341 8.82008 16.6657 8.77836 16.6058C8.73665 16.5459 8.68208 16.4961 8.61864 16.46C8.55712 16.4221 8.48743 16.3995 8.41539 16.394C8.34334 16.3885 8.27103 16.4003 8.20449 16.4285C8.05744 16.496 7.9644 16.6351 7.88787 16.7661L7.77633 16.9562L8.60664 17.4429ZM7.46022 16.4085C7.64579 16.0904 7.81035 15.8898 8.11046 15.7888C8.25197 15.746 8.40095 15.7338 8.54754 15.7529C8.69413 15.7721 8.83498 15.8221 8.96076 15.8998C9.0708 15.9643 9.36591 16.1594 9.45594 16.5C9.52097 16.7501 9.47795 17.0362 9.28738 17.3623L9.07881 17.7185L10.1257 18.3302L9.80357 18.8804L6.97654 17.2298L7.46022 16.4085Z" fill="white"/>
<path d="M12.3475 13.3047L11.1606 12.8601L11.7218 13.9965L12.3475 13.3047ZM12.8587 13.5158L11.9724 14.4952L12.288 15.1709L11.8233 15.6841L10.3403 12.4429L10.6764 12.0713L14.0236 13.2522L13.5624 13.7619L12.8587 13.5158Z" fill="white"/>
<path d="M15.1854 10.0564L15.3355 9.95189C15.4355 9.88086 15.8406 9.57775 15.5635 9.18461C15.2864 8.79147 14.8713 9.07157 14.7747 9.13959L14.6187 9.25014L15.1854 10.0564ZM14.5697 8.64642C14.9383 8.38632 15.1949 8.34931 15.393 8.36632C15.5316 8.37952 15.6655 8.42367 15.7848 8.49552C15.9041 8.56738 16.0057 8.66509 16.0822 8.78147C16.2663 9.04206 16.3228 9.34417 16.2133 9.63177C16.1671 9.75335 16.0953 9.86355 16.0027 9.95489L17.6318 10.4941L16.9815 10.9523L15.509 10.3805L15.445 10.4256L16.2058 11.501L15.6846 11.8686L13.7974 9.19261L14.5697 8.64642Z" fill="white"/>
<path d="M21.6302 8.45306C21.4501 8.67002 21.219 8.83881 20.9575 8.94424C20.4288 9.16882 20.0316 9.1243 19.6765 8.99426C19.1868 8.80719 18.8917 8.49007 18.7037 8.04741C18.4711 7.50072 18.5301 7.01154 18.6857 6.66241C18.8677 6.24926 19.1948 5.97717 19.6235 5.7946C19.8813 5.6823 20.1634 5.63771 20.4433 5.66505L20.7374 6.3523C20.6027 6.28543 20.4553 6.24815 20.305 6.24297C20.1547 6.2378 20.005 6.26484 19.8661 6.32229C19.2604 6.57988 19.0788 7.24362 19.3159 7.79982C19.6 8.46807 20.2662 8.61062 20.7749 8.39554C20.9096 8.33874 21.03 8.25289 21.1277 8.14411C21.2253 8.03533 21.2976 7.90632 21.3396 7.76631L21.6302 8.45306Z" fill="white"/>
<path d="M25.2736 4.87026L24.1172 5.09534L24.2567 5.8131L25.3651 5.59753L25.4702 6.13722L24.3618 6.3528L24.5323 7.23012L25.6887 7.00504L25.7943 7.54473L24.0111 7.89186L23.3854 4.67769L25.1686 4.33057L25.2736 4.87026Z" fill="white"/>
<path d="M28.873 4.05469L28.8835 6.77917L29.8948 6.77516L29.8968 7.32536L28.2473 7.33136L28.2347 4.05719L28.873 4.05469Z" fill="white"/>
<path d="M33.0415 5.91364L33.2976 5.96366C33.4181 5.98666 33.5727 6.01367 33.7267 5.93965C33.7904 5.90397 33.8453 5.85458 33.8875 5.79507C33.9298 5.73555 33.9582 5.66739 33.9708 5.59553C33.9859 5.52489 33.9838 5.45166 33.9647 5.38202C33.9455 5.31237 33.9099 5.24836 33.8608 5.19538C33.7478 5.07934 33.5857 5.03883 33.4361 5.01082L33.2191 4.9703L33.0415 5.91364ZM33.6287 4.48513C33.9909 4.55316 34.2344 4.63869 34.432 4.89028C34.5198 5.00922 34.5813 5.14548 34.6125 5.29001C34.6436 5.43453 34.6436 5.58403 34.6126 5.72857C34.5891 5.85412 34.5045 6.19774 34.2124 6.39781C34.0009 6.54286 33.7152 6.59788 33.3436 6.52986L32.9384 6.45383L32.7149 7.64575L32.0876 7.52821L32.6908 4.30957L33.6287 4.48513Z" fill="white"/>
<path d="M39.4823 8.14953C39.7519 7.54431 39.5323 6.93009 38.9486 6.6705C38.3649 6.4109 37.7612 6.65699 37.4916 7.26271C37.222 7.86843 37.4446 8.47765 38.0273 8.73774C38.61 8.99784 39.2127 8.75525 39.4823 8.14953ZM40.0825 8.41763C39.6769 9.32796 38.732 9.68609 37.7907 9.26793C36.8494 8.84978 36.4842 7.90694 36.8904 6.99662C37.2965 6.08629 38.2409 5.72316 39.1842 6.14281C40.1275 6.56246 40.4892 7.5088 40.0845 8.41913" fill="white"/>
<path d="M43.319 8.56777L41.4027 11.2227L41.9203 11.5962L43.8365 8.94128L43.319 8.56777Z" fill="white"/>
<path d="M43.8995 13.1895L46.3064 10.9692L46.606 11.2939L46.3519 14.2404L47.9575 12.7589L48.3902 13.2276L45.9838 15.4484L45.6842 15.1232L45.9418 12.1737L44.3326 13.6587L43.8995 13.1895Z" fill="white"/>
<path d="M50.2753 17.0466L47.9186 18.4131L47.598 17.8609L49.9552 16.4944L49.5861 15.8571L50.0618 15.5815L51.1201 17.4082L50.6444 17.6838L50.2753 17.0466Z" fill="white"/>
<path d="M41.1374 22.7528C40.9028 22.0841 40.5727 21.4529 40.1576 20.8786C39.5487 20.039 38.7554 19.3501 37.8387 18.8649C37.8292 18.8594 37.8192 18.8544 37.8097 18.8499C37.4899 18.6817 37.1578 18.5377 36.8164 18.4192C35.9561 18.1191 34.9852 17.956 33.9108 17.9565C32.6714 17.9565 31.5855 18.2096 30.6641 18.6308C30.0082 18.9299 29.4026 19.3289 28.869 19.8137C28.1628 20.4558 27.592 21.2324 27.1899 22.0981C27.0145 22.4736 26.8763 22.8655 26.7772 23.268C26.6883 23.6235 26.6416 23.9884 26.6382 24.3549C26.6345 24.6282 26.6711 24.9005 26.7467 25.1632C26.7833 25.2901 26.8337 25.4127 26.8968 25.5288C26.9623 25.6484 27.0443 25.7582 27.1404 25.8549C27.255 25.9649 27.4082 26.0256 27.5671 26.024C27.726 26.0223 27.878 25.9584 27.9903 25.846C28.1026 25.7336 28.1664 25.5817 28.168 25.4228C28.1695 25.2639 28.1088 25.1107 27.9987 24.9961C27.9824 24.9794 27.9688 24.9603 27.9582 24.9396C27.9226 24.8708 27.8974 24.7971 27.8831 24.721C27.8595 24.6004 27.8483 24.4777 27.8496 24.3549C27.8524 24.1184 27.88 23.8828 27.9322 23.6521C28.0511 23.1321 28.2473 22.6329 28.5144 22.1711C28.7438 21.7688 29.0191 21.3945 29.3347 21.0557C29.8614 20.4897 30.4963 20.0351 31.2018 19.7187C31.9566 19.3806 32.8499 19.1685 33.9083 19.1685C34.9297 19.1685 35.812 19.3345 36.5698 19.6186C35.3693 21.1732 34.4925 22.8138 33.7388 24.3759C33.6054 24.3642 33.4678 24.3584 33.3261 24.3584C32.6401 24.3508 31.9591 24.4749 31.3199 24.724C30.8952 24.8927 30.4997 25.1271 30.148 25.4188C29.6544 25.8299 29.2618 26.349 29.0005 26.9358C28.7471 27.5058 28.6166 28.1227 28.6174 28.7465C28.6173 29.3339 28.7317 29.9158 28.954 30.4596C29.1859 31.0252 29.5315 31.5371 29.9694 31.9636C29.9609 31.9781 29.9529 31.9937 29.9444 32.0082C29.3182 33.1411 28.7204 34.1424 28.1292 35.0017C27.7277 35.595 27.285 36.1593 26.8042 36.6904C26.495 37.0302 26.1591 37.3448 25.7999 37.6312C25.3273 38.0126 24.7958 38.3147 24.2263 38.5255C23.656 38.7287 23.0545 38.8303 22.4492 38.8256C21.5954 38.8256 20.8791 38.6661 20.2784 38.397C19.8465 38.2041 19.4508 37.9386 19.1085 37.6122C18.8609 37.3747 18.6422 37.109 18.4567 36.8204C18.1718 36.3701 17.958 35.8784 17.823 35.3629C17.6797 34.8217 17.6081 34.2641 17.6099 33.7043C17.6108 32.9426 17.7343 32.186 17.9755 31.4635C18.1539 30.9259 18.4016 30.4139 18.7123 29.9404C18.941 29.5926 19.2076 29.2712 19.5071 28.9821C19.9588 28.5457 20.4892 28.1989 21.0702 27.9602C21.7128 27.7018 22.3998 27.5718 23.0924 27.5775C23.6991 27.5775 24.2063 27.6891 24.6315 27.8732C24.935 28.0039 25.2147 28.1841 25.4593 28.4063C25.6339 28.5658 25.7894 28.745 25.9224 28.9405C26.1222 29.2374 26.2741 29.5639 26.3726 29.9079C26.5932 30.6782 26.5733 31.4975 26.3156 32.2562C26.2143 32.5532 26.0726 32.8348 25.8944 33.0931C25.7636 33.2829 25.6114 33.4571 25.4408 33.6122C25.1761 33.8509 24.8688 34.0376 24.5349 34.1624C24.147 34.3045 23.7366 34.375 23.3235 34.3705C23.2423 34.3682 23.1615 34.3822 23.0858 34.4116C23.0101 34.4411 22.9411 34.4854 22.8829 34.542C22.8247 34.5986 22.7784 34.6663 22.7467 34.7411C22.7151 34.8159 22.6988 34.8963 22.6988 34.9775C22.6988 35.0587 22.7151 35.1391 22.7467 35.2139C22.7784 35.2887 22.8247 35.3564 22.8829 35.413C22.9411 35.4696 23.0101 35.5139 23.0858 35.5434C23.1615 35.5728 23.2423 35.5868 23.3235 35.5845C23.9803 35.5915 24.6308 35.456 25.2302 35.1873C25.6355 35.0009 26.0073 34.749 26.3306 34.4415C26.795 33.9957 27.1562 33.4537 27.389 32.8535C27.8299 31.7195 27.8533 30.4658 27.455 29.3162C27.3124 28.9076 27.1122 28.5216 26.8603 28.1698C26.3563 27.4668 25.6476 26.9364 24.831 26.6512C24.2714 26.4573 23.6827 26.3608 23.0904 26.3661C22.0917 26.3566 21.1046 26.5801 20.2074 27.0188C19.591 27.3266 19.0299 27.7343 18.5468 28.2253C17.8404 28.9499 17.2924 29.8135 16.9377 30.7612C16.58 31.7009 16.3964 32.6978 16.396 33.7033C16.3929 34.4927 16.5145 35.2776 16.7561 36.0291C16.9353 36.5852 17.1918 37.1134 17.5179 37.5982C17.7651 37.964 18.0555 38.2987 18.3827 38.5951C18.8993 39.0602 19.5009 39.4213 20.1543 39.6584C20.8925 39.9217 21.6715 40.0521 22.4552 40.0436C23.0474 40.0462 23.6373 39.9678 24.2083 39.8105C24.6935 39.6747 25.1605 39.4809 25.5993 39.2333C25.9918 39.0107 26.3634 38.7533 26.7097 38.464C27.3329 37.9483 27.9151 37.3201 28.4814 36.5898C29.3157 35.5119 30.1169 34.2105 30.9558 32.6994C31.1072 32.7849 31.263 32.8625 31.4224 32.932C32.1477 33.2471 33.0025 33.4242 33.9768 33.4237C35.2058 33.4237 36.3092 33.1766 37.2645 32.7374C37.9601 32.4183 38.5987 31.9873 39.1547 31.4615C39.9567 30.6958 40.5827 29.765 40.9894 28.7335C41.3961 27.7123 41.6045 26.623 41.6036 25.5238C41.6063 24.5804 41.4487 23.6434 41.1374 22.7528ZM39.9725 27.9877C39.7679 28.5757 39.4835 29.1328 39.1272 29.6433C38.5908 30.4168 37.8777 31.0513 37.047 31.494C36.6019 31.7279 36.1294 31.9054 35.6404 32.0222C35.0947 32.1513 34.5356 32.2153 33.9748 32.2127C33.2386 32.2127 32.6154 32.0947 32.0952 31.8986C31.9015 31.8261 31.7139 31.7384 31.534 31.6365C32.2262 30.3416 32.952 28.913 33.7433 27.3575C33.8099 27.2147 33.8185 27.0517 33.7672 26.9028C33.7159 26.7538 33.6088 26.6306 33.4683 26.5592C33.3279 26.4878 33.1653 26.4738 33.0147 26.5201C32.8641 26.5663 32.7374 26.6693 32.6614 26.8073C31.9151 28.2738 31.2298 29.6228 30.5816 30.8432C30.4081 30.6331 30.2616 30.402 30.1455 30.1555C29.9403 29.7171 29.8339 29.239 29.8338 28.755C29.8334 28.3524 29.9078 27.9533 30.0534 27.578C30.3378 26.8446 30.8984 26.252 31.615 25.9274C32.0812 25.7124 32.6474 25.5813 33.3286 25.5808C33.6019 25.5789 33.8743 25.6125 34.1389 25.6809C34.301 25.7233 34.4584 25.7821 34.6086 25.8564C34.8044 25.954 34.9856 26.0786 35.1468 26.2266C35.2905 26.3595 35.4188 26.5081 35.5294 26.6697C35.5747 26.7354 35.6324 26.7915 35.6994 26.8349C35.7663 26.8783 35.8411 26.908 35.9196 26.9225C35.998 26.9369 36.0786 26.9358 36.1566 26.9191C36.2346 26.9024 36.3085 26.8705 36.3742 26.8253C36.4399 26.78 36.496 26.7223 36.5394 26.6553C36.5828 26.5884 36.6125 26.5135 36.627 26.4351C36.6414 26.3566 36.6403 26.2761 36.6236 26.1981C36.6069 26.1201 36.575 26.0461 36.5298 25.9805C36.3868 25.7724 36.2238 25.579 36.0431 25.4028C35.727 25.0952 35.3564 24.8493 34.9502 24.6775C35.6925 23.1569 36.5418 21.6149 37.6807 20.1829C37.9289 20.3425 38.1641 20.5217 38.3839 20.7185C38.715 21.0162 39.0097 21.352 39.2618 21.7189C39.6382 22.2701 39.9239 22.878 40.1081 23.5196C40.297 24.1727 40.3921 24.8494 40.3907 25.5293C40.3898 26.3664 40.2484 27.1974 39.9725 27.9877Z" fill="white"/>
</g>
<defs>
<clipPath id="clip0">
<rect width="57.9995" height="58" fill="white"/>
</clipPath>
</defs>
</svg>
