<svg width="144" height="58" viewBox="0 0 144 58" fill="none" xmlns="http://www.w3.org/2000/svg">
<g clip-path="url(#clip0)">
<path d="M15.8053 29.9579L21.3474 21.8842H10.4684L7.18421 19.6947C8.89474 18.6684 10.9474 18.0526 13 18.0526C19.0211 18.0526 23.9474 22.9789 23.9474 29C23.9474 30.9842 23.4 32.8316 22.5105 34.4737L15.8053 29.9579ZM6.91053 17.5053C5.74737 18.1211 4.72105 18.8737 3.83158 19.8316L9.92105 23.9368H17.4474L12.9316 30.5053L20.5263 35.6368L21.2789 36.1158L22.9895 37.2789C23.8105 36.3211 24.4263 35.2263 24.9053 34.0632C25.5895 32.4895 25.9316 30.7789 25.9316 29C25.9316 27.2211 25.5895 25.5105 24.9053 23.9368C24.2211 22.3632 23.3316 20.9947 22.1 19.8316C20.9368 18.6684 19.5 17.7105 17.9947 17.0263C16.4895 16.3421 14.7789 16 13 16C10.8789 16 8.75789 16.5474 6.91053 17.5053Z" fill="black"/>
<path d="M2.05263 29.0001C2.05263 27.0843 2.53158 25.2369 3.48947 23.5948L10.2632 28.179L4.78947 36.1843H15.4632L18.7474 38.3053C17.1053 39.3317 15.121 39.9474 13 39.9474C6.97894 39.9474 2.05263 35.0211 2.05263 29.0001ZM2.32632 21.6106C0.821052 23.8001 0 26.3317 0 29.0001C0 30.779 0.342105 32.4896 1.02632 34.0632C1.71053 35.6369 2.6 37.0053 3.83158 38.1685C4.99474 39.3317 6.43158 40.2896 7.93684 40.9738C9.51052 41.658 11.221 42.0001 13 42.0001C14.7789 42.0001 16.4895 41.658 18.0632 40.9738C19.5684 40.358 20.9368 39.4001 22.1684 38.2369L16.0789 34.1317H16.0105H8.68947L13.0684 27.6317L4.65263 21.9527L2.9421 20.7896C2.73684 21.0632 2.53158 21.3369 2.32632 21.6106Z" fill="black"/>
<path d="M30.1736 35.0894L42.5578 22.2946H30.5157V20.4473H45.2946V22.842L32.9788 35.4999H45.6367V37.5525H30.1736V35.0894Z" fill="black"/>
<path d="M52.821 20.4473H50.4263V37.5525H52.821V20.4473Z" fill="black"/>
<path d="M59.7314 20.4473H65.6157C66.163 20.4473 67.3262 20.4473 68.3525 20.5157C70.4736 20.5841 71.6367 20.9946 72.5946 21.9525C73.4157 22.7736 73.8262 23.8683 73.8262 25.0999C73.8262 26.9473 72.9367 28.5209 71.5683 29.2736C70.4735 29.8209 69.4472 30.0262 67.2578 30.0262H65.6841H62.1262V37.621H59.7314V20.4473ZM65.5472 28.042C68.8314 28.042 69.1051 27.9736 69.7893 27.6999C70.8157 27.2894 71.363 26.3999 71.363 25.1683C71.363 23.9367 70.7472 23.1157 69.4472 22.7052C68.6946 22.4315 67.942 22.4315 65.6157 22.4315H61.9209V28.042H65.5472Z" fill="black"/>
<path d="M79.9841 20.4473H83.9526L90.7947 34.9525L97.7736 20.4473H101.674V37.5525H99.4157V21.8841L91.9578 37.5525H89.5631L82.0368 21.8841V37.5525H79.9841V20.4473Z" fill="black"/>
<path d="M108.789 20.4473H121.31V22.3631H111.116V27.8367H120.558V29.821H111.116V35.6367H121.653V37.5525H108.789V20.4473Z" fill="black"/>
<path d="M133.216 28.5894L125.552 20.4473H128.495L134.584 27.0841L140.537 20.4473H143.752L136.089 28.7262L144.437 37.5525H141.495L134.789 30.1631L128.289 37.5525H125.005L133.216 28.5894Z" fill="black"/>
</g>
<defs>
<clipPath id="clip0">
<rect width="144" height="58" fill="white"/>
</clipPath>
</defs>
</svg>
