<svg width="92" height="58" viewBox="0 0 92 58" fill="none" xmlns="http://www.w3.org/2000/svg">
<path d="M55.3961 19.1357C51.8731 19.1357 49.0547 21.771 49.0547 25.2517C49.0547 28.7325 51.8731 31.3677 55.3961 31.3677C58.9192 31.3677 61.7376 28.7325 61.7376 25.2517C61.7376 21.771 58.9051 19.1357 55.3961 19.1357ZM55.3961 28.197C53.7756 28.197 52.4368 26.8723 52.4368 25.2658C52.4368 23.6593 53.7756 22.3347 55.3961 22.3347C57.0167 22.3347 58.3555 23.6593 58.3555 25.2658C58.3555 26.8723 57.0167 28.197 55.3961 28.197Z" fill="black"/>
<path d="M73.1663 23.6591C73.1663 21.207 71.1934 19.3892 68.6991 19.3892H63.3159V31.0997H66.5289V27.9149H68.0509L69.5165 31.0997H73.1381L71.137 27.168C72.2644 26.393 73.1663 25.2374 73.1663 23.6591ZM68.6991 25.0401H66.543V22.2781H68.6991C69.4319 22.2781 69.8969 23.0954 69.8969 23.6732C69.8969 24.2369 69.4319 25.0401 68.6991 25.0401Z" fill="black"/>
<path d="M78.3383 19.4033H75.1252V31.1139H78.3383V19.4033Z" fill="black"/>
<path d="M86.2298 19.4033H85.0179L79.5924 31.1139H83.045L83.6087 29.7892H87.639L88.2027 31.1139H91.6553L86.2298 19.4033ZM84.5951 27.0131L85.5957 24.7301H85.6661L86.6667 27.0131H84.5951Z" fill="black"/>
<path d="M40.5572 19.4031L48.1247 3.07031H0L7.60976 19.5017H11.161L14.0781 25.7868L16.9951 19.5017H20.5463L15.2195 31.015H12.9507L24.0694 54.9999L35.4417 30.4654C34.5539 30.9728 33.5393 31.2687 32.4401 31.2687C29.0016 31.2687 26.2678 28.6757 26.2678 25.2513C26.2678 21.827 29.0016 19.234 32.4401 19.234C34.6385 19.234 36.555 20.4177 37.5978 22.1652L34.9203 23.7717C34.413 22.9402 33.497 22.3625 32.4542 22.3625C30.8618 22.3625 29.5653 23.673 29.5653 25.2513C29.5653 26.8297 30.8477 28.1402 32.4542 28.1402C33.497 28.1402 34.413 27.5765 34.9203 26.731L36.6819 27.7879L39.2325 22.2779H41.8959V31.1137H45.109V22.2779H48.3501V19.4031H40.5572ZM21.5187 19.5017H24.8022V31.0009H21.5187V19.5017Z" fill="black"/>
<path d="M45.5739 37.3708C45.1089 37.089 44.5593 36.8776 43.9111 36.8776C43.2487 36.8776 42.7837 37.1312 42.7837 37.5822C42.7837 38.019 43.291 38.1459 43.9956 38.2586L44.3197 38.315C45.3626 38.4841 46.1799 38.935 46.1799 39.9497C46.1799 41.2461 45.0384 41.8521 43.7842 41.8521C42.8964 41.8521 41.9382 41.5984 41.3181 41.0911L41.9241 40.147C42.3468 40.4852 43.0374 40.7811 43.7842 40.7811C44.4325 40.7811 44.9398 40.5274 44.9398 40.0765C44.9398 39.6678 44.517 39.5269 43.6997 39.386L43.3333 39.3296C42.3046 39.1605 41.5436 38.7096 41.5436 37.6526C41.5436 36.4266 42.6287 35.7925 43.8829 35.7925C44.7002 35.7925 45.3907 35.9757 46.1235 36.4125L45.5739 37.3708Z" fill="#9C9C9C"/>
<path d="M49.8579 38.6672H48.3923V40.1469C48.3923 40.6542 48.6601 40.8374 48.9983 40.8374C49.2519 40.8374 49.5338 40.7106 49.7593 40.5696L50.1679 41.4293C49.8156 41.6688 49.407 41.852 48.8292 41.852C47.8286 41.852 47.3072 41.2883 47.3072 40.2314V38.6672H46.5181V37.6948H47.3072V36.4829H48.4064V37.6948H49.872V38.6672" fill="#9C9C9C"/>
<path d="M51.4785 39.7241C51.4785 40.3442 51.8872 40.8374 52.5213 40.8374C53.1414 40.8374 53.5642 40.3582 53.5642 39.7241C53.5642 39.09 53.1414 38.6108 52.5213 38.6108C51.8872 38.6108 51.4785 39.104 51.4785 39.7241ZM54.607 41.7534H53.536V41.3024C53.2682 41.6265 52.8736 41.852 52.324 41.852C51.2108 41.852 50.3652 40.936 50.3652 39.7241C50.3652 38.5122 51.2108 37.5962 52.324 37.5962C52.8736 37.5962 53.2682 37.8217 53.536 38.1458V37.6948H54.607V41.7534Z" fill="#9C9C9C"/>
<path d="M58.5247 38.6672H57.0591V40.1469C57.0591 40.6542 57.3268 40.8374 57.665 40.8374C57.9187 40.8374 58.2005 40.7106 58.426 40.5696L58.8347 41.4293C58.4824 41.6688 58.0737 41.852 57.4959 41.852C56.4954 41.852 55.974 41.2883 55.974 40.2314V38.6672H55.1848V37.6948H55.974V36.4829H57.0732V37.6948H58.5388V38.6672" fill="#9C9C9C"/>
<path d="M60.1452 39.3436H61.9349C61.8362 38.8222 61.5262 38.5263 61.0471 38.5263C60.5398 38.5404 60.2438 38.8504 60.1452 39.3436ZM63.0341 39.7241C63.0341 39.8509 63.02 40.0059 63.02 40.0905H60.1452C60.2579 40.6824 60.6666 40.936 61.188 40.936C61.5403 40.936 61.9208 40.7951 62.2167 40.5414L62.8509 41.246C62.3858 41.6688 61.8081 41.8661 61.1175 41.8661C59.8774 41.8661 59.0178 41.0206 59.0178 39.7382C59.0178 38.4558 59.8493 37.5962 61.0753 37.5962C62.2308 37.5962 63.0341 38.4558 63.0341 39.7241Z" fill="#9C9C9C"/>
<path d="M46.6308 44.2193L45.7853 45.0507C45.4612 44.6702 44.968 44.4307 44.3761 44.4307C43.3051 44.4307 42.53 45.2198 42.53 46.3613C42.53 47.5591 43.3474 48.306 44.362 48.306C45.3203 48.306 45.8699 47.841 46.0249 47.0095H44.5311V46.0372H47.2227C47.2368 46.1499 47.2368 46.2626 47.2368 46.3613C47.2368 48.1369 46.039 49.3911 44.3761 49.3911C42.7555 49.3911 41.3181 48.2496 41.3181 46.3613C41.3181 44.5857 42.6146 43.3174 44.4043 43.3174C45.3485 43.3174 46.1094 43.6556 46.6308 44.2193Z" fill="#9C9C9C"/>
<path d="M48.9138 47.2638C48.9138 47.9261 49.3789 48.3771 49.9848 48.3771C50.6049 48.3771 51.0699 47.9121 51.0699 47.2638C51.0699 46.6015 50.6049 46.1505 49.9848 46.1505C49.3648 46.1364 48.9138 46.6015 48.9138 47.2638ZM52.1832 47.2638C52.1832 48.4898 51.2531 49.3917 49.9848 49.3917C48.7306 49.3917 47.8005 48.4757 47.8005 47.2638C47.8005 46.0378 48.7306 45.1359 49.9848 45.1359C51.2531 45.1218 52.1832 46.0378 52.1832 47.2638Z" fill="#9C9C9C"/>
<path d="M55.1566 49.2929H53.8883L52.2959 45.2344H53.4796L54.5365 48.1374L55.5934 45.2344H56.7349L55.1566 49.2929Z" fill="#9C9C9C"/>
<path d="M57.9892 46.8826H59.7789C59.6803 46.3612 59.3702 46.0653 58.8911 46.0653C58.3838 46.0653 58.0737 46.3753 57.9892 46.8826ZM60.8781 47.249C60.8781 47.3758 60.864 47.5309 60.864 47.6154H57.9892C58.1019 48.2073 58.5106 48.4609 59.032 48.4609C59.3843 48.4609 59.7648 48.32 60.0607 48.0663L60.6949 48.771C60.2299 49.1937 59.6521 49.391 58.9616 49.391C57.7214 49.391 56.8618 48.5455 56.8618 47.2631C56.8618 45.9807 57.6933 45.1211 58.9193 45.1211C60.0748 45.1211 60.864 45.9948 60.8781 47.249Z" fill="#9C9C9C"/>
<path d="M64.3728 45.2201L64.2037 46.3052C64.0205 46.2206 63.7668 46.1784 63.5413 46.1784C63.034 46.1784 62.6817 46.4884 62.6817 47.0944V49.3068H61.5825V45.2483H62.6394V45.6851C62.8931 45.3046 63.2877 45.1355 63.7809 45.1355C64.0346 45.1215 64.2178 45.1637 64.3728 45.2201Z" fill="#9C9C9C"/>
<path d="M68.7837 46.7138V49.2927H67.6845V47.0661C67.6845 46.4742 67.3886 46.1642 66.8953 46.1642C66.4303 46.1642 66.0357 46.4742 66.0357 47.0802V49.3068H64.9365V45.2482H65.9934V45.7274C66.2753 45.2905 66.7262 45.1355 67.1913 45.1355C68.1214 45.1214 68.7837 45.7696 68.7837 46.7138Z" fill="#9C9C9C"/>
<path d="M76.2949 46.7135V49.2924H75.2098V47.0658C75.2098 46.474 74.9139 46.164 74.4206 46.164C73.9556 46.164 73.561 46.474 73.561 47.0799V49.3065H72.4618V47.0799C72.4618 46.4881 72.1659 46.178 71.6727 46.178C71.2076 46.178 70.8131 46.4881 70.8131 47.094V49.3206H69.7139V45.2621H70.7708V45.7412C71.0526 45.3043 71.5036 45.1493 71.9686 45.1493C72.5605 45.1493 73.0396 45.4171 73.3074 45.8398C73.6174 45.3184 74.1529 45.1493 74.6884 45.1493C75.6467 45.1211 76.2949 45.7694 76.2949 46.7135Z" fill="#9C9C9C"/>
<path d="M78.1128 46.8826H79.9025C79.8038 46.3612 79.4938 46.0653 79.0147 46.0653C78.5215 46.0653 78.2114 46.3753 78.1128 46.8826ZM81.0158 47.249C81.0158 47.3758 81.0017 47.5309 81.0017 47.6154H78.1269C78.2396 48.2073 78.6483 48.4609 79.1697 48.4609C79.522 48.4609 79.9025 48.32 80.1984 48.0663L80.8326 48.771C80.3675 49.1937 79.7898 49.391 79.0992 49.391C77.8591 49.391 76.9995 48.5455 76.9995 47.2631C76.9995 45.9807 77.8309 45.1211 79.057 45.1211C80.2125 45.1211 81.0017 45.9948 81.0158 47.249Z" fill="#9C9C9C"/>
<path d="M85.5674 46.7138V49.2927H84.4683V47.0661C84.4683 46.4742 84.1723 46.1642 83.6791 46.1642C83.2141 46.1642 82.8195 46.4742 82.8195 47.0802V49.3068H81.7344V45.2482H82.7913V45.7274C83.0731 45.2905 83.5241 45.1355 83.9891 45.1355C84.9051 45.1214 85.5674 45.7696 85.5674 46.7138Z" fill="#9C9C9C"/>
<path d="M89.4147 46.2063H87.9491V47.6859C87.9491 48.1932 88.2169 48.3764 88.5551 48.3764C88.8088 48.3764 89.0906 48.2496 89.3161 48.1087L89.7107 48.9683C89.3584 49.2079 88.9497 49.3911 88.3719 49.3911C87.3714 49.3911 86.85 48.8274 86.85 47.7705V46.2063H86.0608V45.2339H86.85V44.022H87.9491V45.2339H89.4147V46.2063Z" fill="#9C9C9C"/>
</svg>
