<svg width="627" height="598" viewBox="0 0 627 598" fill="none" xmlns="http://www.w3.org/2000/svg">
<mask id="path-1-inside-1" fill="white">
<path d="M516.645 567.981C519.645 528.481 516.345 489.681 531.345 452.181C535.645 441.581 545.345 424.781 558.845 424.181C579.645 423.281 566.945 465.081 563.145 480.781C560.745 490.881 557.145 500.881 553.345 510.481C546.645 527.581 536.645 551.381 529.145 567.981"/>
</mask>
<path d="M516.645 567.981C519.645 528.481 516.345 489.681 531.345 452.181C535.645 441.581 545.345 424.781 558.845 424.181C579.645 423.281 566.945 465.081 563.145 480.781C560.745 490.881 557.145 500.881 553.345 510.481C546.645 527.581 536.645 551.381 529.145 567.981" fill="white"/>
<path d="M531.345 452.181L530.418 451.805L530.416 451.81L531.345 452.181ZM558.845 424.181L558.801 423.182L558.8 423.182L558.845 424.181ZM563.145 480.781L562.173 480.546L562.172 480.55L563.145 480.781ZM553.345 510.481L552.415 510.113L552.414 510.116L553.345 510.481ZM517.642 568.057C518.394 558.159 518.75 548.308 519.097 538.532C519.444 528.75 519.781 519.045 520.492 509.405C521.913 490.128 524.827 471.168 532.273 452.552L530.416 451.81C522.862 470.694 519.926 489.884 518.497 509.257C517.783 518.942 517.445 528.687 517.098 538.461C516.752 548.242 516.396 558.053 515.648 567.905L517.642 568.057ZM532.271 452.557C534.398 447.314 537.852 440.564 542.414 435.07C546.993 429.556 552.555 425.462 558.889 425.18L558.8 423.182C551.635 423.5 545.597 428.106 540.875 433.792C536.138 439.498 532.591 446.448 530.418 451.805L532.271 452.557ZM558.888 425.18C561.318 425.075 563.176 425.594 564.604 426.543C566.036 427.496 567.121 428.938 567.902 430.82C569.482 434.627 569.745 440.057 569.223 446.171C568.182 458.371 564.089 472.628 562.173 480.546L564.117 481.016C566 473.234 570.158 458.741 571.216 446.341C571.744 440.155 571.52 434.322 569.75 430.054C568.856 427.899 567.55 426.101 565.711 424.878C563.867 423.652 561.572 423.062 558.801 423.182L558.888 425.18ZM562.172 480.55C559.788 490.58 556.209 500.529 552.415 510.113L554.275 510.849C558.081 501.234 561.701 491.182 564.118 481.012L562.172 480.55ZM552.414 510.116C545.719 527.201 535.726 550.986 528.233 567.569L530.056 568.393C537.563 551.776 547.57 527.961 554.276 510.846L552.414 510.116Z" fill="#EEEEEE" mask="url(#path-1-inside-1)"/>
<mask id="path-3-inside-2" fill="white">
<path d="M505.845 567.981C499.245 551.181 492.845 534.381 486.445 517.581C480.745 502.681 474.045 488.081 469.345 472.881C465.845 461.281 456.645 434.581 470.045 426.381C493.845 411.781 512.845 468.281 515.445 488.381C518.745 514.881 518.045 541.481 518.445 568.081"/>
</mask>
<path d="M505.845 567.981C499.245 551.181 492.845 534.381 486.445 517.581C480.745 502.681 474.045 488.081 469.345 472.881C465.845 461.281 456.645 434.581 470.045 426.381C493.845 411.781 512.845 468.281 515.445 488.381C518.745 514.881 518.045 541.481 518.445 568.081" fill="white"/>
<path d="M486.445 517.581L487.379 517.225L487.379 517.224L486.445 517.581ZM469.345 472.881L468.387 473.17L468.389 473.176L469.345 472.881ZM470.045 426.381L470.567 427.234L470.568 427.233L470.045 426.381ZM515.445 488.381L516.437 488.257L516.436 488.253L515.445 488.381ZM506.775 567.615C500.178 550.821 493.779 534.026 487.379 517.225L485.51 517.937C491.91 534.736 498.312 551.541 504.914 568.347L506.775 567.615ZM487.379 517.224C481.646 502.237 474.989 487.749 470.3 472.586L468.389 473.176C473.101 488.413 479.844 503.125 485.511 517.938L487.379 517.224ZM470.302 472.592C468.539 466.75 465.4 457.28 464.351 448.241C463.826 443.725 463.834 439.391 464.76 435.719C465.68 432.066 467.494 429.114 470.567 427.234L469.523 425.528C465.896 427.748 463.834 431.208 462.82 435.23C461.812 439.233 461.826 443.837 462.364 448.471C463.439 457.732 466.65 467.412 468.387 473.17L470.302 472.592ZM470.568 427.233C473.387 425.504 476.083 424.855 478.656 425.027C481.237 425.199 483.772 426.203 486.246 427.906C491.221 431.33 495.817 437.487 499.816 444.846C507.804 459.545 513.168 478.576 514.453 488.509L516.436 488.253C515.121 478.086 509.685 458.817 501.573 443.891C497.523 436.437 492.743 429.95 487.38 426.259C484.686 424.404 481.811 423.233 478.789 423.031C475.756 422.829 472.653 423.608 469.522 425.529L470.568 427.233ZM514.452 488.505C517.743 514.933 517.044 541.44 517.445 568.096L519.445 568.066C519.045 541.522 519.746 514.829 516.437 488.257L514.452 488.505Z" fill="#EEEEEE" mask="url(#path-3-inside-2)"/>
<path d="M476.345 438.081C493.345 472.481 509.945 536.081 510.345 567.981" stroke="#EEEEEE" stroke-miterlimit="10"/>
<path d="M558.045 433.281C545.845 460.481 529.145 519.481 522.445 568.081" stroke="#EEEEEE" stroke-miterlimit="10"/>
<mask id="path-7-inside-3" fill="white">
<path d="M529.745 567.981C529.745 567.981 536.745 536.981 541.545 519.381C546.745 500.281 563.945 470.981 581.945 462.681C586.045 460.781 591.045 459.481 595.045 461.681C597.545 462.981 599.145 465.481 600.045 468.181C603.145 477.081 588.145 505.381 582.945 513.281C572.845 528.781 558.345 553.481 546.945 568.081"/>
</mask>
<path d="M529.745 567.981C529.745 567.981 536.745 536.981 541.545 519.381C546.745 500.281 563.945 470.981 581.945 462.681C586.045 460.781 591.045 459.481 595.045 461.681C597.545 462.981 599.145 465.481 600.045 468.181C603.145 477.081 588.145 505.381 582.945 513.281C572.845 528.781 558.345 553.481 546.945 568.081" fill="white"/>
<path d="M541.545 519.381L542.51 519.644L542.51 519.644L541.545 519.381ZM581.945 462.681L582.363 463.589L582.365 463.588L581.945 462.681ZM595.045 461.681L594.563 462.557L594.573 462.563L594.583 462.568L595.045 461.681ZM600.045 468.181L599.096 468.497L599.1 468.51L600.045 468.181ZM582.945 513.281L582.109 512.731L582.107 512.735L582.945 513.281ZM529.745 567.981C530.72 568.201 530.72 568.201 530.72 568.201C530.72 568.201 530.72 568.2 530.72 568.2C530.721 568.199 530.721 568.198 530.721 568.196C530.722 568.192 530.723 568.186 530.725 568.179C530.729 568.164 530.734 568.142 530.74 568.112C530.754 568.053 530.774 567.965 530.8 567.85C530.852 567.619 530.93 567.277 531.03 566.837C531.231 565.955 531.523 564.676 531.888 563.086C532.619 559.906 533.643 555.483 534.818 550.511C537.168 540.562 540.114 528.426 542.51 519.644L540.58 519.118C538.175 527.936 535.222 540.1 532.871 550.051C531.696 555.029 530.67 559.456 529.939 562.638C529.573 564.23 529.281 565.51 529.08 566.393C528.979 566.834 528.902 567.176 528.849 567.408C528.823 567.523 528.803 567.612 528.79 567.671C528.783 567.701 528.778 567.723 528.774 567.738C528.773 567.746 528.771 567.751 528.771 567.755C528.77 567.757 528.77 567.758 528.77 567.759C528.769 567.76 528.769 567.76 528.769 567.76C528.769 567.761 528.769 567.761 529.745 567.981ZM542.51 519.644C545.077 510.214 550.626 498.213 557.776 487.538C564.941 476.839 573.615 467.623 582.363 463.589L581.526 461.773C572.275 466.039 563.348 475.623 556.114 486.425C548.864 497.249 543.213 509.448 540.58 519.118L542.51 519.644ZM582.365 463.588C586.428 461.705 591.018 460.608 594.563 462.557L595.527 460.805C591.072 458.355 585.661 459.857 581.524 461.774L582.365 463.588ZM594.583 462.568C596.767 463.704 598.242 465.934 599.096 468.497L600.993 467.865C600.048 465.028 598.322 462.258 595.506 460.794L594.583 462.568ZM599.1 468.51C599.425 469.441 599.535 470.702 599.416 472.275C599.298 473.837 598.961 475.641 598.444 477.619C597.411 481.576 595.687 486.141 593.691 490.705C589.698 499.836 584.674 508.835 582.109 512.731L583.78 513.831C586.415 509.827 591.491 500.726 595.523 491.507C597.54 486.896 599.309 482.224 600.379 478.124C600.915 476.074 601.281 474.146 601.41 472.425C601.539 470.716 601.44 469.146 600.989 467.852L599.1 468.51ZM582.107 512.735C571.958 528.31 557.523 552.909 546.157 567.466L547.733 568.696C559.167 554.053 573.732 529.252 583.783 513.827L582.107 512.735Z" fill="#EEEEEE" mask="url(#path-7-inside-3)"/>
<path d="M591.745 468.981C570.445 487.481 541.945 546.381 534.045 568.081" stroke="#EEEEEE" stroke-miterlimit="10"/>
<mask id="path-10-inside-4" fill="white">
<path d="M331.645 567.981C334.645 528.481 331.345 489.681 346.345 452.181C350.645 441.581 360.345 424.781 373.845 424.181C394.645 423.281 381.945 465.081 378.145 480.781C375.745 490.881 372.145 500.881 368.345 510.481C361.645 527.581 351.645 551.381 344.145 567.981"/>
</mask>
<path d="M331.645 567.981C334.645 528.481 331.345 489.681 346.345 452.181C350.645 441.581 360.345 424.781 373.845 424.181C394.645 423.281 381.945 465.081 378.145 480.781C375.745 490.881 372.145 500.881 368.345 510.481C361.645 527.581 351.645 551.381 344.145 567.981" fill="white"/>
<path d="M346.345 452.181L345.418 451.805L345.416 451.81L346.345 452.181ZM373.845 424.181L373.801 423.182L373.8 423.182L373.845 424.181ZM378.145 480.781L377.173 480.546L377.172 480.55L378.145 480.781ZM368.345 510.481L367.415 510.113L367.414 510.116L368.345 510.481ZM332.642 568.057C333.394 558.159 333.75 548.308 334.097 538.532C334.444 528.75 334.781 519.045 335.492 509.405C336.913 490.128 339.827 471.168 347.273 452.552L345.416 451.81C337.862 470.694 334.926 489.884 333.497 509.257C332.783 518.942 332.445 528.687 332.098 538.461C331.752 548.242 331.396 558.053 330.648 567.905L332.642 568.057ZM347.271 452.557C349.398 447.314 352.852 440.564 357.414 435.07C361.993 429.556 367.555 425.462 373.889 425.18L373.8 423.182C366.635 423.5 360.597 428.106 355.875 433.792C351.138 439.498 347.591 446.448 345.418 451.805L347.271 452.557ZM373.888 425.18C376.318 425.075 378.176 425.594 379.604 426.543C381.036 427.496 382.121 428.938 382.902 430.82C384.482 434.627 384.745 440.057 384.223 446.171C383.182 458.371 379.089 472.628 377.173 480.546L379.117 481.016C381 473.234 385.158 458.741 386.216 446.341C386.744 440.155 386.52 434.322 384.75 430.054C383.856 427.899 382.55 426.101 380.711 424.878C378.867 423.652 376.572 423.062 373.801 423.182L373.888 425.18ZM377.172 480.55C374.788 490.58 371.209 500.529 367.415 510.113L369.275 510.849C373.081 501.234 376.701 491.182 379.118 481.012L377.172 480.55ZM367.414 510.116C360.719 527.201 350.726 550.986 343.233 567.569L345.056 568.393C352.563 551.776 362.57 527.961 369.276 510.846L367.414 510.116Z" fill="#EEEEEE" mask="url(#path-10-inside-4)"/>
<mask id="path-12-inside-5" fill="white">
<path d="M320.845 567.981C314.245 551.181 307.845 534.381 301.445 517.581C295.745 502.681 289.045 488.081 284.345 472.881C280.845 461.281 271.645 434.581 285.045 426.381C308.845 411.781 327.845 468.281 330.445 488.381C333.745 514.881 333.045 541.481 333.445 568.081"/>
</mask>
<path d="M320.845 567.981C314.245 551.181 307.845 534.381 301.445 517.581C295.745 502.681 289.045 488.081 284.345 472.881C280.845 461.281 271.645 434.581 285.045 426.381C308.845 411.781 327.845 468.281 330.445 488.381C333.745 514.881 333.045 541.481 333.445 568.081" fill="white"/>
<path d="M301.445 517.581L302.379 517.225L302.379 517.224L301.445 517.581ZM284.345 472.881L283.387 473.17L283.389 473.176L284.345 472.881ZM285.045 426.381L285.567 427.234L285.568 427.233L285.045 426.381ZM330.445 488.381L331.437 488.257L331.436 488.253L330.445 488.381ZM321.775 567.615C315.178 550.821 308.779 534.026 302.379 517.225L300.51 517.937C306.91 534.736 313.312 551.541 319.914 568.347L321.775 567.615ZM302.379 517.224C296.646 502.237 289.989 487.749 285.3 472.586L283.389 473.176C288.101 488.413 294.844 503.125 300.511 517.938L302.379 517.224ZM285.302 472.592C283.539 466.75 280.4 457.28 279.351 448.241C278.826 443.725 278.834 439.391 279.76 435.719C280.68 432.066 282.494 429.114 285.567 427.234L284.523 425.528C280.896 427.748 278.834 431.208 277.82 435.23C276.812 439.233 276.826 443.837 277.364 448.471C278.439 457.732 281.65 467.412 283.387 473.17L285.302 472.592ZM285.568 427.233C288.387 425.504 291.083 424.855 293.656 425.027C296.237 425.199 298.772 426.203 301.246 427.906C306.221 431.33 310.817 437.487 314.816 444.846C322.804 459.545 328.168 478.576 329.453 488.509L331.436 488.253C330.121 478.086 324.685 458.817 316.573 443.891C312.523 436.437 307.743 429.95 302.38 426.259C299.686 424.404 296.811 423.233 293.789 423.031C290.756 422.829 287.653 423.608 284.522 425.529L285.568 427.233ZM329.452 488.505C332.743 514.933 332.044 541.44 332.445 568.096L334.445 568.066C334.045 541.522 334.746 514.829 331.437 488.257L329.452 488.505Z" fill="#EEEEEE" mask="url(#path-12-inside-5)"/>
<path d="M291.345 438.081C308.345 472.481 324.945 536.081 325.345 567.981" stroke="#EEEEEE" stroke-miterlimit="10"/>
<path d="M373.045 433.281C360.845 460.481 344.145 519.481 337.445 568.081" stroke="#EEEEEE" stroke-miterlimit="10"/>
<mask id="path-16-inside-6" fill="white">
<path d="M308.187 541.959C311.832 493.961 307.822 446.813 326.05 401.244C331.275 388.364 343.062 367.949 359.466 367.22C384.742 366.126 369.309 416.92 364.692 435.998C361.775 448.271 357.401 460.422 352.783 472.088C344.641 492.867 332.49 521.788 323.376 541.959"/>
</mask>
<path d="M308.187 541.959C311.832 493.961 307.822 446.813 326.05 401.244C331.275 388.364 343.062 367.949 359.466 367.22C384.742 366.126 369.309 416.92 364.692 435.998C361.775 448.271 357.401 460.422 352.783 472.088C344.641 492.867 332.49 521.788 323.376 541.959" fill="white"/>
<path d="M326.05 401.244L325.123 400.868L325.121 400.873L326.05 401.244ZM359.466 367.22L359.423 366.221L359.422 366.221L359.466 367.22ZM364.692 435.998L363.72 435.763L363.719 435.767L364.692 435.998ZM352.783 472.088L351.853 471.72L351.852 471.723L352.783 472.088ZM309.184 542.035C310.097 530.012 310.53 518.046 310.952 506.167C311.374 494.281 311.783 482.483 312.647 470.764C314.375 447.33 317.918 424.265 326.978 401.616L325.121 400.873C315.954 423.792 312.388 447.085 310.653 470.617C309.785 482.381 309.375 494.218 308.953 506.096C308.532 517.98 308.099 529.907 307.19 541.884L309.184 542.035ZM326.976 401.62C329.566 395.237 333.772 387.014 339.335 380.314C344.914 373.595 351.724 368.565 359.511 368.219L359.422 366.221C350.804 366.604 343.518 372.146 337.796 379.036C332.058 385.947 327.759 394.371 325.123 400.868L326.976 401.62ZM359.51 368.219C362.499 368.09 364.803 368.728 366.583 369.912C368.368 371.098 369.71 372.888 370.672 375.205C372.611 379.881 372.927 386.523 372.292 393.959C371.025 408.806 366.045 426.155 363.72 435.763L365.663 436.233C367.956 426.762 373.001 409.176 374.285 394.13C374.926 386.62 374.65 379.576 372.519 374.439C371.445 371.85 369.882 369.703 367.691 368.246C365.495 366.786 362.753 366.077 359.423 366.221L359.51 368.219ZM363.719 435.767C360.819 447.97 356.465 460.07 351.853 471.72L353.713 472.456C358.337 460.775 362.732 448.571 365.664 436.229L363.719 435.767ZM351.852 471.723C343.716 492.487 331.571 521.392 322.465 541.548L324.288 542.371C333.409 522.183 345.567 493.247 353.714 472.453L351.852 471.723Z" fill="#EEEEEE" mask="url(#path-16-inside-6)"/>
<mask id="path-18-inside-7" fill="white">
<path d="M326.063 516.959C318.043 496.545 310.266 476.13 302.489 455.716C295.563 437.61 287.421 419.868 281.71 401.398C277.457 387.302 266.277 354.858 282.56 344.893C311.481 327.152 334.569 395.808 337.729 420.233C341.739 452.435 340.888 484.758 341.374 517.081"/>
</mask>
<path d="M326.063 516.959C318.043 496.545 310.266 476.13 302.489 455.716C295.563 437.61 287.421 419.868 281.71 401.398C277.457 387.302 266.277 354.858 282.56 344.893C311.481 327.152 334.569 395.808 337.729 420.233C341.739 452.435 340.888 484.758 341.374 517.081" fill="white"/>
<path d="M302.489 455.716L303.423 455.36L303.423 455.358L302.489 455.716ZM281.71 401.398L280.752 401.687L280.754 401.693L281.71 401.398ZM282.56 344.893L283.082 345.746L283.083 345.746L282.56 344.893ZM337.729 420.233L338.721 420.109L338.72 420.105L337.729 420.233ZM326.994 516.594C318.976 496.185 311.201 475.775 303.423 455.36L301.554 456.072C309.331 476.485 317.11 496.905 325.132 517.325L326.994 516.594ZM303.423 455.358C296.464 437.166 288.365 419.536 282.665 401.103L280.754 401.693C286.477 420.2 294.662 438.053 301.555 456.073L303.423 455.358ZM282.667 401.109C280.528 394.019 276.706 382.489 275.427 371.481C274.789 365.981 274.796 360.686 275.93 356.188C277.058 351.71 279.289 348.068 283.082 345.746L282.038 344.04C277.691 346.701 275.212 350.851 273.99 355.699C272.773 360.528 272.788 366.093 273.441 371.712C274.745 382.941 278.639 394.681 280.752 401.687L282.667 401.109ZM283.083 345.746C286.543 343.624 289.863 342.821 293.038 343.033C296.223 343.245 299.34 344.484 302.37 346.57C308.457 350.759 314.061 358.276 318.926 367.228C328.647 385.114 335.172 408.265 336.737 420.361L338.72 420.105C337.125 407.776 330.527 384.387 320.684 366.273C315.767 357.226 309.979 349.379 303.504 344.922C300.254 342.685 296.797 341.279 293.171 341.037C289.536 340.795 285.808 341.728 282.038 344.041L283.083 345.746ZM336.736 420.357C340.737 452.487 339.887 484.717 340.374 517.096L342.374 517.066C341.889 484.798 342.74 452.383 338.721 420.109L336.736 420.357Z" fill="#EEEEEE" mask="url(#path-18-inside-7)"/>
<path d="M290.216 359.111C310.874 400.912 331.045 478.196 331.531 516.96" stroke="#EEEEEE" stroke-miterlimit="10"/>
<path d="M358.494 378.278C343.67 411.33 323.376 483.024 315.235 542.081" stroke="#EEEEEE" stroke-miterlimit="10"/>
<mask id="path-22-inside-8" fill="white">
<path d="M355.105 516.96C355.105 516.96 363.611 479.29 369.444 457.903C375.763 434.693 396.664 399.089 418.536 389.004C423.519 386.695 429.594 385.115 434.455 387.788C437.493 389.368 439.437 392.406 440.531 395.687C444.298 406.502 426.07 440.891 419.752 450.49C407.478 469.325 389.859 499.34 376.006 517.081"/>
</mask>
<path d="M355.105 516.96C355.105 516.96 363.611 479.29 369.444 457.903C375.763 434.693 396.664 399.089 418.536 389.004C423.519 386.695 429.594 385.115 434.455 387.788C437.493 389.368 439.437 392.406 440.531 395.687C444.298 406.502 426.07 440.891 419.752 450.49C407.478 469.325 389.859 499.34 376.006 517.081" fill="white"/>
<path d="M369.444 457.903L370.409 458.166L370.409 458.166L369.444 457.903ZM418.536 389.004L418.955 389.912L418.957 389.911L418.536 389.004ZM434.455 387.788L433.973 388.665L433.983 388.67L433.994 388.676L434.455 387.788ZM440.531 395.687L439.582 396.003L439.586 396.016L440.531 395.687ZM419.752 450.49L418.916 449.941L418.914 449.944L419.752 450.49ZM355.105 516.96C356.081 517.18 356.081 517.18 356.081 517.179C356.081 517.179 356.081 517.179 356.081 517.178C356.081 517.177 356.082 517.175 356.082 517.173C356.083 517.168 356.085 517.162 356.087 517.153C356.091 517.134 356.097 517.107 356.105 517.071C356.121 517 356.146 516.893 356.177 516.752C356.241 516.471 356.335 516.057 356.457 515.521C356.701 514.45 357.056 512.896 357.5 510.963C358.388 507.099 359.633 501.724 361.061 495.681C363.916 483.591 367.497 468.841 370.409 458.166L368.479 457.64C365.558 468.351 361.97 483.13 359.114 495.221C357.686 501.269 356.44 506.648 355.551 510.515C355.106 512.449 354.751 514.005 354.507 515.077C354.385 515.613 354.291 516.029 354.227 516.31C354.195 516.451 354.171 516.558 354.154 516.63C354.146 516.666 354.14 516.693 354.136 516.712C354.134 516.721 354.132 516.728 354.131 516.732C354.131 516.735 354.13 516.736 354.13 516.737C354.13 516.738 354.13 516.738 354.13 516.739C354.13 516.739 354.13 516.739 355.105 516.96ZM370.409 458.166C373.536 446.682 380.289 432.076 388.988 419.088C397.703 406.077 408.27 394.839 418.955 389.912L418.118 388.095C406.93 393.254 396.11 404.861 387.327 417.975C378.527 431.113 371.672 445.915 368.479 457.64L370.409 458.166ZM418.957 389.911C423.902 387.619 429.567 386.241 433.973 388.665L434.937 386.912C429.621 383.989 423.135 385.77 418.116 388.096L418.957 389.911ZM433.994 388.676C436.716 390.091 438.534 392.859 439.582 396.003L441.479 395.371C440.34 391.953 438.27 388.645 434.916 386.901L433.994 388.676ZM439.586 396.016C439.994 397.186 440.127 398.752 439.981 400.678C439.837 402.593 439.424 404.798 438.794 407.21C437.535 412.034 435.435 417.593 433.007 423.144C428.151 434.248 422.04 445.194 418.916 449.941L420.587 451.04C423.782 446.187 429.944 435.139 434.84 423.945C437.288 418.347 439.433 412.681 440.729 407.715C441.378 405.232 441.82 402.902 441.976 400.828C442.131 398.766 442.009 396.891 441.475 395.358L439.586 396.016ZM418.914 449.944C406.592 468.855 389.037 498.768 375.218 516.466L376.794 517.696C390.681 499.912 408.365 469.796 420.589 451.036L418.914 449.944Z" fill="#EEEEEE" mask="url(#path-22-inside-8)"/>
<path d="M430.445 396.659C404.562 419.139 369.93 490.712 360.33 517.081" stroke="#EEEEEE" stroke-miterlimit="10"/>
<mask id="path-25-inside-9" fill="white">
<path d="M149.062 567.981C142.462 551.181 136.062 534.381 129.662 517.581C123.962 502.681 117.262 488.081 112.562 472.881C109.062 461.281 99.8617 434.581 113.262 426.381C137.062 411.781 156.062 468.281 158.662 488.381C161.962 514.881 161.262 541.481 161.662 568.081"/>
</mask>
<path d="M149.062 567.981C142.462 551.181 136.062 534.381 129.662 517.581C123.962 502.681 117.262 488.081 112.562 472.881C109.062 461.281 99.8617 434.581 113.262 426.381C137.062 411.781 156.062 468.281 158.662 488.381C161.962 514.881 161.262 541.481 161.662 568.081" fill="white"/>
<path d="M129.662 517.581L130.596 517.225L130.596 517.224L129.662 517.581ZM112.562 472.881L111.604 473.17L111.606 473.176L112.562 472.881ZM113.262 426.381L113.784 427.234L113.785 427.233L113.262 426.381ZM158.662 488.381L159.654 488.257L159.653 488.253L158.662 488.381ZM149.992 567.615C143.395 550.821 136.996 534.026 130.596 517.225L128.727 517.937C135.127 534.736 141.529 551.541 148.131 568.347L149.992 567.615ZM130.596 517.224C124.863 502.237 118.206 487.749 113.517 472.586L111.606 473.176C116.318 488.413 123.061 503.125 128.728 517.938L130.596 517.224ZM113.519 472.592C111.756 466.75 108.617 457.28 107.567 448.241C107.043 443.725 107.051 439.391 107.977 435.719C108.897 432.066 110.711 429.114 113.784 427.234L112.74 425.528C109.113 427.748 107.051 431.208 106.037 435.23C105.028 439.233 105.043 443.837 105.581 448.471C106.656 457.732 109.867 467.412 111.604 473.17L113.519 472.592ZM113.785 427.233C116.604 425.504 119.3 424.855 121.872 425.027C124.454 425.199 126.989 426.203 129.463 427.906C134.438 431.33 139.034 437.487 143.033 444.846C151.021 459.545 156.385 478.576 157.67 488.509L159.653 488.253C158.338 478.086 152.902 458.817 144.79 443.891C140.74 436.437 135.96 429.95 130.597 426.259C127.903 424.404 125.028 423.233 122.006 423.031C118.973 422.829 115.87 423.608 112.739 425.529L113.785 427.233ZM157.669 488.505C160.96 514.933 160.261 541.44 160.662 568.096L162.661 568.066C162.262 541.522 162.963 514.829 159.654 488.257L157.669 488.505Z" fill="#EEEEEE" mask="url(#path-25-inside-9)"/>
<mask id="path-27-inside-10" fill="white">
<path d="M130.162 567.981C130.162 567.981 116.262 550.181 109.962 541.881C95.9616 523.281 78.6616 503.081 81.2616 482.081C81.8616 477.281 83.6616 471.881 88.4616 469.081C91.4616 467.381 95.0616 466.881 98.4616 467.181C109.862 468.281 120.062 484.781 125.162 493.281C135.162 509.881 150.762 567.981 150.762 567.981"/>
</mask>
<path d="M130.162 567.981C130.162 567.981 116.262 550.181 109.962 541.881C95.9616 523.281 78.6616 503.081 81.2616 482.081C81.8616 477.281 83.6616 471.881 88.4616 469.081C91.4616 467.381 95.0616 466.881 98.4616 467.181C109.862 468.281 120.062 484.781 125.162 493.281C135.162 509.881 150.762 567.981 150.762 567.981" fill="white"/>
<path d="M109.962 541.881L109.163 542.482L109.165 542.486L109.962 541.881ZM81.2616 482.081L80.2694 481.957L80.2692 481.958L81.2616 482.081ZM88.4616 469.081L87.9685 468.211L87.9577 468.217L88.4616 469.081ZM98.4616 467.181L98.5576 466.186L98.5495 466.185L98.4616 467.181ZM125.162 493.281L124.304 493.796L124.305 493.797L125.162 493.281ZM130.162 567.981C130.95 567.366 130.95 567.365 130.95 567.365C130.95 567.365 130.949 567.365 130.949 567.365C130.949 567.364 130.948 567.363 130.947 567.362C130.946 567.36 130.943 567.357 130.94 567.353C130.933 567.344 130.923 567.331 130.91 567.314C130.883 567.28 130.844 567.23 130.792 567.164C130.689 567.031 130.537 566.836 130.34 566.585C129.948 566.082 129.381 565.354 128.68 564.455C127.279 562.657 125.345 560.173 123.214 557.43C118.951 551.942 113.904 545.421 110.758 541.276L109.165 542.486C112.319 546.641 117.372 553.17 121.634 558.657C123.766 561.401 125.701 563.886 127.103 565.685C127.803 566.584 128.371 567.312 128.764 567.815C128.96 568.067 129.112 568.262 129.216 568.394C129.267 568.461 129.307 568.511 129.333 568.545C129.347 568.562 129.357 568.575 129.363 568.584C129.367 568.588 129.369 568.591 129.371 568.593C129.372 568.594 129.372 568.595 129.373 568.596C129.373 568.596 129.373 568.596 129.373 568.596C129.373 568.596 129.373 568.596 130.162 567.981ZM110.761 541.28C103.73 531.938 95.9633 522.313 90.2535 512.383C84.5487 502.461 80.9929 492.39 82.2541 482.204L80.2692 481.958C78.9304 492.772 82.7245 503.301 88.5197 513.379C94.31 523.45 102.194 533.224 109.163 542.482L110.761 541.28ZM82.2539 482.205C82.842 477.5 84.578 472.504 88.9655 469.945L87.9577 468.217C82.7452 471.258 80.8813 477.062 80.2694 481.957L82.2539 482.205ZM88.9546 469.951C91.7337 468.376 95.1179 467.89 98.3737 468.177L98.5495 466.185C95.0053 465.872 91.1895 466.386 87.9686 468.211L88.9546 469.951ZM98.3655 468.176C103.654 468.687 108.831 472.815 113.418 478.111C117.968 483.363 121.754 489.545 124.304 493.796L126.019 492.767C123.469 488.517 119.605 482.199 114.93 476.801C110.292 471.447 104.669 466.775 98.5576 466.186L98.3655 468.176ZM124.305 493.797C126.752 497.859 129.575 504.524 132.442 512.302C135.302 520.06 138.184 528.861 140.757 537.152C143.328 545.442 145.589 553.215 147.206 558.916C148.014 561.767 148.662 564.099 149.108 565.717C149.33 566.527 149.503 567.158 149.619 567.587C149.677 567.801 149.721 567.965 149.751 568.075C149.766 568.13 149.777 568.171 149.785 568.199C149.788 568.213 149.791 568.223 149.793 568.23C149.794 568.234 149.795 568.236 149.795 568.238C149.795 568.239 149.796 568.239 149.796 568.24C149.796 568.24 149.796 568.24 150.762 567.981C151.727 567.722 151.727 567.721 151.727 567.721C151.727 567.72 151.727 567.72 151.727 567.719C151.726 567.717 151.725 567.714 151.724 567.711C151.723 567.704 151.72 567.693 151.716 567.679C151.708 567.651 151.697 567.609 151.682 567.553C151.652 567.442 151.608 567.278 151.549 567.062C151.432 566.632 151.259 565.998 151.036 565.187C150.589 563.563 149.94 561.227 149.13 558.371C147.51 552.659 145.245 544.87 142.667 536.56C140.089 528.251 137.196 519.414 134.319 511.61C131.449 503.825 128.571 497.003 126.018 492.765L124.305 493.797Z" fill="#EEEEEE" mask="url(#path-27-inside-10)"/>
<path d="M119.562 438.081C136.562 472.481 153.162 536.081 153.562 567.981" stroke="#EEEEEE" stroke-miterlimit="10"/>
<path d="M93.1616 477.481C108.062 506.181 138.462 567.981 138.462 567.981" stroke="#EEEEEE" stroke-miterlimit="10"/>
<g opacity="0.05">
<path fill-rule="evenodd" clip-rule="evenodd" d="M437 353C437 410.438 390.438 457 333 457C275.562 457 229 410.438 229 353C229 295.562 275.562 249 333 249V129C209.288 129 109 229.288 109 353C109 476.712 209.288 577 333 577C456.712 577 557 476.712 557 353H437Z" fill="black"/>
<path fill-rule="evenodd" clip-rule="evenodd" d="M433 129V253H557V129H433Z" fill="black"/>
</g>
<mask id="path-33-inside-11" fill="white">
<path fill-rule="evenodd" clip-rule="evenodd" d="M313 437C370.438 437 417 390.438 417 333H537C537 456.712 436.712 557 313 557C189.288 557 89 456.712 89 333C89 209.288 189.288 109 313 109V229C255.562 229 209 275.562 209 333C209 390.438 255.562 437 313 437ZM413 109H537V233H413V109Z"/>
</mask>
<path fill-rule="evenodd" clip-rule="evenodd" d="M313 437C370.438 437 417 390.438 417 333H537C537 456.712 436.712 557 313 557C189.288 557 89 456.712 89 333C89 209.288 189.288 109 313 109V229C255.562 229 209 275.562 209 333C209 390.438 255.562 437 313 437ZM413 109H537V233H413V109Z" fill="white"/>
<path d="M417 333V332H416V333H417ZM537 333H538V332H537V333ZM313 109H314V108H313V109ZM313 229V230H314V229H313ZM537 109H538V108H537V109ZM413 109V108H412V109H413ZM537 233V234H538V233H537ZM413 233H412V234H413V233ZM416 333C416 389.885 369.885 436 313 436V438C370.99 438 418 390.99 418 333H416ZM537 332H417V334H537V332ZM313 558C437.264 558 538 457.264 538 333H536C536 456.16 436.16 556 313 556V558ZM88 333C88 457.264 188.736 558 313 558V556C189.84 556 90 456.16 90 333H88ZM313 108C188.736 108 88 208.736 88 333H90C90 209.84 189.84 110 313 110V108ZM314 229V109H312V229H314ZM210 333C210 276.115 256.115 230 313 230V228C255.01 228 208 275.01 208 333H210ZM313 436C256.115 436 210 389.885 210 333H208C208 390.99 255.01 438 313 438V436ZM537 108H413V110H537V108ZM538 233V109H536V233H538ZM413 234H537V232H413V234ZM412 109V233H414V109H412Z" fill="black" mask="url(#path-33-inside-11)"/>
<path d="M473.891 428.891L481.681 568.886H493.952L492.491 433.666L473.891 428.891Z" fill="#DADADA"/>
<path d="M535.049 568.887L511.092 451.241C511.092 451.241 510.897 445.247 509.534 440.574C508.17 435.901 506.71 433.666 506.71 433.666L481.681 431.532C481.681 431.532 484.019 444.638 488.109 447.889C489.57 449.006 492.686 450.632 492.686 450.632L522.583 568.887H535.049Z" fill="#DADADA"/>
<path d="M473.891 393.333C473.988 382.666 476.228 364.379 476.228 364.379L507.391 371.186C512.066 372.202 516.156 375.453 518.201 380.024C521.512 387.441 524.434 399.022 525.505 402.172C527.063 406.845 527.745 418.731 523.46 419.341C518.883 420.052 515.279 410.706 512.747 401.359C511.871 414.363 510.118 428.18 506.807 433.767C506.807 433.767 481 433.564 473.988 428.992C472.625 428.078 473.793 403.899 473.891 393.333Z" fill="#002DDC"/>
<path d="M519.564 568.886H536.022C536.022 564.01 532.322 559.946 527.745 559.946C523.265 559.946 519.564 563.908 519.564 568.886Z" fill="black"/>
<path d="M493.952 568.886V559.946C493.952 559.946 483.726 560.556 476.422 562.791C473.598 563.705 466.489 568.785 466.489 568.785L493.952 568.886Z" fill="black"/>
<path d="M513.332 449.921C509.728 449.311 505.151 446.263 503.496 444.435L504.177 443.724C505.735 445.451 510.118 448.397 513.526 448.905L513.332 449.921Z" fill="#AAAAAA"/>
<path d="M504.374 484.136L503.432 484.394L523.023 563.058L523.965 562.8L504.374 484.136Z" fill="#AAAAAA"/>
<path d="M499.698 354.524L500.379 369.662C500.379 369.662 498.334 374.945 492.589 373.726C487.038 372.608 487.33 367.325 487.33 367.325L488.401 356.252L499.698 354.524Z" fill="#EBEBEB"/>
<path d="M499.795 356.76C498.626 359.604 494.244 364.582 491.615 364.379C489.083 364.074 487.914 361.738 487.914 361.738L488.401 356.353L499.698 354.524L499.795 356.76Z" fill="#B0B0B0"/>
<path d="M500.672 348.327C502.717 347.413 504.275 349.648 503.398 351.477C502.522 353.305 500.379 354.931 499.211 354.423C496.484 357.674 492.881 362.144 489.18 360.722C485.966 359.401 485.772 353.712 486.161 349.14C486.453 345.584 488.401 339.285 488.401 339.285L501.451 344.873L500.672 348.327Z" fill="#EBEBEB"/>
<path d="M502.23 348.226C503.301 347.718 507.489 343.044 506.904 340.911C506.223 338.777 503.69 339.285 503.69 339.285C503.69 339.285 504.177 334.815 500.185 332.885C496.289 330.955 493.465 331.869 492.102 331.158C490.738 330.447 488.401 328.516 488.011 327.907C487.038 326.586 485.771 326.789 485.674 328.11C485.187 332.174 486.161 337.152 486.843 338.676C489.375 344.06 498.334 345.889 499.308 345.889C500.282 345.889 500.769 348.327 500.769 348.327L502.23 348.226Z" fill="black"/>
<path d="M494.342 377.688C493.563 377.688 492.783 377.586 491.907 377.383C484.7 375.453 484.214 368.951 484.311 366.208H485.285C485.187 369.256 485.869 374.64 492.102 376.367C498.237 377.993 502.035 372.506 502.912 370.373L503.788 370.779C503.009 372.71 499.698 377.688 494.342 377.688Z" fill="black"/>
<path d="M492.296 436.917C489.959 436.917 487.33 436.713 484.505 436.205L484.7 435.189C494.439 437.018 501.548 435.088 506.514 433.158L506.807 434.072C504.664 435.088 499.503 436.917 492.296 436.917Z" fill="#AAAAAA"/>
<path d="M438.247 328.517C438.832 330.244 440.682 333.901 440.682 333.901C440.779 335.018 440.877 336.847 441.169 338.981C443.409 338.168 445.649 337.254 447.889 336.238H447.986C447.207 334.003 446.525 332.174 446.233 331.158C446.525 328.821 446.72 325.266 446.233 323.234C445.649 320.795 443.409 314.801 442.532 314.497C441.753 314.192 441.559 314.801 441.559 315.106C441.559 315.411 443.117 320.389 443.117 320.999C443.117 321.71 443.019 322.116 442.727 321.811C442.435 321.507 440.682 314.801 440.39 314.293C440 313.684 438.345 314.09 438.247 314.903C438.15 315.716 437.955 317.24 437.858 317.037C437.76 316.833 436.884 317.951 436.981 319.881C437.079 321.811 437.566 326.789 438.247 328.517Z" fill="#EBEBEB"/>
<path d="M535.633 380.735C535.049 382.462 533.198 386.12 533.198 386.12C533.101 387.237 533.003 389.066 532.711 391.2C530.471 390.387 528.232 389.472 525.992 388.456H525.894C526.673 386.221 527.355 384.393 527.647 383.377C527.355 381.04 527.16 377.484 527.647 375.453C528.232 373.014 530.471 367.02 531.348 366.715C532.224 366.411 532.322 367.02 532.322 367.325C532.322 367.63 530.764 372.608 530.764 373.217C530.764 373.929 530.861 374.335 531.153 374.03C531.445 373.725 533.198 367.02 533.49 366.512C533.88 365.903 535.535 366.309 535.633 367.122C535.73 367.935 535.925 369.459 536.022 369.255C536.12 369.052 536.996 370.17 536.899 372.1C536.801 374.03 536.315 379.008 535.633 380.735Z" fill="#EBEBEB"/>
<path d="M476.909 378.704L481.194 365.598C480.123 365.192 478.955 364.887 477.689 364.481C472.43 362.753 464.639 359.807 460.646 355.947C457.724 353.102 449.836 342.841 447.986 334.815L440.974 337.457C446.915 366.919 463.568 374.437 473.793 377.688C474.962 377.992 475.936 378.399 476.909 378.704Z" fill="#002DDC"/>
<path d="M532.517 401.562C531.056 414.058 528.037 422.287 524.239 421.678C521.707 421.271 520.344 419.138 519.857 416.496C519.272 413.753 519.662 410.502 520.246 407.759C521.61 402.172 526.576 386.526 526.576 386.526L533.101 387.847C533.101 387.847 533.101 396.076 532.517 401.562Z" fill="#002DDC"/>
<path d="M525.018 424.421C524.921 424.421 524.726 424.421 524.628 424.421L524.726 423.405C526.966 423.608 529.595 422.795 532.711 411.925L533.685 412.229C530.666 422.186 528.037 424.421 525.018 424.421Z" fill="#17304F"/>
<g opacity="0.3">
<path d="M552.863 567.983H449.634V569H552.863V567.983Z" fill="black"/>
</g>
<g opacity="0.3">
<path d="M571.366 567.983H559.68V569H571.366V567.983Z" fill="black"/>
</g>
<g opacity="0.3">
<path d="M585 567.983H578.183V569H585V567.983Z" fill="black"/>
</g>
<g opacity="0.3">
<path d="M442.817 567.983H436V569H442.817V567.983Z" fill="black"/>
</g>
<path fill-rule="evenodd" clip-rule="evenodd" d="M495.518 393.5C495.518 395.167 494.167 396.518 492.5 396.518C490.833 396.518 489.482 395.167 489.482 393.5C489.482 391.833 490.833 390.482 492.5 390.482V387C488.91 387 486 389.91 486 393.5C486 397.09 488.91 400 492.5 400C496.09 400 499 397.09 499 393.5H495.518Z" fill="white"/>
<path fill-rule="evenodd" clip-rule="evenodd" d="M495.402 387V390.598H499.001V387H495.402Z" fill="white"/>
<path d="M326.607 206.368C326.607 206.368 350.519 202.333 358.959 201.526C367.298 200.719 370.513 198.803 373.728 201.526C377.647 204.855 374.834 233.399 374.432 245.402C374.03 257.405 372.925 274.048 372.925 274.048L360.466 275.964C360.466 275.964 358.658 243.284 358.658 236.123C358.658 228.86 358.557 221.195 358.557 221.195C358.557 221.195 332.635 228.053 326.607 228.76C320.579 229.566 309.025 226.742 309.025 226.742L326.607 206.368Z" fill="#0026BB"/>
<path d="M333.138 204.451C334.645 193.558 334.343 176.512 334.544 167.232C334.745 157.953 333.941 150.993 333.138 149.48C332.334 147.866 327.612 145.546 323.894 143.327C320.177 141.108 317.766 138.687 317.766 138.687L303.097 138.082C303.097 138.082 287.926 148.673 285.916 149.48C283.907 150.287 289.232 168.543 291.241 172.578C293.251 176.613 294.456 183.068 294.356 192.852C294.255 200.82 293.15 214.84 293.15 214.84L333.138 204.451Z" fill="#DADADA"/>
<path d="M289.031 149.883C292.648 152.707 293.954 164.509 292.547 171.367C291.141 178.327 285.112 196.483 285.112 196.483L275.467 194.667C275.467 194.667 272.453 190.633 275.065 180.344C277.678 169.955 283.203 150.993 285.414 149.883C287.624 148.774 289.031 149.883 289.031 149.883Z" fill="#DADADA"/>
<path d="M319.027 195.173L315.41 204.756C315.41 204.756 291.599 202.637 285.972 200.519C280.346 198.401 275.925 197.292 275.222 194.467C274.519 191.542 275.322 186.6 280.647 184.885C285.972 183.171 319.027 195.173 319.027 195.173Z" fill="#DADADA"/>
<path d="M372.724 275.964C372.724 275.964 378.149 278.082 381.766 279.293C385.383 280.503 389 283.529 389 283.529H361.672L361.471 275.359L372.02 273.14L372.724 275.964Z" fill="#17304F"/>
<path d="M305.548 123.19L303.137 138.824C303.137 138.824 304.845 144.271 311.375 143.666C317.705 143.06 317.906 138.421 317.906 138.421V126.418L305.548 123.19Z" fill="#EBEBEB"/>
<path d="M304.905 125.676C305.91 128.903 310.23 134.754 313.144 134.854C316.058 134.854 317.665 132.434 317.665 132.434V126.584L305.207 123.356L304.905 125.676Z" fill="#B0B0B0"/>
<path d="M304.905 116.598C302.795 115.388 300.786 117.607 301.489 119.624C302.293 121.641 304.503 123.659 305.81 123.356C308.522 127.189 312.039 132.434 316.259 131.324C319.976 130.316 320.88 124.264 320.981 119.221C320.981 115.287 319.574 108.327 319.574 108.327L304.302 112.765L304.905 116.598Z" fill="#EBEBEB"/>
<path d="M350.017 275.964C352.428 281.613 357.05 283.226 358.758 289.278C358.859 289.682 358.457 290.085 358.055 289.984L337.056 282.924C337.056 282.924 337.559 278.385 338.061 277.78C338.563 277.175 350.017 275.964 350.017 275.964Z" fill="#17304F"/>
<path d="M325.301 107.016C323.493 111.555 320.88 113.572 320.478 113.673C320.077 113.774 320.177 111.857 319.574 111.756C318.971 111.656 315.756 114.883 312.642 115.085C309.527 115.287 306.412 114.177 305.709 114.379C305.006 114.581 305.709 116.295 305.207 116.598C304.704 117.001 301.288 113.37 300.886 111.555C300.485 109.739 301.59 108.024 303.097 108.226C302.394 105.805 301.992 102.578 306.513 101.266C310.331 100.056 317.062 103.385 318.77 102.981C320.478 102.578 322.186 101.569 323.091 101.67C323.894 101.771 323.894 106.007 323.593 106.713C324.497 106.209 325.703 106.108 325.301 107.016Z" fill="black"/>
<path d="M350.218 205.056H311.938L321.985 183.471C322.789 181.756 324.497 180.748 326.306 180.748H358.356C359.863 180.748 360.868 182.261 360.165 183.673L350.218 205.056Z" fill="black"/>
<path d="M318.268 200.316C325.803 199.004 328.617 197.794 331.43 200.316C334.243 202.837 351.022 276.065 351.022 276.065C351.022 276.065 347.405 277.074 344.19 277.78C340.975 278.385 337.458 277.78 337.458 277.78C337.458 277.78 325.502 237.131 323.392 230.373C308.422 230.172 302.996 231.483 297.169 226.843C287.624 219.177 292.045 204.855 318.268 200.316Z" fill="#002DDC"/>
<path d="M292.447 174.192L291.442 173.889C292.949 168.442 295.059 158.356 292.045 151.699L292.949 151.295C296.064 158.255 293.954 168.644 292.447 174.192Z" fill="#BCBCBC"/>
<path d="M312.843 192.549C307.216 190.532 293.05 186.295 292.949 186.295L293.251 185.287C293.351 185.287 307.618 189.624 313.244 191.54L312.843 192.549Z" fill="#BCBCBC"/>
<path d="M329.923 254.177C329.521 252.866 329.018 251.051 328.315 248.731C325.401 238.947 320.478 222.506 319.273 217.16L320.277 216.958C321.383 222.203 326.306 238.644 329.32 248.428C330.023 250.748 330.626 252.664 330.927 253.875L329.923 254.177Z" fill="#17304F"/>
<path d="M372.755 220.778L370.466 271.866L371.47 271.911L373.758 220.824L372.755 220.778Z" fill="white"/>
<path d="M310.933 147.866C310.833 147.866 310.833 147.866 310.933 147.866C306.513 147.866 300.786 145.949 299.078 140.705L300.083 140.402C301.59 145.143 306.814 146.857 310.933 146.857C314.952 146.857 318.871 143.73 319.976 140.906L320.88 141.31C319.574 144.739 314.852 147.866 310.933 147.866Z" fill="#BCBCBC"/>
<path fill-rule="evenodd" clip-rule="evenodd" d="M315.518 164.5C315.518 166.167 314.167 167.518 312.5 167.518C310.833 167.518 309.482 166.167 309.482 164.5C309.482 162.833 310.833 161.482 312.5 161.482V158C308.91 158 306 160.91 306 164.5C306 168.09 308.91 171 312.5 171C316.09 171 319 168.09 319 164.5H315.518Z" fill="black"/>
<path fill-rule="evenodd" clip-rule="evenodd" d="M315.402 158V161.598H319.001V158H315.402Z" fill="black"/>
<g opacity="0.3">
<path d="M251 567.988H99V568.999H251V567.988Z" fill="black"/>
</g>
<g opacity="0.3">
<path d="M268.2 567.988H258V568.999H268.2V567.988Z" fill="black"/>
</g>
<g opacity="0.3">
<path d="M280 567.988H275V568.999H280V567.988Z" fill="black"/>
</g>
<g opacity="0.3">
<path d="M92 567.988H87V568.999H92V567.988Z" fill="black"/>
</g>
<path d="M136.3 489.203C147.7 486.978 192.1 477.37 194.4 478.28C196.7 479.191 198.3 480 197.8 484.045C197.3 488.091 180.1 558.683 180.1 558.683H172.9C172.9 558.683 173.7 553.121 174.2 547.559C174.8 541.996 174.7 519.645 175.8 515.397C176.9 511.15 179 502.958 179 502.958C179 502.958 164.3 513.071 158.3 513.88C152.3 514.689 137.3 518.532 132.7 506.598C128.8 496.687 134.7 489.506 136.3 489.203Z" fill="#CECECE"/>
<path d="M142.7 491.31C134.6 495.053 135.9 515.887 150.4 515.583C164.9 515.28 190 501.728 190 501.728C190 501.728 190.2 514.471 192.5 520.134C194.8 525.697 199.6 536.619 200.8 541.98C201.9 547.34 204.5 559.375 204.5 559.375L212.8 558.465C212.8 558.465 203.8 495.963 203.6 493.131C203.4 490.299 201.8 485.445 195.1 485.04C188.4 484.534 162.9 486.456 162.9 486.456L142.7 491.31Z" fill="#DADADA"/>
<path d="M149.6 436.713L157.8 439.748C160.4 440.658 162.3 442.984 162.9 445.715C163.6 449.153 164.5 453.603 165 455.12C166 458.255 163.7 463.818 162.7 469.38C162 473.426 162.3 483.034 162.5 486.978C162.6 488.495 154.5 491.125 149.7 491.833C143.7 492.642 134.2 491.226 134.2 491.226C134.2 491.226 136.6 476.561 136.1 471.605C135.6 466.751 131.5 455.525 130.1 452.592C128.7 449.659 128.5 443.186 128.5 443.186L138.6 436.815H149.6V436.713Z" fill="#002DDC"/>
<path d="M125.8 445.512C121 454.21 138 478.28 137.9 478.988C137.8 479.696 142.2 477.876 142.2 477.876L138.5 452.086L128.4 443.085L125.8 445.512Z" fill="#002DDC"/>
<path d="M138.533 436.762L149.533 436.762L149.533 421.187L138.533 421.187L138.533 436.762Z" fill="#E4E4E4"/>
<path d="M155.7 409.407C155.5 418.914 157 423.97 152.4 427.915C147.8 431.859 144.1 428.926 144.1 428.926V410.014L155.7 409.407Z" fill="#E4E4E4"/>
<path d="M125.9 414.464C132.307 414.464 137.5 409.211 137.5 402.732C137.5 396.253 132.307 391 125.9 391C119.494 391 114.3 396.253 114.3 402.732C114.3 409.211 119.494 414.464 125.9 414.464Z" fill="black"/>
<path d="M155.5 410.013C158.3 400.203 144.9 393.124 136.9 398.99C129.6 404.35 129.2 410.013 131.4 417.599C133.8 425.588 138.6 427.308 138.6 427.308C138.6 427.308 143.8 427.004 145.3 425.386C151.2 418.913 147.6 419.217 146.4 417.801C144.4 415.273 147.3 408.699 150.4 414.565C154.3 421.846 155.5 410.013 155.5 410.013Z" fill="black"/>
<path d="M144.1 463.211H106.4V464.222H144.1V463.211Z" fill="black"/>
<path d="M110.8 567.482L109.9 567.179L123.2 515.397L123.3 514.993H173.6V516.004H124L110.8 567.482Z" fill="black"/>
<path d="M110.952 463.764L109.984 464.018L122.208 511.902L123.176 511.648L110.952 463.764Z" fill="black"/>
<path d="M172.9 558.683L168.3 568.19H184L180 558.683H172.9Z" fill="black"/>
<path d="M204.5 559.375C203.4 559.679 202.2 568.68 202.2 568.68H227.3L212.8 558.566L204.5 559.375Z" fill="black"/>
<path d="M240.3 475.55H162.3V476.561H240.3V475.55Z" fill="black"/>
<path d="M201.8 475.55H163.4L174.3 449.254C175 447.535 176.7 446.422 178.6 446.422H209.3C211.5 446.422 213 448.647 212.1 450.67L201.8 475.55Z" fill="black"/>
<path d="M204.6 458.862L203.7 458.458L206.5 451.682C206.7 451.176 206.6 450.67 206.4 450.266C206.1 449.861 205.7 449.558 205.2 449.558H179C177.9 449.558 176.9 450.266 176.5 451.277L175.6 450.872C176.2 449.457 177.5 448.546 179 448.546H205.2C206 448.546 206.8 448.951 207.2 449.659C207.7 450.367 207.7 451.277 207.4 451.985L204.6 458.862Z" fill="white"/>
<path d="M123.2 420.936L123.1 419.925C125.7 419.723 129.3 418.812 129.6 412.036H130.6C130.4 417.7 127.9 420.633 123.2 420.936Z" fill="#17304F"/>
<path d="M201.825 497.415L200.838 497.579L210.175 554.347L211.162 554.183L201.825 497.415Z" fill="#AAAAAA"/>
<path d="M151.1 496.788C150.6 496.788 150 496.788 149.4 496.687L149.6 495.676C154 496.384 157 494.26 159.3 488.799L160.2 489.203C158 494.361 155.1 496.788 151.1 496.788Z" fill="#AAAAAA"/>
<path d="M160.2 441.164C165.3 446.22 178.9 469.785 178.9 469.785L191.5 470.19C191.5 470.19 192.9 473.224 192.9 474.842C192.9 476.46 183.9 482.73 178.2 482.022C172.5 481.314 158.8 461.492 156 456.132C153.4 450.771 157.1 438.028 160.2 441.164Z" fill="#002DDC"/>
<path d="M192 469.886C193.4 469.987 197.6 470.291 198.7 471.201C199.8 472.111 200.7 475.246 200.7 475.246H192.8L192 469.886Z" fill="#E4E4E4"/>
<path d="M164.2 469.178C164.2 469.178 162.8 467.256 158.6 461.289C154.5 455.322 153.1 447.231 155.4 442.883L156.3 443.388C154.5 446.928 155.1 454.614 159.4 460.784C163.5 466.751 164.9 468.672 165 468.672L164.2 469.178Z" fill="#17304F"/>
<path d="M36 89H113.929C113.929 89 115.301 71.1057 105.999 69.6677C96.5434 68.3896 93.6459 74.3011 89.2233 76.8574C88.4608 60.8803 88.1558 53.6906 77.1757 54.0102C64.0604 54.17 58.4179 73.1827 56.2829 76.8574C50.7928 62.478 36 89 36 89Z" fill="black" fill-opacity="0.05"/>
<path d="M305 307H381.93C381.93 307 383.285 290.128 374.101 288.772C364.767 287.567 361.907 293.141 357.541 295.551C356.788 280.487 356.487 273.708 345.648 274.01C332.701 274.16 327.13 292.087 325.023 295.551C319.603 281.994 305 307 305 307Z" fill="black" fill-opacity="0.05"/>
<path d="M466 40H558.915C558.915 40 560.551 19.5493 549.46 17.906C538.186 16.4452 534.732 23.2013 529.459 26.1228C528.549 7.86324 528.186 -0.35355 515.094 0.011641C499.457 0.194236 492.729 21.9231 490.183 26.1228C483.638 9.6892 466 40 466 40Z" fill="black" fill-opacity="0.05"/>
<mask id="path-107-inside-12" fill="white">
<path fill-rule="evenodd" clip-rule="evenodd" d="M94.822 165.649C94.8219 165.649 94.8219 165.649 94.8219 165.649C70.5506 170.994 55.2076 195.002 60.5523 219.274L45.9034 222.5L45.9034 222.499C38.777 190.138 59.2344 158.126 91.5961 151L94.822 165.649Z"/>
</mask>
<path fill-rule="evenodd" clip-rule="evenodd" d="M94.822 165.649C94.8219 165.649 94.8219 165.649 94.8219 165.649C70.5506 170.994 55.2076 195.002 60.5523 219.274L45.9034 222.5L45.9034 222.499C38.777 190.138 59.2344 158.126 91.5961 151L94.822 165.649Z" fill="black"/>
<path d="M94.822 165.649L95.037 166.626L96.0136 166.411L95.7986 165.434L94.822 165.649ZM60.5523 219.274L60.7674 220.25L61.744 220.035L61.5289 219.059L60.5523 219.274ZM45.9034 222.5L45.3219 223.313L45.6839 223.572L46.1185 223.476L45.9034 222.5ZM45.9034 222.499L44.9268 222.715L45.0094 223.09L45.3219 223.313L45.9034 222.499ZM91.5961 151L92.5727 150.785L92.3576 149.808L91.381 150.023L91.5961 151ZM95.0369 166.626C95.0369 166.626 95.0369 166.626 95.0369 166.626C95.0369 166.626 95.0369 166.626 95.0369 166.626C95.0369 166.626 95.0369 166.626 95.037 166.626C95.037 166.626 95.037 166.626 95.037 166.626C95.037 166.626 95.037 166.626 95.037 166.626L95.037 166.626C95.037 166.626 95.037 166.626 95.037 166.626L95.037 166.626C95.037 166.626 95.037 166.626 95.037 166.626C95.037 166.626 95.037 166.626 95.037 166.626C95.037 166.626 95.037 166.626 95.037 166.626L95.037 166.626C95.037 166.626 95.037 166.626 95.037 166.626L95.037 166.626C95.037 166.626 95.037 166.626 95.037 166.626C95.037 166.626 95.037 166.626 95.037 166.626C95.037 166.626 95.037 166.626 95.037 166.626C95.037 166.626 95.037 166.626 95.037 166.626C95.037 166.626 95.037 166.626 95.037 166.626L94.6069 164.672C94.6069 164.672 94.6069 164.672 94.6069 164.672C94.6069 164.672 94.6069 164.672 94.6069 164.672C94.6069 164.672 94.6069 164.672 94.6069 164.672C94.6069 164.672 94.6069 164.672 94.6069 164.672C94.6069 164.672 94.6069 164.672 94.6069 164.672L94.6069 164.672C94.6069 164.672 94.6069 164.672 94.6069 164.672L94.6069 164.672C94.6069 164.672 94.6069 164.672 94.6069 164.672C94.6069 164.672 94.6069 164.672 94.6069 164.672C94.6069 164.672 94.6069 164.672 94.6069 164.672L94.6069 164.672C94.6069 164.672 94.6069 164.672 94.6068 164.672L94.6068 164.672C94.6068 164.672 94.6068 164.672 94.6068 164.672C94.6068 164.672 94.6068 164.672 94.6068 164.672C94.6068 164.672 94.6068 164.672 94.6068 164.672C94.6068 164.672 94.6068 164.672 94.6068 164.672C94.6068 164.672 94.6068 164.672 94.6068 164.672L95.0369 166.626ZM61.5289 219.059C56.303 195.327 71.305 171.852 95.0369 166.626L94.6068 164.672C69.7962 170.136 54.1122 194.678 59.5757 219.489L61.5289 219.059ZM60.3373 218.297L45.6884 221.523L46.1185 223.476L60.7674 220.25L60.3373 218.297ZM46.485 221.686L46.4849 221.686L45.3219 223.313L45.3219 223.313L46.485 221.686ZM46.88 222.284C39.8724 190.462 59.9888 158.984 91.8112 151.977L91.381 150.023C58.4799 157.269 37.6817 189.813 44.9268 222.715L46.88 222.284ZM90.6195 151.215L93.8454 165.864L95.7986 165.434L92.5727 150.785L90.6195 151.215Z" fill="black" mask="url(#path-107-inside-12)"/>
<mask id="path-109-inside-13" fill="white">
<path fill-rule="evenodd" clip-rule="evenodd" d="M309.519 584.99C309.519 584.99 309.519 584.99 309.519 584.99C331.042 572.564 338.417 545.042 325.99 523.519L338.981 516.019L338.981 516.019C355.549 544.717 345.717 581.412 317.019 597.981L309.519 584.99Z"/>
</mask>
<path fill-rule="evenodd" clip-rule="evenodd" d="M309.519 584.99C309.519 584.99 309.519 584.99 309.519 584.99C331.042 572.564 338.417 545.042 325.99 523.519L338.981 516.019L338.981 516.019C355.549 544.717 345.717 581.412 317.019 597.981L309.519 584.99Z" fill="black"/>
<path d="M309.519 584.99L309.019 584.124L308.153 584.624L308.653 585.49L309.519 584.99ZM325.99 523.519L325.49 522.653L324.624 523.153L325.124 524.019L325.99 523.519ZM338.981 516.019L339.289 515.068L338.866 514.931L338.481 515.153L338.981 516.019ZM338.981 516.019L339.847 515.519L339.655 515.187L339.289 515.068L338.981 516.019ZM317.019 597.981L316.153 598.481L316.653 599.347L317.519 598.847L317.019 597.981ZM309.019 584.124C309.019 584.124 309.019 584.124 309.019 584.124C309.019 584.124 309.019 584.124 309.019 584.124L310.019 585.856C310.019 585.856 310.019 585.856 310.019 585.856C310.019 585.856 310.019 585.856 310.019 585.856L309.019 584.124ZM325.124 524.019C337.275 545.064 330.064 571.974 309.019 584.124L310.019 585.856C332.021 573.154 339.559 545.021 326.856 523.019L325.124 524.019ZM326.49 524.385L339.481 516.885L338.481 515.153L325.49 522.653L326.49 524.385ZM338.672 516.97L338.672 516.97L339.289 515.068L339.289 515.068L338.672 516.97ZM338.115 516.519C354.407 544.739 344.738 580.822 316.519 597.115L317.519 598.847C346.695 582.002 356.691 544.695 339.847 515.519L338.115 516.519ZM317.885 597.481L310.385 584.49L308.653 585.49L316.153 598.481L317.885 597.481Z" fill="black" mask="url(#path-109-inside-13)"/>
<mask id="path-111-inside-14" fill="white">
<path fill-rule="evenodd" clip-rule="evenodd" d="M607.697 329.69C607.697 329.69 607.697 329.69 607.697 329.69C603.399 305.211 580.072 288.851 555.593 293.149L553 278.375L553 278.375C585.638 272.645 616.741 294.458 622.471 327.096L607.697 329.69Z"/>
</mask>
<path fill-rule="evenodd" clip-rule="evenodd" d="M607.697 329.69C607.697 329.69 607.697 329.69 607.697 329.69C603.399 305.211 580.072 288.851 555.593 293.149L553 278.375L553 278.375C585.638 272.645 616.741 294.458 622.471 327.096L607.697 329.69Z" fill="black"/>
<path d="M607.697 329.69L606.712 329.863L606.885 330.848L607.87 330.675L607.697 329.69ZM555.593 293.149L554.609 293.321L554.781 294.306L555.766 294.133L555.593 293.149ZM553 278.375L552.212 277.759L551.938 278.109L552.015 278.547L553 278.375ZM553 278.375L552.827 277.39L552.449 277.456L552.212 277.759L553 278.375ZM622.471 327.096L622.644 328.081L623.629 327.908L623.456 326.923L622.471 327.096ZM606.712 329.863C606.712 329.863 606.712 329.863 606.712 329.863C606.712 329.863 606.712 329.863 606.712 329.863C606.712 329.863 606.712 329.863 606.712 329.863C606.712 329.863 606.712 329.863 606.712 329.863C606.712 329.863 606.712 329.863 606.712 329.863L606.712 329.863C606.712 329.863 606.712 329.863 606.712 329.863L606.712 329.863C606.712 329.863 606.712 329.863 606.712 329.863C606.712 329.863 606.712 329.863 606.712 329.863C606.712 329.863 606.712 329.863 606.712 329.863L606.712 329.863C606.712 329.863 606.712 329.863 606.712 329.863L606.712 329.863C606.712 329.863 606.712 329.863 606.712 329.863C606.712 329.863 606.712 329.863 606.712 329.863C606.712 329.863 606.712 329.863 606.712 329.863C606.712 329.863 606.712 329.863 606.712 329.863C606.712 329.863 606.712 329.863 606.712 329.863L608.682 329.517C608.682 329.517 608.682 329.517 608.682 329.517C608.682 329.517 608.682 329.517 608.682 329.517C608.682 329.517 608.682 329.517 608.682 329.517C608.682 329.517 608.682 329.517 608.682 329.517C608.682 329.517 608.682 329.517 608.682 329.517L608.682 329.517C608.682 329.517 608.682 329.517 608.682 329.517L608.682 329.517C608.682 329.517 608.682 329.517 608.682 329.517C608.682 329.517 608.682 329.517 608.682 329.517C608.682 329.517 608.682 329.517 608.682 329.517L608.682 329.517C608.682 329.517 608.682 329.517 608.682 329.517L608.682 329.517C608.682 329.517 608.682 329.517 608.682 329.517C608.682 329.517 608.682 329.517 608.682 329.517C608.682 329.517 608.682 329.517 608.682 329.517C608.682 329.517 608.682 329.517 608.682 329.517C608.682 329.517 608.682 329.517 608.682 329.517L606.712 329.863ZM555.766 294.133C579.701 289.932 602.51 305.928 606.712 329.863L608.682 329.517C604.289 304.494 580.443 287.771 555.421 292.164L555.766 294.133ZM556.578 292.976L553.985 278.202L552.015 278.547L554.609 293.321L556.578 292.976ZM553.788 278.99L553.788 278.99L552.212 277.759L552.212 277.759L553.788 278.99ZM553.173 279.359C585.267 273.725 615.852 295.175 621.486 327.269L623.456 326.923C617.63 293.741 586.009 271.564 552.827 277.39L553.173 279.359ZM622.298 326.111L607.524 328.705L607.87 330.675L622.644 328.081L622.298 326.111Z" fill="black" mask="url(#path-111-inside-14)"/>
<rect x="184" y="104" width="5" height="5" fill="#002DDC"/>
<rect x="48" y="351" width="5" height="5" fill="#002DDC"/>
<rect x="597" y="212" width="5" height="5" fill="#002DDC"/>
<rect x="236" y="54" width="24" height="1" fill="black"/>
<rect x="268" y="54" width="6" height="1" fill="black"/>
<rect y="424" width="24" height="1" fill="black"/>
<rect x="32" y="424" width="6" height="1" fill="black"/>
<rect x="589" y="386" width="24" height="1" fill="black"/>
<rect x="621" y="386" width="6" height="1" fill="black"/>
</svg>
