<svg width="61" height="60" viewBox="0 0 61 60" fill="none" xmlns="http://www.w3.org/2000/svg">
<path d="M29.929 23.52C33.4522 23.52 36.2781 26.339 36.2781 29.8536C36.2781 33.3682 33.4522 36.1871 29.929 36.1871C26.4058 36.1871 23.58 33.3682 23.58 29.8536C23.58 26.4854 26.4058 23.52 29.929 23.52ZM22.9194 43.3262L12.1296 54.0896C12.1296 54.0896 4.31248 49.3669 8.89998 44.7906L16.607 37.1024C20.4605 33.2217 26.8095 39.4455 22.9194 43.3262ZM36.9387 16.6738L47.7285 5.91038C47.7285 5.91038 55.5456 10.6331 50.9581 15.2094C48.5359 17.6257 45.4164 20.5911 43.2511 22.8976C39.3976 26.6318 33.0485 20.5545 36.9387 16.6738ZM16.5703 23.0074L5.78048 12.244C5.78048 12.244 10.5148 4.44597 15.1023 9.02226L22.8093 16.7104C26.5526 20.5545 20.4605 26.7783 16.5703 23.0074ZM43.2878 36.9926L54.0776 47.756C54.0776 47.756 49.3433 55.554 44.7558 50.9777L37.0488 43.2896C33.1586 39.4455 39.3976 33.1119 43.2878 36.9926ZM44.3888 25.5701H59.656C59.656 25.5701 61.8213 34.32 55.3254 34.32H44.5356C38.9939 34.4299 38.8471 25.5701 44.3888 25.5701ZM15.4693 34.4299H0.348889C0.348889 34.4299 -1.81641 25.68 4.67948 25.68H15.4693C20.8642 25.5702 21.011 34.4299 15.4693 34.4299ZM34.3697 44.4245V59.6544C34.3697 59.6544 25.5984 61.8144 25.5984 55.3344V44.5709C25.4516 39.0428 34.3697 38.8963 34.3697 44.4245ZM25.4517 15.5755V0.345602C25.4517 0.345602 34.2229 -1.81441 34.2229 4.66563V15.4291C34.3697 20.9572 25.4517 21.1037 25.4517 15.5755Z" fill="#F05A22"/>
</svg>
