<svg width="61" height="60" viewBox="0 0 61 60" fill="none" xmlns="http://www.w3.org/2000/svg">
<path d="M4.26417 29.999C4.26417 40.1863 10.1841 48.9891 18.7686 53.1613L6.49279 19.5253C5.02099 22.8208 4.26155 26.3898 4.26417 29.999ZM47.3734 28.7003C47.3734 25.5197 46.231 23.3171 45.2511 21.6026C43.9465 19.4827 42.7237 17.6875 42.7237 15.5676C42.7237 13.2018 44.518 10.9996 47.0453 10.9996C47.1594 10.9996 47.2677 11.0138 47.3788 11.0202C42.8001 6.82593 36.6999 4.26431 30.0004 4.26431C21.0095 4.26431 13.0988 8.87729 8.49762 15.8643C9.10093 15.8824 9.67045 15.8947 10.1538 15.8947C12.8457 15.8947 17.0125 15.5681 17.0125 15.5681C18.3998 15.4863 18.5634 17.5239 17.1776 17.688C17.1776 17.688 15.7834 17.852 14.232 17.9333L23.6034 45.81L29.2354 28.9187L25.2258 17.9328C23.8399 17.8515 22.5265 17.6875 22.5265 17.6875C21.1397 17.6062 21.3023 15.4858 22.6891 15.5676C22.6891 15.5676 26.9397 15.8942 29.4685 15.8942C32.1594 15.8942 36.3273 15.5676 36.3273 15.5676C37.7156 15.4858 37.8786 17.5234 36.4923 17.6875C36.4923 17.6875 35.0947 17.8515 33.5463 17.9328L42.8467 45.5979L45.4137 37.0199C46.5267 33.4602 47.3734 30.9035 47.3734 28.7003Z" fill="#464342"/>
<path d="M30.4516 32.2502L22.7295 54.6873C25.0903 55.383 27.5388 55.7362 30.0001 55.7362C32.9107 55.7369 35.8003 55.2437 38.5458 54.2774C38.4744 54.1648 38.4131 54.0462 38.3627 53.9228L30.4516 32.2502ZM52.5821 17.6517C52.6933 18.4715 52.7554 19.352 52.7554 20.2981C52.7554 22.9096 52.2677 25.8454 50.7986 29.5162L42.9375 52.2446C50.5885 47.783 55.7348 39.4938 55.7348 29.999C55.7416 25.6833 54.6571 21.4359 52.5821 17.6517Z" fill="#464342"/>
<path d="M30 0C13.4584 0 0 13.4574 0 29.999C0 46.5426 13.4584 60 30.0005 60C46.5411 60 60.002 46.543 60.002 29.999C60.001 13.4574 46.5411 0 30 0ZM30 58.6244C14.217 58.6244 1.37557 45.783 1.37557 29.999C1.37557 14.2165 14.2165 1.37606 30 1.37606C45.7825 1.37606 58.6225 14.2165 58.6225 29.999C58.623 45.783 45.7825 58.6244 30 58.6244Z" fill="#464342"/>
</svg>
