<svg width="60" height="60" viewBox="0 0 60 60" fill="none" xmlns="http://www.w3.org/2000/svg">
<g clip-path="url(#clip0)">
<path d="M-3.23181 29.9348C-3.23181 34.9474 1.66814 39.6266 9.39295 42.2643C7.85034 50.0218 9.11666 56.2746 13.3457 58.7108C17.6926 61.2152 24.1685 59.4817 30.3152 54.1143C36.3068 59.2649 42.3621 61.2919 46.5875 58.8486C50.9304 56.3372 52.251 49.6605 50.6658 41.6606C58.7119 39.0034 63.2125 35.0134 63.2125 29.9348C63.2125 25.0385 58.3037 20.8028 50.6828 18.1821C52.3894 9.85173 50.9434 3.75077 46.5392 1.21381C42.2931 -1.23211 36.1673 0.899721 30.0878 6.18494C23.7627 0.575199 17.6975 -1.13741 13.2979 1.40659C9.05581 3.85955 7.84538 10.2261 9.39295 18.127C1.92877 20.7266 -3.23181 25.0584 -3.23181 29.9348Z" fill="white"/>
<path d="M49.0689 20.7845C48.4408 20.5693 47.8074 20.37 47.1693 20.1866C47.2751 19.7571 47.373 19.3256 47.4628 18.8924C48.9007 11.9199 47.9606 6.30289 44.75 4.45385C41.6719 2.68046 36.6374 4.5295 31.5528 8.94941C31.0518 9.38593 30.5619 9.83503 30.0836 10.2963C29.7633 9.98958 29.4373 9.68883 29.1059 9.39419C23.7771 4.66776 18.4358 2.67628 15.2286 4.5308C12.1533 6.30915 11.2424 11.5899 12.5369 18.1978C12.6657 18.8521 12.8112 19.5031 12.9731 20.1501C12.2173 20.3645 11.4874 20.5931 10.7891 20.8362C4.54185 23.0118 0.552002 26.4219 0.552002 29.9588C0.552002 33.612 4.83486 37.2762 11.3422 39.4977C11.8698 39.677 12.4019 39.8432 12.9378 39.996C12.7637 40.693 12.6091 41.3948 12.4743 42.1004C11.2401 48.5935 12.204 53.749 15.2712 55.5164C18.4392 57.3412 23.7562 55.4655 28.9338 50.9447C29.343 50.5873 29.7538 50.2083 30.1651 49.8109C30.6831 50.3103 31.2151 50.7951 31.7602 51.2648C36.7753 55.5756 41.7283 57.3164 44.7929 55.5443C47.958 53.7141 48.9864 48.1756 47.6509 41.437C47.549 40.9223 47.4302 40.3967 47.297 39.8614C47.6705 39.7513 48.0369 39.6376 48.3944 39.5191C55.1592 37.2803 59.5603 33.6608 59.5603 29.9588C59.5603 26.4091 55.442 22.9761 49.0689 20.7845Z" fill="#53C1DE"/>
<path d="M47.6018 37.129C47.2793 37.2357 46.9481 37.3388 46.6107 37.4387C45.8638 35.077 44.8558 32.5656 43.6227 29.9713C44.7997 27.4383 45.7685 24.9592 46.4945 22.6127C47.098 22.7875 47.6841 22.9714 48.2487 23.1657C53.7093 25.0432 57.04 27.8197 57.04 29.9588C57.04 32.2375 53.4427 35.1957 47.6021 37.129H47.6018ZM45.1783 41.9262C45.7688 44.9058 45.8531 47.5998 45.4619 49.7058C45.1104 51.5981 44.4038 52.8597 43.5299 53.365C41.6703 54.4403 37.6932 53.0426 33.4046 49.356C32.9129 48.9334 32.4175 48.4821 31.9208 48.0047C33.5835 46.188 35.2452 44.076 36.867 41.7308C39.7198 41.478 42.4148 41.0645 44.8589 40.5002C44.9791 40.9855 45.0861 41.461 45.1783 41.9262ZM20.6694 53.1793C18.8526 53.8202 17.4056 53.8385 16.531 53.3348C14.6695 52.2626 13.896 48.1226 14.9513 42.57C15.0768 41.9138 15.2205 41.2612 15.3822 40.6129C17.7991 41.1469 20.4746 41.5312 23.3342 41.7629C24.9666 44.0577 26.6764 46.1671 28.3994 48.0143C28.0333 48.3682 27.6584 48.713 27.2752 49.0484C24.9857 51.0477 22.6915 52.4658 20.6697 53.1793H20.6694ZM12.1578 37.1149C9.28041 36.1325 6.9042 34.8558 5.27541 33.4628C3.81193 32.2106 3.07288 30.9676 3.07288 29.9588C3.07288 27.8126 6.2764 25.0748 11.6193 23.214C12.2899 22.9815 12.9671 22.7686 13.6502 22.5757C14.3888 24.9749 15.3574 27.4834 16.5263 30.0201C15.3422 32.5946 14.3598 35.143 13.6145 37.5704C13.1252 37.4305 12.6395 37.2787 12.1578 37.1149ZM15.0111 17.7141C13.902 12.0525 14.6384 7.78176 16.4918 6.71011C18.4661 5.56855 22.8312 7.19637 27.4321 11.2772C27.7262 11.538 28.0216 11.8112 28.3174 12.0937C26.6033 13.9325 24.9092 16.026 23.2908 18.3076C20.5156 18.5645 17.8589 18.9772 15.4166 19.53C15.2662 18.9281 15.131 18.3225 15.0111 17.7138V17.7141ZM40.4646 23.9924C39.8877 22.9971 39.2894 22.0142 38.6702 21.0446C40.5531 21.282 42.3569 21.5977 44.0507 21.984C43.5422 23.6121 42.9084 25.3145 42.162 27.0597C41.6167 26.0261 41.0508 25.0035 40.4646 23.9924ZM30.0846 13.8931C31.2473 15.1513 32.4118 16.5564 33.5572 18.0806C31.2337 17.9709 28.9064 17.9704 26.5829 18.0791C27.7293 16.5689 28.9037 15.1659 30.0846 13.8931ZM19.6381 24.0097C19.0593 25.0127 18.5039 26.029 17.9725 27.0579C17.2384 25.3187 16.6104 23.6087 16.0975 21.9574C17.7811 21.581 19.5765 21.2734 21.4471 21.0399C20.8209 22.0156 20.2178 23.0057 19.6381 24.0097ZM21.5009 39.0574C19.5684 38.8419 17.7458 38.55 16.0627 38.184C16.5837 36.5035 17.2256 34.7567 17.9754 32.9802C18.509 34.0098 19.0668 35.0268 19.6483 36.0303C20.2417 37.0539 20.8594 38.0632 21.5009 39.0574ZM30.1544 46.2023C28.9596 44.9144 27.768 43.4901 26.604 41.958C27.7338 42.0023 28.8857 42.0248 30.0564 42.0248C31.2593 42.0248 32.4483 41.9979 33.6185 41.9457C32.4695 43.5057 31.3092 44.9322 30.1544 46.2023ZM42.1861 32.8896C42.9747 34.6855 43.6396 36.4229 44.1677 38.0749C42.4566 38.4649 40.6095 38.779 38.6632 39.0122C39.2869 38.0245 39.8909 37.0245 40.4748 36.0128C41.0683 34.9845 41.6389 33.9432 42.1861 32.8896ZM38.291 34.7549C37.3972 36.306 36.453 37.8277 35.4602 39.3175C33.7094 39.4424 31.9002 39.5069 30.0564 39.5069C28.2203 39.5069 26.434 39.4497 24.7138 39.3383C23.6952 37.852 22.7332 36.3277 21.83 34.7687C20.9309 33.218 20.0912 31.6337 19.3125 30.0193C20.0892 28.4044 20.9264 26.8193 21.8224 25.2673V25.2678C22.7181 23.7155 23.6725 22.1977 24.6835 20.7177C26.4385 20.5852 28.2378 20.5158 30.0567 20.5158C31.8837 20.5158 33.6854 20.5857 35.4398 20.7193C36.4406 22.197 37.3889 23.7095 38.2829 25.254C39.182 26.8026 40.0304 28.3799 40.8268 29.9836C40.0386 31.6036 39.1929 33.195 38.2913 34.7549H38.291ZM43.4913 6.63524C45.4672 7.77368 46.2357 12.3642 44.9942 18.3843C44.9128 18.7764 44.8244 19.1671 44.7289 19.5561C42.2809 18.9918 39.6224 18.5718 36.839 18.311C35.2175 16.0046 33.5376 13.9075 31.8511 12.0924C32.293 11.6668 32.7454 11.2522 33.208 10.8491C37.5645 7.06176 41.6361 5.56646 43.4913 6.63524Z" fill="white"/>
<path d="M30.0561 24.6953C32.9663 24.6953 35.3253 27.052 35.3253 29.9588C35.3253 32.866 32.9663 35.2227 30.0561 35.2227C27.1461 35.2227 24.7869 32.866 24.7869 29.9588C24.7869 27.052 27.1461 24.6953 30.0561 24.6953Z" fill="#53C1DE"/>
</g>
<defs>
<clipPath id="clip0">
<rect width="60" height="60" fill="white"/>
</clipPath>
</defs>
</svg>
