<svg width="112" height="14" viewBox="0 0 112 14" fill="none" xmlns="http://www.w3.org/2000/svg">
<path d="M32.5546 9.1979C32.5546 8.40371 32.4426 7.66492 32.2372 7.05542C32.0319 6.42746 31.7146 5.9103 31.3412 5.4855C30.9492 5.0607 30.5012 4.74671 29.9412 4.52508C29.3999 4.30344 28.8212 4.19263 28.1679 4.19263C27.4586 4.19263 26.8052 4.30344 26.1706 4.52508C25.5546 4.76518 25.0132 5.07917 24.5652 5.52244C24.1172 5.94724 23.7439 6.44592 23.4826 7.05542C23.2212 7.64645 23.0906 8.32983 23.0906 9.05014C23.0906 9.78893 23.2212 10.4538 23.4826 11.0449C23.7439 11.6544 24.1172 12.153 24.5652 12.5778C25.0132 13.0027 25.5546 13.3536 26.1706 13.5752C26.6932 13.7599 27.2346 13.8892 27.8132 13.9261H29.3999V12.0792H27.8132C27.2159 12.0607 26.6746 11.8391 26.2452 11.4697C25.7786 11.0818 25.4986 10.5462 25.4239 9.86281H32.5732V9.1979H32.5546ZM25.4239 8.08973C25.5172 7.42482 25.7599 6.8892 26.1892 6.48286C26.5999 6.07653 27.1412 5.89183 27.8506 5.89183C28.5972 5.89183 29.1572 6.07653 29.5866 6.46439C30.0159 6.87072 30.2212 7.38788 30.2399 8.08973H25.4239Z" fill="black"/>
<path d="M8.64267 0.0186768V8.57013C8.64267 8.90258 8.58667 9.25351 8.49333 9.6229C8.38133 9.99229 8.21333 10.3247 7.97067 10.6387C7.728 10.9527 7.41067 11.1928 7.01867 11.396C6.62667 11.5992 6.12267 11.6915 5.544 11.6915C4.96533 11.6915 4.46133 11.5992 4.06933 11.396C3.67733 11.1928 3.36 10.9527 3.11733 10.6387C2.87467 10.3247 2.70667 9.99229 2.59467 9.6229C2.48267 9.25351 2.44533 8.90258 2.44533 8.57013V0.0186768H0V8.64401C0 9.47514 0.130667 10.2139 0.410667 10.8604C0.690667 11.5253 1.08267 12.0794 1.58667 12.5411C2.09067 13.0028 2.66933 13.3538 3.34133 13.6123C4.01333 13.8709 4.74133 13.9817 5.544 13.9817C6.328 13.9817 7.07467 13.8525 7.74667 13.6123C8.41867 13.3538 8.99733 13.0028 9.50133 12.5411C9.98667 12.0794 10.3787 11.5068 10.6773 10.8604C10.9573 10.1955 11.1067 9.45667 11.1067 8.64401V0.0186768H8.64267Z" fill="black"/>
<path d="M20.7946 9.49345C20.552 9.14253 20.2346 8.86549 19.8613 8.68079C19.488 8.47762 19.0773 8.32987 18.648 8.23752C18.2186 8.14517 17.808 8.05282 17.4346 7.96047C17.0613 7.86813 16.744 7.75731 16.5013 7.62802C16.2586 7.49873 16.128 7.29556 16.128 7.01852C16.128 6.6676 16.2773 6.42749 16.576 6.26126C16.8746 6.11351 17.1733 6.02116 17.4906 6.02116C18.256 6.02116 18.872 6.33515 19.32 6.96311L20.8693 5.57789C20.496 5.06074 19.992 4.69135 19.3946 4.48818C18.7786 4.28501 18.1626 4.17419 17.5466 4.17419C17.08 4.17419 16.6133 4.2296 16.1653 4.34042C15.7173 4.45124 15.3066 4.63593 14.952 4.87604C14.5973 5.11614 14.3173 5.43013 14.112 5.81799C13.888 6.18739 13.7946 6.64913 13.7946 7.14781C13.7946 7.73884 13.9253 8.20058 14.168 8.53303C14.4106 8.86549 14.728 9.12406 15.1013 9.30876C15.4746 9.49345 15.8853 9.62274 16.3146 9.71509C16.744 9.80744 17.1546 9.88132 17.528 9.99214C17.9013 10.0845 18.2186 10.2138 18.4613 10.3615C18.704 10.5093 18.8346 10.7494 18.8346 11.0818C18.8346 11.2665 18.7786 11.4143 18.6853 11.5621C18.592 11.6913 18.4613 11.8022 18.312 11.8945C18.1626 11.9869 17.9946 12.0423 17.808 12.0792C17.6213 12.1161 17.4533 12.1346 17.2853 12.1346C16.8 12.1346 16.3706 12.0238 16.0346 11.8206C15.6986 11.6175 15.3626 11.3404 15.064 11.008L13.5146 12.4486C14 12.9842 14.5413 13.3536 15.1573 13.5752C15.7733 13.7784 16.4266 13.8892 17.1546 13.8892C17.64 13.8892 18.1253 13.8338 18.592 13.7415C19.0773 13.6307 19.5066 13.4644 19.88 13.2428C20.2533 13.0027 20.5706 12.7072 20.8133 12.3193C21.056 11.9315 21.168 11.4697 21.168 10.9156C21.168 10.3246 21.0373 9.84438 20.7946 9.49345Z" fill="black"/>
<path d="M40.8801 4.21114C40.7494 4.19267 40.6001 4.17419 40.4694 4.17419C39.8347 4.17419 39.2934 4.32195 38.808 4.61746C38.3227 4.91298 37.9494 5.31932 37.688 5.8734H37.6507V4.39583H35.3174V13.6491H37.6507V8.69926C37.6507 8.56997 37.6881 8.38527 37.7254 8.1267C37.7814 7.86812 37.9121 7.60955 38.08 7.35098C38.2667 7.0924 38.5094 6.87076 38.8454 6.6676C39.1627 6.4829 39.6107 6.37208 40.1521 6.37208C40.3387 6.37208 40.5067 6.39056 40.6934 6.42749C40.7307 6.44596 40.7494 6.44596 40.7867 6.44596C40.824 5.91034 40.936 5.37472 41.104 4.85757C41.1414 4.67288 41.1974 4.48818 41.2721 4.32195V4.30348C41.1601 4.28501 41.0294 4.24808 40.8801 4.21114Z" fill="black"/>
<path d="M77.5039 6.44588C77.3919 6.0026 77.1866 5.63321 76.9252 5.28229C76.6452 4.94984 76.3092 4.67279 75.8612 4.46963C75.4319 4.26646 74.8906 4.15564 74.2746 4.15564C73.4906 4.15564 72.8746 4.32187 72.4266 4.67279C71.9786 5.00525 71.6426 5.41158 71.4186 5.87332H71.3812V4.39575H69.1599V13.649H71.4932V8.60683C71.4932 8.29284 71.5306 7.99733 71.6052 7.72029C71.6799 7.44324 71.8106 7.18467 71.9786 6.96303C72.1466 6.74139 72.3706 6.57516 72.6506 6.44588C72.9119 6.31659 73.2479 6.26118 73.6399 6.26118C74.0506 6.26118 74.3679 6.35353 74.5919 6.53822C74.8346 6.72292 75.0026 6.96303 75.1146 7.24007C75.2266 7.51712 75.3012 7.81263 75.3199 8.12662C75.3386 8.4406 75.3572 8.73612 75.3572 8.97622V13.649H77.6906V7.81264C77.6719 7.35089 77.6159 6.88915 77.5039 6.44588Z" fill="black"/>
<path d="M94.6773 4.21114C94.5466 4.19267 94.3973 4.17419 94.2666 4.17419C93.6506 4.17419 93.0906 4.32195 92.6053 4.61746C92.12 4.91298 91.7466 5.33779 91.504 5.8734H91.4666V4.4143H89.1333V13.6676H91.4666V8.69926C91.4666 8.56997 91.504 8.38527 91.56 8.1267C91.616 7.86812 91.728 7.60955 91.9146 7.35098C92.0826 7.0924 92.344 6.87076 92.68 6.6676C93.016 6.46443 93.4453 6.37208 93.9866 6.37208C94.1733 6.37208 94.36 6.39056 94.5466 6.42749C94.7333 6.46443 94.92 6.50137 95.1253 6.55678V4.32195C94.9573 4.28501 94.808 4.24808 94.6773 4.21114Z" fill="black"/>
<path d="M99.5868 4.41431H97.2534V13.6676H99.5868V4.41431Z" fill="black"/>
<path d="M84.0186 6.37209V10.4169C84.0186 10.8787 84.1119 11.2481 84.2799 11.5067C84.4479 11.7837 84.8026 11.913 85.3252 11.913C85.5306 11.913 85.7546 11.8945 85.9972 11.8391C86.2399 11.7837 86.4452 11.7283 86.5759 11.6175V13.5568C86.3332 13.6676 86.0346 13.76 85.6799 13.7969C85.3252 13.8338 85.0079 13.8708 84.7279 13.8708C84.1119 13.8708 83.5892 13.7969 83.1972 13.6676C82.8052 13.5383 82.4879 13.3352 82.2639 13.0581C82.0399 12.7811 81.8719 12.4301 81.7972 12.0238C81.7039 11.6175 81.6666 11.1373 81.6666 10.6016V6.37209H79.7439V4.41431H80.2666C80.9386 4.41431 81.1626 4.28502 81.3679 4.04491C81.5546 3.84175 81.6666 3.5647 81.6666 2.97368C81.6666 2.67816 81.6666 1.73621 81.6666 1.73621H83.9999V4.41431H86.5759V6.37209H84.0186Z" fill="black"/>
<path d="M66.0613 7.05546C65.8373 6.42749 65.5387 5.91034 65.1654 5.48554C64.7734 5.06074 64.3254 4.72828 63.784 4.50665C63.2427 4.28501 62.6454 4.17419 62.0107 4.17419C61.32 4.17419 60.648 4.28501 60.032 4.52512C59.3974 4.76522 58.8747 5.07921 58.408 5.50401C57.96 5.92881 57.5867 6.44596 57.3254 7.03699C57.064 7.62802 56.9333 8.29293 56.9333 9.03171C56.9333 9.30876 56.952 9.58581 56.9893 9.84438H66.3974V9.21641C66.3974 8.38527 66.2853 7.66496 66.0613 7.05546ZM59.2667 8.08976C59.36 7.42486 59.6027 6.88924 60.0133 6.50137C60.424 6.09504 60.984 5.91034 61.6747 5.91034C62.4213 5.91034 63 6.11351 63.4107 6.50137C63.8214 6.88924 64.0454 7.42485 64.0454 8.10823H59.2667V8.08976Z" fill="black"/>
<path d="M65.5013 12.6517C64.9413 13.2612 63.784 13.8707 62.5706 13.8707L61.7866 13.8892V12.0422H62.0106C62.776 12.0053 63.6346 11.7837 64.064 11.248L65.5013 12.6517Z" fill="black"/>
<path d="M55.3466 11.9499C52.584 14.6834 48.104 14.6834 45.3413 11.9499C42.5786 9.21636 42.5786 4.78364 45.3413 2.05013C48.104 -0.683377 52.584 -0.683377 55.328 2.05013L53.6666 3.69393C51.8186 1.86543 48.832 1.86543 46.984 3.69393C45.136 5.52243 45.136 8.47757 46.984 10.3061C48.832 12.1346 51.8186 12.1346 53.6666 10.3061L55.3466 11.9499Z" fill="black"/>
<path d="M112 9.03171C112 11.7098 109.797 13.8892 107.091 13.8892C104.384 13.8892 102.181 11.7098 102.181 9.03171C102.181 6.35361 104.384 4.17419 107.091 4.17419V6.4829C105.672 6.4829 104.515 7.62802 104.515 9.03171C104.515 10.4354 105.672 11.5805 107.091 11.5805C108.509 11.5805 109.667 10.4354 109.667 9.03171H112Z" fill="black"/>
<path d="M112 4.17419H109.667V6.4829H112V4.17419Z" fill="#002ADD"/>
</svg>
