<svg width="31" height="30" viewBox="0 0 31 30" fill="none" xmlns="http://www.w3.org/2000/svg">
<g opacity="0.5">
<mask id="path-1-inside-1" fill="white">
<path fill-rule="evenodd" clip-rule="evenodd" d="M15 21.9643C18.8463 21.9643 21.9643 18.8463 21.9643 15H30C30 23.2843 23.2843 30 15 30C6.71573 30 0 23.2843 0 15C0 6.71573 6.71573 0 15 0V8.03572C11.1537 8.03572 8.03572 11.1537 8.03572 15C8.03572 18.8463 11.1537 21.9643 15 21.9643ZM21.6981 8.30357V0H30.0017V8.30357H21.6981Z"/>
</mask>
<path d="M21.9643 15V14H20.9643V15H21.9643ZM30 15H31V14H30V15ZM15 0H16V-1H15V0ZM15 8.03572V9.03572H16V8.03572H15ZM21.6981 0V-1H20.6981V0H21.6981ZM21.6981 8.30357H20.6981V9.30357H21.6981V8.30357ZM30.0017 0H31.0017V-1H30.0017V0ZM30.0017 8.30357V9.30357H31.0017V8.30357H30.0017ZM20.9643 15C20.9643 18.294 18.294 20.9643 15 20.9643V22.9643C19.3986 22.9643 22.9643 19.3986 22.9643 15H20.9643ZM30 14H21.9643V16H30V14ZM15 31C23.8366 31 31 23.8366 31 15H29C29 22.732 22.732 29 15 29V31ZM-1 15C-1 23.8366 6.16344 31 15 31V29C7.26801 29 1 22.732 1 15H-1ZM15 -1C6.16344 -1 -1 6.16344 -1 15H1C1 7.26801 7.26801 1 15 1V-1ZM16 8.03572V0H14V8.03572H16ZM9.03572 15C9.03572 11.706 11.706 9.03572 15 9.03572V7.03572C10.6014 7.03572 7.03572 10.6014 7.03572 15H9.03572ZM15 20.9643C11.706 20.9643 9.03572 18.294 9.03572 15H7.03572C7.03572 19.3986 10.6014 22.9643 15 22.9643V20.9643ZM20.6981 0V8.30357H22.6981V0H20.6981ZM30.0017 -1H21.6981V1H30.0017V-1ZM31.0017 8.30357V0H29.0017V8.30357H31.0017ZM21.6981 9.30357H30.0017V7.30357H21.6981V9.30357Z" fill="black" mask="url(#path-1-inside-1)"/>
</g>
</svg>
