<svg width="86" height="86" viewBox="0 0 86 86" fill="none" xmlns="http://www.w3.org/2000/svg">
<path d="M42.9998 51.2617C34.868 51.2617 28.0546 45.6172 26.2636 38.0325C25.9628 39.306 25.8035 40.6346 25.8035 42C25.8035 51.4976 33.5026 59.1968 43.0002 59.1968C52.4978 59.1968 60.1969 51.4976 60.1969 42C60.1969 40.6346 60.0376 39.306 59.7364 38.0325C57.9451 45.6172 51.1317 51.2617 42.9998 51.2617Z" fill="#F1F1F1"/>
<path d="M45.9377 39.8142H44.8941C46.2718 39.129 47.2 37.7198 47.1392 36.1077C47.062 34.0557 45.3201 32.3565 43.1957 32.2624C40.8193 32.1567 38.8581 33.9859 38.8581 36.2569C38.8581 37.8064 39.7708 39.1504 41.1058 39.8142H40.0622C37.6416 39.8142 35.6796 41.7087 35.6796 44.0457V50.0697C35.6796 50.3637 35.9263 50.6022 36.2308 50.6022H49.7691C50.0736 50.6022 50.3207 50.3637 50.3207 50.0697V44.0457C50.3207 41.7087 48.3584 39.8142 45.9377 39.8142Z" fill="#002DDC"/>
<path d="M37.2934 12.5625H48.7065V16.2169H37.2934V12.5625Z" fill="#F1F1F1"/>
<path d="M37.2934 78.9393H48.7065V82.5937H37.2934V78.9393Z" fill="#F1F1F1"/>
<path d="M8.73077 30.6653H20.1439V34.3196H8.73077V30.6653Z" fill="#F1F1F1"/>
<path d="M65.8557 30.6653H77.2688V34.3196H65.8557V30.6653Z" fill="#F1F1F1"/>
<path d="M8.73077 60.8365H20.1439V64.4909H8.73077V60.8365Z" fill="#F1F1F1"/>
<path d="M65.8557 60.8365H77.2688V64.4909H65.8557V60.8365Z" fill="#F1F1F1"/>
<path d="M62.8995 30.5107C62.6404 30.0619 62.0662 29.9089 61.6189 30.1676L58.2056 32.1382C55.1283 27.4099 49.9117 24.1957 43.9368 23.8897V19.959C43.9368 19.4411 43.5172 19.0215 42.9993 19.0215C42.4815 19.0215 42.0618 19.4411 42.0618 19.959V23.8897C36.087 24.1954 30.8703 27.4099 27.7931 32.1382L24.3798 30.1676C23.9325 29.9089 23.358 30.0622 23.0992 30.5107C22.8405 30.9592 22.9942 31.5326 23.4423 31.7914L26.853 33.7605C25.5851 36.2347 24.8651 39.0337 24.8651 41.9996C24.8651 44.9655 25.5855 47.7648 26.853 50.2387L23.4423 52.2078C22.9942 52.4666 22.8405 53.04 23.0992 53.4885C23.2728 53.7892 23.5882 53.9576 23.9118 53.9576C24.0712 53.9576 24.2321 53.9171 24.3798 53.832L27.7931 51.8613C30.8703 56.5897 36.087 59.8038 42.0618 60.1098V64.0406C42.0618 64.5585 42.4815 64.9781 42.9993 64.9781C43.5172 64.9781 43.9368 64.5585 43.9368 64.0406V60.1098C49.9117 59.8042 55.1283 56.5897 58.2056 51.8613L61.6189 53.832C61.7666 53.9175 61.9275 53.9576 62.0869 53.9576C62.4105 53.9576 62.7258 53.7892 62.8995 53.4885C63.1582 53.04 63.0045 52.4666 62.5564 52.2078L59.1453 50.2387C60.4132 47.7645 61.1336 44.9655 61.1336 41.9996C61.1336 39.0337 60.4132 36.2347 59.1453 33.7605L62.5564 31.7914C63.0049 31.5326 63.1586 30.9592 62.8995 30.5107ZM42.9997 58.2592C34.0346 58.2592 26.7408 50.9655 26.7408 42C26.7408 33.0345 34.0346 25.7407 42.9997 25.7407C51.9648 25.7407 59.2586 33.0345 59.2586 42C59.2586 50.9655 51.9648 58.2592 42.9997 58.2592Z" fill="black"/>
<path d="M37.2931 17.1544H48.7066C49.2245 17.1544 49.6441 16.7348 49.6441 16.2169V10.9234C49.6441 8.97263 48.3545 7.31776 46.5834 6.76575C46.9587 6.13425 47.1665 5.40225 47.1665 4.635C47.1665 2.33775 45.2975 0.46875 43.0002 0.46875C40.703 0.46875 38.834 2.33775 38.834 4.635C38.834 5.40225 39.0417 6.13388 39.4171 6.76575C37.6456 7.31776 36.3563 8.97301 36.3563 10.9234V16.2169C36.3556 16.7348 36.7752 17.1544 37.2931 17.1544ZM38.2306 10.9234C38.2306 9.55651 39.3428 8.44463 40.7093 8.44463H41.5231C41.9558 8.44463 42.3323 8.14838 42.4343 7.72801C42.536 7.30763 42.3372 6.87188 41.9525 6.67351C41.1852 6.27825 40.7086 5.49713 40.7086 4.635C40.7086 3.37163 41.7365 2.34375 42.9998 2.34375C44.2632 2.34375 45.2911 3.37163 45.2911 4.635C45.2911 5.49713 44.8145 6.27825 44.0472 6.67351C43.6625 6.87188 43.4633 7.30726 43.5653 7.72801C43.667 8.14876 44.0435 8.44463 44.4766 8.44463H45.2903C46.6572 8.44463 47.7691 9.55651 47.7691 10.9234V15.2794H38.2306V10.9234Z" fill="black"/>
<path d="M18.0208 24.8685C18.3961 24.2367 18.6039 23.505 18.6039 22.7378C18.6039 20.4405 16.7349 18.5715 14.4376 18.5715C12.1404 18.5715 10.2718 20.4405 10.2718 22.7378C10.2718 23.505 10.4795 24.237 10.8549 24.8685C9.08338 25.4205 7.79413 27.0758 7.79413 29.0262V34.3197C7.79413 34.8375 8.21375 35.2572 8.73163 35.2572H20.1448C20.6626 35.2572 21.0823 34.8375 21.0823 34.3197V29.0262C21.0815 27.0758 19.7919 25.4205 18.0208 24.8685ZM19.2065 33.3825H9.66838V29.0262C9.66838 27.6593 10.7806 26.5474 12.1471 26.5474H12.9609C13.3936 26.5474 13.7701 26.2512 13.8721 25.8308C13.9738 25.4104 13.775 24.9747 13.3903 24.7763C12.623 24.381 12.1464 23.5999 12.1464 22.7374C12.1464 21.474 13.1739 20.4462 14.4373 20.4462C15.7006 20.4462 16.7285 21.474 16.7285 22.7374C16.7285 23.5995 16.2519 24.3807 15.4846 24.7763C15.0999 24.9747 14.9008 25.41 15.0028 25.8308C15.1044 26.2515 15.4809 26.5474 15.914 26.5474H16.7278C18.0946 26.5474 19.2065 27.6593 19.2065 29.0262V33.3825Z" fill="black"/>
<path d="M75.1456 24.8685C75.521 24.2367 75.7288 23.505 75.7288 22.7378C75.7288 20.4405 73.8601 18.5715 71.5629 18.5715C69.2656 18.5715 67.3966 20.4405 67.3966 22.7378C67.3966 23.505 67.6044 24.237 67.9798 24.8685C66.2083 25.4205 64.919 27.0758 64.919 29.0262V34.3197C64.919 34.8375 65.3386 35.2572 65.8565 35.2572H77.2696C77.7875 35.2572 78.2071 34.8375 78.2071 34.3197V29.0262C78.2064 27.0758 76.9168 25.4205 75.1456 24.8685ZM76.3314 33.3825H66.7933V29.0262C66.7933 27.6593 67.9055 26.5474 69.272 26.5474H70.0858C70.5185 26.5474 70.895 26.2512 70.997 25.8308C71.0986 25.4104 70.8999 24.9747 70.5151 24.7763C69.7479 24.381 69.2713 23.5999 69.2713 22.7374C69.2713 21.474 70.2991 20.4462 71.5625 20.4462C72.8259 20.4462 73.8534 21.474 73.8534 22.7374C73.8534 23.5995 73.3768 24.3807 72.6095 24.7763C72.2248 24.9747 72.0256 25.41 72.1276 25.8308C72.2293 26.2515 72.6058 26.5474 73.0389 26.5474H73.8526C75.2195 26.5474 76.3314 27.6593 76.3314 29.0262V33.3825Z" fill="black"/>
<path d="M18.0208 55.0396C18.3961 54.4081 18.6039 53.6761 18.6039 52.9088C18.6039 50.6116 16.7349 48.7426 14.4376 48.7426C12.1404 48.7426 10.2718 50.6116 10.2718 52.9088C10.2718 53.6761 10.4795 54.4081 10.8549 55.0396C9.08338 55.5916 7.79413 57.2468 7.79413 59.1976V64.4911C7.79413 65.0089 8.21375 65.4286 8.73163 65.4286H20.1448C20.6626 65.4286 21.0823 65.0089 21.0823 64.4911V59.1976C21.0815 57.2468 19.7919 55.5916 18.0208 55.0396ZM19.2065 63.5536H9.66838V59.1976C9.66838 57.8307 10.7806 56.7184 12.1471 56.7184H12.9609C13.3936 56.7184 13.7701 56.4226 13.8721 56.0018C13.9738 55.5811 13.775 55.1457 13.3903 54.9473C12.623 54.5521 12.1464 53.7709 12.1464 52.9088C12.1464 51.6454 13.1739 50.6176 14.4373 50.6176C15.7006 50.6176 16.7285 51.6454 16.7285 52.9088C16.7285 53.7709 16.2519 54.5521 15.4846 54.9473C15.0999 55.1453 14.9008 55.5811 15.0028 56.0018C15.1044 56.4226 15.4809 56.7184 15.914 56.7184H16.7278C18.0946 56.7184 19.2065 57.8307 19.2065 59.1976V63.5536Z" fill="black"/>
<path d="M75.1456 55.0396C75.521 54.4081 75.7288 53.6761 75.7288 52.9088C75.7288 50.6116 73.8601 48.7426 71.5629 48.7426C69.2656 48.7426 67.3966 50.6116 67.3966 52.9088C67.3966 53.6761 67.6044 54.4081 67.9798 55.0396C66.2083 55.5916 64.919 57.2468 64.919 59.1976V64.4911C64.919 65.0089 65.3386 65.4286 65.8565 65.4286H77.2696C77.7875 65.4286 78.2071 65.0089 78.2071 64.4911V59.1976C78.2064 57.2468 76.9168 55.5916 75.1456 55.0396ZM76.3314 63.5536H66.7933V59.1976C66.7933 57.8307 67.9055 56.7184 69.272 56.7184H70.0858C70.5185 56.7184 70.895 56.4226 70.997 56.0018C71.0986 55.5811 70.8999 55.1457 70.5151 54.9473C69.7479 54.5521 69.2713 53.7709 69.2713 52.9088C69.2713 51.6454 70.2991 50.6176 71.5625 50.6176C72.8259 50.6176 73.8534 51.6454 73.8534 52.9088C73.8534 53.7709 73.3768 54.5521 72.6095 54.9473C72.2248 55.1453 72.0256 55.5811 72.1276 56.0018C72.2293 56.4226 72.6058 56.7184 73.0389 56.7184H73.8526C75.2195 56.7184 76.3314 57.8307 76.3314 59.1976V63.5536Z" fill="black"/>
<path d="M46.5833 73.1422C46.9587 72.5107 47.1665 71.7787 47.1665 71.0115C47.1665 68.7142 45.2975 66.8452 43.0002 66.8452C40.703 66.8452 38.834 68.7142 38.834 71.0115C38.834 71.7787 39.0417 72.5107 39.4171 73.1422C37.6456 73.6942 36.3563 75.3495 36.3563 77.2999V82.5934C36.3563 83.1113 36.7759 83.5309 37.2938 83.5309H48.7073C49.2252 83.5309 49.6448 83.1113 49.6448 82.5934V77.2999C49.6441 75.3495 48.3545 73.6946 46.5833 73.1422ZM47.7691 81.6563H38.2306V77.3003C38.2306 75.9334 39.3428 74.8215 40.7093 74.8215H41.5231C41.9558 74.8215 42.3323 74.5253 42.4343 74.1049C42.536 73.6845 42.3372 73.2487 41.9525 73.0504C41.1852 72.6551 40.7086 71.874 40.7086 71.0119C40.7086 69.7485 41.7365 68.7206 42.9998 68.7206C44.2632 68.7206 45.2911 69.7485 45.2911 71.0119C45.2911 71.874 44.8145 72.6551 44.0472 73.0504C43.6625 73.2487 43.4633 73.6841 43.5653 74.1049C43.667 74.5256 44.0435 74.8215 44.4766 74.8215H45.2903C46.6572 74.8215 47.7691 75.9334 47.7691 77.3003V81.6563Z" fill="black"/>
</svg>
