<svg width="86" height="86" viewBox="0 0 86 86" fill="none" xmlns="http://www.w3.org/2000/svg">
<path d="M6.29004 67.6307H59.7508V77.1134H6.29004V67.6307Z" fill="#F1F1F1"/>
<path d="M59.7508 57.3344H69.7303V66.817H59.7508V57.3344Z" fill="#F1F1F1"/>
<path d="M69.7304 47.0383H79.7099V56.521H69.7304V47.0383Z" fill="#F1F1F1"/>
<path d="M59.7512 43.6238H6.29004C5.77216 43.6238 5.35254 44.0434 5.35254 44.5613V77.1132C5.35254 77.631 5.77216 78.0507 6.29004 78.0507H59.7512C60.269 78.0507 60.6887 77.631 60.6887 77.1132V44.5613C60.6887 44.0434 60.269 43.6238 59.7512 43.6238ZM58.8137 76.1753H7.22754V45.4984H58.8137V76.1753Z" fill="black"/>
<path d="M69.7302 33.3275H16.2694C15.7516 33.3275 15.3319 33.7471 15.3319 34.265V40.2448C15.3319 40.7626 15.7516 41.1823 16.2694 41.1823C16.7873 41.1823 17.2069 40.7626 17.2069 40.2448V35.2025H68.7931V65.8794H63.7021C63.1842 65.8794 62.7646 66.299 62.7646 66.8169C62.7646 67.3348 63.1842 67.7544 63.7021 67.7544H69.7306C70.2484 67.7544 70.6681 67.3348 70.6681 66.8169V34.265C70.6677 33.7471 70.2481 33.3275 69.7302 33.3275Z" fill="black"/>
<path d="M79.7097 23.0315H70.1975C69.6796 23.0315 69.26 23.4511 69.26 23.969C69.26 24.4869 69.6796 24.9065 70.1975 24.9065H78.7722V55.5834H73.9835C73.4656 55.5834 73.046 56.003 73.046 56.5209C73.046 57.0388 73.4656 57.4584 73.9835 57.4584H79.7097C80.2276 57.4584 80.6472 57.0388 80.6472 56.5209V23.969C80.6472 23.4511 80.2272 23.0315 79.7097 23.0315Z" fill="black"/>
<path d="M47.8978 24.9065H52.5868C53.1047 24.9065 53.5243 24.4869 53.5243 23.969C53.5243 23.4511 53.1047 23.0315 52.5868 23.0315H47.8978C47.38 23.0315 46.9603 23.4511 46.9603 23.969C46.9603 24.4865 47.38 24.9065 47.8978 24.9065Z" fill="black"/>
<path d="M26.2486 31.4712C26.7665 31.4712 27.1861 31.0516 27.1861 30.5337V24.9065H33.0208C33.5386 24.9065 33.9583 24.4869 33.9583 23.969C33.9583 23.4511 33.5386 23.0315 33.0208 23.0315H26.2486C25.7308 23.0315 25.3111 23.4511 25.3111 23.969V30.5337C25.3111 31.0516 25.7308 31.4712 26.2486 31.4712Z" fill="black"/>
<path d="M64.9779 17.6473V9.72059C64.9779 9.26009 64.6047 8.88696 64.1442 8.88696H58.7255C58.265 8.88696 57.8919 9.26009 57.8919 9.72059V17.6473C57.8919 18.1078 57.5187 18.481 57.0582 18.481H54.8086C54.1201 18.481 53.7282 19.2685 54.1437 19.8175L60.7696 28.5782C61.103 29.0192 61.7656 29.0192 62.0994 28.5782L68.7252 19.8175C69.1407 19.2685 68.7489 18.481 68.0604 18.481H65.8111C65.351 18.481 64.9779 18.1075 64.9779 17.6473Z" fill="#002DDC"/>
<path d="M37.0514 20.6968V28.6236C37.0514 29.0841 37.4245 29.4572 37.885 29.4572H43.3038C43.7643 29.4572 44.1374 29.0841 44.1374 28.6236V20.6968C44.1374 20.2363 44.5105 19.8632 44.971 19.8632H47.2203C47.9088 19.8632 48.3006 19.0757 47.8851 18.5267L41.2593 9.76593C40.9259 9.32493 40.2629 9.32493 39.9295 9.76593L33.3036 18.5267C32.8881 19.0757 33.28 19.8632 33.9685 19.8632H36.2178C36.6779 19.8632 37.0514 20.2363 37.0514 20.6968Z" fill="#002DDC"/>
</svg>
