<svg width="86" height="86" viewBox="0 0 86 86" fill="none" xmlns="http://www.w3.org/2000/svg">
<path d="M49.0761 35.5C47.8765 36.3737 46.4027 36.8935 44.8052 36.8935C43.2092 36.8935 41.7385 36.3734 40.5403 35.5H40V43H66.748V35.5H49.0761Z" fill="#F1F1F1"/>
<path d="M19.3618 37.9705C19.3881 37.1035 19.5722 36.2702 19.8857 35.5H13.252V43H21.1836C20.0053 41.6669 19.3033 39.9032 19.3618 37.9705Z" fill="#F1F1F1"/>
<path d="M33.8934 38.1951C33.8934 40.0397 33.2008 41.7186 32.0683 43H39.9999V35.5H33.3774C33.7104 36.3332 33.8934 37.2426 33.8934 38.1951Z" fill="#F1F1F1"/>
<path d="M60.1251 43H58.8163C59.1069 43.3289 59.3683 43.684 59.5967 44.0609C59.8003 43.7241 59.9777 43.3698 60.1251 43Z" fill="#F1F1F1"/>
<path d="M47.9313 43H46.6335C46.7812 43.3634 46.9578 43.7129 47.1607 44.0455C47.3868 43.6739 47.6452 43.3244 47.9313 43Z" fill="#F1F1F1"/>
<path d="M63.865 62.248H40V69.748H63.865C65.4572 69.748 66.748 68.4572 66.748 66.865V59.365C66.748 60.9572 65.4572 62.248 63.865 62.248Z" fill="#F1F1F1"/>
<path d="M21.1836 35.5C20.8929 35.1711 20.6316 34.816 20.4032 34.4391C20.1996 34.7758 20.0226 35.1306 19.8748 35.5H21.1836Z" fill="#F1F1F1"/>
<path d="M32.8393 34.4545C32.6132 34.8257 32.3548 35.1756 32.0687 35.5H33.3666C33.2184 35.1366 33.0418 34.7871 32.8393 34.4545Z" fill="#F1F1F1"/>
<path d="M35.1951 63.6414C33.595 63.6414 32.1156 63.1239 30.9148 62.2475H16.135C14.5427 62.2475 13.252 60.9568 13.252 59.3645V66.8645C13.252 68.4568 14.5427 69.7475 16.135 69.7475H40V62.2475H39.463C38.2648 63.122 36.7922 63.6414 35.1951 63.6414Z" fill="#F1F1F1"/>
<path d="M66.748 33.7503C66.2301 33.7503 65.8105 34.17 65.8105 34.6878V42.0626H58.8163C58.4477 42.0626 58.1132 42.2786 57.9617 42.6149C57.8102 42.9509 57.8698 43.3447 58.114 43.6211C59.1392 44.7813 59.704 46.2671 59.704 47.8053C59.704 49.5509 59.0087 51.1766 57.7457 52.3829C56.4838 53.5882 54.8282 54.2077 53.0762 54.1286C49.7953 53.979 47.1467 51.2876 47.047 48.0018C46.9978 46.3908 47.5615 44.835 48.6336 43.6211C48.8777 43.3447 48.9377 42.9509 48.7858 42.6149C48.6343 42.2789 48.2998 42.0626 47.9312 42.0626H40.9375V36.8568C42.1202 37.4924 43.4466 37.8315 44.8052 37.8315C47.0676 37.8315 49.1747 36.9303 50.7381 35.2938C52.3011 33.6584 53.1047 31.5093 53.0012 29.2432C52.807 24.9888 49.3187 21.5546 45.0587 21.4248C43.6131 21.3806 42.1933 21.7185 40.9375 22.3942V17.1896H56.9376C57.4555 17.1896 57.8751 16.77 57.8751 16.2521C57.8751 15.7342 57.4555 15.3146 56.9376 15.3146H40H16.135C14.0282 15.3146 12.3145 17.0283 12.3145 19.1351V43.0001V66.8651C12.3145 68.9718 14.0282 70.6856 16.135 70.6856H40H63.865C65.9717 70.6856 67.6855 68.9718 67.6855 66.8651V43.0001V34.6878C67.6855 34.17 67.2658 33.7503 66.748 33.7503ZM14.1895 19.1351C14.1895 18.0622 15.0621 17.1896 16.135 17.1896H39.0625V24.1837C39.0625 24.5523 39.2785 24.8868 39.6148 25.0383C39.9505 25.1898 40.3442 25.1306 40.621 24.8861C41.8345 23.8136 43.387 23.2499 45.0021 23.2991C48.2878 23.3992 50.9788 26.0475 51.1288 29.3283C51.2083 31.0781 50.5885 32.7363 49.3828 33.9982C48.1765 35.2608 46.5508 35.9561 44.8056 35.9561C43.2677 35.9561 41.7816 35.3913 40.6213 34.3657C40.345 34.1216 39.9508 34.0623 39.6152 34.2134C39.2792 34.365 39.0628 34.6994 39.0628 35.0681V42.0626H33.8582C34.0048 41.7903 34.132 41.5094 34.2463 41.2233C34.2572 41.1963 34.2696 41.1697 34.2801 41.1427C34.3243 41.0287 34.3633 40.9132 34.402 40.7977C34.4181 40.7497 34.4361 40.7025 34.4511 40.6541C34.4837 40.5502 34.5122 40.4452 34.5407 40.3402C34.558 40.2772 34.576 40.2149 34.5917 40.1516C34.615 40.0567 34.6348 39.9611 34.6547 39.8654C34.6705 39.7893 34.687 39.7136 34.7008 39.6371C34.7162 39.5505 34.729 39.4631 34.7417 39.3757C34.7545 39.2883 34.7668 39.2013 34.777 39.1136C34.786 39.0333 34.7931 38.9527 34.7995 38.8721C34.8073 38.7764 34.8145 38.6808 34.819 38.5848C34.8227 38.5079 34.8246 38.4311 34.8261 38.3538C34.8272 38.3006 34.831 38.2481 34.831 38.1948C34.831 38.1652 34.8268 38.1363 34.8265 38.1067C34.8257 38.0516 34.8283 37.9965 34.8268 37.9413C34.8238 37.842 34.81 37.7456 34.8036 37.6469C34.7946 37.5093 34.7867 37.3721 34.771 37.2359C34.7586 37.1294 34.7398 37.0248 34.723 36.9198C34.6963 36.7473 34.669 36.5756 34.6318 36.4061C34.624 36.372 34.6138 36.339 34.606 36.3048C34.2475 34.7748 33.4618 33.3779 32.2926 32.2612C31.8006 31.7913 31.2576 31.3991 30.6835 31.0706C30.6812 31.0695 30.6793 31.0683 30.6771 31.0668C30.4615 30.9434 30.2413 30.8298 30.016 30.7271C30.0055 30.7222 29.9942 30.7181 29.9837 30.7132C29.7658 30.6153 29.545 30.525 29.3196 30.447C29.287 30.4353 29.2532 30.4267 29.2202 30.4155C29.0136 30.3465 28.8055 30.2823 28.5928 30.2302C28.5208 30.2122 28.4466 30.2006 28.3738 30.1844C28.195 30.1458 28.0161 30.1064 27.8342 30.0798C27.7127 30.0618 27.5886 30.054 27.4652 30.0412C27.3238 30.0269 27.184 30.0082 27.0411 30.0011C27.0302 30.0007 27.0197 29.9985 27.0088 29.9981C26.8888 29.9928 26.7711 30 26.6522 29.9996C26.515 29.9992 26.3792 29.9917 26.2412 29.9981C26.2285 29.9988 26.2165 30.0011 26.2041 30.0014C26.068 30.0082 25.9348 30.0266 25.8002 30.0397C25.6716 30.0528 25.5415 30.0611 25.4147 30.0802C25.2242 30.1079 25.0375 30.1484 24.8507 30.1893C24.7881 30.2032 24.7243 30.2133 24.6621 30.2287C24.4348 30.2842 24.2121 30.3521 23.9912 30.4267C23.9747 30.4323 23.9575 30.4368 23.9413 30.4428C22.8426 30.8223 21.8282 31.4306 20.959 32.2612C19.7942 33.3738 19.0105 34.7643 18.6505 36.2876C18.6403 36.3292 18.628 36.3697 18.6186 36.4113C18.583 36.5741 18.5567 36.7395 18.5308 36.9052C18.5128 37.017 18.4933 37.1279 18.4798 37.2412C18.4648 37.3713 18.4573 37.503 18.4487 37.6346C18.4416 37.7373 18.4277 37.8378 18.4243 37.9417C18.4225 37.9987 18.4255 38.0553 18.4247 38.1123C18.4243 38.1397 18.4206 38.1667 18.4206 38.1941C18.4206 38.2443 18.4243 38.2938 18.4251 38.3437C18.4266 38.4262 18.4288 38.5087 18.433 38.5908C18.4375 38.6823 18.4442 38.7731 18.4517 38.8642C18.4585 38.9486 18.466 39.0329 18.4753 39.1169C18.4851 39.2017 18.4971 39.2861 18.5095 39.3701C18.5226 39.4597 18.5357 39.5497 18.5515 39.639C18.565 39.7132 18.5807 39.7871 18.5961 39.861C18.6163 39.9585 18.6366 40.0559 18.6602 40.1523C18.6756 40.2138 18.6932 40.275 18.7101 40.3361C18.739 40.4426 18.7678 40.5491 18.8008 40.6541C18.8155 40.7002 18.8323 40.7456 18.8477 40.7913C18.8875 40.9095 18.9272 41.0272 18.9722 41.1434C18.9801 41.1641 18.9898 41.1843 18.9981 41.205C19.114 41.4971 19.2441 41.7836 19.3933 42.0614H14.1895V19.1351ZM14.1895 66.8651V43.9376H21.1836C21.5522 43.9376 21.8867 43.7216 22.0382 43.3852C22.1897 43.0492 22.1301 42.6554 21.886 42.3791C21.7551 42.2309 21.6325 42.0776 21.517 41.9201C21.4663 41.8507 21.4221 41.7772 21.3741 41.7059C21.3137 41.6159 21.2511 41.5275 21.1956 41.4352C21.142 41.3456 21.0955 41.2526 21.0463 41.1607C21.0043 41.0823 20.9597 41.0055 20.9215 40.9256C20.8746 40.8281 20.8345 40.7276 20.7928 40.6278C20.7598 40.5494 20.7246 40.4722 20.6946 40.3923C20.6578 40.2937 20.6278 40.1928 20.596 40.0927C20.569 40.0079 20.5405 39.9239 20.5172 39.8381C20.4913 39.7424 20.4715 39.6449 20.4501 39.5478C20.4295 39.4541 20.4073 39.3607 20.3912 39.2658C20.3755 39.174 20.365 39.0813 20.353 38.9887C20.3398 38.8867 20.3267 38.7851 20.3185 38.6823C20.3113 38.5919 20.3091 38.5008 20.3061 38.4101C20.3027 38.3073 20.2993 38.2046 20.3008 38.1011C20.3023 37.9878 20.3102 37.8757 20.3177 37.7632C20.3245 37.6616 20.3301 37.5592 20.3417 37.4587C20.3518 37.3702 20.368 37.2832 20.3815 37.1955C20.4017 37.0698 20.4205 36.9434 20.4482 36.8201C20.4561 36.7837 20.4673 36.7485 20.476 36.7125C20.7958 35.3943 21.5293 34.2307 22.534 33.375C22.5407 33.3693 22.5471 33.3637 22.5535 33.3581C22.6948 33.2388 22.8415 33.1256 22.9926 33.0187C23.0012 33.0127 23.0095 33.0067 23.0181 33.0007C23.1696 32.8949 23.3256 32.7956 23.4861 32.7029C23.4947 32.6981 23.5037 32.6932 23.5123 32.6883C23.6717 32.5976 23.8356 32.5132 24.0032 32.436C24.0178 32.4292 24.0328 32.4232 24.0478 32.4168C24.2091 32.3441 24.3737 32.2777 24.5417 32.2188C24.5743 32.2076 24.6073 32.1986 24.64 32.1877C24.7922 32.1371 24.946 32.0902 25.1027 32.0512C25.1676 32.0351 25.234 32.0242 25.2996 32.0103C25.4282 31.9826 25.5572 31.9544 25.6885 31.9349C25.7942 31.9196 25.9018 31.9117 26.0091 31.9016C26.1066 31.8922 26.2033 31.8787 26.302 31.8738C26.4456 31.8667 26.5911 31.8697 26.7366 31.8719C26.803 31.8731 26.8705 31.8693 26.9365 31.8723C27.0966 31.8798 27.2537 31.8978 27.4105 31.917C27.4547 31.9226 27.5001 31.9244 27.544 31.9308C27.724 31.9571 27.9013 31.9927 28.0765 32.034C28.0937 32.0381 28.1117 32.0407 28.129 32.0448C28.3172 32.091 28.5025 32.1457 28.684 32.2087C28.687 32.2098 28.6896 32.2106 28.6926 32.2113C29.2483 32.4048 29.7696 32.6741 30.2436 33.0067C30.2462 33.0086 30.2488 33.0104 30.2515 33.0123C30.4075 33.1222 30.5582 33.2384 30.7033 33.3614C30.706 33.3637 30.709 33.3663 30.7116 33.3686C31.7245 34.2288 32.4632 35.4014 32.7816 36.7301C32.7883 36.7586 32.7973 36.7863 32.8033 36.8152C32.8326 36.9446 32.8525 37.0773 32.8735 37.2097C32.8862 37.2911 32.9008 37.3713 32.9106 37.4534C32.923 37.5596 32.929 37.6676 32.9361 37.7752C32.9428 37.8817 32.9503 37.9878 32.9518 38.0954C32.9533 38.2049 32.9503 38.3137 32.9462 38.4224C32.9432 38.5072 32.941 38.5919 32.9346 38.6763C32.9263 38.7858 32.9121 38.8942 32.8982 39.0026C32.887 39.0884 32.8772 39.1751 32.8626 39.2602C32.845 39.3618 32.8217 39.4623 32.7992 39.5628C32.779 39.6532 32.7606 39.7439 32.7366 39.8332C32.7115 39.9258 32.6807 40.0166 32.6515 40.1081C32.6215 40.2018 32.5933 40.2963 32.5592 40.3886C32.5273 40.4744 32.4891 40.5581 32.4535 40.6425C32.4137 40.7362 32.3762 40.8311 32.332 40.923C32.2911 41.0081 32.2435 41.0906 32.1985 41.1742C32.152 41.2608 32.1081 41.349 32.0575 41.4337C31.9993 41.5308 31.9337 41.6238 31.87 41.7179C31.825 41.7847 31.7833 41.8537 31.7357 41.9193C31.6202 42.0772 31.4976 42.2309 31.3663 42.3791C31.1222 42.6554 31.0622 43.0492 31.2141 43.3852C31.3656 43.7212 31.7001 43.9376 32.0687 43.9376H39.0625V49.1422C37.8062 48.4668 36.3902 48.129 34.9416 48.1728C30.6827 48.3026 27.1937 51.7361 26.9987 55.9897C26.8948 58.2558 27.6985 60.4049 29.2611 62.0407C30.8245 63.6776 32.932 64.5787 35.1947 64.5787C36.553 64.5787 37.8793 64.2397 39.0621 63.6045V68.8102H16.135C15.0621 68.8106 14.1895 67.938 14.1895 66.8651ZM65.8105 66.8651C65.8105 67.938 64.9378 68.8106 63.865 68.8106H40.9375V61.8168C40.9375 61.4482 40.7215 61.1137 40.3851 60.9622C40.0495 60.8107 39.6557 60.8699 39.379 61.1144C38.2183 62.1397 36.7326 62.7045 35.1947 62.7045C33.4491 62.7045 31.8231 62.0092 30.6167 60.7462C29.4111 59.4843 28.7916 57.8257 28.8715 56.076C28.8902 55.6657 28.9487 55.2656 29.0432 54.8793C29.704 52.1733 32.1238 50.1352 34.9986 50.0478C36.6122 49.9972 38.1655 50.5623 39.3793 51.6348C39.6557 51.8786 40.0498 51.9386 40.3855 51.7871C40.7215 51.6356 40.9378 51.3011 40.9378 50.9324V43.9376H46.1425C45.4667 45.1935 45.1288 46.6087 45.1731 48.0588C45.3032 52.3185 48.7371 55.8075 52.9911 56.0017C53.1212 56.0077 53.2502 56.0103 53.3792 56.0103C53.4666 56.0103 53.5525 56.0009 53.6391 55.9979C53.7516 55.9942 53.8633 55.9901 53.9747 55.9822C54.1408 55.9702 54.3051 55.9518 54.4693 55.9301C54.571 55.9166 54.6726 55.9038 54.7735 55.8866C54.9418 55.8581 55.108 55.8213 55.2733 55.7823C55.3686 55.7598 55.4638 55.7392 55.5583 55.7133C55.7245 55.6676 55.8872 55.6136 56.05 55.5577C56.1407 55.5266 56.2322 55.4981 56.3218 55.4636C56.4831 55.4017 56.6402 55.3301 56.7973 55.2577C56.884 55.2179 56.9717 55.1819 57.0572 55.1388C57.214 55.0597 57.3658 54.9705 57.5177 54.8812C57.598 54.834 57.6801 54.7916 57.7588 54.7417C57.9178 54.6405 58.0708 54.5283 58.2234 54.4158C58.2891 54.3675 58.3573 54.3243 58.4218 54.2741C58.6356 54.1068 58.843 53.9287 59.0421 53.7386C60.6786 52.1752 61.5801 50.0681 61.5801 47.8053C61.5801 46.4471 61.2411 45.1203 60.6055 43.9376H65.8116V66.8651H65.8105Z" fill="black"/>
<path d="M72.1095 6.42065C64.6976 6.42065 58.668 12.4507 58.668 19.8622C58.668 22.3904 59.3677 24.8362 60.6971 26.9662L58.9905 31.7493C58.869 32.0905 58.9541 32.4712 59.2106 32.7269C59.4667 32.9834 59.8477 33.0685 60.1882 32.947L64.9597 31.2445C67.101 32.5927 69.5621 33.3029 72.1091 33.3029C79.521 33.3029 85.5506 27.2733 85.5506 19.8618C85.551 12.4503 79.5213 6.42065 72.1095 6.42065ZM72.1095 31.4283C69.7785 31.4283 67.5315 30.7375 65.6107 29.4303C65.4532 29.323 65.2691 29.2679 65.0835 29.2679C64.9773 29.2679 64.8708 29.2859 64.7685 29.3227L61.4212 30.517L62.6186 27.16C62.7191 26.8795 62.6793 26.5679 62.5128 26.3208C61.2243 24.4098 60.543 22.1763 60.543 19.8622C60.543 13.4845 65.7318 8.29566 72.1095 8.29566C78.4871 8.29566 83.676 13.4842 83.676 19.8622C83.676 26.2394 78.4871 31.4283 72.1095 31.4283Z" fill="black"/>
<path d="M78.8191 24.0885L73.5537 18.8232L76.7114 16.7049C77.1588 16.4049 77.0348 15.7163 76.5111 15.5907L65.7623 13.0175C65.314 12.9102 64.9102 13.314 65.0175 13.7623L67.5907 24.5111C67.7161 25.0348 68.4047 25.1588 68.7047 24.7114L70.8229 21.5537L76.0883 26.8191C76.3296 27.0603 76.7209 27.0603 76.9622 26.8191L78.8191 24.9622C79.0603 24.7209 79.0603 24.3298 78.8191 24.0885Z" fill="#002DDC"/>
</svg>
