<svg width="520" height="520" viewBox="0 0 520 520" fill="none" xmlns="http://www.w3.org/2000/svg">
<circle cx="260" cy="260" r="260" fill="white"/>
<circle cx="260" cy="260" r="259.5" stroke="black" stroke-opacity="0.05"/>
<path opacity="0.05" fill-rule="evenodd" clip-rule="evenodd" d="M270 304.821C289.231 304.821 304.821 289.231 304.821 270H345C345 311.421 311.421 345 270 345C228.579 345 195 311.421 195 270C195 228.579 228.579 195 270 195V235.179C250.769 235.179 235.179 250.769 235.179 270C235.179 289.231 250.769 304.821 270 304.821ZM303.482 195H345V236.518H303.482V195Z" fill="black"/>
<mask id="path-4-inside-1" fill="white">
<path fill-rule="evenodd" clip-rule="evenodd" d="M260 294.821C279.231 294.821 294.821 279.231 294.821 260H335C335 301.421 301.421 335 260 335C218.579 335 185 301.421 185 260C185 218.579 218.579 185 260 185V225.179C240.769 225.179 225.179 240.769 225.179 260C225.179 279.231 240.769 294.821 260 294.821ZM293.482 185H335V226.518H293.482V185Z"/>
</mask>
<path fill-rule="evenodd" clip-rule="evenodd" d="M260 294.821C279.231 294.821 294.821 279.231 294.821 260H335C335 301.421 301.421 335 260 335C218.579 335 185 301.421 185 260C185 218.579 218.579 185 260 185V225.179C240.769 225.179 225.179 240.769 225.179 260C225.179 279.231 240.769 294.821 260 294.821ZM293.482 185H335V226.518H293.482V185Z" fill="white"/>
<path d="M294.821 260V259H293.821V260H294.821ZM335 260H336V259H335V260ZM260 185H261V184H260V185ZM260 225.179V226.179H261V225.179H260ZM335 185H336V184H335V185ZM293.482 185V184H292.482V185H293.482ZM335 226.518V227.518H336V226.518H335ZM293.482 226.518H292.482V227.518H293.482V226.518ZM293.821 260C293.821 278.679 278.679 293.821 260 293.821V295.821C279.784 295.821 295.821 279.784 295.821 260H293.821ZM335 259H294.821V261H335V259ZM260 336C301.974 336 336 301.974 336 260H334C334 300.869 300.869 334 260 334V336ZM184 260C184 301.974 218.026 336 260 336V334C219.131 334 186 300.869 186 260H184ZM260 184C218.026 184 184 218.026 184 260H186C186 219.131 219.131 186 260 186V184ZM261 225.179V185H259V225.179H261ZM226.179 260C226.179 241.321 241.321 226.179 260 226.179V224.179C240.216 224.179 224.179 240.216 224.179 260H226.179ZM260 293.821C241.321 293.821 226.179 278.679 226.179 260H224.179C224.179 279.784 240.216 295.821 260 295.821V293.821ZM335 184H293.482V186H335V184ZM336 226.518V185H334V226.518H336ZM293.482 227.518H335V225.518H293.482V227.518ZM292.482 185V226.518H294.482V185H292.482Z" fill="black" mask="url(#path-4-inside-1)"/>
<rect x="149" y="160" width="5" height="5" fill="#002DDC"/>
<rect x="216" y="383" width="5" height="5" fill="#002DDC"/>
<rect x="405" y="249" width="5" height="5" fill="#002DDC"/>
<mask id="path-9-inside-2" fill="white">
<path fill-rule="evenodd" clip-rule="evenodd" d="M327.498 124.919C324.282 112.916 311.944 105.793 299.941 109.009L298 101.765C314.004 97.4763 330.454 106.974 334.742 122.978L327.498 124.919Z"/>
</mask>
<path fill-rule="evenodd" clip-rule="evenodd" d="M327.498 124.919C324.282 112.916 311.944 105.793 299.941 109.009L298 101.765C314.004 97.4763 330.454 106.974 334.742 122.978L327.498 124.919Z" fill="black"/>
<path d="M299.941 109.009L298.975 109.268L299.234 110.234L300.2 109.975L299.941 109.009ZM327.498 124.919L326.532 125.178L326.791 126.144L327.757 125.885L327.498 124.919ZM298 101.765L297.741 100.799L296.775 101.057L297.034 102.023L298 101.765ZM334.742 122.978L335.001 123.944L335.967 123.685L335.708 122.719L334.742 122.978ZM300.2 109.975C311.669 106.902 323.459 113.708 326.532 125.178L328.464 124.66C325.105 112.124 312.219 104.684 299.682 108.043L300.2 109.975ZM300.907 108.75L298.966 101.506L297.034 102.023L298.975 109.268L300.907 108.75ZM298.259 102.73C313.729 98.5852 329.631 107.766 333.776 123.237L335.708 122.719C331.277 106.182 314.279 96.3674 297.741 100.799L298.259 102.73ZM334.484 122.012L327.239 123.953L327.757 125.885L335.001 123.944L334.484 122.012Z" fill="black" mask="url(#path-9-inside-2)"/>
<mask id="path-11-inside-3" fill="white">
<path fill-rule="evenodd" clip-rule="evenodd" d="M100.244 299.823C103.461 311.826 115.798 318.949 127.801 315.733L129.742 322.978C113.738 327.266 97.2883 317.768 93 301.764L100.244 299.823Z"/>
</mask>
<path fill-rule="evenodd" clip-rule="evenodd" d="M100.244 299.823C103.461 311.826 115.798 318.949 127.801 315.733L129.742 322.978C113.738 327.266 97.2883 317.768 93 301.764L100.244 299.823Z" fill="black"/>
<path d="M127.801 315.733L128.767 315.474L128.508 314.508L127.542 314.767L127.801 315.733ZM100.244 299.823L101.21 299.564L100.952 298.599L99.9856 298.857L100.244 299.823ZM129.742 322.978L130.001 323.944L130.967 323.685L130.708 322.719L129.742 322.978ZM93 301.764L92.7412 300.798L91.7753 301.057L92.0341 302.023L93 301.764ZM127.542 314.767C116.073 317.84 104.284 311.034 101.21 299.564L99.2785 300.082C102.638 312.619 115.524 320.058 128.06 316.699L127.542 314.767ZM126.835 315.992L128.776 323.236L130.708 322.719L128.767 315.474L126.835 315.992ZM129.484 322.012C114.013 326.157 98.1112 316.976 93.9659 301.506L92.0341 302.023C96.4653 318.561 113.464 328.375 130.001 323.944L129.484 322.012ZM93.2588 302.73L100.503 300.789L99.9856 298.857L92.7412 300.798L93.2588 302.73Z" fill="black" mask="url(#path-11-inside-3)"/>
<mask id="path-13-inside-4" fill="white">
<path fill-rule="evenodd" clip-rule="evenodd" d="M402.801 364.009C390.798 360.793 378.461 367.916 375.244 379.919L368 377.978C372.288 361.974 388.738 352.476 404.742 356.765L402.801 364.009Z"/>
</mask>
<path fill-rule="evenodd" clip-rule="evenodd" d="M402.801 364.009C390.798 360.793 378.461 367.916 375.244 379.919L368 377.978C372.288 361.974 388.738 352.476 404.742 356.765L402.801 364.009Z" fill="black"/>
<path d="M375.244 379.919L374.986 380.885L375.952 381.144L376.21 380.178L375.244 379.919ZM402.801 364.009L402.542 364.975L403.508 365.234L403.767 364.268L402.801 364.009ZM368 377.978L367.034 377.719L366.775 378.685L367.741 378.944L368 377.978ZM404.742 356.765L405.708 357.023L405.967 356.057L405.001 355.799L404.742 356.765ZM376.21 380.178C379.284 368.708 391.073 361.902 402.542 364.975L403.06 363.043C390.524 359.684 377.638 367.124 374.279 379.66L376.21 380.178ZM375.503 378.953L368.259 377.012L367.741 378.944L374.986 380.885L375.503 378.953ZM368.966 378.237C373.111 362.766 389.013 353.585 404.484 357.73L405.001 355.799C388.464 351.367 371.465 361.182 367.034 377.719L368.966 378.237ZM403.776 356.506L401.835 363.75L403.767 364.268L405.708 357.023L403.776 356.506Z" fill="black" mask="url(#path-13-inside-4)"/>
<rect x="95" y="226" width="24" height="1" fill="black"/>
<rect x="127" y="226" width="6" height="1" fill="black"/>
<rect x="390" y="164" width="24" height="1" fill="black"/>
<rect x="422" y="164" width="6" height="1" fill="black"/>
<rect x="278" y="402" width="24" height="1" fill="black"/>
<rect x="310" y="402" width="6" height="1" fill="black"/>
</svg>
