<svg width="58" height="58" viewBox="0 0 58 58" fill="none" xmlns="http://www.w3.org/2000/svg">
    <g clip-path="url(#a)">
        <path d="M29 58c16.016 0 29-12.984 29-29S45.015 0 29 0 0 12.984 0 29s12.984 29 29 29z" fill="#464646"/>
        <path d="M46.46 21.623A18.98 18.98 0 1 0 11.48 36.365 18.98 18.98 0 0 0 46.46 21.623zm-.669 14.47A18.253 18.253 0 1 1 12.15 21.92a18.253 18.253 0 0 1 33.642 14.173z" fill="#fff"/>
        <path d="M51.419 22.925A23.222 23.222 0 0 1 18.722 49.8 23.22 23.22 0 0 1 6.585 22.925a.364.364 0 1 0-.7-.19 23.947 23.947 0 1 0 46.238 0 .363.363 0 0 0-.7.19h-.004z" fill="#fff"/>
        <path d="M8.607 17.443l.131-.225c.062-.106.141-.241.122-.412a.49.49 0 0 0-.241-.346.453.453 0 0 0-.415-.032c-.147.068-.24.207-.316.338l-.112.19.83.487zM7.46 16.408c.186-.318.35-.518.65-.62a1.044 1.044 0 0 1 .85.112c.11.064.406.26.496.6.065.25.022.536-.169.862l-.208.357 1.047.611-.322.55-2.827-1.65.483-.822z" fill="#fff"/>
        <path d="M12.348 13.305l-1.187-.445.56 1.136.627-.691zm.51.21l-.886.98.316.676-.465.513-1.483-3.241.336-.372 3.348 1.181-.462.51-.703-.246z" fill="#fff"/>
        <path d="M15.185 10.056l.15-.104c.1-.071.506-.374.228-.767-.277-.394-.692-.113-.788-.045l-.156.11.566.806zm-.615-1.41c.368-.26.625-.297.823-.28a.93.93 0 0 1 .69.415c.183.261.24.563.13.85a.906.906 0 0 1-.21.324l1.629.54-.65.457-1.473-.572-.064.046.76 1.075-.52.368-1.888-2.676.773-.547z" fill="#fff"/>
        <path d="M21.63 8.453a1.7 1.7 0 0 1-.672.491c-.53.225-.926.18-1.281.05-.49-.187-.785-.504-.973-.947-.233-.546-.174-1.035-.018-1.385.182-.413.509-.685.938-.867a1.65 1.65 0 0 1 .82-.13l.293.687a1.054 1.054 0 0 0-.87-.03c-.607.258-.788.922-.551 1.478.284.668.95.81 1.459.596a.992.992 0 0 0 .565-.63l.29.687z" fill="#fff"/>
        <path d="M25.274 4.87l-1.157.225.14.718 1.108-.215.105.54-1.108.215.17.877 1.157-.225.105.54-1.783.347-.626-3.214 1.784-.347.105.54z" fill="#fff"/>
        <path d="M28.873 4.055l.01 2.724 1.012-.004.002.55-1.65.006-.012-3.274.638-.002z" fill="#fff"/>
        <path d="M33.041 5.914l.257.05c.12.023.275.05.429-.024a.492.492 0 0 0 .244-.344.45.45 0 0 0-.11-.4c-.113-.117-.275-.157-.425-.185l-.217-.04-.178.943zm.588-1.429c.362.068.605.154.803.405a1.044 1.044 0 0 1 .18.839c-.023.125-.108.469-.4.669-.211.145-.497.2-.868.132l-.406-.076-.223 1.192-.627-.118.603-3.218.938.175z" fill="#fff"/>
        <path d="M39.482 8.15c.27-.606.05-1.22-.533-1.48-.584-.26-1.188-.013-1.457.593-.27.605-.047 1.215.535 1.475.583.26 1.186.017 1.455-.588zm.6.268c-.405.91-1.35 1.268-2.291.85-.942-.418-1.307-1.361-.9-2.271.406-.91 1.35-1.274 2.293-.854.944.42 1.305 1.366.9 2.276" fill="#fff"/>
        <path d="M43.319 8.568l-1.916 2.655.517.373 1.916-2.655-.517-.373z" fill="#fff"/>
        <path d="M43.9 13.19l2.406-2.22.3.324-.254 2.946 1.606-1.481.432.469-2.406 2.22-.3-.325.258-2.95-1.61 1.486-.432-.47z" fill="#fff"/>
        <path d="M50.275 17.047l-2.356 1.366-.321-.552 2.357-1.367-.369-.637.476-.275 1.058 1.826-.476.276-.369-.637z" fill="#fff"/>
        <path d="M41.137 22.753a7.357 7.357 0 0 0-.98-1.874 6.786 6.786 0 0 0-2.347-2.03 7.22 7.22 0 0 0-.994-.43c-.86-.3-1.83-.463-2.905-.463-1.24 0-2.326.254-3.247.675a6.97 6.97 0 0 0-1.795 1.183 7.169 7.169 0 0 0-1.68 2.284 6.353 6.353 0 0 0-.412 1.17c-.089.355-.135.72-.139 1.087-.004.273.033.546.109.808.036.127.087.25.15.366.065.12.147.23.243.326a.607.607 0 0 0 .859-.859.233.233 0 0 1-.04-.056.795.795 0 0 1-.076-.219 1.807 1.807 0 0 1-.033-.366c.002-.237.03-.472.082-.703.12-.52.315-1.02.582-1.48.23-.403.505-.777.82-1.116a5.783 5.783 0 0 1 1.868-1.337c.755-.338 1.648-.55 2.706-.55 1.022 0 1.904.165 2.662.45-1.2 1.554-2.078 3.195-2.831 4.757a4.725 4.725 0 0 0-.413-.018 5.361 5.361 0 0 0-2.006.366c-.425.169-.82.403-1.172.695-.494.41-.886.93-1.148 1.517a4.443 4.443 0 0 0-.383 1.81c0 .588.115 1.17.337 1.714a4.463 4.463 0 0 0 1.015 1.504l-.025.044c-.626 1.133-1.224 2.134-1.815 2.994a15.257 15.257 0 0 1-1.325 1.688c-.309.34-.645.655-1.004.941a5.603 5.603 0 0 1-1.574.895 5.175 5.175 0 0 1-1.777.3c-.854 0-1.57-.16-2.17-.429a4.145 4.145 0 0 1-1.17-.785 4.375 4.375 0 0 1-.652-.792 5.181 5.181 0 0 1-.634-1.457 6.4 6.4 0 0 1-.213-1.659c0-.761.124-1.518.366-2.24.178-.538.426-1.05.736-1.524.229-.347.496-.669.795-.958a4.965 4.965 0 0 1 1.563-1.022 5.303 5.303 0 0 1 2.022-.383 3.83 3.83 0 0 1 1.54.296 2.99 2.99 0 0 1 1.29 1.067c.2.297.352.624.45.968.221.77.201 1.59-.056 2.348a3.415 3.415 0 0 1-.422.837 2.835 2.835 0 0 1-1.36 1.07 3.413 3.413 0 0 1-1.21.208.609.609 0 0 0-.577.843.61.61 0 0 0 .576.37 4.543 4.543 0 0 0 1.907-.397 4.055 4.055 0 0 0 1.1-.745 4.414 4.414 0 0 0 1.059-1.589 5.128 5.128 0 0 0 .066-3.537 4.537 4.537 0 0 0-.595-1.146 4.202 4.202 0 0 0-2.029-1.519 5.175 5.175 0 0 0-1.74-.285 6.424 6.424 0 0 0-2.884.653 6.241 6.241 0 0 0-1.66 1.206 7.297 7.297 0 0 0-1.61 2.536 8.28 8.28 0 0 0-.541 2.942c-.003.79.119 1.575.36 2.326.18.556.436 1.084.762 1.57a5.402 5.402 0 0 0 2.636 2.06 6.635 6.635 0 0 0 2.301.385 6.268 6.268 0 0 0 3.144-.81c.393-.223.764-.48 1.11-.77.624-.516 1.206-1.144 1.772-1.874.835-1.078 1.636-2.38 2.475-3.89.151.085.307.162.466.232.726.315 1.58.492 2.555.492 1.229 0 2.332-.247 3.288-.687a6.997 6.997 0 0 0 1.89-1.276 7.652 7.652 0 0 0 1.834-2.727 8.656 8.656 0 0 0 .615-3.21 8.326 8.326 0 0 0-.467-2.771zm-1.165 5.235a6.794 6.794 0 0 1-.845 1.655 5.92 5.92 0 0 1-2.08 1.851 6.04 6.04 0 0 1-1.407.528 7.092 7.092 0 0 1-1.665.19c-.736 0-1.36-.117-1.88-.313a3.944 3.944 0 0 1-.561-.262c.692-1.295 1.418-2.724 2.21-4.28a.608.608 0 0 0-1.083-.55c-.746 1.467-1.431 2.816-2.08 4.036a3.265 3.265 0 0 1-.747-2.088c0-.403.074-.802.22-1.177a3.004 3.004 0 0 1 1.561-1.65c.466-.216 1.032-.347 1.714-.347a3.15 3.15 0 0 1 .81.1 2.338 2.338 0 0 1 1.008.546c.144.133.272.281.382.443a.608.608 0 0 0 1-.69 3.86 3.86 0 0 0-.486-.577 3.55 3.55 0 0 0-1.093-.726c.742-1.52 1.592-3.062 2.73-4.494a5.574 5.574 0 0 1 1.582 1.536c.376.551.662 1.159.846 1.8a7.18 7.18 0 0 1 .283 2.01c-.001.837-.143 1.668-.419 2.459z" fill="#fff"/>
    </g>
    <defs>
        <clipPath id="a">
            <path fill="#fff" d="M0 0h57.999v58H0z"/>
        </clipPath>
    </defs>
</svg>
