<svg width="92" height="58" viewBox="0 0 92 58" fill="none" xmlns="http://www.w3.org/2000/svg">
    <path d="M55.396 19.136c-3.523 0-6.341 2.635-6.341 6.116 0 3.48 2.818 6.116 6.341 6.116s6.342-2.635 6.342-6.116-2.833-6.116-6.342-6.116zm0 9.061c-1.62 0-2.96-1.325-2.96-2.931 0-1.607 1.34-2.931 2.96-2.931 1.62 0 2.96 1.324 2.96 2.93 0 1.607-1.34 2.932-2.96 2.932z" fill="#000"/>
    <path d="M73.166 23.66c0-2.453-1.973-4.27-4.467-4.27h-5.383V31.1h3.213v-3.185h1.522l1.465 3.185h3.622l-2.001-3.932c1.127-.775 2.03-1.93 2.03-3.509zM68.7 25.04h-2.156v-2.762h2.156c.733 0 1.198.817 1.198 1.395 0 .564-.465 1.367-1.198 1.367z" fill="#000"/>
    <path d="M78.338 19.403h-3.213v11.71h3.213v-11.71z" fill="#000"/>
    <path d="M86.23 19.403h-1.212l-5.426 11.71h3.453l.564-1.324h4.03l.564 1.325h3.452l-5.425-11.71zm-1.635 7.61l1-2.283h.071l1 2.283h-2.07z" fill="#000"/>
    <path d="M40.557 19.403L48.125 3.07H0l7.61 16.432h3.551l2.917 6.285 2.917-6.285h3.551L15.22 31.015h-2.27L24.07 55l11.372-24.535a6.008 6.008 0 0 1-3.002.804c-3.438 0-6.172-2.593-6.172-6.018 0-3.424 2.734-6.017 6.172-6.017a6.003 6.003 0 0 1 5.158 2.931l-2.678 1.607c-.507-.832-1.423-1.41-2.466-1.41a2.902 2.902 0 0 0-2.889 2.89 2.893 2.893 0 0 0 2.89 2.888 2.877 2.877 0 0 0 2.465-1.409l1.762 1.057 2.55-5.51h2.664v8.836h3.213v-8.836h3.241v-2.875h-7.793zm-19.038.099h3.283V31H21.52V19.5z" fill="#000"/>
    <path d="M45.574 37.37c-.465-.281-1.015-.492-1.663-.492-.662 0-1.127.253-1.127.704 0 .437.507.564 1.212.677l.324.056c1.043.17 1.86.62 1.86 1.635 0 1.296-1.142 1.902-2.396 1.902-.888 0-1.846-.254-2.466-.76l.606-.945a3.095 3.095 0 0 0 1.86.634c.648 0 1.156-.254 1.156-.704 0-.41-.423-.55-1.24-.691l-.367-.056c-1.028-.17-1.79-.62-1.79-1.677 0-1.226 1.086-1.86 2.34-1.86.817 0 1.508.183 2.24.62l-.55.958z" fill="#9C9C9C"/>
    <path d="M49.858 38.667h-1.466v1.48c0 .507.268.69.606.69.254 0 .536-.126.761-.267l.409.86a2.26 2.26 0 0 1-1.339.422c-1 0-1.522-.564-1.522-1.62v-1.565h-.789v-.972h.79v-1.212h1.098v1.212h1.466v.972" fill="#9C9C9C"/>
    <path d="M51.478 39.724c0 .62.41 1.113 1.043 1.113.62 0 1.043-.479 1.043-1.113s-.423-1.113-1.043-1.113c-.634 0-1.043.493-1.043 1.113zm3.129 2.03h-1.071v-.452c-.268.325-.662.55-1.212.55-1.113 0-1.959-.916-1.959-2.128 0-1.212.846-2.128 1.959-2.128.55 0 .944.226 1.212.55v-.451h1.071v4.058z" fill="#9C9C9C"/>
    <path d="M58.525 38.667h-1.466v1.48c0 .507.268.69.606.69.254 0 .535-.126.761-.267l.409.86a2.26 2.26 0 0 1-1.34.422c-1 0-1.521-.564-1.521-1.62v-1.565h-.79v-.972h.79v-1.212h1.1v1.212h1.465v.972" fill="#9C9C9C"/>
    <path d="M60.145 39.344h1.79c-.099-.522-.409-.818-.888-.818-.507.014-.803.324-.902.818zm2.89.38c0 .127-.015.282-.015.367h-2.875c.113.591.522.845 1.043.845.352 0 .733-.14 1.029-.395l.634.705c-.465.423-1.043.62-1.733.62-1.24 0-2.1-.845-2.1-2.128 0-1.282.831-2.142 2.057-2.142 1.156 0 1.96.86 1.96 2.128z" fill="#9C9C9C"/>
    <path d="M46.63 44.22l-.845.83c-.324-.38-.817-.62-1.409-.62-1.07 0-1.846.79-1.846 1.931 0 1.198.817 1.945 1.832 1.945.958 0 1.508-.465 1.663-1.296H44.53v-.973h2.692c.014.113.014.226.014.324 0 1.776-1.198 3.03-2.86 3.03-1.622 0-3.059-1.141-3.059-3.03 0-1.775 1.297-3.044 3.086-3.044.944 0 1.705.339 2.227.902z" fill="#9C9C9C"/>
    <path d="M48.914 47.264c0 .662.465 1.113 1.07 1.113.62 0 1.086-.465 1.086-1.113 0-.663-.465-1.114-1.085-1.114-.62-.014-1.071.452-1.071 1.114zm3.27 0c0 1.226-.93 2.128-2.2 2.128-1.253 0-2.184-.916-2.184-2.128 0-1.226.93-2.128 2.185-2.128 1.268-.014 2.198.902 2.198 2.128z" fill="#9C9C9C"/>
    <path d="M55.157 49.293h-1.269l-1.592-4.059h1.184l1.056 2.903 1.057-2.903h1.142l-1.578 4.059z" fill="#9C9C9C"/>
    <path d="M57.99 46.883h1.789c-.099-.522-.409-.818-.888-.818-.507 0-.817.31-.902.818zm2.888.366c0 .127-.014.282-.014.366h-2.875c.113.592.522.846 1.043.846.352 0 .733-.141 1.029-.395l.634.705c-.465.423-1.043.62-1.733.62-1.24 0-2.1-.846-2.1-2.128s.831-2.142 2.057-2.142c1.156 0 1.945.874 1.96 2.128z" fill="#9C9C9C"/>
    <path d="M64.373 45.22l-.17 1.085a1.681 1.681 0 0 0-.662-.127c-.507 0-.86.31-.86.916v2.213h-1.098v-4.059h1.056v.437c.254-.38.649-.55 1.142-.55.254-.014.437.029.592.085z" fill="#9C9C9C"/>
    <path d="M68.784 46.714v2.579h-1.1v-2.227c0-.592-.295-.902-.789-.902-.465 0-.86.31-.86.916v2.227h-1.099v-4.059h1.057v.48c.282-.438.733-.593 1.198-.593.93-.014 1.593.635 1.593 1.579z" fill="#9C9C9C"/>
    <path d="M76.295 46.714v2.578H75.21v-2.226c0-.592-.296-.902-.79-.902-.464 0-.859.31-.859.916v2.227h-1.1V47.08c0-.592-.295-.902-.788-.902-.465 0-.86.31-.86.916v2.227h-1.1v-4.059h1.058v.48c.282-.438.733-.593 1.198-.593.592 0 1.07.268 1.338.69.31-.52.846-.69 1.381-.69.959-.028 1.607.62 1.607 1.565z" fill="#9C9C9C"/>
    <path d="M78.113 46.883h1.79c-.1-.522-.41-.818-.888-.818-.493 0-.804.31-.902.818zm2.903.366c0 .127-.014.282-.014.366h-2.875c.113.592.521.846 1.043.846.352 0 .733-.141 1.028-.395l.635.705c-.465.423-1.043.62-1.734.62-1.24 0-2.1-.846-2.1-2.128s.832-2.142 2.058-2.142c1.156 0 1.945.874 1.959 2.128z" fill="#9C9C9C"/>
    <path d="M85.567 46.714v2.579h-1.099v-2.227c0-.592-.296-.902-.789-.902-.465 0-.86.31-.86.916v2.227h-1.085v-4.059h1.057v.48c.282-.438.733-.593 1.198-.593.916-.014 1.578.635 1.578 1.579z" fill="#9C9C9C"/>
    <path d="M89.415 46.206h-1.466v1.48c0 .507.268.69.606.69.254 0 .536-.126.761-.267l.395.86a2.26 2.26 0 0 1-1.34.422c-1 0-1.521-.564-1.521-1.62v-1.565h-.79v-.972h.79v-1.212h1.1v1.212h1.465v.972z" fill="#9C9C9C"/>
</svg>
