<svg width="93" height="58" viewBox="0 0 93 58" fill="none" xmlns="http://www.w3.org/2000/svg">
    <g clip-path="url(#a)">
        <path d="M92.438 40.013h-4.815l.786-3.178h-9.664l-.786 3.178h-4.684v-.656c.065-.36.13-.72.229-1.146.852-3.44 3.112-6.847 7.01-6.847 1.54 0 3.08.59 2.883 2.72h5.765c.23-.984.623-2.687-.49-4.26-1.213-1.703-3.703-2.39-6.913-2.39-2.293 0-5.602.36-8.484 2.227V12.299h19.163v27.714zm-11.301 4.684c-1.081.197-2.195.328-3.21.328-2.753 0-4.685-1.278-4.718-4.292h8.91l-.982 3.964zm-11.04-15.79v3.964a15.963 15.963 0 0 0-2.555 5.47c-.131.558-.262 1.115-.295 1.672H64.43L66.82 28.58H58.73l-7.24 11.433h-.524V12.364H70.13v16.543h-.033zm-10.68 11.106h-2.882l4.357-6.847-1.474 6.847zM47.789 28.58h-4.782L39.73 40.013h-5.078c2.588-.95 4.16-2.785 4.652-5.504.393-2.096.196-3.505-.655-4.52-1.278-1.54-3.866-1.41-6.159-1.41h-3.8V12.365h19.131V28.58h-.033zM44.71 40.013l2.031-7.175.066 7.175h-2.097zm-13.922-2.72c-.197 0-.393.033-.59.033h-1.9l.557-2.096.262-1.048.655-2.425h1.769c1.605 0 2.654.099 3.014.623.295.393.262 1.08-.098 2.096-.59 1.736-1.31 2.654-3.67 2.818zm-5.34-7.698l-.295.983-2.752 9.107-.098.328h-9.008l-.689-1.475 9.73-9.925h-6.257l-7.6 8.19 2.457-8.19h-4.62V12.364h19.132v17.231zm47.107-17.951V30.25c-.655.525-1.212 1.049-1.704 1.671V11.644H50.245V28.58h-1.703V11.644H27.937v16.968h-1.704V11.645H5.595V30.97L.321 48.497H4.94l2.326-7.764h.655l3.833 7.764h5.634l-3.734-7.764h8.451l-2.358 7.764h5.045l2.326-7.731h1.113v-.033H39.5l-2.227 7.731h5.11l2.162-7.73h2.293l.066 7.73h4.291l4.914-7.73h3.21l-1.67 7.73h5.012l1.638-7.73h2.915c-.13 2.39.492 4.585 2.097 6.06 1.932 1.801 4.946 2.129 7.141 2.129 3.014 0 6.159-.426 9.336-1.147l1.737-7.043h5.732v-29.09H72.554z" fill="#000"/>
    </g>
    <defs>
        <clipPath id="a">
            <path fill="#fff" d="M0 0h93v58H0z"/>
        </clipPath>
    </defs>
</svg>
