<svg width="221" height="58" viewBox="0 0 221 58" fill="none" xmlns="http://www.w3.org/2000/svg">
    <path d="M14.095 23.296H12v-2.488h2.095V18.19c0-2.357.654-4.19 3.928-4.19.654 0 1.44.13 2.095.262v2.357h-1.702c-1.048-.131-1.31.392-1.31 1.309v2.88h2.619v2.357h-2.619v15.319h-3.011V23.295z" fill="#000"/>
    <path d="M22.343 38.614h3.012V14.262h-3.012v24.352z" fill="#000"/>
    <path d="M28.366 35.08V20.545h3.011V33.77c0 .655 0 2.619 2.226 2.619 1.571 0 2.357-1.702 2.357-3.274V20.546h3.011v17.938h-2.88v-2.095c-.917 1.57-2.095 2.487-3.928 2.487-2.88.131-3.797-2.095-3.797-3.797z" fill="#000"/>
    <path d="M49.576 27.878V25.26c0-1.571-.785-2.619-2.356-2.619-1.572 0-2.488 1.048-2.488 2.619v2.488l4.844.13zm-7.855 5.892v-8.117c0-3.404 2.095-5.5 5.63-5.5 3.535 0 5.106 2.358 5.106 5.5v4.32h-7.725v3.535c0 1.703.655 2.88 2.488 2.88 1.57 0 2.356-.916 2.356-2.487v-1.31h2.75v.917c0 3.143-1.702 5.368-5.237 5.368s-5.368-1.57-5.368-5.106z" fill="#000"/>
    <path d="M55.206 20.547h2.88v2.094c.786-1.57 2.096-2.487 3.928-2.487 2.88 0 3.797 2.226 3.797 3.928v14.533H62.8V25.39c0-.655 0-2.619-2.226-2.619-1.57 0-2.356 1.833-2.356 3.143v12.569h-3.012V20.547z" fill="#000"/>
    <path d="M69.87 34.948V23.296h-2.095v-2.357l2.095-.13v-4.19l3.011-1.44v5.498h3.274v2.488h-3.143v10.867c0 .785.131 1.833 1.572 1.833.523 0 1.047 0 1.57-.131v2.487c-.785.262-1.701.393-2.618.393-2.88.262-3.535-1.309-3.666-3.666z" fill="#000"/>
    <path d="M79.035 33.901v-8.248c0-3.666 2.357-5.368 5.237-5.368s4.844 1.309 4.844 4.713v1.44h-1.963v-1.047c0-1.702-.786-3.273-2.88-3.273-2.096 0-3.012 1.833-3.012 3.142V33.9c0 1.31.393 3.142 3.142 3.142a2.864 2.864 0 0 0 2.88-2.618v-1.571h1.964v1.44c0 3.142-1.963 4.844-4.713 4.844-3.797-.13-5.499-1.57-5.499-5.237z" fill="#000"/>
    <path d="M99.329 33.901v-8.51c0-1.964-1.047-3.142-3.011-3.142-2.095 0-2.88 1.44-2.88 3.273v8.51c0 1.833.916 3.142 2.88 3.142 1.963 0 3.01-1.309 3.01-3.273zm-7.987.131v-8.51c0-3.012 1.702-5.237 5.237-5.237s4.976 2.225 4.976 4.844v8.38c0 3.273-1.702 5.498-5.107 5.498-3.535 0-5.106-1.57-5.106-4.975z" fill="#000"/>
    <path d="M103.78 20.677h2.095v2.095c.917-1.57 2.226-2.487 3.928-2.487 2.357 0 3.273 1.44 3.535 2.75 1.179-1.834 2.357-2.75 4.19-2.75 3.011 0 3.666 2.356 3.666 3.927v14.534h-2.226V25.26c0-.786.131-3.142-2.618-3.142-1.833 0-3.012 2.225-3.012 3.928v12.569h-1.833V24.867c0-.916-.262-2.75-2.618-2.75-1.833 0-3.012 2.226-3.012 3.928v12.57h-2.225l.13-17.938z" fill="#000"/>
    <path d="M123.551 20.677h2.094v2.095c.917-1.57 2.226-2.487 3.928-2.487 2.357 0 3.273 1.44 3.535 2.75 1.179-1.834 2.357-2.75 4.059-2.75 3.011 0 3.797 2.356 3.797 3.927v14.534H139V25.26c0-.786.131-3.142-2.619-3.142-1.833 0-3.011 2.225-3.011 3.928v12.569h-2.226V24.867c0-.916-.262-2.75-2.618-2.75-1.833 0-3.012 2.226-3.012 3.928v12.57h-2.225l.262-17.938z" fill="#000"/>
    <path d="M151.438 28.14v-2.88c0-1.833-.916-3.142-2.88-3.142s-3.012 1.44-3.012 3.273v2.75h5.892zm-8.117 5.892v-8.248c0-3.535 1.964-5.5 5.499-5.5 3.404 0 4.713 2.357 4.713 5.5v4.19h-7.987v3.665c0 2.095.786 3.535 3.012 3.535 1.833 0 2.88-1.178 2.88-3.142v-1.31h1.964v.917c0 3.143-1.44 5.5-4.844 5.5-3.404 0-5.237-1.703-5.237-5.107z" fill="#000"/>
    <path d="M156.021 20.677h2.094v3.143h.131c1.048-2.357 2.357-3.404 3.928-3.404h1.048v2.356c-.393-.13-.786-.13-1.31-.13-2.487 0-3.666 4.058-3.666 6.284v9.558h-2.225V20.677z" fill="#000"/>
    <path d="M164.793 33.901v-8.248c0-3.666 2.357-5.368 5.237-5.368s4.844 1.309 4.844 4.713v1.44h-1.964v-1.047c0-1.702-.654-3.273-2.88-3.273s-3.011 1.833-3.011 3.142V33.9c0 1.31.392 3.142 3.142 3.142a2.863 2.863 0 0 0 2.88-2.618v-1.571h1.964v1.44c0 3.142-1.964 4.844-4.713 4.844-3.666-.13-5.499-1.57-5.499-5.237z" fill="#000"/>
    <path d="M185.087 28.14v-2.88c0-1.833-.917-3.142-2.881-3.142-1.964 0-3.011 1.44-3.011 3.273v2.75h5.892zm-7.987 5.892v-8.248c0-3.535 1.964-5.5 5.499-5.5 3.404 0 4.713 2.357 4.713 5.5v4.19h-7.986v3.665c0 2.095.654 3.535 3.011 3.535 1.833 0 2.881-1.178 2.881-3.142v-1.31h1.963v.917c0 3.143-1.44 5.5-4.844 5.5-3.404 0-5.237-1.703-5.237-5.107z" fill="#000"/>
    <path d="M191.371 37.305c-.393-1.047 0-2.226 1.048-2.618.261-.131.523-.131.785-.131 1.048 0 1.964.916 1.964 1.964 0 1.047-.916 1.963-1.964 1.963-.524 0-1.047-.13-1.44-.523-.131-.131-.262-.393-.393-.655z" fill="#000"/>
    <path d="M209.177 24.605h-15.973c-1.047 0-1.964-.916-1.964-1.964 0-1.047.917-1.964 1.964-1.964h15.973c1.048 0 1.964.917 1.964 1.964 0 1.048-.916 1.964-1.964 1.964z" fill="#000"/>
    <path d="M193.204 27.617h7.987c1.047 0 1.964.916 1.964 1.964 0 1.047-.917 1.963-1.964 1.963h-7.987c-1.047 0-1.964-.916-1.964-1.963 0-1.048.786-1.964 1.964-1.964z" fill="#000"/>
</svg>
