<svg width="627" height="598" viewBox="0 0 627 598" xmlns="http://www.w3.org/2000/svg" xmlns:xlink="http://www.w3.org/1999/xlink">
    <title>
        hero-img
    </title>
    <defs>
        <path d="M.645 143.981c3-39.5-.3-78.3 14.7-115.8 4.3-10.6 14-27.4 27.5-28 20.8-.9 8.1 40.9 4.3 56.6-2.4 10.1-6 20.1-9.8 29.7-6.7 17.1-16.7 40.9-24.2 57.5" id="a"/>
        <path d="M42.845 143.981c-6.6-16.8-13-33.6-19.4-50.4-5.7-14.9-12.4-29.5-17.1-44.7-3.5-11.6-12.7-38.3.7-46.5 23.8-14.6 42.8 41.9 45.4 62 3.3 26.5 2.6 53.1 3 79.7" id="c"/>
        <path d="M.745 107.981s7-31 11.8-48.6c5.2-19.1 22.4-48.4 40.4-56.7 4.1-1.9 9.1-3.2 13.1-1 2.5 1.3 4.1 3.8 5 6.5 3.1 8.9-11.9 37.2-17.1 45.1-10.1 15.5-24.6 40.2-36 54.8" id="e"/>
        <path d="M.645 143.981c3-39.5-.3-78.3 14.7-115.8 4.3-10.6 14-27.4 27.5-28 20.8-.9 8.1 40.9 4.3 56.6-2.4 10.1-6 20.1-9.8 29.7-6.7 17.1-16.7 40.9-24.2 57.5" id="g"/>
        <path d="M42.845 143.981c-6.6-16.8-13-33.6-19.4-50.4-5.7-14.9-12.4-29.5-17.1-44.7-3.5-11.6-12.7-38.3.7-46.5 23.8-14.6 42.8 41.9 45.4 62 3.3 26.5 2.6 53.1 3 79.7" id="i"/>
        <path d="M.187 174.959C3.832 126.961-.178 79.813 18.05 34.244 23.275 21.364 35.062.949 51.466.22c25.276-1.094 9.843 49.7 5.226 68.778-2.917 12.273-7.291 24.424-11.909 36.09-8.142 20.779-20.293 49.7-29.407 69.871" id="k"/>
        <path d="M52.063 174.959c-8.02-20.414-15.797-40.829-23.574-61.243C21.563 95.61 13.421 77.868 7.71 59.398c-4.253-14.096-15.433-46.54.85-56.505 28.921-17.741 52.009 50.915 55.169 75.34 4.01 32.202 3.159 64.525 3.645 96.848" id="m"/>
        <path d="M43.062 143.981c-6.6-16.8-13-33.6-19.4-50.4-5.7-14.9-12.4-29.5-17.1-44.7-3.5-11.6-12.7-38.3.7-46.5 23.8-14.6 42.8 41.9 45.4 62 3.3 26.5 2.6 53.1 3 79.7" id="o"/>
        <path d="M49.162 100.981s-13.9-17.8-20.2-26.1c-14-18.6-31.3-38.8-28.7-59.8.6-4.8 2.4-10.2 7.2-13 3-1.7 6.6-2.2 10-1.9 11.4 1.1 21.6 17.6 26.7 26.1 10 16.6 25.6 74.7 25.6 74.7" id="q"/>
        <path id="s" d="M0 0h124v124H0z"/>
    </defs>
    <g fill="none" fill-rule="evenodd">
        <path d="M516.645 567.981c3-39.5-.3-78.3 14.7-115.8 4.3-10.6 14-27.4 27.5-28 20.8-.9 8.1 40.9 4.3 56.6-2.4 10.1-6 20.1-9.8 29.7-6.7 17.1-16.7 40.9-24.2 57.5" fill="#FFF" fill-rule="nonzero"/>
        <g transform="translate(516 424)">
            <mask id="b" fill="#fff">
                <use xlink:href="#a"/>
            </mask>
            <path d="M15.345 28.181l-.927-.376-.002.005.929.371zm27.5-28l-.044-.999H42.8l.045.999zm4.3 56.6l-.972-.235-.001.004.973.231zm-9.8 29.7l-.93-.368-.001.003.931.365zM1.642 144.057c.752-9.898 1.108-19.749 1.455-29.525.347-9.782.684-19.487 1.395-29.127 1.421-19.277 4.335-38.237 11.781-56.853l-1.857-.742C6.862 46.694 3.926 65.884 2.497 85.257c-.714 9.685-1.052 19.43-1.399 29.204-.346 9.781-.702 19.592-1.45 29.444l1.994.152zm14.629-115.5c2.127-5.243 5.581-11.993 10.143-17.487 4.579-5.514 10.141-9.608 16.475-9.89L42.8-.818C35.635-.5 29.597 4.106 24.875 9.792c-4.737 5.706-8.284 12.656-10.457 18.013l1.853.752zM42.888 1.18c2.43-.105 4.288.414 5.716 1.363 1.432.953 2.517 2.395 3.298 4.277 1.58 3.807 1.843 9.237 1.321 15.351-1.041 12.2-5.134 26.457-7.05 34.375l1.944.47c1.883-7.782 6.041-22.275 7.099-34.675.528-6.186.304-12.019-1.466-16.287-.894-2.155-2.2-3.953-4.039-5.176-1.844-1.226-4.139-1.816-6.91-1.696l.087 1.998zm3.284 55.37c-2.384 10.03-5.963 19.979-9.757 29.563l1.86.736c3.806-9.615 7.426-19.667 9.843-29.837l-1.946-.462zm-9.758 29.566c-6.695 17.085-16.688 40.87-24.181 57.453l1.823.824c7.507-16.617 17.514-40.432 24.22-57.547l-1.862-.73z" fill="#EEE" fill-rule="nonzero" mask="url(#b)"/>
        </g>
        <path d="M505.845 567.981c-6.6-16.8-13-33.6-19.4-50.4-5.7-14.9-12.4-29.5-17.1-44.7-3.5-11.6-12.7-38.3.7-46.5 23.8-14.6 42.8 41.9 45.4 62 3.3 26.5 2.6 53.1 3 79.7" fill="#FFF" fill-rule="nonzero"/>
        <g transform="translate(463 424)">
            <mask id="d" fill="#fff">
                <use xlink:href="#c"/>
            </mask>
            <path d="M23.445 93.581l.934-.356v-.001l-.934.357zm-17.1-44.7l-.958.289.002.006.956-.295zm.7-46.5l.522.853.001-.001-.523-.852zm45.4 62l.992-.124-.001-.004-.991.128zm-8.67 79.234c-6.597-16.794-12.996-33.589-19.396-50.39l-1.869.712c6.4 16.799 12.802 33.604 19.404 50.41l1.861-.732zM24.379 93.224C18.646 78.237 11.989 63.749 7.3 48.586l-1.911.59c4.712 15.237 11.455 29.949 17.122 44.762l1.868-.714zM7.302 48.592C5.539 42.75 2.4 33.28 1.351 24.241c-.525-4.516-.517-8.85.409-12.522.92-3.653 2.734-6.605 5.807-8.485L6.523 1.528C2.896 3.748.834 7.208-.18 11.23c-1.008 4.003-.994 8.607-.456 13.241C.439 33.732 3.65 43.412 5.387 49.17l1.915-.578zm.266-45.359c2.819-1.729 5.515-2.378 8.088-2.206 2.581.172 5.116 1.176 7.59 2.879 4.975 3.424 9.571 9.581 13.57 16.94 7.988 14.699 13.352 33.73 14.637 43.663l1.983-.256c-1.315-10.167-6.751-29.436-14.863-44.362-4.05-7.454-8.83-13.941-14.193-17.632C21.686.404 18.811-.767 15.789-.969c-3.033-.202-6.136.577-9.267 2.498l1.046 1.704zm43.884 61.272c3.291 26.428 2.592 52.935 2.993 79.591l2-.03c-.4-26.544.301-53.237-3.008-79.809l-1.985.248z" fill="#EEE" fill-rule="nonzero" mask="url(#d)"/>
        </g>
        <path d="M476.345 438.081c17 34.4 33.6 98 34 129.9" stroke="#EEE"/>
        <path d="M558.045 433.281c-12.2 27.2-28.9 86.2-35.6 134.8" stroke="#EEE"/>
        <path d="M529.745 567.981s7-31 11.8-48.6c5.2-19.1 22.4-48.4 40.4-56.7 4.1-1.9 9.1-3.2 13.1-1 2.5 1.3 4.1 3.8 5 6.5 3.1 8.9-11.9 37.2-17.1 45.1-10.1 15.5-24.6 40.2-36 54.8" fill="#FFF" fill-rule="nonzero"/>
        <g transform="translate(529 460)">
            <mask id="f" fill="#fff">
                <use xlink:href="#e"/>
            </mask>
            <path d="M12.545 59.381l.965.263-.965-.263zm40.4-56.7l.418.908.002-.001-.42-.907zm13.1-1l-.482.876.01.006.01.005.462-.887zm5 6.5l-.949.316.004.013.945-.329zm-17.1 45.1l-.836-.55-.002.004.838.546zm-53.2 54.7l.975.22v-.001l.001-.004.004-.017.015-.067.06-.262.23-1.013a2131.65 2131.65 0 0 1 3.788-16.326c2.35-9.949 5.296-22.085 7.692-30.867l-1.93-.526C9.175 67.936 6.222 80.1 3.871 90.051A2203.742 2203.742 0 0 0 .08 106.393l-.231 1.015-.059.263-.016.067-.003.017-.001.004-.001.001.976.221zM13.51 59.644c2.567-9.43 8.116-21.431 15.266-32.106C35.941 16.839 44.615 7.623 53.363 3.589l-.837-1.816c-9.251 4.266-18.178 13.85-25.412 24.652-7.25 10.824-12.901 23.023-15.534 32.693l1.93.526zM53.365 3.588c4.063-1.883 8.653-2.98 12.198-1.031l.964-1.752c-4.455-2.45-9.866-.948-14.003.969l.841 1.814zm12.218-1.02c2.184 1.136 3.659 3.366 4.513 5.929l1.897-.632c-.945-2.837-2.671-5.607-5.487-7.071l-.923 1.774zM70.1 8.51c.325.931.435 2.192.316 3.765-.118 1.562-.455 3.366-.972 5.344-1.033 3.957-2.757 8.522-4.753 13.086-3.993 9.131-9.017 18.13-11.582 22.026l1.671 1.1c2.635-4.004 7.711-13.105 11.743-22.324 2.017-4.611 3.786-9.283 4.856-13.383.536-2.05.902-3.978 1.031-5.699.129-1.709.03-3.279-.421-4.573L70.1 8.51zM53.107 52.735c-10.149 15.575-24.584 40.174-35.95 54.731l1.576 1.23c11.434-14.643 25.999-39.444 36.05-54.869l-1.676-1.092z" fill="#EEE" fill-rule="nonzero" mask="url(#f)"/>
        </g>
        <path d="M591.745 468.981c-21.3 18.5-49.8 77.4-57.7 99.1" stroke="#EEE"/>
        <path d="M331.645 567.981c3-39.5-.3-78.3 14.7-115.8 4.3-10.6 14-27.4 27.5-28 20.8-.9 8.1 40.9 4.3 56.6-2.4 10.1-6 20.1-9.8 29.7-6.7 17.1-16.7 40.9-24.2 57.5" fill="#FFF" fill-rule="nonzero"/>
        <g transform="translate(331 424)">
            <mask id="h" fill="#fff">
                <use xlink:href="#g"/>
            </mask>
            <path d="M15.345 28.181l-.927-.376-.002.005.929.371zm27.5-28l-.044-.999H42.8l.045.999zm4.3 56.6l-.972-.235-.001.004.973.231zm-9.8 29.7l-.93-.368-.001.003.931.365zM1.642 144.057c.752-9.898 1.108-19.749 1.455-29.525.347-9.782.684-19.487 1.395-29.127 1.421-19.277 4.335-38.237 11.781-56.853l-1.857-.742C6.862 46.694 3.926 65.884 2.497 85.257c-.714 9.685-1.052 19.43-1.399 29.204-.346 9.781-.702 19.592-1.45 29.444l1.994.152zm14.629-115.5c2.127-5.243 5.581-11.993 10.143-17.487 4.579-5.514 10.141-9.608 16.475-9.89L42.8-.818C35.635-.5 29.597 4.106 24.875 9.792c-4.737 5.706-8.284 12.656-10.457 18.013l1.853.752zM42.888 1.18c2.43-.105 4.288.414 5.716 1.363 1.432.953 2.517 2.395 3.298 4.277 1.58 3.807 1.843 9.237 1.321 15.351-1.041 12.2-5.134 26.457-7.05 34.375l1.944.47c1.883-7.782 6.041-22.275 7.099-34.675.528-6.186.304-12.019-1.466-16.287-.894-2.155-2.2-3.953-4.039-5.176-1.844-1.226-4.139-1.816-6.91-1.696l.087 1.998zm3.284 55.37c-2.384 10.03-5.963 19.979-9.757 29.563l1.86.736c3.806-9.615 7.426-19.667 9.843-29.837l-1.946-.462zm-9.758 29.566c-6.695 17.085-16.688 40.87-24.181 57.453l1.823.824c7.507-16.617 17.514-40.432 24.22-57.547l-1.862-.73z" fill="#EEE" fill-rule="nonzero" mask="url(#h)"/>
        </g>
        <path d="M320.845 567.981c-6.6-16.8-13-33.6-19.4-50.4-5.7-14.9-12.4-29.5-17.1-44.7-3.5-11.6-12.7-38.3.7-46.5 23.8-14.6 42.8 41.9 45.4 62 3.3 26.5 2.6 53.1 3 79.7" fill="#FFF" fill-rule="nonzero"/>
        <g transform="translate(278 424)">
            <mask id="j" fill="#fff">
                <use xlink:href="#i"/>
            </mask>
            <path d="M23.445 93.581l.934-.356v-.001l-.934.357zm-17.1-44.7l-.958.289.002.006.956-.295zm.7-46.5l.522.853.001-.001-.523-.852zm45.4 62l.992-.124-.001-.004-.991.128zm-8.67 79.234c-6.597-16.794-12.996-33.589-19.396-50.39l-1.869.712c6.4 16.799 12.802 33.604 19.404 50.41l1.861-.732zM24.379 93.224C18.646 78.237 11.989 63.749 7.3 48.586l-1.911.59c4.712 15.237 11.455 29.949 17.122 44.762l1.868-.714zM7.302 48.592C5.539 42.75 2.4 33.28 1.351 24.241c-.525-4.516-.517-8.85.409-12.522.92-3.653 2.734-6.605 5.807-8.485L6.523 1.528C2.896 3.748.834 7.208-.18 11.23c-1.008 4.003-.994 8.607-.456 13.241C.439 33.732 3.65 43.412 5.387 49.17l1.915-.578zm.266-45.359c2.819-1.729 5.515-2.378 8.088-2.206 2.581.172 5.116 1.176 7.59 2.879 4.975 3.424 9.571 9.581 13.57 16.94 7.988 14.699 13.352 33.73 14.637 43.663l1.983-.256c-1.315-10.167-6.751-29.436-14.863-44.362-4.05-7.454-8.83-13.941-14.193-17.632C21.686.404 18.811-.767 15.789-.969c-3.033-.202-6.136.577-9.267 2.498l1.046 1.704zm43.884 61.272c3.291 26.428 2.592 52.935 2.993 79.591l2-.03c-.4-26.544.301-53.237-3.008-79.809l-1.985.248z" fill="#EEE" fill-rule="nonzero" mask="url(#j)"/>
        </g>
        <path d="M291.345 438.081c17 34.4 33.6 98 34 129.9" stroke="#EEE"/>
        <path d="M373.045 433.281c-12.2 27.2-28.9 86.2-35.6 134.8" stroke="#EEE"/>
        <path d="M308.187 541.959c3.645-47.998-.365-95.146 17.863-140.715 5.225-12.88 17.012-33.295 33.416-34.024 25.276-1.094 9.843 49.7 5.226 68.778-2.917 12.273-7.291 24.424-11.909 36.09-8.142 20.779-20.293 49.7-29.407 69.871" fill="#FFF" fill-rule="nonzero"/>
        <g transform="translate(308 367)">
            <mask id="l" fill="#fff">
                <use xlink:href="#k"/>
            </mask>
            <path d="M18.05 34.244l-.927-.376-.002.005.929.371zM51.466.22l-.043-.999h-.001l.044.999zm5.226 68.778l-.972-.235-.001.004.973.231zm-11.909 36.09l-.93-.368-.001.003.931.365zM1.184 175.035c.913-12.023 1.346-23.989 1.768-35.868.422-11.886.831-23.684 1.695-35.403C6.375 80.33 9.918 57.265 18.978 34.616l-1.857-.743C7.954 56.792 4.388 80.085 2.653 103.617c-.868 11.764-1.278 23.601-1.7 35.479C.532 150.98.099 162.907-.81 174.884l1.994.151zM18.976 34.62c2.59-6.383 6.796-14.606 12.359-21.306C36.914 6.595 43.724 1.565 51.511 1.219l-.089-1.998c-8.618.383-15.904 5.925-21.626 12.815-5.738 6.911-10.037 15.335-12.673 21.832l1.853.752zM51.51 1.219c2.989-.129 5.293.509 7.073 1.693 1.785 1.186 3.127 2.976 4.089 5.293 1.939 4.676 2.255 11.318 1.62 18.754-1.267 14.847-6.247 32.196-8.572 41.804l1.943.47c2.293-9.471 7.338-27.057 8.622-42.103.641-7.51.365-14.554-1.766-19.691-1.074-2.589-2.637-4.736-4.828-6.193-2.196-1.46-4.938-2.169-8.268-2.025l.087 1.998zm4.209 67.548c-2.9 12.203-7.254 24.303-11.866 35.953l1.86.736c4.624-11.681 9.019-23.885 11.951-36.227l-1.945-.462zm-11.867 35.956c-8.136 20.764-20.281 49.669-29.387 69.825l1.823.823c9.121-20.188 21.279-49.124 29.426-69.918l-1.862-.73z" fill="#EEE" fill-rule="nonzero" mask="url(#l)"/>
        </g>
        <path d="M326.063 516.959c-8.02-20.414-15.797-40.829-23.574-61.243-6.926-18.106-15.068-35.848-20.779-54.318-4.253-14.096-15.433-46.54.85-56.505 28.921-17.741 52.009 50.915 55.169 75.34 4.01 32.202 3.159 64.525 3.645 96.848" fill="#FFF" fill-rule="nonzero"/>
        <g transform="translate(274 342)">
            <mask id="n" fill="#fff">
                <use xlink:href="#m"/>
            </mask>
            <path d="M28.489 113.716l.934-.356v-.002l-.934.358zM7.71 59.398l-.958.289.002.006.956-.295zm.85-56.505l.522.853h.001l-.523-.853zm55.169 75.34l.992-.124-.001-.004-.991.128zm-10.735 96.361c-8.018-20.409-15.793-40.819-23.571-61.234l-1.869.712c7.777 20.413 15.556 40.833 23.578 61.253l1.862-.731zm-23.571-61.236C22.464 95.166 14.365 77.536 8.665 59.103l-1.911.59c5.723 18.507 13.908 36.36 20.801 54.38l1.868-.715zM8.667 59.109c-2.139-7.09-5.961-18.62-7.24-29.628-.638-5.5-.631-10.795.503-15.293C3.058 9.71 5.289 6.068 9.082 3.746L8.038 2.04C3.691 4.701 1.212 8.851-.01 13.699c-1.217 4.829-1.202 10.394-.549 16.013C.745 40.941 4.639 52.681 6.752 59.687l1.915-.578zm.416-55.363c3.46-2.122 6.78-2.925 9.955-2.713 3.185.212 6.302 1.451 9.332 3.537 6.087 4.189 11.691 11.706 16.556 20.658 9.721 17.886 16.246 41.037 17.811 53.133l1.983-.256c-1.595-12.329-8.193-35.718-18.036-53.832-4.917-9.047-10.705-16.894-17.18-21.351C26.254.685 22.797-.721 19.171-.963c-3.635-.242-7.363.691-11.133 3.004l1.045 1.705zm53.653 74.611c4.001 32.13 3.151 64.36 3.638 96.739l2-.03c-.485-32.268.366-64.683-3.653-96.957l-1.985.248z" fill="#EEE" fill-rule="nonzero" mask="url(#n)"/>
        </g>
        <path d="M290.216 359.111c20.658 41.801 40.829 119.085 41.315 157.849" stroke="#EEE"/>
        <path d="M358.494 378.278c-14.824 33.052-35.118 104.746-43.259 163.803" stroke="#EEE"/>
        <path d="M355.105 516.96s8.506-37.67 14.339-59.057c6.319-23.21 27.22-58.814 49.092-68.899 4.983-2.309 11.058-3.889 15.919-1.216 3.038 1.58 4.982 4.618 6.076 7.899 3.767 10.815-14.461 45.204-20.779 54.803-12.274 18.835-29.893 48.85-43.746 66.591" fill="#FFF" fill-rule="nonzero"/>
        <path d="M430.445 396.659c-25.883 22.48-60.515 94.053-70.115 120.422" stroke="#EEE"/>
        <g>
            <path d="M149.062 567.981c-6.6-16.8-13-33.6-19.4-50.4-5.7-14.9-12.4-29.5-17.1-44.7-3.5-11.6-12.7-38.3.7-46.5 23.8-14.6 42.8 41.9 45.4 62 3.3 26.5 2.6 53.1 3 79.7" fill="#FFF" fill-rule="nonzero"/>
            <g transform="translate(106 424)">
                <mask id="p" fill="#fff">
                    <use xlink:href="#o"/>
                </mask>
                <path d="M23.662 93.581l.934-.356v-.001l-.934.357zm-17.1-44.7l-.958.289.002.006.956-.295zm.7-46.5l.522.853.001-.001-.523-.852zm45.4 62l.992-.124-.001-.004-.991.128zm-8.67 79.234c-6.597-16.794-12.996-33.589-19.396-50.39l-1.869.712c6.4 16.799 12.802 33.604 19.404 50.41l1.861-.732zM24.596 93.224c-5.733-14.987-12.39-29.475-17.079-44.638l-1.911.59c4.712 15.237 11.455 29.949 17.122 44.762l1.868-.714zM7.519 48.592C5.756 42.75 2.617 33.28 1.567 24.241c-.524-4.516-.516-8.85.41-12.522.92-3.653 2.734-6.605 5.807-8.485L6.74 1.528C3.113 3.748 1.051 7.208.037 11.23c-1.009 4.003-.994 8.607-.456 13.241C.656 33.732 3.867 43.412 5.604 49.17l1.915-.578zm.266-45.359C10.604 1.504 13.3.855 15.872 1.027c2.582.172 5.117 1.176 7.591 2.879 4.975 3.424 9.571 9.581 13.57 16.94 7.988 14.699 13.352 33.73 14.637 43.663l1.983-.256c-1.315-10.167-6.751-29.436-14.863-44.362-4.05-7.454-8.83-13.941-14.193-17.632C21.903.404 19.028-.767 16.006-.969c-3.033-.202-6.136.577-9.267 2.498l1.046 1.704zm43.884 61.272c3.291 26.428 2.592 52.935 2.993 79.591l1.999-.03c-.399-26.544.302-53.237-3.007-79.809l-1.985.248z" fill="#EEE" fill-rule="nonzero" mask="url(#p)"/>
            </g>
            <path d="M130.162 567.981s-13.9-17.8-20.2-26.1c-14-18.6-31.3-38.8-28.7-59.8.6-4.8 2.4-10.2 7.2-13 3-1.7 6.6-2.2 10-1.9 11.4 1.1 21.6 17.6 26.7 26.1 10 16.6 25.6 74.7 25.6 74.7" fill="#FFF" fill-rule="nonzero"/>
            <g transform="translate(81 467)">
                <mask id="r" fill="#fff">
                    <use xlink:href="#q"/>
                </mask>
                <path d="M28.962 74.881l-.799.601.002.004.797-.605zm-28.7-59.8l-.993-.124v.001l.993.123zm7.2-13l-.493-.87-.011.006.504.864zm10-1.9l.096-.995-.009-.001-.087.996zm26.7 26.1l-.858.515.001.001.857-.516zm5 74.7l.788-.616h-.001l-.002-.003-.007-.009a6.47 6.47 0 0 1-.03-.039l-.118-.15-.452-.579-1.66-2.13c-1.824-2.34-3.646-4.682-5.466-7.025-4.263-5.488-9.31-12.009-12.456-16.154l-1.593 1.21c3.154 4.155 8.207 10.684 12.469 16.171 2.524 3.248 5.051 6.494 7.582 9.737l.117.151.03.039.008.009.002.003.789-.615zM29.761 74.28C22.73 64.938 14.963 55.313 9.254 45.383c-5.705-9.922-9.261-19.993-8-30.179l-1.985-.246c-1.339 10.814 2.456 21.343 8.25 31.421C13.31 56.45 21.194 66.224 28.163 75.482l1.598-1.202zM1.254 15.205c.588-4.705 2.324-9.701 6.712-12.26L6.958 1.217C1.745 4.258-.119 10.062-.731 14.957l1.985.248zm6.7-12.254c2.78-1.575 6.164-2.061 9.42-1.774l.175-1.992c-3.544-.313-7.36.201-10.58 2.026l.986 1.74h-.001zm9.412-1.775c5.288.511 10.465 4.639 15.052 9.935 4.55 5.252 8.336 11.434 10.886 15.685l1.715-1.029c-2.55-4.25-6.414-10.568-11.089-15.966C29.292 4.447 23.669-.225 17.558-.814l-.193 1.99h.001zm25.939 25.621c2.447 4.062 5.27 10.727 8.137 18.505 2.86 7.758 5.742 16.559 8.315 24.85a950.86 950.86 0 0 1 8.351 28.565c.222.81.395 1.441.511 1.87l.132.488.034.124.008.031.002.008.001.002.966-.259.965-.26v-.002a.069.069 0 0 1-.003-.008.29.29 0 0 0-.008-.032l-.034-.126-.133-.491a948.231 948.231 0 0 0-8.882-30.502c-2.578-8.309-5.471-17.146-8.348-24.95-2.87-7.785-5.748-14.607-8.301-18.845l-1.713 1.032z" fill="#EEE" fill-rule="nonzero" mask="url(#r)"/>
            </g>
            <path d="M119.562 438.081c17 34.4 33.6 98 34 129.9" stroke="#EEE"/>
            <path d="M93.162 477.481c14.9 28.7 45.3 90.5 45.3 90.5" stroke="#EEE"/>
        </g>
        <g opacity=".05" fill="#000">
            <path d="M437 353c0 57.438-46.562 104-104 104s-104-46.562-104-104 46.562-104 104-104V129c-123.712 0-224 100.288-224 224s100.288 224 224 224 224-100.288 224-224H437z"/>
            <path d="M433 129v124h124V129z"/>
        </g>
        <path d="M313 437c57.438 0 104-46.562 104-104h120c0 123.712-100.288 224-224 224S89 456.712 89 333s100.288-224 224-224v120c-57.438 0-104 46.562-104 104s46.562 104 104 104zm100-328h124v124H413V109z" fill="#FFF"/>
        <g fill="#000" fill-opacity=".05" fill-rule="nonzero">
            <path d="M36 89h77.929s1.372-17.894-7.93-19.332c-9.456-1.278-12.353 4.633-16.776 7.19-.762-15.978-1.067-23.167-12.047-22.848-13.116.16-18.758 19.173-20.893 22.847C50.793 62.478 36 89 36 89z"/>
            <path d="M305 307h76.93s1.355-16.872-7.829-18.228c-9.334-1.205-12.194 4.369-16.56 6.779-.753-15.064-1.054-21.843-11.893-21.541-12.947.15-18.518 18.077-20.625 21.541C319.603 281.994 305 307 305 307z"/>
            <path d="M466 40h92.915s1.636-20.45-9.455-22.094c-11.274-1.46-14.728 5.295-20.001 8.217-.91-18.26-1.273-26.477-14.365-26.111-15.637.182-22.365 21.911-24.911 26.11C483.638 9.69 466 40 466 40z"/>
        </g>
        <g fill="#000">
            <path d="M94.822 165.649c-24.271 5.345-39.614 29.353-34.27 53.625L45.903 222.5v-.001C38.777 190.138 59.234 158.126 91.596 151l3.226 14.649z"/>
            <path d="M309.519 584.99c21.523-12.426 28.898-39.948 16.471-61.471l12.991-7.5c16.568 28.698 6.736 65.393-21.962 81.962l-7.5-12.991z"/>
            <path d="M607.697 329.69c-4.298-24.479-27.625-40.839-52.104-36.541L553 278.375c32.638-5.73 63.741 16.083 69.471 48.721l-14.774 2.594z"/>
        </g>
        <g fill="#002DDC" fill-rule="nonzero">
            <path d="M184 104h5v5h-5z"/>
            <path d="M48 351h5v5h-5z"/>
            <path d="M597 212h5v5h-5z"/>
        </g>
        <g fill="#000" fill-rule="nonzero">
            <path d="M236 54h24v1h-24z"/>
            <path d="M268 54h6v1h-6z"/>
            <path d="M0 424h24v1H0z"/>
            <path d="M32 424h6v1h-6z"/>
            <path d="M589 386h24v1h-24z"/>
            <path d="M621 386h6v1h-6z"/>
        </g>
        <g transform="translate(413 109)">
            <use stroke="#000" xlink:href="#s"/>
        </g>
        <path d="M313 109C176.16 111.248 88.869 219.42 88.706 331.673 88.55 443.926 176.746 555.434 312.366 557 447.986 558.566 541.528 435.038 537 333H417c-2.041 54-49.585 105.081-101.765 104.147-52.18-.933-102.87-40.289-105.9-104.147-3.031-63.858 55.34-103 104.165-103 0 0-.397-61.026-.645-121" stroke="#000"/>
        <g>
            <path fill="#DADADA" fill-rule="nonzero" d="M473.891 428.891l7.79 139.995h12.271l-1.461-135.22-18.6-4.775z"/>
            <path d="M535.049 568.887l-23.957-117.646s-.195-5.994-1.558-10.667c-1.364-4.673-2.824-6.908-2.824-6.908l-25.029-2.134s2.338 13.106 6.428 16.357c1.461 1.117 4.577 2.743 4.577 2.743l29.897 118.255h12.466z" fill="#DADADA" fill-rule="nonzero"/>
            <path d="M473.891 393.333c.097-10.667 2.337-28.954 2.337-28.954l31.163 6.807c4.675 1.016 8.765 4.267 10.81 8.838 3.311 7.417 6.233 18.998 7.304 22.148 1.558 4.673 2.24 16.559-2.045 17.169-4.577.711-8.181-8.635-10.713-17.982-.876 13.004-2.629 26.821-5.94 32.408 0 0-25.807-.203-32.819-4.775-1.363-.914-.195-25.093-.097-35.659z" fill="#002DDC" fill-rule="nonzero"/>
            <path d="M519.564 568.886h16.458c0-4.876-3.7-8.94-8.277-8.94-4.48 0-8.181 3.962-8.181 8.94z" fill="#000" fill-rule="nonzero"/>
            <path d="M493.952 568.886v-8.94s-10.226.61-17.53 2.845c-2.824.914-9.933 5.994-9.933 5.994l27.463.101z" fill="#000" fill-rule="nonzero"/>
            <path d="M513.332 449.921c-3.604-.61-8.181-3.658-9.836-5.486l.681-.711c1.558 1.727 5.941 4.673 9.349 5.181l-.194 1.016z" fill="#AAA" fill-rule="nonzero"/>
            <path fill="#AAA" fill-rule="nonzero" d="M504.374 484.136l-.942.258 19.591 78.664.942-.258-19.591-78.664z"/>
            <path d="M499.698 354.524l.681 15.138s-2.045 5.283-7.79 4.064c-5.551-1.118-5.259-6.401-5.259-6.401l1.071-11.073 11.297-1.728z" fill="#EBEBEB" fill-rule="nonzero"/>
            <path d="M499.795 356.76c-1.169 2.844-5.551 7.822-8.18 7.619-2.532-.305-3.701-2.641-3.701-2.641l.487-5.385 11.297-1.829.097 2.236z" fill="#B0B0B0" fill-rule="nonzero"/>
            <path d="M500.672 348.327c2.045-.914 3.603 1.321 2.726 3.15-.876 1.828-3.019 3.454-4.187 2.946-2.727 3.251-6.33 7.721-10.031 6.299-3.214-1.321-3.408-7.01-3.019-11.582.292-3.556 2.24-9.855 2.24-9.855l13.05 5.588-.779 3.454z" fill="#EBEBEB" fill-rule="nonzero"/>
            <path d="M502.23 348.226c1.071-.508 5.259-5.182 4.674-7.315-.681-2.134-3.214-1.626-3.214-1.626s.487-4.47-3.505-6.4c-3.896-1.93-6.72-1.016-8.083-1.727-1.364-.711-3.701-2.642-4.091-3.251-.973-1.321-2.24-1.118-2.337.203-.487 4.064.487 9.042 1.169 10.566 2.532 5.384 11.491 7.213 12.465 7.213.974 0 1.461 2.438 1.461 2.438l1.461-.101z" fill="#000" fill-rule="nonzero"/>
            <path d="M494.342 377.688c-.779 0-1.559-.102-2.435-.305-7.207-1.93-7.693-8.432-7.596-11.175h.974c-.098 3.048.584 8.432 6.817 10.159 6.135 1.626 9.933-3.861 10.81-5.994l.876.406c-.779 1.931-4.09 6.909-9.446 6.909z" fill="#000" fill-rule="nonzero"/>
            <path d="M492.296 436.917c-2.337 0-4.966-.204-7.791-.712l.195-1.016c9.739 1.829 16.848-.101 21.814-2.031l.293.914c-2.143 1.016-7.304 2.845-14.511 2.845z" fill="#AAA" fill-rule="nonzero"/>
            <path d="M438.247 328.517c.585 1.727 2.435 5.384 2.435 5.384.097 1.117.195 2.946.487 5.08a93.465 93.465 0 0 0 6.72-2.743h.097c-.779-2.235-1.461-4.064-1.753-5.08.292-2.337.487-5.892 0-7.924-.584-2.439-2.824-8.433-3.701-8.737-.779-.305-.973.304-.973.609s1.558 5.283 1.558 5.893c0 .711-.098 1.117-.39.812-.292-.304-2.045-7.01-2.337-7.518-.39-.609-2.045-.203-2.143.61-.097.813-.292 2.337-.389 2.134-.098-.204-.974.914-.877 2.844.098 1.93.585 6.908 1.266 8.636z" fill="#EBEBEB" fill-rule="nonzero"/>
            <path d="M535.633 380.735c-.584 1.727-2.435 5.385-2.435 5.385-.097 1.117-.195 2.946-.487 5.08a93.458 93.458 0 0 1-6.719-2.744h-.098c.779-2.235 1.461-4.063 1.753-5.079-.292-2.337-.487-5.893 0-7.924.585-2.439 2.824-8.433 3.701-8.738.876-.304.974.305.974.61s-1.558 5.283-1.558 5.892c0 .712.097 1.118.389.813.292-.305 2.045-7.01 2.337-7.518.39-.609 2.045-.203 2.143.61.097.813.292 2.337.389 2.133.098-.203.974.915.877 2.845-.098 1.93-.584 6.908-1.266 8.635z" fill="#EBEBEB" fill-rule="nonzero"/>
            <path d="M476.909 378.704l4.285-13.106c-1.071-.406-2.239-.711-3.505-1.117-5.259-1.728-13.05-4.674-17.043-8.534-2.922-2.845-10.81-13.106-12.66-21.132l-7.012 2.642c5.941 29.462 22.594 36.98 32.819 40.231 1.169.304 2.143.711 3.116 1.016z" fill="#002DDC" fill-rule="nonzero"/>
            <path d="M532.517 401.562c-1.461 12.496-4.48 20.725-8.278 20.116-2.532-.407-3.895-2.54-4.382-5.182-.585-2.743-.195-5.994.389-8.737 1.364-5.587 6.33-21.233 6.33-21.233l6.525 1.321s0 8.229-.584 13.715z" fill="#002DDC" fill-rule="nonzero"/>
            <path d="M525.018 424.421h-.39l.098-1.016c2.24.203 4.869-.61 7.985-11.48l.974.304c-3.019 9.957-5.648 12.192-8.667 12.192z" fill="#17304F" fill-rule="nonzero"/>
            <path fill="#000" fill-rule="nonzero" opacity=".3" d="M552.863 567.983H449.634V569h103.229z"/>
            <path fill="#000" fill-rule="nonzero" opacity=".3" d="M571.366 567.983H559.68V569h11.686z"/>
            <path fill="#000" fill-rule="nonzero" opacity=".3" d="M585 567.983h-6.817V569H585z"/>
            <path fill="#000" fill-rule="nonzero" opacity=".3" d="M442.817 567.983H436V569h6.817z"/>
            <path d="M495.518 393.5a3.018 3.018 0 1 1-3.018-3.018V387a6.5 6.5 0 1 0 6.5 6.5h-3.482z" fill="#FFF"/>
            <path fill="#FFF" d="M495.402 387v3.598h3.599V387z"/>
        </g>
        <g fill-rule="nonzero">
            <path fill="#000" opacity=".3" d="M251 567.988H99v1.011h152z"/>
            <path fill="#000" opacity=".3" d="M268.2 567.988H258v1.011h10.2z"/>
            <path fill="#000" opacity=".3" d="M280 567.988h-5v1.011h5z"/>
            <path fill="#000" opacity=".3" d="M92 567.988h-5v1.011h5z"/>
            <path d="M136.3 489.203c11.4-2.225 55.8-11.833 58.1-10.923 2.3.911 3.9 1.72 3.4 5.765-.5 4.046-17.7 74.638-17.7 74.638h-7.2s.8-5.562 1.3-11.124c.6-5.563.5-27.914 1.6-32.162 1.1-4.247 3.2-12.439 3.2-12.439s-14.7 10.113-20.7 10.922c-6 .809-21 4.652-25.6-7.282-3.9-9.911 2-17.092 3.6-17.395z" fill="#CECECE"/>
            <path d="M142.7 491.31c-8.1 3.743-6.8 24.577 7.7 24.273 14.5-.303 39.6-13.855 39.6-13.855s.2 12.743 2.5 18.406c2.3 5.563 7.1 16.485 8.3 21.846 1.1 5.36 3.7 17.395 3.7 17.395l8.3-.91s-9-62.502-9.2-65.334c-.2-2.832-1.8-7.686-8.5-8.091-6.7-.506-32.2 1.416-32.2 1.416l-20.2 4.854z" fill="#DADADA"/>
            <path d="M149.6 436.713l8.2 3.035c2.6.91 4.5 3.236 5.1 5.967.7 3.438 1.6 7.888 2.1 9.405 1 3.135-1.3 8.698-2.3 14.26-.7 4.046-.4 13.654-.2 17.598.1 1.517-8 4.147-12.8 4.855-6 .809-15.5-.607-15.5-.607s2.4-14.665 1.9-19.621c-.5-4.854-4.6-16.08-6-19.013-1.4-2.933-1.6-9.406-1.6-9.406l10.1-6.371h11v-.102z" fill="#002DDC"/>
            <path d="M125.8 445.512c-4.8 8.698 12.2 32.768 12.1 33.476-.1.708 4.3-1.112 4.3-1.112l-3.7-25.79-10.1-9.001-2.6 2.427z" fill="#002DDC"/>
            <path fill="#E4E4E4" d="M138.533 436.762h11v-15.575h-11z"/>
            <path d="M155.7 409.407c-.2 9.507 1.3 14.563-3.3 18.508-4.6 3.944-8.3 1.011-8.3 1.011v-18.912l11.6-.607z" fill="#E4E4E4"/>
            <path d="M125.9 414.464c6.407 0 11.6-5.253 11.6-11.732 0-6.479-5.193-11.732-11.6-11.732-6.406 0-11.6 5.253-11.6 11.732 0 6.479 5.194 11.732 11.6 11.732z" fill="#000"/>
            <path d="M155.5 410.013c2.8-9.81-10.6-16.889-18.6-11.023-7.3 5.36-7.7 11.023-5.5 18.609 2.4 7.989 7.2 9.709 7.2 9.709s5.2-.304 6.7-1.922c5.9-6.473 2.3-6.169 1.1-7.585-2-2.528.9-9.102 4-3.236 3.9 7.281 5.1-4.552 5.1-4.552z" fill="#000"/>
            <path fill="#000" d="M144.1 463.211h-37.7v1.011h37.7z"/>
            <path fill="#000" d="M110.8 567.482l-.9-.303 13.3-51.782.1-.404h50.3v1.011H124l-13.2 51.478z"/>
            <path fill="#000" d="M110.952 463.764l-.968.254 12.224 47.884.968-.254z"/>
            <path fill="#000" d="M172.9 558.683l-4.6 9.507H184l-4-9.507z"/>
            <path d="M204.5 559.375c-1.1.304-2.3 9.305-2.3 9.305h25.1l-14.5-10.114-8.3.809z" fill="#000"/>
            <path fill="#000" d="M240.3 475.55h-78v1.011h78z"/>
            <path d="M201.8 475.55h-38.4l10.9-26.296c.7-1.719 2.4-2.832 4.3-2.832h30.7c2.2 0 3.7 2.225 2.8 4.248l-10.3 24.88z" fill="#000"/>
            <path d="M204.6 458.862l-.9-.404 2.8-6.776c.2-.506.1-1.012-.1-1.416-.3-.405-.7-.708-1.2-.708H179c-1.1 0-2.1.708-2.5 1.719l-.9-.405c.6-1.415 1.9-2.326 3.4-2.326h26.2c.8 0 1.6.405 2 1.113.5.708.5 1.618.2 2.326l-2.8 6.877z" fill="#FFF"/>
            <path fill="#AAA" d="M201.825 497.415l-.987.164 9.337 56.768.987-.164-9.337-56.768z"/>
            <path d="M151.1 496.788c-.5 0-1.1 0-1.7-.101l.2-1.011c4.4.708 7.4-1.416 9.7-6.877l.9.404c-2.2 5.158-5.1 7.585-9.1 7.585z" fill="#AAA"/>
            <path d="M160.2 441.164c5.1 5.056 18.7 28.621 18.7 28.621l12.6.405s1.4 3.034 1.4 4.652c0 1.618-9 7.888-14.7 7.18-5.7-.708-19.4-20.53-22.2-25.89-2.6-5.361 1.1-18.104 4.2-14.968z" fill="#002DDC"/>
            <path d="M192 469.886c1.4.101 5.6.405 6.7 1.315 1.1.91 2 4.045 2 4.045h-7.9l-.8-5.36z" fill="#E4E4E4"/>
            <path d="M164.2 469.178s-1.4-1.922-5.6-7.889c-4.1-5.967-5.5-14.058-3.2-18.406l.9.505c-1.8 3.54-1.2 11.226 3.1 17.396 4.1 5.967 5.5 7.888 5.6 7.888l-.8.506z" fill="#17304F"/>
            <path d="M123.2 420.936l-.1-1.011c2.6-.202 6.2-1.113 6.5-7.889h1c-.2 5.664-2.7 8.597-7.4 8.9z" fill="#17304F"/>
        </g>
        <g>
            <path d="M326.607 206.368s23.912-4.035 32.352-4.842c8.339-.807 11.554-2.723 14.769 0 3.919 3.329 1.106 31.873.704 43.876-.402 12.003-1.507 28.646-1.507 28.646l-12.459 1.916s-1.808-32.68-1.808-39.841c0-7.263-.101-14.928-.101-14.928s-25.922 6.858-31.95 7.565c-6.028.806-17.582-2.018-17.582-2.018l17.582-20.374z" fill="#0026BB" fill-rule="nonzero"/>
            <path d="M333.138 204.451c1.507-10.893 1.205-27.939 1.406-37.219.201-9.279-.603-16.239-1.406-17.752-.804-1.614-5.526-3.934-9.244-6.153-3.717-2.219-6.128-4.64-6.128-4.64l-14.669-.605s-15.171 10.591-17.181 11.398c-2.009.807 3.316 19.063 5.325 23.098 2.01 4.035 3.215 10.49 3.115 20.274-.101 7.968-1.206 21.988-1.206 21.988l39.988-10.389z" fill="#DADADA" fill-rule="nonzero"/>
            <path d="M289.031 149.883c3.617 2.824 4.923 14.626 3.516 21.484-1.406 6.96-7.435 25.116-7.435 25.116l-9.645-1.816s-3.014-4.034-.402-14.323c2.613-10.389 8.138-29.351 10.349-30.461 2.21-1.109 3.617 0 3.617 0z" fill="#DADADA" fill-rule="nonzero"/>
            <path d="M319.027 195.173l-3.617 9.583s-23.811-2.119-29.438-4.237c-5.626-2.118-10.047-3.227-10.75-6.052-.703-2.925.1-7.867 5.425-9.582 5.325-1.714 38.38 10.288 38.38 10.288z" fill="#DADADA" fill-rule="nonzero"/>
            <path d="M372.724 275.964s5.425 2.118 9.042 3.329c3.617 1.21 7.234 4.236 7.234 4.236h-27.328l-.201-8.17 10.549-2.219.704 2.824z" fill="#17304F" fill-rule="nonzero"/>
            <path d="M305.548 123.19l-2.411 15.634s1.708 5.447 8.238 4.842c6.33-.606 6.531-5.245 6.531-5.245v-12.003l-12.358-3.228z" fill="#EBEBEB" fill-rule="nonzero"/>
            <path d="M304.905 125.676c1.005 3.227 5.325 9.078 8.239 9.178 2.914 0 4.521-2.42 4.521-2.42v-5.85l-12.458-3.228-.302 2.32z" fill="#B0B0B0" fill-rule="nonzero"/>
            <path d="M304.905 116.598c-2.11-1.21-4.119 1.009-3.416 3.026.804 2.017 3.014 4.035 4.321 3.732 2.712 3.833 6.229 9.078 10.449 7.968 3.717-1.008 4.621-7.06 4.722-12.103 0-3.934-1.407-10.894-1.407-10.894l-15.272 4.438.603 3.833z" fill="#EBEBEB" fill-rule="nonzero"/>
            <path d="M350.017 275.964c2.411 5.649 7.033 7.262 8.741 13.314.101.404-.301.807-.703.706l-20.999-7.06s.503-4.539 1.005-5.144c.502-.605 11.956-1.816 11.956-1.816z" fill="#17304F" fill-rule="nonzero"/>
            <path d="M325.301 107.016c-1.808 4.539-4.421 6.556-4.823 6.657-.401.101-.301-1.816-.904-1.917-.603-.1-3.818 3.127-6.932 3.329-3.115.202-6.23-.908-6.933-.706-.703.202 0 1.916-.502 2.219-.503.403-3.919-3.228-4.321-5.043-.401-1.816.704-3.531 2.211-3.329-.703-2.421-1.105-5.648 3.416-6.96 3.818-1.21 10.549 2.119 12.257 1.715 1.708-.403 3.416-1.412 4.321-1.311.803.101.803 4.337.502 5.043.904-.504 2.11-.605 1.708.303z" fill="#000" fill-rule="nonzero"/>
            <path d="M350.218 205.056h-38.28l10.047-21.585c.804-1.715 2.512-2.723 4.321-2.723h32.05c1.507 0 2.512 1.513 1.809 2.925l-9.947 21.383z" fill="#000" fill-rule="nonzero"/>
            <path d="M318.268 200.316c7.535-1.312 10.349-2.522 13.162 0 2.813 2.521 19.592 75.749 19.592 75.749s-3.617 1.009-6.832 1.715c-3.215.605-6.732 0-6.732 0s-11.956-40.649-14.066-47.407c-14.97-.201-20.396 1.11-26.223-3.53-9.545-7.666-5.124-21.988 21.099-26.527z" fill="#002DDC" fill-rule="nonzero"/>
            <path d="M292.447 174.192l-1.005-.303c1.507-5.447 3.617-15.533.603-22.19l.904-.404c3.115 6.96 1.005 17.349-.502 22.897z" fill="#BCBCBC" fill-rule="nonzero"/>
            <path d="M312.843 192.549c-5.627-2.017-19.793-6.254-19.894-6.254l.302-1.008c.1 0 14.367 4.337 19.993 6.253l-.401 1.009z" fill="#BCBCBC" fill-rule="nonzero"/>
            <path d="M329.923 254.177c-.402-1.311-.905-3.126-1.608-5.446-2.914-9.784-7.837-26.225-9.042-31.571l1.004-.202c1.106 5.245 6.029 21.686 9.043 31.47.703 2.32 1.306 4.236 1.607 5.447l-1.004.302z" fill="#17304F" fill-rule="nonzero"/>
            <path fill="#FFF" fill-rule="nonzero" d="M372.755 220.778l-2.289 51.088 1.004.045 2.288-51.087-1.003-.046z"/>
            <path d="M310.933 147.866c-.1 0-.1 0 0 0-4.42 0-10.147-1.917-11.855-7.161l1.005-.303c1.507 4.741 6.731 6.455 10.85 6.455 4.019 0 7.938-3.127 9.043-5.951l.904.404c-1.306 3.429-6.028 6.556-9.947 6.556z" fill="#BCBCBC" fill-rule="nonzero"/>
            <path d="M315.518 164.5a3.018 3.018 0 1 1-3.018-3.018V158a6.5 6.5 0 1 0 6.5 6.5h-3.482z" fill="#000"/>
            <path fill="#000" d="M315.402 158v3.598h3.599V158z"/>
        </g>
    </g>
</svg>
