<svg width="112" height="14" viewBox="0 0 112 14" fill="none" xmlns="http://www.w3.org/2000/svg">
    <path d="M32.555 9.198c0-.794-.112-1.533-.318-2.143a4.455 4.455 0 0 0-.896-1.57 3.708 3.708 0 0 0-1.4-.96 4.59 4.59 0 0 0-1.773-.332c-.71 0-1.363.11-1.997.332-.616.24-1.158.554-1.606.997a4.58 4.58 0 0 0-1.082 1.533c-.262.591-.392 1.275-.392 1.995 0 .739.13 1.404.392 1.995.26.61.634 1.108 1.082 1.533.448.425.99.776 1.606.997a6.048 6.048 0 0 0 1.642.351H29.4V12.08h-1.587a2.504 2.504 0 0 1-1.568-.61c-.466-.387-.746-.923-.821-1.606h7.15v-.665h-.02zM25.424 8.09c.093-.665.336-1.2.765-1.607.41-.406.952-.591 1.662-.591.746 0 1.306.185 1.736.572.429.407.634.924.653 1.626h-4.816z" fill="#000"/>
    <path d="M8.643.019V8.57c0 .333-.056.684-.15 1.053a3.1 3.1 0 0 1-.522 1.016c-.243.314-.56.554-.952.757-.392.203-.896.295-1.475.295-.579 0-1.083-.092-1.475-.295-.392-.203-.709-.443-.952-.757a3.1 3.1 0 0 1-.522-1.016 3.58 3.58 0 0 1-.15-1.053V.02H0v8.625c0 .831.13 1.57.41 2.216a4.73 4.73 0 0 0 1.177 1.681 5.446 5.446 0 0 0 1.754 1.071c.672.259 1.4.37 2.203.37.784 0 1.53-.13 2.203-.37a5.446 5.446 0 0 0 1.754-1.07 5.465 5.465 0 0 0 1.176-1.682c.28-.665.43-1.403.43-2.216V.019H8.643z" fill="#000"/>
    <path d="M20.795 9.493a2.457 2.457 0 0 0-.934-.812 4.533 4.533 0 0 0-1.213-.443c-.43-.093-.84-.185-1.213-.278a4.147 4.147 0 0 1-.934-.332.653.653 0 0 1-.373-.61c0-.35.15-.59.448-.757.299-.147.597-.24.915-.24.765 0 1.381.314 1.829.942l1.55-1.385a2.978 2.978 0 0 0-1.475-1.09 5.884 5.884 0 0 0-1.848-.314c-.467 0-.934.056-1.382.166-.448.111-.858.296-1.213.536a2.57 2.57 0 0 0-.84.942c-.224.37-.317.831-.317 1.33 0 .59.13 1.053.373 1.385.243.332.56.591.933.776a5.2 5.2 0 0 0 1.214.406c.429.092.84.166 1.213.277.373.092.69.222.933.37.243.147.374.387.374.72a.862.862 0 0 1-.15.48c-.093.13-.224.24-.373.333-.15.092-.317.147-.504.184a2.656 2.656 0 0 1-.523.056c-.485 0-.914-.111-1.25-.314a4.356 4.356 0 0 1-.971-.813l-1.55 1.44c.486.536 1.027.906 1.643 1.127.616.203 1.27.314 1.998.314.485 0 .97-.055 1.437-.147.485-.111.915-.278 1.288-.5.373-.24.69-.535.933-.923.243-.388.355-.85.355-1.403 0-.591-.13-1.072-.373-1.423z" fill="#000"/>
    <path d="M40.88 4.211a3.085 3.085 0 0 0-.41-.037c-.635 0-1.177.148-1.662.443a2.845 2.845 0 0 0-1.12 1.256h-.037V4.396h-2.334v9.253h2.334V8.7c0-.129.037-.314.074-.572.056-.259.187-.517.355-.776.187-.259.43-.48.765-.683.318-.185.766-.296 1.307-.296.187 0 .355.019.541.055a.17.17 0 0 0 .094.019 6.66 6.66 0 0 1 .317-1.588c.037-.185.093-.37.168-.536v-.019c-.112-.018-.243-.055-.392-.092z" fill="#000"/>
    <path d="M77.504 6.446c-.112-.443-.317-.813-.579-1.164a2.954 2.954 0 0 0-1.064-.812c-.43-.204-.97-.314-1.586-.314-.784 0-1.4.166-1.848.517a3.263 3.263 0 0 0-1.008 1.2h-.038V4.396H69.16v9.253h2.333V8.607c0-.314.038-.61.112-.887.075-.277.206-.535.374-.757.168-.222.392-.388.672-.517.26-.13.597-.185.989-.185.41 0 .728.093.952.277.243.185.41.425.523.702a2.8 2.8 0 0 1 .205.887c.019.314.037.61.037.85v4.672h2.334V7.813a6.699 6.699 0 0 0-.187-1.367z" fill="#000"/>
    <path d="M94.677 4.211a3.085 3.085 0 0 0-.41-.037c-.616 0-1.176.148-1.662.443-.485.296-.858.72-1.101 1.256h-.037V4.414h-2.334v9.254h2.334V8.699c0-.129.037-.314.093-.572a2.06 2.06 0 0 1 .355-.776c.168-.259.429-.48.765-.683.336-.204.765-.296 1.307-.296.186 0 .373.019.56.055.186.037.373.074.578.13V4.322a7.901 7.901 0 0 1-.448-.11z" fill="#000"/>
    <path d="M99.587 4.414h-2.334v9.254h2.334V4.414z" fill="#000"/>
    <path d="M84.019 6.372v4.045c0 .462.093.831.26 1.09.169.277.524.406 1.046.406.206 0 .43-.018.672-.074.243-.055.448-.11.579-.222v1.94c-.243.11-.541.203-.896.24-.355.037-.672.074-.952.074-.616 0-1.139-.074-1.53-.203-.393-.13-.71-.333-.934-.61a2.3 2.3 0 0 1-.467-1.034c-.093-.406-.13-.887-.13-1.422v-4.23h-1.923V4.414h.523c.672 0 .896-.129 1.1-.37.188-.202.3-.48.3-1.07V1.736H84v2.678h2.576v1.958h-2.557z" fill="#000"/>
    <path d="M66.061 7.055c-.224-.628-.522-1.145-.896-1.57a3.837 3.837 0 0 0-1.381-.978 4.658 4.658 0 0 0-1.773-.333c-.691 0-1.363.111-1.979.351a4.939 4.939 0 0 0-1.624.979 4.772 4.772 0 0 0-1.083 1.533c-.261.591-.392 1.256-.392 1.995 0 .277.019.554.056.812h9.408v-.628c0-.83-.112-1.551-.336-2.16zM59.267 8.09c.093-.665.336-1.2.746-1.589.411-.406.971-.59 1.662-.59.746 0 1.325.203 1.736.59.41.388.634.924.634 1.607h-4.778V8.09z" fill="#000"/>
    <path d="M65.501 12.652c-.56.61-1.717 1.219-2.93 1.219l-.784.018v-1.847h.224c.765-.037 1.624-.258 2.053-.794l1.437 1.404z" fill="#000"/>
    <path d="M55.347 11.95c-2.763 2.733-7.243 2.733-10.006 0a6.948 6.948 0 0 1 0-9.9c2.763-2.733 7.243-2.733 9.987 0l-1.661 1.644a4.756 4.756 0 0 0-6.683 0 4.636 4.636 0 0 0 0 6.612 4.756 4.756 0 0 0 6.683 0l1.68 1.644z" fill="#000"/>
    <path d="M112 9.032c0 2.678-2.203 4.857-4.909 4.857-2.707 0-4.91-2.18-4.91-4.857 0-2.678 2.203-4.858 4.91-4.858v2.309c-1.419 0-2.576 1.145-2.576 2.549 0 1.403 1.157 2.549 2.576 2.549 1.418 0 2.576-1.146 2.576-2.55H112z" fill="#000"/>
    <path d="M112 4.174h-2.333v2.309H112V4.174z" fill="#002ADD"/>
</svg>
