<svg width="86" height="86" viewBox="0 0 86 86" fill="none" xmlns="http://www.w3.org/2000/svg">
    <path d="M6.29 67.63h53.46v9.483H6.29v-9.482z" fill="#F1F1F1"/>
    <path d="M59.75 57.334h9.98v9.483h-9.98v-9.483z" fill="#F1F1F1"/>
    <path d="M69.73 47.038h9.98v9.483h-9.98v-9.483z" fill="#F1F1F1"/>
    <path d="M59.751 43.624H6.29a.937.937 0 0 0-.937.937v32.552c0 .518.42.938.937.938h53.461c.518 0 .938-.42.938-.938V44.561a.937.937 0 0 0-.938-.937zm-.937 32.551H7.228V45.498h51.586v30.677z" fill="#000"/>
    <path d="M69.73 33.328H16.27a.937.937 0 0 0-.938.937v5.98a.937.937 0 1 0 1.875 0v-5.042h51.586v30.676h-5.09a.937.937 0 1 0 0 1.875h6.028c.517 0 .937-.42.937-.937V34.265a.938.938 0 0 0-.938-.938z" fill="#000"/>
    <path d="M79.71 23.032h-9.512a.937.937 0 1 0 0 1.875h8.574v30.676h-4.788a.937.937 0 1 0 0 1.875h5.726c.518 0 .937-.42.937-.937V23.969a.938.938 0 0 0-.937-.938z" fill="#000"/>
    <path d="M47.898 24.907h4.689a.937.937 0 1 0 0-1.875h-4.69a.937.937 0 1 0 0 1.875z" fill="#000"/>
    <path d="M26.249 31.471c.518 0 .937-.42.937-.937v-5.627h5.835a.937.937 0 1 0 0-1.875h-6.772a.937.937 0 0 0-.938.937v6.565c0 .518.42.937.938.937z" fill="#000"/>
    <path d="M64.978 17.647V9.721a.834.834 0 0 0-.834-.834h-5.419a.833.833 0 0 0-.833.834v7.926c0 .46-.373.834-.834.834h-2.25a.834.834 0 0 0-.664 1.336l6.626 8.761a.834.834 0 0 0 1.33 0l6.625-8.76a.834.834 0 0 0-.665-1.337h-2.249a.834.834 0 0 1-.833-.834z" fill="#002DDC"/>
    <path d="M37.051 20.697v7.927c0 .46.373.833.834.833h5.419c.46 0 .833-.373.833-.833v-7.927c0-.46.373-.834.834-.834h2.25a.834.834 0 0 0 .664-1.336L41.26 9.766a.834.834 0 0 0-1.33 0l-6.625 8.76a.834.834 0 0 0 .664 1.337h2.25c.46 0 .833.373.833.834z" fill="#002DDC"/>
</svg>
