<svg width="86" height="86" viewBox="0 0 86 86" fill="none" xmlns="http://www.w3.org/2000/svg">
    <path d="M49.076 35.5a7.228 7.228 0 0 1-8.536 0H40V43h26.748v-7.5H49.076z" fill="#F1F1F1"/>
    <path d="M19.362 37.97c.026-.867.21-1.7.524-2.47h-6.634V43h7.932a7.23 7.23 0 0 1-1.822-5.03z" fill="#F1F1F1"/>
    <path d="M33.893 38.195A7.23 7.23 0 0 1 32.068 43H40v-7.5h-6.623c.333.833.516 1.743.516 2.695z" fill="#F1F1F1"/>
    <path d="M60.125 43h-1.309c.29.329.552.684.78 1.06.204-.336.382-.69.53-1.06z" fill="#F1F1F1"/>
    <path d="M47.931 43h-1.297c.147.363.324.713.527 1.045.226-.371.484-.72.77-1.045z" fill="#F1F1F1"/>
    <path d="M63.865 62.248H40v7.5h23.865a2.883 2.883 0 0 0 2.883-2.883v-7.5a2.883 2.883 0 0 1-2.883 2.883z" fill="#F1F1F1"/>
    <path d="M21.184 35.5a7.368 7.368 0 0 1-.78-1.06c-.204.336-.381.69-.53 1.06h1.31z" fill="#F1F1F1"/>
    <path d="M32.84 34.455a7.407 7.407 0 0 1-.771 1.045h1.298a7.342 7.342 0 0 0-.528-1.045z" fill="#F1F1F1"/>
    <path d="M35.195 63.641c-1.6 0-3.08-.517-4.28-1.393h-14.78a2.883 2.883 0 0 1-2.883-2.883v7.5a2.883 2.883 0 0 0 2.883 2.883H40v-7.5h-.537a7.212 7.212 0 0 1-4.268 1.393z" fill="#F1F1F1"/>
    <path d="M66.748 33.75a.937.937 0 0 0-.938.938v7.375h-6.994a.937.937 0 0 0-.702 1.558 6.317 6.317 0 0 1 1.59 4.184 6.274 6.274 0 0 1-1.958 4.578 6.284 6.284 0 0 1-4.67 1.746c-3.28-.15-5.93-2.841-6.029-6.127a6.306 6.306 0 0 1 1.587-4.38.937.937 0 0 0-.703-1.56h-6.993v-5.205a8.167 8.167 0 0 0 3.867.974c2.263 0 4.37-.9 5.933-2.537a8.14 8.14 0 0 0 2.263-6.05c-.194-4.255-3.682-7.69-7.942-7.82a8.167 8.167 0 0 0-4.121.97V17.19h16a.937.937 0 1 0 0-1.875H16.135a3.825 3.825 0 0 0-3.82 3.82v47.73a3.825 3.825 0 0 0 3.82 3.82h47.73a3.825 3.825 0 0 0 3.82-3.82V34.688a.937.937 0 0 0-.937-.938zM14.189 19.135c0-1.073.873-1.945 1.946-1.945h22.927v6.994a.937.937 0 0 0 1.559.702 6.298 6.298 0 0 1 4.381-1.587c3.286.1 5.977 2.748 6.127 6.03a6.285 6.285 0 0 1-1.746 4.67 6.275 6.275 0 0 1-4.577 1.957 6.317 6.317 0 0 1-4.185-1.59.939.939 0 0 0-1.558.702v6.995h-5.205c.147-.273.274-.554.388-.84.011-.027.024-.053.034-.08a7.85 7.85 0 0 0 .122-.345l.05-.144c.032-.104.06-.209.089-.314.017-.063.035-.125.05-.188.024-.095.044-.19.064-.287.015-.076.032-.151.046-.228a8.91 8.91 0 0 0 .076-.523c.009-.08.016-.161.023-.242a8.344 8.344 0 0 0 .026-.518c.001-.053.005-.106.005-.16 0-.029-.004-.058-.005-.087 0-.055.002-.11 0-.166-.002-.099-.016-.195-.022-.294-.01-.138-.017-.275-.033-.411-.012-.107-.031-.211-.048-.316a8.355 8.355 0 0 0-.091-.514l-.026-.101a8.13 8.13 0 0 0-3.929-5.238 8.065 8.065 0 0 0-.661-.34l-.032-.014a8.03 8.03 0 0 0-.664-.266c-.033-.012-.067-.02-.1-.031a7.957 7.957 0 0 0-.627-.186c-.072-.018-.146-.03-.22-.046-.178-.038-.357-.078-.539-.104-.121-.018-.245-.026-.369-.039-.141-.014-.281-.033-.424-.04-.01 0-.021-.003-.032-.003-.12-.005-.238.002-.357.002-.137 0-.273-.008-.41-.002-.014 0-.026.003-.038.003-.136.007-.27.026-.404.039-.128.013-.259.021-.385.04-.19.028-.377.068-.564.11-.063.013-.127.023-.189.039-.227.055-.45.123-.67.198-.017.005-.035.01-.05.016a8.153 8.153 0 0 0-2.983 1.818 8.125 8.125 0 0 0-2.308 4.027c-.01.041-.023.082-.032.123a8.342 8.342 0 0 0-.088.494c-.018.112-.038.223-.051.336-.015.13-.023.262-.031.394-.007.102-.021.203-.025.307-.002.057.002.113 0 .17 0 .028-.003.055-.003.082 0 .05.003.1.004.15a7.515 7.515 0 0 0 .084 1.026c.014.09.027.18.043.269.013.074.029.148.044.222.02.098.04.195.064.291l.05.184c.029.107.058.213.09.318.015.046.032.092.048.137.04.119.08.236.124.352l.026.062c.116.292.246.579.395.856H14.19V19.135zm0 47.73V43.938h6.995a.937.937 0 0 0 .702-1.559 6.488 6.488 0 0 1-.369-.459c-.05-.07-.095-.143-.143-.214-.06-.09-.123-.178-.178-.27-.054-.09-.1-.183-.15-.275-.042-.079-.086-.156-.124-.235-.047-.098-.088-.198-.13-.298-.032-.079-.067-.156-.097-.236-.037-.098-.067-.2-.099-.3-.027-.084-.055-.168-.079-.254-.026-.096-.046-.193-.067-.29-.02-.094-.043-.187-.059-.282-.015-.092-.026-.185-.038-.277a6.266 6.266 0 0 1-.035-.307c-.007-.09-.009-.181-.012-.272-.003-.103-.007-.205-.005-.309.001-.113.01-.225.017-.338.006-.101.012-.204.024-.304.01-.089.026-.176.04-.264.02-.125.038-.252.066-.375.008-.036.02-.072.028-.108a6.36 6.36 0 0 1 2.058-3.337l.02-.017a6.5 6.5 0 0 1 .439-.34l.025-.017a6.46 6.46 0 0 1 .468-.298l.026-.015c.16-.09.324-.175.491-.252l.045-.02a6.17 6.17 0 0 1 .494-.197l.098-.031c.152-.05.306-.098.463-.137.065-.016.131-.027.197-.04.128-.028.257-.057.389-.076.105-.015.213-.023.32-.033.098-.01.194-.023.293-.028.144-.007.29-.004.435-.002.066.001.134-.003.2 0 .16.008.317.026.473.045.045.006.09.007.134.014.18.026.357.062.532.103l.053.01a6.202 6.202 0 0 1 .564.167 6.318 6.318 0 0 1 1.55.796l.009.005a6.384 6.384 0 0 1 2.53 3.718c.006.029.015.056.021.085.03.13.05.262.07.395.013.081.028.161.038.243.012.107.018.215.025.322.007.107.014.213.016.32.001.11-.002.219-.006.327-.003.085-.005.17-.011.254-.009.11-.023.218-.037.327-.011.085-.02.172-.035.257-.018.102-.041.202-.064.303-.02.09-.038.18-.062.27-.026.093-.056.184-.086.275-.03.094-.058.188-.092.28-.032.086-.07.17-.105.255-.04.093-.078.188-.122.28-.04.085-.089.168-.133.251-.047.087-.09.175-.142.26-.058.097-.123.19-.187.284-.045.067-.087.136-.134.201a6.308 6.308 0 0 1-.37.46.937.937 0 0 0 .703 1.559h6.993v5.204a8.167 8.167 0 0 0-4.12-.97c-4.26.13-7.748 3.564-7.943 7.818a8.142 8.142 0 0 0 2.262 6.05 8.133 8.133 0 0 0 5.934 2.539 8.171 8.171 0 0 0 3.867-.974v5.205H16.135a1.947 1.947 0 0 1-1.946-1.945zm51.622 0a1.948 1.948 0 0 1-1.946 1.946H40.937v-6.994a.937.937 0 0 0-1.558-.703 6.319 6.319 0 0 1-4.184 1.59 6.275 6.275 0 0 1-4.578-1.958 6.284 6.284 0 0 1-1.745-4.67c.018-.41.077-.81.171-1.197.661-2.706 3.08-4.744 5.956-4.831a6.294 6.294 0 0 1 4.38 1.587.939.939 0 0 0 1.559-.703v-6.994h5.204a8.155 8.155 0 0 0-.969 4.12c.13 4.26 3.564 7.75 7.818 7.944.13.006.26.008.388.008.088 0 .174-.01.26-.012a8.86 8.86 0 0 0 .336-.016c.166-.012.33-.03.494-.052.102-.013.204-.026.304-.043a7.98 7.98 0 0 0 .5-.105c.096-.022.19-.043.285-.069.166-.045.33-.1.492-.155.09-.031.182-.06.272-.094a7.92 7.92 0 0 0 .475-.206c.087-.04.175-.076.26-.12a8.22 8.22 0 0 0 .46-.257c.081-.047.163-.09.242-.14.159-.1.312-.213.464-.325.066-.048.134-.092.199-.142.214-.167.421-.345.62-.535a8.134 8.134 0 0 0 2.538-5.934 8.168 8.168 0 0 0-.974-3.867h5.206v22.927h-.001z" fill="#000"/>
    <path d="M72.11 6.42c-7.412 0-13.442 6.03-13.442 13.442 0 2.528.7 4.974 2.03 7.104L58.99 31.75a.936.936 0 0 0 1.198 1.198l4.772-1.703a13.37 13.37 0 0 0 7.15 2.059c7.411 0 13.44-6.03 13.44-13.441.001-7.412-6.029-13.441-13.44-13.441zm0 25.008c-2.332 0-4.579-.69-6.5-1.998a.936.936 0 0 0-.841-.107l-3.348 1.194 1.198-3.357c.1-.28.06-.592-.106-.84a11.51 11.51 0 0 1-1.97-6.458c0-6.377 5.189-11.566 11.566-11.566 6.378 0 11.567 5.188 11.567 11.566 0 6.377-5.189 11.566-11.567 11.566z" fill="#000"/>
    <path d="M78.82 24.088l-5.266-5.265 3.157-2.118a.618.618 0 0 0-.2-1.114l-10.749-2.573a.618.618 0 0 0-.745.744l2.574 10.75a.618.618 0 0 0 1.114.2l2.118-3.158 5.265 5.265a.618.618 0 0 0 .874 0l1.857-1.857a.618.618 0 0 0 0-.873z" fill="#002DDC"/>
</svg>
