<svg width="520" height="520" viewBox="0 0 520 520" fill="none" xmlns="http://www.w3.org/2000/svg">
    <circle cx="260" cy="260" r="260" fill="#fff"/>
    <circle cx="260" cy="260" r="259.5" stroke="#000" stroke-opacity=".05"/>
    <path opacity=".05" fill-rule="evenodd" clip-rule="evenodd" d="M270 304.821c19.231 0 34.821-15.59 34.821-34.821H345c0 41.421-33.579 75-75 75s-75-33.579-75-75 33.579-75 75-75v40.179c-19.231 0-34.821 15.59-34.821 34.821 0 19.231 15.59 34.821 34.821 34.821zM303.482 195H345v41.518h-41.518V195z" fill="#000"/>
    <mask id="a" fill="#fff">
        <path fill-rule="evenodd" clip-rule="evenodd" d="M260 294.821c19.231 0 34.821-15.59 34.821-34.821H335c0 41.421-33.579 75-75 75s-75-33.579-75-75 33.579-75 75-75v40.179c-19.231 0-34.821 15.59-34.821 34.821 0 19.231 15.59 34.821 34.821 34.821zM293.482 185H335v41.518h-41.518V185z"/>
    </mask>
    <path fill-rule="evenodd" clip-rule="evenodd" d="M260 294.821c19.231 0 34.821-15.59 34.821-34.821H335c0 41.421-33.579 75-75 75s-75-33.579-75-75 33.579-75 75-75v40.179c-19.231 0-34.821 15.59-34.821 34.821 0 19.231 15.59 34.821 34.821 34.821zM293.482 185H335v41.518h-41.518V185z" fill="#fff"/>
    <path d="M294.821 260v-1h-1v1h1zM335 260h1v-1h-1v1zm-75-75h1v-1h-1v1zm0 40.179v1h1v-1h-1zM335 185h1v-1h-1v1zm-41.518 0v-1h-1v1h1zM335 226.518v1h1v-1h-1zm-41.518 0h-1v1h1v-1zm.339 33.482c0 18.679-15.142 33.821-33.821 33.821v2c19.784 0 35.821-16.037 35.821-35.821h-2zM335 259h-40.179v2H335v-2zm-75 77c41.974 0 76-34.026 76-76h-2c0 40.869-33.131 74-74 74v2zm-76-76c0 41.974 34.026 76 76 76v-2c-40.869 0-74-33.131-74-74h-2zm76-76c-41.974 0-76 34.026-76 76h2c0-40.869 33.131-74 74-74v-2zm1 41.179V185h-2v40.179h2zM226.179 260c0-18.679 15.142-33.821 33.821-33.821v-2c-19.784 0-35.821 16.037-35.821 35.821h2zM260 293.821c-18.679 0-33.821-15.142-33.821-33.821h-2c0 19.784 16.037 35.821 35.821 35.821v-2zM335 184h-41.518v2H335v-2zm1 42.518V185h-2v41.518h2zm-42.518 1H335v-2h-41.518v2zm-1-42.518v41.518h2V185h-2z" fill="#000" mask="url(#a)"/>
    <path fill="#002DDC" d="M149 160h5v5h-5z"/>
    <path fill="#002DDC" d="M216 383h5v5h-5z"/>
    <path fill="#002DDC" d="M405 249h5v5h-5z"/>
    <mask id="b" fill="#fff">
        <path fill-rule="evenodd" clip-rule="evenodd" d="M327.498 124.919c-3.216-12.003-15.554-19.126-27.557-15.91L298 101.765c16.004-4.289 32.454 5.209 36.742 21.213l-7.244 1.941z"/>
    </mask>
    <path fill-rule="evenodd" clip-rule="evenodd" d="M327.498 124.919c-3.216-12.003-15.554-19.126-27.557-15.91L298 101.765c16.004-4.289 32.454 5.209 36.742 21.213l-7.244 1.941z" fill="#000"/>
    <path d="M299.941 109.009l-.966.259.259.966.966-.259-.259-.966zm27.557 15.91l-.966.259.259.966.966-.259-.259-.966zM298 101.765l-.259-.966-.966.258.259.966.966-.258zm36.742 21.213l.259.966.966-.259-.259-.966-.966.259zM300.2 109.975c11.469-3.073 23.259 3.733 26.332 15.203l1.932-.518c-3.359-12.536-16.245-19.976-28.782-16.617l.518 1.932zm.707-1.225l-1.941-7.244-1.932.517 1.941 7.245 1.932-.518zm-2.648-6.02c15.47-4.145 31.372 5.036 35.517 20.507l1.932-.518c-4.431-16.537-21.429-26.352-37.967-21.92l.518 1.931zm36.225 19.282l-7.245 1.941.518 1.932 7.244-1.941-.517-1.932z" fill="#000" mask="url(#b)"/>
    <mask id="c" fill="#fff">
        <path fill-rule="evenodd" clip-rule="evenodd" d="M100.244 299.823c3.217 12.003 15.554 19.126 27.557 15.91l1.941 7.245c-16.004 4.288-32.454-5.21-36.742-21.214l7.244-1.941z"/>
    </mask>
    <path fill-rule="evenodd" clip-rule="evenodd" d="M100.244 299.823c3.217 12.003 15.554 19.126 27.557 15.91l1.941 7.245c-16.004 4.288-32.454-5.21-36.742-21.214l7.244-1.941z" fill="#000"/>
    <path d="M127.801 315.733l.966-.259-.259-.966-.966.259.259.966zm-27.557-15.91l.966-.259-.258-.965-.966.258.258.966zm29.498 23.155l.259.966.966-.259-.259-.966-.966.259zM93 301.764l-.259-.966-.966.259.26.966.965-.259zm34.542 13.003c-11.469 3.073-23.258-3.733-26.332-15.203l-1.931.518c3.359 12.537 16.245 19.976 28.781 16.617l-.518-1.932zm-.707 1.225l1.941 7.244 1.932-.517-1.941-7.245-1.932.518zm2.649 6.02c-15.471 4.145-31.373-5.036-35.518-20.506l-1.932.517c4.431 16.538 21.43 26.352 37.967 21.921l-.517-1.932zM93.259 302.73l7.244-1.941-.517-1.932-7.245 1.941.518 1.932z" fill="#000" mask="url(#c)"/>
    <mask id="d" fill="#fff">
        <path fill-rule="evenodd" clip-rule="evenodd" d="M402.801 364.009c-12.003-3.216-24.34 3.907-27.557 15.91L368 377.978c4.288-16.004 20.738-25.502 36.742-21.213l-1.941 7.244z"/>
    </mask>
    <path fill-rule="evenodd" clip-rule="evenodd" d="M402.801 364.009c-12.003-3.216-24.34 3.907-27.557 15.91L368 377.978c4.288-16.004 20.738-25.502 36.742-21.213l-1.941 7.244z" fill="#000"/>
    <path d="M375.244 379.919l-.258.966.966.259.258-.966-.966-.259zm27.557-15.91l-.259.966.966.259.259-.966-.966-.259zM368 377.978l-.966-.259-.259.966.966.259.259-.966zm36.742-21.213l.966.258.259-.966-.966-.258-.259.966zm-28.532 23.413c3.074-11.47 14.863-18.276 26.332-15.203l.518-1.932c-12.536-3.359-25.422 4.081-28.781 16.617l1.931.518zm-.707-1.225l-7.244-1.941-.518 1.932 7.245 1.941.517-1.932zm-6.537-.716c4.145-15.471 20.047-24.652 35.518-20.507l.517-1.931c-16.537-4.432-33.536 5.383-37.967 21.92l1.932.518zm34.81-21.731l-1.941 7.244 1.932.518 1.941-7.245-1.932-.517z" fill="#000" mask="url(#d)"/>
    <path fill="#000" d="M95 226h24v1H95z"/>
    <path fill="#000" d="M127 226h6v1h-6z"/>
    <path fill="#000" d="M390 164h24v1h-24z"/>
    <path fill="#000" d="M422 164h6v1h-6z"/>
    <path fill="#000" d="M278 402h24v1h-24z"/>
    <path fill="#000" d="M310 402h6v1h-6z"/>
</svg>
