<svg width="136" height="43" viewBox="0 0 136 43" fill="none" xmlns="http://www.w3.org/2000/svg">
    <g clip-path="url(#a)">
        <path d="M32.954 29.4l5.015-15.508c.708-2.369 1.908-3.046 3.754-3.046h9.354c-.738.308-1.23 2.185-1.23 2.185L45.322 28.6c-.523 1.97-2.154 2.985-4 2.985h-9.908c.77-.123 1.539-2.185 1.539-2.185zm-14.893 0l-5.015-15.508c-.707-2.369-1.907-3.046-3.754-3.046H-.062c.739.308 1.231 2.185 1.231 2.185L5.692 28.6c.523 1.97 2.154 2.985 4 2.985H19.6c-.77-.123-1.539-2.185-1.539-2.185z" fill="#D8213B"/>
        <path d="M31.015 10.97H20.031v20.615h10.984V10.969z" fill="#D8213B"/>
        <path d="M136.246 31.308c-1.784.4-3.415.615-4.954.615-2.707 0-4.738-.677-6.123-2.03-1.354-1.355-2.061-3.016-2.061-4.985 0-2.062.738-3.754 2.184-5.047 1.447-1.292 3.57-1.938 6.37-1.938 1.292 0 2.769.185 4.461.554v2.615c-1.723-.492-3.108-.738-4.154-.738-1.477 0-2.554.461-3.23 1.415-.677.954-1.016 1.97-1.016 3.108 0 .861.216 1.692.585 2.43.4.77.954 1.293 1.631 1.662a5.357 5.357 0 0 0 2.369.523c1.261 0 2.584-.215 3.938-.677v2.493zm-21.169-2.154a3.92 3.92 0 0 1-1.538.308c-.554 0-1.047-.154-1.477-.493-.431-.338-.616-.738-.616-1.261 0-.616.339-1.139 1.016-1.539.677-.4 1.753-.615 3.138-.615h1.015v2.708a8.963 8.963 0 0 1-1.538.892zm1.754 1.015c.308.708.769 1.17 1.354 1.416.584.215 1.261.338 2.061.338.708 0 1.539-.123 2.431-.338l-.062-2.031c-.246.03-.43.03-.584.03-.277 0-.554-.092-.8-.245-.277-.154-.4-.616-.4-1.324v-5.938c0-1.108-.277-1.97-.831-2.523-.554-.554-1.323-.985-2.246-1.262s-2-.4-3.169-.4c-1.939 0-3.908.308-5.846.923v2.493c1.723-.8 3.384-1.2 5.046-1.2.83 0 1.538.154 2.061.43.554.277.831.831.831 1.662v1.2h-1.169c-2.893 0-4.985.43-6.246 1.323-1.293.892-1.939 1.97-1.939 3.292 0 1.077.431 2 1.292 2.739.862.738 2 1.107 3.447 1.107.553 0 1.077-.061 1.569-.153a8.033 8.033 0 0 0 1.446-.493c.462-.215.985-.584 1.631-1.076h.123v.03zm-21.723-7.354c.523-.615 1.108-1.138 1.723-1.477.615-.369 1.23-.553 1.877-.553.984 0 1.754.369 2.277 1.076.523.739.8 1.724.8 2.985 0 1.23-.277 2.308-.831 3.262-.554.953-1.415 1.415-2.554 1.415a4.112 4.112 0 0 1-1.6-.308c-.523-.215-1.077-.584-1.692-1.169v-5.23zm0 13.662V30.23c.584.492 1.108.83 1.538 1.046.431.215.893.37 1.385.492a8.481 8.481 0 0 0 1.57.154c2.153 0 3.784-.708 4.984-2.123 1.2-1.415 1.784-3.17 1.784-5.262 0-1.969-.554-3.6-1.6-4.8-1.077-1.23-2.554-1.815-4.523-1.815-1.169 0-2.184.246-3.046.708-.861.492-1.57 1.2-2.123 2.154V18.2h-4.308v18.277h4.339zm-6.37-4.923c-1.015.246-1.846.37-2.43.37-1.416 0-2.493-.155-3.293-.493-.769-.339-1.353-.8-1.753-1.354-.4-.585-.585-1.416-.585-2.523v-7.046h-1.785V18.23h1.785v-2.308l4.308-.43V18.2h3.446v2.277h-3.446v6.554c0 .954.215 1.6.615 1.938.4.339 1.016.492 1.785.492.369 0 .8-.061 1.323-.153v2.246h.03zm-23.138-.37v-2.646c2.154.739 3.97 1.108 5.477 1.108.8 0 1.446-.154 1.939-.43.492-.277.707-.647.707-1.078 0-.4-.154-.707-.523-.953-.37-.246-.892-.493-1.661-.739l-1.447-.492c-1.507-.492-2.615-1.046-3.353-1.662-.708-.584-1.077-1.384-1.077-2.369 0-1.17.553-2.123 1.63-2.861 1.077-.77 2.739-1.139 4.985-1.139 1.292 0 2.862.154 4.677.462v2.492c-1.754-.462-3.17-.708-4.338-.708-.893 0-1.57.123-2.031.37-.462.246-.677.584-.677.984 0 .308.154.616.43.862.278.246.8.461 1.539.707l1.262.4c2.092.677 3.446 1.293 4.061 1.908.615.615.954 1.385.954 2.246 0 1.139-.585 2.123-1.754 2.954-1.17.861-2.83 1.261-5.077 1.261-1.846.062-3.754-.184-5.723-.676zM54.954 21.062c.523-.584 1.23-.861 2.062-.861.769 0 1.384.277 1.876.77.493.522.739 1.384.739 2.584h-5.662c.123-1.077.462-1.939.985-2.492zm8.923 7.6c-1.815.524-3.415.8-4.861.8-1.108 0-2-.153-2.677-.461-.677-.308-1.2-.708-1.6-1.23-.4-.524-.647-1.232-.739-2.124h9.908c-.03-2.954-.677-4.985-1.877-6.092-1.23-1.077-2.83-1.63-4.892-1.63-1.662 0-3.077.307-4.216.922-1.138.616-2 1.446-2.584 2.523a7.101 7.101 0 0 0-.893 3.446c0 1.354.339 2.616 1.046 3.754a6.105 6.105 0 0 0 3.016 2.523c1.292.554 2.8.831 4.554.831 1.846 0 3.784-.246 5.815-.77v-2.491z" fill="#515253"/>
    </g>
    <defs>
        <clipPath id="a">
            <path fill="#fff" d="M0 0h136v43H0z"/>
        </clipPath>
    </defs>
</svg>
