<svg width="162" height="58" viewBox="0 0 162 58" fill="none" xmlns="http://www.w3.org/2000/svg">
    <g clip-path="url(#a)" style="mix-blend-mode:darken">
        <path d="M415.484 10.75H0v219.752h415.484V10.75z" fill="#fff"/>
        <path d="M415.484 10.75H0v219.752h415.484V10.75z" fill="#fff"/>
        <path d="M415.484 10.75H0v219.752h415.484V10.75z" fill="#fff"/>
        <path d="M30.025 12.86c.228-.584.033-1.282-.324-1.558-1.201-.893-2.289-.39-3.1.487-.958 1.039-2.191 3.31-2.71 4.155-4.805 7.757-8.473 16.05-8.473 16.05s-1.265-3.862-1.444-6.93c-.162-2.888-.292-5.647-.422-7.01-.032-.536-.276-1.396-1.217-1.705-.73-.243-1.802-.324-2.548-.048-.065.925-.098 1.363-.487 2.467-.39 1.087-2.873 5.907-3.279 6.654-2.158 3.83-4.998 8.602-5.16 8.91-.585 1.071-1.38 2.532 0 3.051 1.379.52 2.596.244 3.18-.633.114-.162.276-.487.276-.487s-.406-.324.455-2.337c.26-.535.551-1.152.892-1.817.065-.114.13-.244.211-.374.098-.178.179-.34.227-.487 1.412-2.791 3.311-6.394 4.983-9.543a41.043 41.043 0 0 0 .39 5.762c.389 3.23 1.168 4.577 1.476 7.157-.065 1.737.114 2.029 1.38 2.386 1.185.325 1.883 0 2.32-1.087 1.705-4.318 6.639-14.218 10.81-19.606.422-.584 2.077-2.191 2.564-3.457zm38.952 17.658c.828-.454 1.152-1.412.487-2.207-.666-.796-1.964-.73-2.548-.373-.487.292-1.055.795-2.727.892-1.574.081-2.207-.6-3.213-.6-1.12 0-1.575.779-2.954 2.499-.698.876-2.289 2.889-3.003 2.889-.616 0-.844-1.77-.844-4.058 0-1.038-.454-1.882-1.655-1.801-.99.065-1.153 1.347-1.672 1.947-1.542 1.802-2.791 3.555-3.424 3.555-.78 0-1.088-1.704-1.088-3.019 0 0 .244-2.077-1.639-2.434-.812-.163-1.672.292-1.672.292a.863.863 0 0 1 .081.487c-.243.876-1.866 2.11-1.866 2.11-1.753 1.282-5.242 3.521-8.375 3.7-3.668.195-4.317-1.737-4.447-2.58 3.165-1.17 5.275-2.484 6.639-3.539 1.444-1.12 2.401-2.37 2.32-3.586-.113-1.64-1.606-2.24-2.791-2.24-2.548 0-6.8 1.103-8.83 6.686-.437.147-1.476.147-2.028 0-.747-.194-.73-.503-.73-.503-.698.179-.99.52-1.234 1.12-.39.958.13 1.786.925 2.224.568.324 1.477.52 2.76.373.178 1.688 1.314 4.788 7.32 4.56 4.77-.178 10.37-4.106 10.873-4.414.211.974.893 4.496 2.921 4.496 2.435 0 4.95-3.636 4.95-3.636s.634 3.668 3.084 3.668c2.045 0 4.61-3.18 5.259-3.944.535-.633 1.574-1.834 2.126-1.834.552-.097 1.655.633 4.788.017.08-.05 1.493-.358 2.207-.747zm-35.024-5.275c.292.293-.325.958-.877 1.315-1.509.974-3.035 1.542-4.122 1.948 1.169-2.402 4.577-3.83 4.999-3.263zm42.473-2.726c-2.093.162-4.641.844-5.583 2.954-.779 1.736-.162 3.57 1.477 5.631a99.392 99.392 0 0 0 2.272 2.662c-.746.162-2.402.097-4.04-.195h-.017a13.789 13.789 0 0 1-1.12-.243c-.925-.292-1.185-.666-1.185-.666l-.13.098.13-.098c-.633.082-1.152.52-1.525 1.007-.374.486-.747 1.412-.422 1.866.276.39.827.584 1.866.633 1.607.081 5.957.65 7.563.828 1.234.146 2.078-.763 2.321-1.347.325-.796-.016-1.656-.422-2.143-2.061-2.385-4.95-4.982-3.895-7.14.487-.99 2.791-.796 3.57-.569 1.64.487 2.451-.097 2.825-1.2.21-.731-.212-2.338-3.685-2.078zm85.142 5.55a1.526 1.526 0 0 0-.292-.194c-.016-.017-.049-.033-.065-.05-.844-.535-1.769-.308-1.769-.308s.179.309-.682 1.023c-.048.049-.097.081-.13.114-.032.016-.048.032-.081.064-3.116 2.549-7.287 4.561-11.636 5.405 1.412-.828 4.739-3.96 2.418-5.664-1.347-.99-3.733-.552-5.989.584.26-.422.876-1.314.633-2.402-.244-1.071-2.321-1.396-3.457-.99-.032 1.12-.211 1.704-.406 1.948-5.063 4.447-11.669 6.8-12.205 6.264-.438-.438 1.039-2.174 1.526-2.856.406-.584.422-1.282.13-1.802-.455-.827-1.299-.876-2.873-.535-2.175.373-3.7-.406-4.999-2.386-.633-.974-2.174-.779-2.97-.243.195.616.146 1.25-.048 1.898-1.331 3.084-5.34 3.1-6.866 2.062-.211-.65-.779-1.834-1.931-2.013-3.538-.535-4.755 1.623-5.34 2.289-1.265 1.428-9.786 5.16-11.782 3.538-1.461-1.185-.228-5.519 2.564-9.852 4.155-6.54 6.037-6.476 6.687-5.81.405.406.811 1.314-.017 2.921-.065.114-.113.227-.178.325-1.445 2.353-1.996 2.24-1.996 2.24-.471 1.412.13 2.174.568 2.531.486.471 1.168.309 1.379.244.698-.244 1.136-.86 1.542-1.477 2.012-3.1 3.262-8.05-.032-9.835-2.354-1.282-6.314.454-10.696 7.547-3.895 6.297-4.999 11.263-2.191 13.616 3.424 2.857 10.598-.908 12.968-2.012-.065.47.113 2.873 2.499 2.743 3.035-.179 4.918-2.792 5.729-4.123 1.185.682 6.362 1.672 9.511-3.05.341.291 2.24 1.655 4.755 1.655-.892 1.639-2.045 3.586-.341 4.934 2.386 1.882 10.55-2.646 12.919-4.042-1.347 2.45-3.7 8.002-6.07 12.935-.973 2.03-2.337 4.756-.908 5.47 1.119.568 2.791-.016 3.034-1.477.325-1.915 2.175-7.222 3.49-10.111 2.483-5.518 4.723-8.391 8.504-8.391-.227.454-.308.811-1.558 2.061-1.363 1.363-2.889 1.282-2.824 2.76.049.86.942 1.12 1.185 1.184 1.964.536 7.417-1.087 9.592-1.883 2.483-.909 5.875-2.564 8.391-4.17 1.168-.764 1.282-1.867.308-2.679zm-55.23 6.005c-.454 0-.649-.535-.114-1.136 1.688-1.2 2.337-1.558 2.435-1.607 1.087-.016-.99 2.743-2.321 2.743z" fill="#100F0D"/>
    </g>
    <defs>
        <clipPath id="a">
            <path fill="#fff" d="M0 0h162v58H0z"/>
        </clipPath>
    </defs>
</svg>
