<svg width="58" height="58" viewBox="0 0 58 58" fill="none" xmlns="http://www.w3.org/2000/svg">
    <g clip-path="url(#a)">
        <path d="M16.569 44.492l-8.695-10.04H4.19v15.713h3.589V40.149l8.67 10.016h3.707V34.453H16.57v10.039zm34.45-10.037l-2.38 10.058-2.5-10.058h-3.438l-2.54 9.944-2.309-9.944h-3.756l4.157 15.708h3.697l2.438-9.938 2.481 9.938h3.632l.037-.135 4.185-15.573H51.02z" fill="#000"/>
        <path d="M3.807 54.982v-.014c0-1.363 1.06-2.515 2.551-2.515.864 0 1.394.236 1.902.66l-.55.645c-.382-.32-.758-.52-1.387-.52-.91 0-1.605.784-1.605 1.714v.014c0 1 .67 1.738 1.68 1.738.466 0 .892-.146 1.196-.37v-.91H6.328v-.745h2.106v2.043a3.19 3.19 0 0 1-2.064.76c-1.546.004-2.563-1.081-2.563-2.5z" fill="#000"/>
        <path d="M8.959 54.982v-.014c0-1.37 1.076-2.515 2.594-2.515 1.52 0 2.58 1.132 2.58 2.499v.014c0 1.367-1.074 2.515-2.594 2.515-1.518.005-2.58-1.13-2.58-2.499zm4.262 0v-.014c0-.946-.701-1.73-1.682-1.73-.982 0-1.667.77-1.667 1.714v.014c0 .944.7 1.728 1.68 1.728.985.005 1.67-.766 1.67-1.712z" fill="#000"/>
        <path d="M14.071 52.537h.96l1.49 3.739 1.485-3.74h.94l-2.055 4.901h-.765l-2.055-4.9z" fill="#000"/>
        <path d="M19.532 52.537H23.2v.766h-2.799v1.265h2.481v.764h-2.48v1.305h2.833v.763h-3.704v-4.863z" fill="#000"/>
        <path d="M24.079 52.537h2.203c.624 0 1.11.182 1.428.486.262.263.41.624.41 1.048v.014c0 .798-.487 1.277-1.18 1.473l1.338 1.84h-1.024l-1.217-1.694H24.95v1.694h-.869v-4.861h-.002zm2.142 2.413c.621 0 1.019-.32 1.019-.815v-.014c0-.52-.381-.805-1.026-.805H24.95v1.634h1.27z" fill="#000"/>
        <path d="M28.89 52.537h.802l2.65 3.361v-3.361h.857V57.4h-.73l-2.727-3.459v3.46h-.852v-4.864z" fill="#000"/>
        <path d="M34.082 52.537h.925l1.506 2.302 1.504-2.302h.927V57.4h-.87v-3.487l-1.561 2.293h-.028l-1.549-2.279V57.4h-.854v-4.863z" fill="#000"/>
        <path d="M39.773 52.537h3.667v.766H40.64v1.265h2.48v.764h-2.48v1.305h2.834v.763h-3.703v-4.863z" fill="#000"/>
        <path d="M44.332 52.537h.805l2.65 3.361v-3.361h.854V57.4h-.727l-2.728-3.459v3.46h-.854v-4.864z" fill="#000"/>
        <path d="M50.898 53.33h-1.567v-.793h4.013v.793h-1.568v4.07h-.878v-4.07z" fill="#000"/>
        <path d="M21.144 47.976l2.11-2.485c1.462 1.185 2.992 1.94 4.85 1.94 1.461 0 2.344-.572 2.344-1.505v-.046c0-.888-.558-1.344-3.272-2.03-3.271-.818-5.38-1.709-5.38-4.879v-.046c0-2.897 2.365-4.81 5.684-4.81 2.365 0 4.384.73 6.03 2.029l-1.855 2.645c-1.44-.982-2.855-1.574-4.222-1.574-1.368 0-2.088.616-2.088 1.39v.047c0 1.048.694 1.39 3.502 2.096 3.295.842 5.15 2.006 5.15 4.787v.047c0 3.17-2.457 4.949-5.962 4.949-2.462 0-4.945-.845-6.891-2.555z" fill="#000"/>
        <path d="M29.015 30.794c-.069.01 1.02.248 1.02.475 5.673-.498 7.75 1.101 11.967 1.101 2.69 0 3.959-.595 4.17-1.814.337-2.637-3.822.088-11.975-.819-.153-.44.527-.384 1.58-.4 9.788-.16 12.368-.748 16.574-2.527 1.435-.638 2.017-1.166 2.58-1.631a4.68 4.68 0 0 0 .58-.55c.057-.068.102-.11.123-.142.012-.01.021-.02.021-.032h.014c.134-.206.2-.444.2-.68 0-.38 0-.757-.315-.984 0 0-.134-.097-.39-.27-.752-.519-2.401-1.708-4.8-2.895-.012-.012-.023-.02.2-.368 3.006-3.76 3.286-5.953 3.321-6.298v-.046c0-.238-.066-.477-.202-.671a1.247 1.247 0 0 0-.965-.56s-.671-.032-1.805-.02c-.944.01-2.21.064-4.084.214-.417-.324-.402-.66-.402-.971 0-1.632-.09-3.036-.193-4.03-.09-.996-.18-1.567-.18-1.567-.089-.486-.38-.713-.762-.725a.975.975 0 0 0-.381.077s-.167.065-.47.194c-.853.368-2.545 1.243-4.88 2.152-.64-3.198-1.502-5.046-1.502-5.058-.169-.463-.494-.638-.887-.574a.831.831 0 0 0-.348.13c0 .01-.626.377-1.615 1.08a45.103 45.103 0 0 0-2.556 1.956l-.45.291c-.762-.972-1.223-1.895-1.687-2.633-.339-.54-.61-.962-.79-1.256-.18-.28-.269-.433-.269-.433-.193-.282-.372-.359-.45-.359l-.026.003c-.077 0-.256.076-.447.356 0 0-.091.153-.27.433-.18.291-.478.722-.808 1.258-.447.748-.908 1.66-1.673 2.631l-.447-.291a46.855 46.855 0 0 0-2.556-1.956c-.986-.703-1.615-1.07-1.615-1.08a.78.78 0 0 0-.348-.13c-.393-.064-.718.11-.885.574 0 .012-.864 1.858-1.504 5.058-2.33-.91-4.027-1.784-4.877-2.152-.301-.13-.47-.194-.47-.194a1.027 1.027 0 0 0-.382-.077c-.381.012-.673.239-.762.725 0 0-.09.573-.18 1.566-.1.995-.19 2.4-.19 4.03 0 .315.012.648-.405.972-1.87-.15-3.14-.206-4.08-.215a34.347 34.347 0 0 0-1.806.021c-.393.02-.751.236-.965.562a1.185 1.185 0 0 0-.203.669v.044c.033.347.313 2.538 3.319 6.298.224.347.212.356.202.368C5.23 20.81 3.581 22 2.83 22.518c-.258.174-.393.269-.393.269-.313.226-.313.606-.313.983 0 .238.069.474.203.68h.012c0 .012.011.021.023.033.021.032.066.074.122.14.111.13.304.325.584.551.56.463 1.144.995 2.577 1.632 4.206 1.781 6.786 2.369 16.575 2.528 1.054.017 1.732-.039 1.581.4-8.153.91-12.314-1.816-11.975.82.212 1.221 1.478 1.814 4.17 1.814 4.218 0 6.292-1.599 11.966-1.104 0-.224 1.088-.463 1.02-.474l.033.004z" fill="#fff"/>
        <path d="M16.001 32.995c-1.883 0-4.43-.241-4.792-2.33l-.005-.028c-.075-.593.031-1.04.323-1.365.005-.005.007-.01.012-.012-2.302-.393-4.03-.988-6.136-1.88-1.424-.633-2.086-1.183-2.617-1.627l-.118-.1a5.388 5.388 0 0 1-.62-.578h-.046l-.198-.285a1.846 1.846 0 0 1-.301-1.018c0-.426 0-1.069.57-1.483 0 0 .14-.102.414-.285l.176-.122c.772-.537 2.144-1.493 4.077-2.502-2.79-3.56-3.194-5.763-3.253-6.364l-.002-.102c0-.373.108-.724.31-1.018.318-.484.864-.8 1.45-.833.03-.003.706-.033 1.848-.023 1.05.011 2.302.076 3.82.194.028-.07.028-.155.028-.306v-.025c0-1.904.122-3.38.195-4.093.087-.995.18-1.573.181-1.599.14-.756.662-1.228 1.365-1.251h.022c.21 0 .412.039.619.122 0 0 .174.067.485.2.258.113.59.268.976.448.81.382 1.879.884 3.187 1.416.518-2.318 1.123-3.836 1.375-4.415l.004-.011c.262-.706.85-1.074 1.558-.965.2.023.396.095.598.218l.297.192c.28.178.753.485 1.355.914.77.54 1.63 1.196 2.488 1.897.382-.542.68-1.065.953-1.537.111-.192.22-.379.325-.555.198-.324.386-.61.537-.84.106-.164.2-.305.273-.423.176-.275.264-.421.266-.426l.019-.03c.261-.384.598-.613.927-.632l.07-.004c.347 0 .7.231.975.631l.021.035a9.2 9.2 0 0 0 .254.412c.097.157.212.34.351.555.13.206.28.442.445.706.139.22.273.451.417.696.254.435.536.917.882 1.41a44.599 44.599 0 0 1 2.49-1.9c.6-.428 1.071-.734 1.351-.912V1.16L36.5.977c.2-.122.393-.194.595-.22.083-.011.163-.018.243-.018.607 0 1.09.359 1.322.983l.005.012c.252.578.855 2.096 1.372 4.414 1.297-.527 2.356-1.027 3.164-1.406.411-.192.736-.345 1-.46.318-.137.49-.204.49-.204.202-.081.402-.12.614-.12.725.02 1.247.492 1.384 1.232.007.04.096.62.186 1.622.073.701.193 2.178.193 4.084v.028c0 .148 0 .234.028.303 1.518-.118 2.77-.18 3.82-.194 1.148-.01 1.82.02 1.843.023a1.885 1.885 0 0 1 1.461.842c.196.284.304.639.304 1.009l-.003.101c-.058.602-.468 2.81-3.248 6.366a35.825 35.825 0 0 1 4.07 2.494l.193.134c.264.178.407.282.407.282.567.41.567 1.053.567 1.481 0 .363-.103.715-.3 1.016l-.187.284h-.061a5.446 5.446 0 0 1-.621.581l-.113.093c-.532.444-1.194.997-2.61 1.626-2.114.893-3.844 1.488-6.148 1.884l.012.011c.291.326.397.773.322 1.365l-.005.028c-.364 2.09-2.909 2.33-4.792 2.33-1.828 0-3.297-.296-4.716-.58-1.502-.304-3.055-.616-5.14-.616-.655 0-1.345.032-2.053.092l-.687.06v-.37a6.85 6.85 0 0 0-.4-.13c-.17.052-.306.096-.405.133v.37l-.688-.06a23.358 23.358 0 0 0-2.05-.093c-2.087 0-3.64.312-5.142.615-1.426.294-2.895.59-4.724.59zm-3.547-2.527c.064.366.268 1.286 3.547 1.286 1.702 0 3.043-.27 4.463-.557 1.565-.315 3.182-.641 5.396-.641.598 0 1.222.025 1.86.074.198-.132.447-.222.692-.3l.007-.077.506-.072.023.174.01-.179h.026l.037.403.064-.396.496.079.005.065c.247.076.497.169.695.3a24.574 24.574 0 0 1 1.859-.073c2.215 0 3.832.326 5.394.64 1.42.287 2.764.558 4.463.558 3.279 0 3.483-.92 3.547-1.286.038-.301-.019-.378-.019-.378 0-.002-.092-.094-.607-.094-.485 0-1.14.078-1.968.18-1.31.16-3.109.377-5.265.377-1.186 0-2.387-.067-3.566-.199l-.395-.044-.13-.37a.831.831 0 0 1 .095-.78c.308-.425.863-.432 1.706-.437.115-.002.238-.002.365-.005 9.965-.164 12.394-.81 16.336-2.478 1.243-.553 1.782-1.001 2.302-1.436l.12-.1c.28-.229.443-.403.504-.472v-.398h.212c.002-.02.002-.04.002-.06 0-.176 0-.442-.056-.484-.01-.006-.137-.1-.375-.259l-.204-.14c-.824-.572-2.356-1.639-4.524-2.712l-.09-.044-.07-.07c-.384-.375-.12-.782.113-1.14l.035-.051c2.76-3.455 3.135-5.505 3.185-5.947v-.011a.59.59 0 0 0-.092-.324.63.63 0 0 0-.478-.29s-.666-.032-1.763-.02c-1.087.011-2.41.083-4.036.215l-.248.02-.195-.152c-.642-.502-.642-1.085-.642-1.432v-.026c0-1.853-.118-3.28-.189-3.965-.087-.967-.174-1.53-.174-1.537-.038-.194-.096-.196-.157-.199a.387.387 0 0 0-.128.03c-.009.005-.167.065-.454.188-.242.104-.574.259-.958.44A60.202 60.202 0 0 1 39.8 7.58l-.704.273-.146-.732c-.537-2.69-1.245-4.43-1.45-4.9a1.01 1.01 0 0 0-.028-.067c-.064-.176-.115-.176-.139-.176-.014 0-.03.002-.05.005l-.035.004s-.023.005-.082.04a1.38 1.38 0 0 1-.115.074c-.224.14-.746.47-1.467.983a43.804 43.804 0 0 0-2.52 1.93l-.057.041-.939.609-.358-.456c-.57-.727-.972-1.414-1.327-2.022-.137-.234-.266-.456-.398-.664-.165-.262-.31-.495-.443-.699-.138-.222-.258-.41-.352-.56l-.191-.303c-.047.074-.113.18-.198.312-.073.118-.172.271-.287.445-.153.236-.327.502-.513.805-.099.164-.203.345-.31.532-.373.645-.792 1.377-1.406 2.156l-.358.456-.993-.65a43.7 43.7 0 0 0-2.52-1.927 31.687 31.687 0 0 0-1.46-.98 3.608 3.608 0 0 1-.122-.08.274.274 0 0 0-.078-.04l-.04-.004c-.019-.002-.035-.005-.05-.005-.023 0-.072 0-.136.174a1.13 1.13 0 0 1-.028.07c-.205.469-.913 2.209-1.45 4.9l-.146.73-.704-.274a60.015 60.015 0 0 1-3.96-1.729c-.375-.176-.7-.328-.94-.432-.28-.12-.44-.18-.445-.183a.44.44 0 0 0-.143-.035c-.06.002-.116.016-.15.215 0 0-.088.562-.17 1.511-.07.697-.191 2.126-.191 3.975v.023c0 .35.002.933-.643 1.435l-.195.152-.247-.02c-1.629-.132-2.95-.202-4.036-.216-1.088-.011-1.763.021-1.768.021a.606.606 0 0 0-.464.28.58.58 0 0 0-.1.333v.012c.049.44.418 2.487 3.184 5.946l.037.051c.233.359.494.766.116 1.138l-.073.07-.092.046c-2.175 1.076-3.707 2.145-4.53 2.719l-.19.132c-.249.166-.376.259-.383.261-.056.042-.056.308-.056.484 0 .02 0 .041.002.06h.2l.007.393.002.005c.069.078.233.254.5.467l.129.107c.52.435 1.057.881 2.309 1.436 3.93 1.664 6.36 2.312 16.325 2.474l.367.004c.842.007 1.398.012 1.706.438.092.127.226.398.097.78l-.13.372-.398.044a32.17 32.17 0 0 1-3.563.199c-2.156 0-3.954-.22-5.265-.377-.829-.1-1.483-.18-1.968-.18-.515 0-.607.094-.607.094 0 .005-.054.081-.019.382zm17.168.386l.016.003a.603.603 0 0 0-.028-.255l.012.155a.685.685 0 0 1 0 .097zm-1.229-.252a.624.624 0 0 0-.03.25l.018-.002a.72.72 0 0 1 0-.102l.012-.146z" fill="#fff"/>
        <path d="M12.734 4.635c-.336.012-.536.204-.61.588 0 0-.08.571-.171 1.546-.085.89-.184 2.302-.184 3.982 0 3.782.502 9.155 2.898 13.273 1.838 3.142 4.434 4.912 7.329 5.005a9.02 9.02 0 0 1-3.187-4.445c-.673-2.078-1.014-4.532-1.014-7.3 0-3.82.65-7.093.85-8.005.004-.023.009-.04.009-.046.117-.533.43-.956.847-1.171-2.956-1.865-5.496-2.962-5.988-3.168-.294-.134-.454-.19-.454-.19h-.004l-.005-.002a.832.832 0 0 0-.316-.067z" fill="#9C9C9C"/>
        <path d="M37.895 9.052a.428.428 0 0 0-.25.104c-.002.002-.092.07-.259.21a21.88 21.88 0 0 0-.739.625 32.295 32.295 0 0 0-2.396 2.346c-1.666 1.823-3.872 4.695-4.921 8.022-.605 1.941-.906 3.62-.897 4.995-.012 1.027.155 1.897.494 2.585.32.673.81 1.15 1.497 1.462.29.127.657.19 1.09.19h.021c2.02 0 5.39-1.657 6.553-5.343.623-1.985.941-4.329.941-6.964 0-3.274-.485-6.124-.692-7.2-.08-.396-.127-.611-.127-.611-.05-.19-.144-.421-.315-.421z" fill="#9C9C9C"/>
        <path d="M20.12 9.052c-.177 0-.285.231-.341.428-.007.037-.052.247-.125.606a38.786 38.786 0 0 0-.701 7.198c0 2.677.32 5.016.953 6.953 1.186 3.692 4.641 5.354 6.717 5.354h.021c.438 0 .822-.07 1.142-.204.17-.07.332-.155.515-.275a4.042 4.042 0 0 1-.412-.683c-.402-.826-.604-1.83-.619-3.072.012-1.534.337-3.325.97-5.331.054-.183.12-.37.184-.551l.075-.215c-2.203-5.384-7.266-9.44-7.838-9.887a7.348 7.348 0 0 0-.275-.212.497.497 0 0 0-.266-.11z" fill="#9C9C9C"/>
        <path d="M28.988.24c-.122 0-.247.094-.376.282-.002.004-.104.15-.273.425-.254.414-.494.82-.74 1.238-.545.951-1.374 2.49-2.226 4.4a46.5 46.5 0 0 0-1.584 4.038c1.64 1.61 3.84 4.126 5.303 7.178 1.13-2.39 2.848-4.771 5.11-7.085C32.66 6.109 30.49 2.354 29.626.947c-.183-.282-.277-.43-.277-.43-.175-.257-.32-.278-.36-.278z" fill="#9C9C9C"/>
        <path d="M45.221 4.635a.805.805 0 0 0-.306.067l-.004.003h-.003c-.002 0-.16.058-.45.19-.282.113-.656.284-1.129.504l-.165.076a43.247 43.247 0 0 0-4.22 2.302c-.153.086-.306.18-.456.278.414.206.734.636.852 1.17.002.015.007.028.011.054.196.912.838 4.185.838 8.005 0 2.752-.334 5.206-.99 7.298a8.983 8.983 0 0 1-3.12 4.445c2.853-.132 5.412-1.898 7.227-5 2.393-4.119 2.897-9.491 2.897-13.274 0-1.34-.061-2.682-.184-3.991-.091-.963-.172-1.537-.172-1.541-.077-.382-.282-.576-.626-.586z" fill="#9C9C9C"/>
        <path d="M37.301 1.436a.62.62 0 0 0-.113.009H37.18a.602.602 0 0 0-.27.109l-.005.002-.005.002c-.007.005-.633.382-1.6 1.064a44.702 44.702 0 0 0-2.432 1.85 51.218 51.218 0 0 1 2.017 4.694 40.604 40.604 0 0 1 4.157-2.8 40.421 40.421 0 0 0-1.14-4.412c-.006-.021-.011-.037-.016-.046-.113-.313-.313-.472-.584-.472z" fill="#9C9C9C"/>
        <path d="M20.664 1.436c-.271 0-.469.16-.589.472a39.703 39.703 0 0 0-1.153 4.459 40.354 40.354 0 0 1 4.156 2.799 46.663 46.663 0 0 1 2.02-4.695 43.117 43.117 0 0 0-2.431-1.849c-.968-.682-1.594-1.06-1.601-1.064l-.005-.002-.004-.002a.602.602 0 0 0-.271-.11h-.01a.928.928 0 0 0-.112-.008z" fill="#9C9C9C"/>
        <path d="M6.693 11.655c-.838 0-1.325.025-1.33.025-.33.019-.636.197-.836.488a1.009 1.009 0 0 0-.17.607c.06.569.446 2.623 2.943 5.722a43.115 43.115 0 0 1 3.782-1.634 36.317 36.317 0 0 1-.452-5.014 43.025 43.025 0 0 0-3.48-.19c-.163-.002-.314-.004-.457-.004z" fill="#9C9C9C"/>
        <path d="M51.27 11.655c-.141 0-.292 0-.45.002-.75.01-1.953.049-3.48.19a37.902 37.902 0 0 1-.452 5.014 43.117 43.117 0 0 1 3.782 1.633c2.504-3.105 2.886-5.164 2.942-5.724.019-.192-.087-.484-.17-.6a1.1 1.1 0 0 0-.837-.49c-.007 0-.502-.025-1.335-.025z" fill="#9C9C9C"/>
        <path d="M46.676 18.009c-.513 2.533-1.311 4.745-2.38 6.58-1.113 1.92-2.504 3.378-4.142 4.34 11.886-.633 15.24-4.393 15.59-4.828l.003-.003a1.063 1.063 0 0 0-.245-1.43s-.141-.09-.39-.256l-.003-.003-.002-.002c-.188-.139-.462-.314-.805-.537-.092-.058-.186-.12-.287-.185a42.975 42.975 0 0 0-3.898-2.177 35.339 35.339 0 0 0-3.441-1.5z" fill="#9C9C9C"/>
        <path d="M11.29 18.009c-4.01 1.492-7.236 3.57-8.448 4.4-.242.17-.379.26-.384.264a1.061 1.061 0 0 0-.237 1.423c.01.012.016.023.02.03l.079.09c.014.017.03.038.047.056.082.088.27.282.57.528.5.42 1.4 1.055 2.847 1.696 2.991 1.332 7.14 2.175 12.032 2.445-1.62-.96-3.043-2.45-4.143-4.352-1.07-1.835-1.87-4.049-2.384-6.58z" fill="#9C9C9C"/>
        <path d="M45.186 29.785c-.61 0-1.509.123-2.871.308l-.636.085c-.598.084-1.323.12-2.288.12-.59 0-1.202-.013-1.852-.027l-.056-.002c-.617-.014-1.316-.03-2.015-.03-1.457 0-3.34.058-5 .513-.081.023-.143.114-.133.17.007.052.11.07.197.07l.078-.001a21.764 21.764 0 0 1 1.895-.086c2.165 0 3.643.368 5.074.722 1.346.333 2.615.65 4.383.65 1.882 0 3.372-.393 3.987-1.055.204-.222.299-.463.275-.72-.052-.495-.212-.717-1.038-.717z" fill="#9C9C9C"/>
        <path d="M12.774 29.785c-.819 0-.979.222-1.028.717-.026.255.063.496.266.715.602.653 2.132 1.06 3.996 1.06 1.765 0 3.036-.315 4.383-.65 1.43-.354 2.909-.722 5.074-.722.6 0 1.238.028 1.895.086a.932.932 0 0 0 .077.002c.087 0 .189-.019.198-.072.007-.058-.052-.146-.139-.169-1.657-.453-3.54-.513-4.996-.513-.7 0-1.399.016-2.015.03l-.06.002c-.646.014-1.258.028-1.849.028-.965 0-1.692-.04-2.288-.12l-.65-.088c-1.36-.186-2.256-.306-2.864-.306z" fill="#9C9C9C"/>
    </g>
    <defs>
        <clipPath id="a">
            <path fill="#fff" d="M0 0h58v58H0z"/>
        </clipPath>
    </defs>
</svg>
