<svg width="144" height="58" viewBox="0 0 144 58" fill="none" xmlns="http://www.w3.org/2000/svg">
    <g clip-path="url(#a)" fill="#000">
        <path d="M15.805 29.958l5.542-8.074H10.468l-3.284-2.19c1.71-1.026 3.763-1.641 5.816-1.641 6.021 0 10.947 4.926 10.947 10.947 0 1.984-.547 3.832-1.436 5.474l-6.706-4.516zM6.911 17.505c-1.164.616-2.19 1.369-3.08 2.327l6.09 4.105h7.526l-4.515 6.568 7.594 5.132.753.479 1.71 1.163c.822-.958 1.437-2.053 1.916-3.216.684-1.574 1.027-3.284 1.027-5.063s-.342-3.49-1.027-5.063c-.684-1.574-1.573-2.942-2.805-4.105-1.163-1.164-2.6-2.122-4.105-2.806C16.489 16.342 14.779 16 13 16c-2.121 0-4.242.547-6.09 1.505z"/>
        <path d="M2.053 29c0-1.916.479-3.763 1.436-5.405l6.774 4.584-5.474 8.005h10.674l3.284 2.121A10.853 10.853 0 0 1 13 39.947C6.979 39.947 2.053 35.021 2.053 29zm.273-7.39C.821 23.8 0 26.333 0 29c0 1.779.342 3.49 1.026 5.063.685 1.574 1.574 2.942 2.806 4.105 1.163 1.164 2.6 2.122 4.105 2.806C9.51 41.658 11.22 42 13 42s3.49-.342 5.063-1.026c1.505-.616 2.874-1.574 4.105-2.737l-6.09-4.105H8.69l4.38-6.5-8.416-5.68-1.71-1.162-.617.82z"/>
        <path d="M30.174 35.09l12.384-12.795H30.516v-1.848h14.779v2.395L32.979 35.5h12.658v2.053H30.174v-2.464z"/>
        <path d="M52.821 20.447h-2.395v17.106h2.395V20.447z"/>
        <path d="M59.731 20.447h5.885c.547 0 1.71 0 2.737.069 2.12.068 3.284.479 4.242 1.437.82.82 1.231 1.915 1.231 3.147 0 1.847-.89 3.42-2.258 4.174-1.094.547-2.12.752-4.31.752h-5.132v7.595h-2.395V20.447zm5.816 7.595c3.284 0 3.558-.068 4.242-.342 1.027-.41 1.574-1.3 1.574-2.532 0-1.231-.616-2.052-1.916-2.463-.752-.273-1.505-.273-3.831-.273H61.92v5.61h3.626z"/>
        <path d="M79.984 20.447h3.969l6.842 14.506 6.979-14.506h3.9v17.106h-2.258V21.884l-7.458 15.669h-2.395l-7.526-15.669v15.669h-2.053V20.447z"/>
        <path d="M108.789 20.447h12.521v1.916h-10.194v5.474h9.442v1.984h-9.442v5.816h10.537v1.916h-12.864V20.447z"/>
        <path d="M133.216 28.59l-7.664-8.143h2.943l6.089 6.637 5.953-6.637h3.215l-7.663 8.28 8.348 8.826h-2.942l-6.706-7.39-6.5 7.39h-3.284l8.211-8.964z"/>
    </g>
    <defs>
        <clipPath id="a">
            <path fill="#fff" d="M0 0h144v58H0z"/>
        </clipPath>
    </defs>
</svg>
