<svg width="236" height="58" viewBox="0 0 236 58" fill="none" xmlns="http://www.w3.org/2000/svg">
    <g clip-path="url(#a)" fill-rule="evenodd" clip-rule="evenodd">
        <path d="M9.068 15.902H13.8c0-2.891-2.103-5.782-6.834-5.782-4.732 0-7.098 3.417-7.098 7.491 0 4.337 2.76 7.36 7.36 7.36 4.469 0 6.572-2.76 6.572-5.783H9.068c-.131.92-.657 1.972-1.971 1.972s-2.366-1.052-2.366-3.68c0-2.629 1.183-3.418 2.366-3.418 1.314-.13 1.84.92 1.971 1.84z" fill="#000"/>
        <path d="M26.286 24.577v-9.989h4.074v.789c.657-.789 1.708-1.315 3.154-1.315 1.314 0 2.76.658 3.286 1.578.526-.789 1.84-1.446 3.286-1.446 1.708 0 2.76.788 3.285 1.577.526-.789 1.84-1.577 3.155-1.577 1.708 0 2.628.657 3.417 1.577.92-1.314 2.365-1.577 3.154-1.577 3.023 0 3.811 1.971 3.811 4.206v6.308h-4.337v-5.52c0-.92-.263-1.314-1.051-1.314-.657 0-1.183.657-1.183 1.446v5.52h-4.469v-5.52c0-.92-.262-1.315-.92-1.315-.657 0-1.182.658-1.182 1.446v5.52h-4.338v-5.52c0-.92-.262-1.314-1.051-1.314-.657 0-1.051.657-1.051 1.445v5.52h-4.469v-5.52c0-.92-.263-1.314-1.051-1.314-.658 0-1.183.657-1.183 1.446v5.52h-4.337v-.657z" fill="#000"/>
        <path d="M80.434 17.48v7.097h-4.337v-5.52c0-.92-.394-1.314-1.051-1.314-.658 0-1.183.657-1.183 1.445v5.52h-4.337V14.72H73.6v.788c.657-.788 2.103-1.314 3.154-1.314 1.314-.132 3.68.657 3.68 3.286z" fill="#000"/>
        <path d="M90.423 24.708c-.132-.657-.526-1.577-.789-2.76-.263-.788-.394-1.577-.394-1.971 0 .394-.132 1.051-.394 1.971-.263.92-.526 1.972-.789 2.629h-4.6l-3.023-9.989h4.731c.132.658.395 1.578.658 2.498.131.788.263 1.445.263 1.84 0-.395.131-1.052.394-1.84.263-.92.526-1.84.788-2.498h3.943c.132.658.395 1.446.657 2.498.132.788.395 1.445.395 1.84 0-.395.131-1.052.394-1.84.263-.92.526-1.84.657-2.498h4.6l-3.023 9.989-4.468.131z" fill="#000"/>
        <path d="M121.571 10.383h4.337v14.194h-4.337V10.383z" fill="#000"/>
        <path d="M133.926 21.423v2.891c-.132.132-1.052.526-2.498.526-2.891 0-3.68-1.446-3.68-4.074v-3.549h-1.314v-2.76h1.314v-3.943h4.338v3.943h1.708v2.76h-1.708v2.76c0 .789.262 1.051.525 1.446.395.263 1.052.131 1.315 0z" fill="#000"/>
        <path d="M145.886 17.085v7.492h-4.338v-5.52c0-.92-.394-1.314-1.051-1.314-.657 0-1.183.657-1.183 1.445v5.52h-4.468V10.646h4.205v4.994c.526-.789 2.103-1.446 3.155-1.446 2.102-.263 3.68 1.183 3.68 2.891z" fill="#000"/>
        <path d="M182.423 18.662l-1.972 1.709v4.206h-.788V10.25h.788v9.2l5.52-5.257h1.052l-3.943 3.811 4.337 6.572h-.92l-4.074-5.915z" fill="#000"/>
        <path d="M175.063 14.982c-1.709 0-3.155 1.315-3.155 3.023v6.572h-.92V14.325h.92v1.709c.395-.657 1.446-1.971 3.286-1.971 2.76 0 3.549 1.97 3.549 3.68v6.834h-.92v-6.44c0-2.629-1.315-3.155-2.76-3.155z" fill="#000"/>
        <path d="M156.268 10.514c2.498 0 4.206 1.446 4.075 3.417 0 1.709-1.052 2.76-1.972 3.155.789.262 2.76 1.051 2.76 3.548 0 2.892-2.234 3.943-4.337 3.943h-6.046V10.514h5.52zm-.262 6.309c1.314 0 3.417-.395 3.285-2.76 0-2.235-1.708-2.76-3.023-2.629h-4.731v5.389h4.469zm-4.469 6.834h4.994c2.366 0 3.417-1.183 3.417-3.023 0-1.708-1.445-3.023-3.154-3.023h-5.257v6.046z" fill="#000"/>
        <path d="M170.594 23.92v.525c-.263.132-.657.132-.92.132s-1.183-.132-1.183-1.84c-.92 1.314-2.234 1.971-3.811 1.971s-3.154-.788-3.154-3.023c0-2.102 1.708-2.628 2.497-2.76.657-.131 2.497-.394 2.891-.394.394-.131 1.577-.131 1.577-1.183v-.92c0-.788-.525-1.84-2.891-1.84-2.497 0-3.023 2.103-3.023 2.366h-.657c0-1.183.92-3.023 3.548-3.023 3.812 0 3.943 1.972 3.943 3.286v5.914c0 .657.395 1.052 1.183.789zm-2.103-3.155v-1.708l-3.548.526c-.92.131-2.497.525-2.497 2.365 0 1.84 1.314 2.103 2.497 2.103 1.84 0 3.548-1.183 3.548-3.286z" fill="#000"/>
        <path d="M19.846 13.931c4.205 0 6.045 2.629 6.045 5.52 0 3.812-3.023 5.52-5.914 5.52-3.68 0-5.783-2.366-5.783-5.257 0-2.891 1.577-5.783 5.652-5.783zm.131 8.149c1.183 0 1.314-1.577 1.314-2.629 0-.92-.131-2.497-1.314-2.497s-1.314 1.577-1.314 2.497c0 1.052.131 2.629 1.314 2.629z" fill="#000"/>
        <path d="M62.954 13.931c4.206 0 6.046 2.629 6.046 5.52 0 3.812-3.023 5.52-5.914 5.52-3.68 0-5.783-2.366-5.783-5.257 0-2.891 1.577-5.783 5.651-5.783zm.132 8.149c1.182 0 1.314-1.577 1.314-2.629 0-.92-.132-2.497-1.314-2.497-1.183 0-1.315 1.577-1.315 2.497 0 1.052.132 2.629 1.315 2.629z" fill="#000"/>
        <path d="M101.988 20.503c0 .788.526 1.445 1.315 1.445.525 0 1.051-.131 1.314-.525h4.206c-.92 2.365-3.286 3.417-5.652 3.417-3.68 0-5.783-2.366-5.783-5.257 0-2.76 1.578-5.783 5.652-5.783 4.206 0 6.046 2.628 6.046 5.52v1.051h-7.098v.132zm2.498-2.497c-.132-.658-.526-1.183-1.183-1.183-.789 0-1.183.525-1.183 1.183h2.366z" fill="#000"/>
        <path d="M116.708 24.577l-.262-.657c-.658.657-2.366 1.183-3.155 1.183-.657 0-3.943-.263-3.943-3.286 0-3.417 4.469-3.549 5.389-3.68.789-.131 1.446-.394 1.446-.92 0-.394-.263-.789-.92-.789-.789 0-1.183.657-1.183 1.315h-4.074c0-2.497 2.102-3.943 5.125-3.943 4.995 0 5.52 1.708 5.52 4.468v3.286c0 .789 0 1.709.132 2.366l.263.788h-4.338v-.131zm-2.365-3.68c-.526.263-.526.526-.263.92s.92.394 1.577 0c.526-.394.394-1.183.394-1.577-.657.263-1.183.394-1.708.657z" fill="#000"/>
        <path d="M216.451 47.245l-19.32-19.188 19.32-19.452 14.458 14.458-6.046 6.045-8.412 18.137z" fill="#9C9C9C" stroke="#9C9C9C" stroke-width=".09" stroke-miterlimit="2.613"/>
        <path d="M216.451 47.245l8.412-18.137 6.045-6.046 4.732 4.995-19.189 19.188z" fill="#000"/>
        <path d="M10.514 40.611c0-3.811-1.971-5.388-4.731-5.388-2.629 0-4.732 1.577-4.732 5.388C1.051 44.028 2.628 46 5.783 46c3.285 0 4.731-1.972 4.731-5.389zm-4.6 4.6c-2.103 0-3.417-1.445-3.417-4.6 0-3.285 1.577-4.468 3.417-4.468 1.84 0 3.417 1.182 3.417 4.468 0 2.892-1.314 4.6-3.417 4.6z" fill="#000"/>
        <path d="M16.034 31.937c-.263-.132-.394-.132-.657-.263-.263 0-.657-.131-1.051-.131-.789 0-1.315.262-1.709.525-.526.526-.789 1.446-.789 2.629v.657h-1.051v.788h1.051v9.463h1.183v-9.462h2.103v-.658h-2.103v-.657c0-1.051.132-1.708.526-2.103.263-.131.526-.263.92-.263.263 0 .657 0 .789.132.131 0 .394.131.525.263l.263-.92z" fill="#000"/>
        <path d="M28.783 41.268l1.445 4.469h1.446l-5.126-14.063h-1.577l-5.125 14.063h1.445l1.577-4.469h5.915zm-.263-.92h-5.126l1.314-3.943c.395-1.183.789-2.497 1.183-3.811.395 1.445.789 2.628 1.183 3.943l1.446 3.811z" fill="#000"/>
        <path d="M32.857 35.485v7.229c0 1.183.131 1.971.657 2.497.394.526 1.314.789 2.234.789.658 0 1.446-.132 2.103-.526.526-.263 1.052-.657 1.709-1.183v1.446h1.314V35.485H39.56v7.755c-.526.525-1.183 1.051-1.709 1.314a4.047 4.047 0 0 1-1.708.394c-.789 0-1.315-.263-1.577-.526-.395-.394-.395-1.182-.395-1.971v-6.966h-1.314z" fill="#000"/>
        <path d="M49.811 37.063a2.58 2.58 0 0 0-1.183-1.183c-.657-.263-1.445-.526-2.365-.526-1.183 0-2.103.131-2.76.657-.657.394-1.052 1.052-1.052 1.84 0 .657.132 1.183.657 1.577.526.526 1.183.789 2.76 1.183 1.446.263 2.103.526 2.629 1.052.263.394.526.788.526 1.314 0 .657-.263 1.183-.658 1.577-.525.394-1.314.657-2.102.657-1.315 0-2.366-.526-2.892-1.314l-1.183.131c.395.526.92 1.052 1.578 1.315.657.262 1.577.394 2.497.394 1.314 0 2.234-.263 2.891-.92.657-.526 1.052-1.183 1.052-2.103 0-.789-.263-1.314-.658-1.709-.525-.525-1.182-.92-2.891-1.314-1.577-.394-2.103-.657-2.497-1.051-.263-.263-.526-.657-.526-1.052 0-.525.263-.92.657-1.182.395-.263 1.183-.395 1.972-.395 1.314 0 2.103.526 2.497 1.183l1.051-.131z" fill="#000"/>
        <path d="M51.783 35.485H50.6v.789h1.183v6.44c0 2.366 1.051 3.154 2.497 3.154.657 0 1.314-.263 1.708-.394l-.262-.789c-.263.132-.658.395-1.183.395-.789 0-1.446-.789-1.446-2.76v-6.046h2.366v-.789h-2.366v-2.234h-1.183l-.131 2.234z" fill="#000"/>
        <path d="M57.828 36.668v-1.182h-1.182v10.251h1.182v-7.886c.395-.394.789-.92 1.183-1.183.395-.262.789-.394 1.052-.394s.394 0 .657.132c.131 0 .263.131.394.262l.132-1.051c-.132-.131-.263-.131-.526-.263-.132-.131-.394-.131-.657-.131-.526 0-.92.131-1.315.263-.262.394-.525.657-.92 1.182z" fill="#000"/>
        <path d="M70.314 45.737c-.263-.394-.394-.657-.394-1.577v-5.126c0-2.76-1.183-3.68-3.68-3.68s-3.549 1.314-3.812 2.76l1.315.131c.131-1.051.92-2.102 2.497-2.102 1.84 0 2.366.92 2.366 2.76v.394c-4.863.526-6.572 1.84-6.572 4.074 0 1.709.92 2.892 3.549 2.892 1.051 0 2.365-.395 3.154-1.183 0 .394 0 .657.263.92h1.314v-.263zm-1.708-1.84c-.92 1.051-2.235 1.314-2.892 1.314-1.84 0-2.366-.92-2.366-2.103 0-1.84 1.578-2.76 5.389-3.285v4.074h-.131z" fill="#000"/>
        <path d="M73.206 45.737V31.806h-1.183v13.931h1.183z" fill="#000"/>
        <path d="M76.228 33.382v-1.708h-1.314v1.708h1.314zm0 2.103h-1.314v10.252h1.314V35.485z" fill="#000"/>
        <path d="M85.954 45.737c-.394-.394-.394-.657-.394-1.577v-5.126c0-2.76-1.052-3.68-3.549-3.68s-3.548 1.314-3.811 2.76l1.183.131c.131-1.051.92-2.102 2.497-2.102 1.708 0 2.366.92 2.366 2.76v.394c-4.732.526-6.572 1.84-6.572 4.074 0 1.709.92 2.892 3.549 2.892 1.051 0 2.365-.395 3.154-1.183 0 .394 0 .657.263.92h1.314v-.263zm-1.708-1.84c-.789 1.051-2.103 1.314-2.892 1.314-1.84 0-2.497-.92-2.497-2.103 0-1.84 1.709-2.76 5.389-3.285v4.074z" fill="#000"/>
    </g>
    <defs>
        <clipPath id="a">
            <path fill="#fff" d="M0 0h236v58H0z"/>
        </clipPath>
    </defs>
</svg>
