<svg width="58" height="58" viewBox="0 0 58 58" fill="none" xmlns="http://www.w3.org/2000/svg">
    <path d="M39.7 45.914c-1.272 0-2.472-.157-3.6-.443-1.872 2.572-4.272 4.786-7.057 6.3 2.457 1.343 5.228 2.143 8.171 2.143 11.3 0 18.986-11.757 19.9-21.743-.343 1.315-2.671 13.743-17.414 13.743z" fill="#000"/>
    <path d="M34.457 17.843c5.614.571 12.5 4.528 12.5 12.728 0 7.957-5.214 11.586-9.486 12.786a25.446 25.446 0 0 1-1.371 2.114c1.129.286 2.329.443 3.6.443 14.729 0 17.057-12.428 17.414-13.757.057-.671.086-1.328.086-1.986 0-11.2-8.557-15.5-14.7-15.5-5.414.015-8.043 3.172-8.043 3.172z" fill="#000"/>
    <path d="M.886 30.186c0 .657.028 1.314.085 1.986.358 1.328 2.643 13.757 17.415 13.757 3.128 0 5.857-.957 8.043-2.486-.758.229-1.672.414-2.6.414-4.158 0-12.715-3.071-12.715-13.271 0-8.2 6.886-12.157 12.5-12.729 0 0-2.614-3.157-8.057-3.157C9.443 14.686.886 18.972.886 30.186z" fill="#000"/>
    <path d="M18.186 30.814s0 .014 0 0c-.043.2-.072.4-.1.586-.1.8-.157 1.671-.157 2.643 0 3.828 1.628 7.271 2.914 9.371 1.114.286 2.143.414 2.986.414.928 0 1.842-.185 2.6-.414 1-.7 1.9-1.529 2.657-2.443-.515-.657-2.929-3.914-2.929-8.271 0-4.086 2.186-5.829 2.914-6.286-1.5-1.114-3.2-1.443-4.157-1.443-1.543 0-5.728 1.072-6.728 5.843z" fill="#000"/>
    <path d="M18.186 30.814c.985-4.786 5.171-5.843 6.728-5.843.957 0 2.657.329 4.157 1.443 1.629 1.214 3.043 3.271 3.043 6.572 0 2.8-1.085 5.671-3.028 8-2.415 2.9-6.143 4.928-10.7 4.928C3.614 45.914 1.329 33.486.97 32.157c.915 9.986 8.6 21.743 19.9 21.743 11.029 0 19.472-11.143 19.472-20.472 0-6.471-3.672-12.242-11.214-12.242-6.829 0-10.072 5.014-10.943 9.628z" fill="#000"/>
    <path d="M31.157 4.457C27.6 6.357 26.7 9.8 26.814 12.043c.172 3.086 2.514 5.343 2.514 5.343s.443-3.686 4.63-6.157c5.7-3.372 11.9-.558 11.9-.558.642-3.2-3.415-7.714-9.058-7.714-1.743 0-3.671.443-5.643 1.5z" fill="#000"/>
</svg>
