<svg width="61" height="60" viewBox="0 0 61 60" fill="none" xmlns="http://www.w3.org/2000/svg">
    <path d="M29.929 23.52a6.32 6.32 0 0 1 6.35 6.334 6.32 6.32 0 0 1-6.35 6.333 6.32 6.32 0 0 1-6.349-6.333c0-3.369 2.826-6.334 6.349-6.334zm-7.01 19.806L12.13 54.09s-7.817-4.723-3.229-9.3l7.707-7.688c3.854-3.88 10.203 2.344 6.312 6.224zm14.02-26.652L47.729 5.91s7.817 4.723 3.23 9.3c-2.423 2.416-5.543 5.381-7.708 7.688-3.853 3.734-10.203-2.343-6.312-6.224zM16.57 23.007L5.78 12.244s4.735-7.798 9.322-3.222l7.707 7.688c3.744 3.845-2.349 10.068-6.239 6.297zm26.718 13.986l10.79 10.763s-4.735 7.798-9.322 3.222l-7.707-7.688c-3.89-3.844 2.349-10.178 6.239-6.297zm1.1-11.423h15.268s2.165 8.75-4.33 8.75h-10.79c-5.542.11-5.689-8.75-.147-8.75zM15.47 34.43H.35s-2.165-8.75 4.33-8.75h10.79c5.395-.11 5.542 8.75 0 8.75zm18.9 9.995v15.23s-8.77 2.16-8.77-4.32V44.57c-.147-5.528 8.77-5.675 8.77-.146zm-8.917-28.85V.345s8.77-2.16 8.77 4.32V15.43c.148 5.528-8.77 5.675-8.77.146z" fill="#F05A22"/>
</svg>
