<svg width="60" height="60" viewBox="0 0 60 60" fill="none" xmlns="http://www.w3.org/2000/svg">
    <g clip-path="url(#a)">
        <path d="M-3.232 29.935c0 5.012 4.9 9.692 12.625 12.33-1.543 7.757-.276 14.01 3.953 16.446 4.347 2.504 10.823.77 16.97-4.597 5.99 5.15 12.046 7.178 16.271 4.735 4.343-2.512 5.664-9.188 4.079-17.188 8.046-2.658 12.547-6.648 12.547-11.726 0-4.896-4.91-9.132-12.53-11.753 1.706-8.33.26-14.431-4.144-16.968C42.293-1.232 36.167.9 30.088 6.184c-6.325-5.609-12.39-7.321-16.79-4.777-4.242 2.453-5.453 8.82-3.905 16.72-7.464 2.6-12.625 6.931-12.625 11.808z" fill="#fff"/>
        <path d="M49.069 20.785a39.664 39.664 0 0 0-1.9-.598c.106-.43.204-.861.294-1.295 1.438-6.972.498-12.59-2.713-14.438-3.078-1.774-8.113.075-13.197 4.495-.501.437-.991.886-1.47 1.347a35.96 35.96 0 0 0-.977-.902c-5.329-4.726-10.67-6.718-13.877-4.863-3.076 1.778-3.987 7.059-2.692 13.667.129.654.274 1.305.436 1.952-.756.215-1.486.443-2.184.686C4.542 23.012.552 26.422.552 29.96c0 3.653 4.283 7.317 10.79 9.539.528.179 1.06.345 1.596.498a38.48 38.48 0 0 0-.464 2.104c-1.234 6.493-.27 11.649 2.797 13.416 3.168 1.825 8.485-.05 13.663-4.571.409-.358.82-.737 1.231-1.134.518.5 1.05.984 1.595 1.454 5.015 4.31 9.968 6.051 13.033 4.28 3.165-1.83 4.193-7.37 2.858-14.108a33.4 33.4 0 0 0-.354-1.576c.373-.11.74-.223 1.097-.342 6.765-2.239 11.166-5.858 11.166-9.56 0-3.55-4.118-6.983-10.491-9.174z" fill="#53C1DE"/>
        <path d="M47.602 37.129c-.323.107-.654.21-.991.31-.747-2.362-1.755-4.873-2.988-7.468 1.177-2.533 2.146-5.012 2.872-7.358.603.175 1.19.358 1.754.553 5.46 1.877 8.791 4.654 8.791 6.793 0 2.278-3.597 5.237-9.438 7.17zm-2.424 4.797c.59 2.98.675 5.674.284 7.78-.352 1.892-1.058 3.154-1.932 3.659-1.86 1.075-5.837-.322-10.125-4.009a36.138 36.138 0 0 1-1.484-1.351c1.663-1.817 3.324-3.929 4.946-6.274 2.853-.253 5.548-.666 7.992-1.23.12.485.227.96.32 1.425zM20.67 53.18c-1.816.641-3.263.66-4.138.156-1.861-1.072-2.635-5.212-1.58-10.765.126-.656.27-1.309.431-1.957 2.417.534 5.093.918 7.952 1.15 1.633 2.295 3.342 4.404 5.065 6.251-.366.354-.74.699-1.124 1.034-2.29 2-4.583 3.418-6.605 4.131zm-8.511-16.064c-2.878-.983-5.254-2.26-6.883-3.652-1.463-1.252-2.202-2.495-2.202-3.504 0-2.146 3.203-4.884 8.546-6.745.67-.232 1.348-.445 2.031-.638.739 2.399 1.707 4.907 2.876 7.444-1.184 2.575-2.166 5.123-2.912 7.55-.489-.14-.975-.291-1.456-.455zm2.853-19.4c-1.109-5.662-.373-9.933 1.48-11.005 1.975-1.141 6.34.486 10.941 4.567.294.261.59.534.885.817-1.714 1.838-3.408 3.932-5.026 6.214-2.775.256-5.432.67-7.874 1.222a36.946 36.946 0 0 1-.406-1.816zm25.454 6.277a80.215 80.215 0 0 0-1.795-2.947c1.883.237 3.687.553 5.38.939a53.677 53.677 0 0 1-1.888 5.076 87.765 87.765 0 0 0-1.697-3.068zm-10.38-10.099a53.868 53.868 0 0 1 3.472 4.188 74.28 74.28 0 0 0-6.974-.002 55.538 55.538 0 0 1 3.502-4.186zM19.638 24.01a74.47 74.47 0 0 0-1.666 3.048 55.53 55.53 0 0 1-1.875-5.1 56.947 56.947 0 0 1 5.35-.918 74.057 74.057 0 0 0-1.809 2.97zm1.863 15.047a53.734 53.734 0 0 1-5.438-.873 56.415 56.415 0 0 1 1.912-5.204 73.96 73.96 0 0 0 3.526 6.077zm8.653 7.145a56.61 56.61 0 0 1-3.55-4.244c1.13.044 2.282.067 3.452.067a79.98 79.98 0 0 0 3.562-.08 53.535 53.535 0 0 1-3.464 4.257zM42.186 32.89a53.491 53.491 0 0 1 1.982 5.185 53.55 53.55 0 0 1-5.505.937 88.07 88.07 0 0 0 1.812-3 80.137 80.137 0 0 0 1.711-3.122zm-3.895 1.865a82.555 82.555 0 0 1-2.83 4.563c-1.752.124-3.56.189-5.405.189-1.836 0-3.622-.057-5.342-.169a71.383 71.383 0 0 1-5.401-9.319 71.407 71.407 0 0 1 2.51-4.752 70.784 70.784 0 0 1 2.86-4.55 71.511 71.511 0 0 1 10.757.002c1 1.478 1.949 2.99 2.843 4.535a82.508 82.508 0 0 1 2.544 4.73 75.848 75.848 0 0 1-2.536 4.77zm5.2-28.12c1.976 1.139 2.745 5.73 1.503 11.75-.081.391-.17.782-.265 1.171-2.448-.564-5.107-.984-7.89-1.245-1.621-2.306-3.301-4.403-4.988-6.219.442-.425.894-.84 1.357-1.243 4.357-3.787 8.428-5.283 10.283-4.214z" fill="#fff"/>
        <path d="M30.056 24.695c2.91 0 5.27 2.357 5.27 5.264a5.266 5.266 0 0 1-5.27 5.264 5.267 5.267 0 0 1-5.27-5.264 5.267 5.267 0 0 1 5.27-5.264z" fill="#53C1DE"/>
    </g>
    <defs>
        <clipPath id="a">
            <path fill="#fff" d="M0 0h60v60H0z"/>
        </clipPath>
    </defs>
</svg>
