<svg width="61" height="60" viewBox="0 0 61 60" fill="none" xmlns="http://www.w3.org/2000/svg">
    <path d="M4.264 29.999c0 10.187 5.92 18.99 14.505 23.162L6.493 19.525A25.638 25.638 0 0 0 4.264 30zm43.11-1.299c0-3.18-1.143-5.383-2.123-7.097-1.304-2.12-2.527-3.916-2.527-6.035 0-2.366 1.794-4.568 4.321-4.568.114 0 .223.014.334.02A25.643 25.643 0 0 0 30 4.264c-8.99 0-16.901 4.613-21.502 11.6.603.018 1.172.03 1.656.03 2.692 0 6.858-.326 6.858-.326 1.388-.082 1.551 1.956.166 2.12 0 0-1.395.164-2.946.245l9.371 27.877 5.632-16.891-4.01-10.986a46.97 46.97 0 0 1-2.699-.245c-1.386-.082-1.224-2.202.163-2.12 0 0 4.25.326 6.78.326 2.69 0 6.858-.326 6.858-.326 1.389-.082 1.552 1.955.165 2.12 0 0-1.397.164-2.946.245l9.3 27.665 2.568-8.578c1.113-3.56 1.96-6.117 1.96-8.32z" fill="#464342"/>
    <path d="M30.452 32.25l-7.723 22.437a25.721 25.721 0 0 0 15.817-.41 2.253 2.253 0 0 1-.183-.354L30.452 32.25zm22.13-14.598c.111.82.173 1.7.173 2.646 0 2.612-.487 5.547-1.956 9.218l-7.861 22.729c7.65-4.462 12.797-12.751 12.797-22.246a25.597 25.597 0 0 0-3.153-12.347z" fill="#464342"/>
    <path d="M30 0C13.458 0 0 13.457 0 29.999 0 46.543 13.458 60 30 60c16.541 0 30.002-13.457 30.002-30.001C60.001 13.457 46.542 0 30 0zm0 58.624C14.217 58.624 1.376 45.783 1.376 30 1.376 14.217 14.216 1.376 30 1.376c15.782 0 28.623 12.84 28.623 28.623 0 15.784-12.84 28.625-28.623 28.625z" fill="#464342"/>
</svg>
