<svg width="31" height="30" viewBox="0 0 31 30" fill="none" xmlns="http://www.w3.org/2000/svg">
    <g opacity=".5">
        <mask id="a" fill="#fff">
            <path fill-rule="evenodd" clip-rule="evenodd" d="M15 21.964A6.964 6.964 0 0 0 21.964 15H30c0 8.284-6.716 15-15 15-8.284 0-15-6.716-15-15C0 6.716 6.716 0 15 0v8.036a6.964 6.964 0 1 0 0 13.928zm6.698-13.66V0h8.304v8.304h-8.304z"/>
        </mask>
        <path d="M21.964 15v-1h-1v1h1zM30 15h1v-1h-1v1zM15 0h1v-1h-1v1zm0 8.036v1h1v-1h-1zM21.698 0v-1h-1v1h1zm0 8.304h-1v1h1v-1zM30.002 0h1v-1h-1v1zm0 8.304v1h1v-1h-1zM20.964 15A5.964 5.964 0 0 1 15 20.964v2A7.964 7.964 0 0 0 22.964 15h-2zM30 14h-8.036v2H30v-2zM15 31c8.837 0 16-7.163 16-16h-2c0 7.732-6.268 14-14 14v2zM-1 15c0 8.837 7.163 16 16 16v-2C7.268 29 1 22.732 1 15h-2zM15-1C6.163-1-1 6.163-1 15h2C1 7.268 7.268 1 15 1v-2zm1 9.036V0h-2v8.036h2zM9.036 15A5.964 5.964 0 0 1 15 9.036v-2A7.964 7.964 0 0 0 7.036 15h2zM15 20.964A5.964 5.964 0 0 1 9.036 15h-2A7.964 7.964 0 0 0 15 22.964v-2zM20.698 0v8.304h2V0h-2zm9.304-1h-8.304v2h8.304v-2zm1 9.304V0h-2v8.304h2zm-9.304 1h8.304v-2h-8.304v2z" fill="#000" mask="url(#a)"/>
    </g>
</svg>
