<?xml version="1.0" encoding="UTF-8"?><!DOCTYPE svg PUBLIC "-//W3C//DTD SVG 1.1//EN" "http://www.w3.org/Graphics/SVG/1.1/DTD/svg11.dtd"><svg xmlns="http://www.w3.org/2000/svg"><symbol id="icon-arr" viewBox="0 0 11 7">
    <title>
        arr
    </title>
    <path d="M.63 1.36l.728-.746L5.5 4.768 9.645.614l.755.746-4.899 4.88z" fill-rule="nonzero"/>
</symbol><symbol id="icon-github" viewBox="0 0 20 20">
    <path d="M6.69 16.104c0 .083-.093.149-.21.149-.133.012-.226-.054-.226-.149 0-.083.093-.149.21-.149.12-.012.226.054.226.149zm-1.255-.186c-.028.083.053.178.174.203.105.04.226 0 .25-.083.024-.083-.053-.178-.174-.215-.104-.03-.221.012-.25.095zm1.783-.07c-.117.028-.198.107-.186.202.012.083.117.137.238.108.117-.03.198-.108.186-.19-.012-.08-.121-.133-.238-.12zM9.87 0C4.278 0 0 4.355 0 10.09c0 4.587 2.815 8.512 6.835 9.893.516.095.697-.231.697-.5 0-.257-.012-1.671-.012-2.54 0 0-2.822.62-3.415-1.232 0 0-.46-1.203-1.121-1.514 0 0-.924-.649.064-.636 0 0 1.004.082 1.557 1.067.883 1.596 2.363 1.137 2.94.864.092-.662.354-1.12.645-1.394-2.255-.256-4.529-.591-4.529-4.57 0-1.137.307-1.708.952-2.435-.105-.27-.448-1.378.105-2.809C5.56 4.016 7.5 5.401 7.5 5.401a9.252 9.252 0 0 1 2.532-.351c.86 0 1.726.12 2.533.351 0 0 1.939-1.39 2.782-1.117.552 1.436.21 2.54.105 2.809.645.732 1.04 1.302 1.04 2.435 0 3.991-2.375 4.31-4.63 4.57.372.327.686.947.686 1.92 0 1.393-.012 3.117-.012 3.456 0 .27.186.596.698.5C17.266 18.603 20 14.678 20 10.092 20 4.355 15.464 0 9.871 0zM3.919 14.264c-.052.041-.04.136.029.215.064.066.157.095.21.041.052-.041.04-.136-.029-.215-.064-.066-.157-.095-.21-.041zm-.435-.335c-.028.053.012.12.093.16.064.042.145.03.173-.028.028-.054-.012-.12-.093-.161-.08-.025-.145-.013-.173.029zM4.79 15.4c-.064.054-.04.178.053.256.092.095.21.108.262.042.052-.054.028-.178-.053-.257-.088-.095-.21-.107-.262-.041zm-.46-.608c-.064.041-.064.149 0 .244.065.095.174.136.226.095.065-.054.065-.161 0-.256-.056-.095-.16-.137-.225-.083z"/>
</symbol><symbol id="icon-linkedin" viewBox="0 0 18 20">
    <path d="M3.917 17.5H.29V5.816h3.628V17.5zM2.101 4.223C.941 4.223 0 3.262 0 2.102a2.101 2.101 0 0 1 4.202 0c0 1.16-.941 2.12-2.1 2.12zM17.496 17.5h-3.62v-5.687c0-1.356-.028-3.094-1.886-3.094-1.887 0-2.176 1.473-2.176 2.996V17.5H6.19V5.816h3.48V7.41h.05c.485-.918 1.668-1.886 3.433-1.886 3.672 0 4.347 2.417 4.347 5.558V17.5h-.004z"/>
</symbol><symbol id="icon-twitter" viewBox="0 0 20 20">
    <path d="M17.944 5.926c.013.178.013.356.013.533 0 5.42-4.125 11.663-11.663 11.663-2.322 0-4.48-.673-6.294-1.84.33.038.647.05.99.05a8.21 8.21 0 0 0 5.089-1.75 4.106 4.106 0 0 1-3.833-2.843c.254.038.508.063.774.063.368 0 .736-.05 1.079-.14A4.1 4.1 0 0 1 .812 7.64v-.051c.546.304 1.18.495 1.853.52A4.096 4.096 0 0 1 .838 4.695c0-.761.203-1.459.558-2.068a11.651 11.651 0 0 0 8.452 4.29 4.627 4.627 0 0 1-.102-.94 4.097 4.097 0 0 1 4.1-4.099c1.18 0 2.245.495 2.994 1.295a8.07 8.07 0 0 0 2.602-.99 4.088 4.088 0 0 1-1.802 2.259A8.217 8.217 0 0 0 20 3.807a8.811 8.811 0 0 1-2.056 2.12z"/>
</symbol></svg>