<svg width="86" height="86" viewBox="0 0 86 86" fill="none" xmlns="http://www.w3.org/2000/svg">
    <path d="M43 51.262c-8.132 0-14.945-5.645-16.736-13.23-.301 1.274-.46 2.603-.46 3.968 0 9.498 7.699 17.197 17.196 17.197 9.498 0 17.197-7.7 17.197-17.197 0-1.365-.16-2.694-.46-3.968-1.792 7.585-8.605 13.23-16.737 13.23z" fill="#F1F1F1"/>
    <path d="M45.938 39.814h-1.044c1.378-.685 2.306-2.094 2.245-3.706-.077-2.052-1.819-3.752-3.943-3.846-2.377-.105-4.338 1.724-4.338 3.995 0 1.55.913 2.893 2.248 3.557h-1.044c-2.42 0-4.382 1.895-4.382 4.232v6.024c0 .294.246.532.55.532h13.54a.542.542 0 0 0 .55-.532v-6.024c0-2.337-1.962-4.232-4.382-4.232z" fill="#002DDC"/>
    <path d="M37.293 12.563h11.413v3.654H37.293v-3.654z" fill="#F1F1F1"/>
    <path d="M37.293 78.94h11.413v3.654H37.293v-3.655z" fill="#F1F1F1"/>
    <path d="M8.73 30.665h11.414v3.655H8.73v-3.655z" fill="#F1F1F1"/>
    <path d="M65.856 30.665h11.413v3.655H65.856v-3.655z" fill="#F1F1F1"/>
    <path d="M8.73 60.837h11.414v3.654H8.73v-3.654z" fill="#F1F1F1"/>
    <path d="M65.856 60.837h11.413v3.654H65.856v-3.654z" fill="#F1F1F1"/>
    <path d="M62.9 30.51a.938.938 0 0 0-1.281-.342l-3.413 1.97c-3.078-4.728-8.294-7.942-14.27-8.248v-3.931a.937.937 0 1 0-1.874 0v3.93c-5.975.306-11.192 3.52-14.269 8.25l-3.413-1.971a.938.938 0 0 0-.938 1.623l3.411 1.97A18.013 18.013 0 0 0 24.865 42c0 2.965.72 5.765 1.988 8.239l-3.41 1.969a.938.938 0 0 0 .937 1.624l3.413-1.97c3.077 4.728 8.294 7.942 14.269 8.248v3.93a.937.937 0 1 0 1.875 0v-3.93c5.975-.306 11.191-3.52 14.269-8.249l3.413 1.971a.938.938 0 0 0 .938-1.624l-3.412-1.97A18.014 18.014 0 0 0 61.134 42c0-2.966-.72-5.765-1.989-8.24l3.411-1.969a.937.937 0 0 0 .344-1.28zM43 58.26c-8.965 0-16.26-7.294-16.26-16.26 0-8.965 7.295-16.26 16.26-16.26 8.965 0 16.259 7.295 16.259 16.26 0 8.965-7.294 16.26-16.26 16.26z" fill="#000"/>
    <path d="M37.293 17.154h11.414c.517 0 .937-.42.937-.937v-5.294c0-1.95-1.29-3.605-3.06-4.157A4.171 4.171 0 0 0 43 .469a4.171 4.171 0 0 0-3.584 6.297 4.361 4.361 0 0 0-3.06 4.157v5.294c-.001.518.418.937.936.937zm.938-6.23a2.482 2.482 0 0 1 2.478-2.48h.814a.938.938 0 0 0 .43-1.77 2.285 2.285 0 0 1-1.244-2.039 2.294 2.294 0 0 1 2.29-2.291 2.294 2.294 0 0 1 2.292 2.291c0 .862-.476 1.643-1.244 2.039a.938.938 0 0 0 .43 1.77h.813a2.481 2.481 0 0 1 2.48 2.48v4.355h-9.54v-4.356z" fill="#000"/>
    <path d="M18.02 24.869a4.171 4.171 0 0 0-3.583-6.297 4.17 4.17 0 0 0-3.582 6.297 4.361 4.361 0 0 0-3.06 4.157v5.294c0 .517.419.937.937.937h11.413c.518 0 .937-.42.937-.937v-5.294c0-1.95-1.29-3.605-3.061-4.157zm1.186 8.514H9.668v-4.357a2.482 2.482 0 0 1 2.48-2.479h.813a.938.938 0 0 0 .43-1.77 2.294 2.294 0 0 1 1.047-4.33 2.294 2.294 0 0 1 2.29 2.29c0 .863-.476 1.644-1.243 2.04a.938.938 0 0 0 .429 1.77h.814a2.481 2.481 0 0 1 2.478 2.48v4.355z" fill="#000"/>
    <path d="M75.146 24.869a4.17 4.17 0 0 0-3.583-6.297 4.171 4.171 0 0 0-3.583 6.297 4.362 4.362 0 0 0-3.061 4.157v5.294c0 .517.42.937.938.937H77.27c.517 0 .937-.42.937-.937v-5.294c0-1.95-1.29-3.605-3.061-4.157zm1.185 8.514h-9.538v-4.357a2.482 2.482 0 0 1 2.479-2.479h.814a.938.938 0 0 0 .43-1.77 2.285 2.285 0 0 1-1.245-2.04 2.294 2.294 0 0 1 2.291-2.29 2.294 2.294 0 0 1 1.047 4.33.938.938 0 0 0 .43 1.77h.814a2.481 2.481 0 0 1 2.478 2.48v4.355z" fill="#000"/>
    <path d="M18.02 55.04a4.171 4.171 0 0 0-3.583-6.297 4.17 4.17 0 0 0-3.582 6.297 4.361 4.361 0 0 0-3.06 4.158v5.293c0 .518.419.938.937.938h11.413c.518 0 .937-.42.937-.938v-5.293c0-1.951-1.29-3.606-3.061-4.158zm1.186 8.514H9.668v-4.356a2.482 2.482 0 0 1 2.48-2.48h.813a.937.937 0 0 0 .43-1.77 2.285 2.285 0 0 1-1.245-2.04 2.294 2.294 0 0 1 2.291-2.29 2.294 2.294 0 0 1 2.292 2.29c0 .863-.477 1.644-1.244 2.04a.937.937 0 0 0 .429 1.77h.814a2.482 2.482 0 0 1 2.478 2.48v4.356z" fill="#000"/>
    <path d="M75.146 55.04a4.17 4.17 0 0 0-3.583-6.297 4.171 4.171 0 0 0-3.583 6.297 4.362 4.362 0 0 0-3.061 4.158v5.293c0 .518.42.938.938.938H77.27c.517 0 .937-.42.937-.938v-5.293c0-1.951-1.29-3.606-3.061-4.158zm1.185 8.514h-9.538v-4.356a2.482 2.482 0 0 1 2.479-2.48h.814a.937.937 0 0 0 .43-1.77 2.285 2.285 0 0 1-1.245-2.04 2.294 2.294 0 0 1 2.291-2.29 2.294 2.294 0 0 1 2.291 2.29c0 .863-.476 1.644-1.243 2.04a.938.938 0 0 0 .429 1.77h.814a2.482 2.482 0 0 1 2.478 2.48v4.356z" fill="#000"/>
    <path d="M46.583 73.142A4.171 4.171 0 0 0 43 66.845a4.171 4.171 0 0 0-3.583 6.297 4.362 4.362 0 0 0-3.06 4.158v5.293c0 .518.419.938.937.938h11.413c.518 0 .938-.42.938-.938V77.3c0-1.95-1.29-3.605-3.062-4.158zm1.186 8.514h-9.538V77.3a2.482 2.482 0 0 1 2.478-2.478h.814a.938.938 0 0 0 .43-1.772 2.285 2.285 0 0 1-1.244-2.038 2.294 2.294 0 0 1 2.29-2.291 2.294 2.294 0 0 1 2.292 2.29c0 .863-.476 1.644-1.244 2.04a.938.938 0 0 0 .43 1.77h.813a2.481 2.481 0 0 1 2.48 2.48v4.355z" fill="#000"/>
</svg>
